<svg
  width="18"
  height="18"
  viewBox="0 0 18 18"
  fill="none"
  xmlns="http://www.w3.org/2000/svg"
>
  <path
    d="M16.5248 1.47497C17.084 2.03414 17.3981 2.79253 17.3981 3.5833C17.3981 4.37408 17.084 5.13247 16.5248 5.69164L6.55148 15.6666C6.32077 15.8975 6.03381 16.0641 5.71898 16.15L1.45564 17.3125C1.34938 17.3413 1.2374 17.3415 1.13101 17.3132C1.02463 17.2848 0.92762 17.2289 0.84981 17.151C0.772001 17.0731 0.716148 16.976 0.687905 16.8696C0.659663 16.7632 0.660032 16.6512 0.688976 16.545L1.85148 12.2816C1.93739 11.9668 2.10399 11.6798 2.33481 11.4491L12.3081 1.47497C12.8673 0.915815 13.6257 0.601685 14.4165 0.601685C15.2073 0.601685 15.9656 0.915815 16.5248 1.47497ZM11.4998 4.04997L3.21814 12.3333C3.14131 12.4102 3.08587 12.5059 3.05731 12.6108L2.18231 15.8191L5.39064 14.9441C5.49514 14.9148 5.5902 14.8588 5.66648 14.7816L13.9498 6.49997L11.4998 4.04997ZM13.1915 2.3583L12.3831 3.16664L14.8331 5.61664L15.6415 4.8083C15.961 4.4823 16.1389 4.04338 16.1366 3.58693C16.1343 3.13048 15.9519 2.69338 15.6292 2.37062C15.3064 2.04785 14.8693 1.86551 14.4129 1.8632C13.9564 1.8609 13.5175 2.03882 13.1915 2.3583Z"
    fill="#0AA351"
  />
</svg>
