<svg
  width="100"
  height="100"
  viewBox="0 0 100 100"
  fill="none"
  xmlns="http://www.w3.org/2000/svg"
>
  <g clip-path="url(#clip0)">
    <path
      d="M26.6667 63.3333C26.6667 67.9354 22.9354 71.6667 18.3333 71.6667C13.7313 71.6667 10 67.9354 10 63.3333C10 58.7313 13.7313 55 18.3333 55C22.9354 55 26.6667 58.7313 26.6667 63.3333Z"
      fill="#CEF1DE"
    />
    <path
      d="M81.6667 1.66669C72.4618 1.66669 65 9.12844 65 18.3334C65 27.5334 81.6667 50 81.6667 50C81.6667 50 98.3333 27.5334 98.3333 18.3334C98.3333 9.12844 90.8716 1.66669 81.6667 1.66669ZM81.6667 10C86.2687 10 90 13.7313 90 18.3334C90 22.9354 86.2687 26.6667 81.6667 26.6667C77.0646 26.6667 73.3333 22.9354 73.3333 18.3334C73.3333 13.7313 77.0646 10 81.6667 10Z"
      fill="#CEF1DE"
    />
    <path
      d="M18.3333 45C8.21045 45.0065 0.00651042 53.2104 0 63.3333C0 72.9834 16.2996 95.0667 17.0003 96.0002C17.3145 96.4193 17.8084 96.6667 18.3333 96.6667C18.8582 96.6667 19.3522 96.4193 19.6663 96.0002C20.367 95.0667 36.6667 72.9834 36.6667 63.3333C36.6602 53.2104 28.4562 45.0065 18.3333 45ZM18.3333 48.3333C26.6121 48.3464 33.3203 55.0545 33.3333 63.3333C33.3333 69.8169 23.5002 84.917 18.3333 92.1663C13.1665 84.917 3.33333 69.8169 3.33333 63.3333C3.34635 55.0545 10.0545 48.3464 18.3333 48.3333Z"
      fill="#0AA351"
    />
    <path
      d="M18.3333 53.3334C12.8108 53.3334 8.33325 57.8109 8.33325 63.3334C8.33325 68.8559 12.8108 73.3334 18.3333 73.3334C23.8557 73.3334 28.3333 68.8559 28.3333 63.3334C28.3333 57.8109 23.8557 53.3334 18.3333 53.3334ZM18.3333 70.0001C14.6516 70.0001 11.6666 67.015 11.6666 63.3334C11.6666 59.6517 14.6516 56.6667 18.3333 56.6667C22.0149 56.6667 24.9999 59.6517 24.9999 63.3334C24.9999 67.015 22.0149 70.0001 18.3333 70.0001Z"
      fill="#0AA351"
    />
    <path
      d="M81.6668 0C71.5439 0.00651042 63.34 8.21045 63.3335 18.3333C63.3335 27.9834 79.6331 50.0667 80.3338 51.0002C80.648 51.4193 81.1419 51.6667 81.6668 51.6667C82.1917 51.6667 82.6857 51.4193 82.9998 51.0002C83.7005 50.0667 100 27.9834 100 18.3333C99.9937 8.21045 91.7897 0.00651042 81.6668 0ZM81.6668 3.33333C89.9457 3.34635 96.6538 10.0545 96.6668 18.3333C96.6668 24.8169 86.8337 39.917 81.6668 47.1663C76.5 39.917 66.6668 24.8169 66.6668 18.3333C66.6799 10.0545 73.388 3.34635 81.6668 3.33333Z"
      fill="#0AA351"
    />
    <path
      d="M81.6665 8.33331C76.144 8.33331 71.6665 12.8109 71.6665 18.3333C71.6665 23.8558 76.144 28.3333 81.6665 28.3333C87.189 28.3333 91.6665 23.8558 91.6665 18.3333C91.6665 12.8109 87.189 8.33331 81.6665 8.33331ZM81.6665 25C77.9849 25 74.9998 22.015 74.9998 18.3333C74.9998 14.6517 77.9849 11.6666 81.6665 11.6666C85.3481 11.6666 88.3332 14.6517 88.3332 18.3333C88.3332 22.015 85.3481 25 81.6665 25Z"
      fill="#0AA351"
    />
    <path
      d="M60.49 54.6663C57.0085 57.5106 54.9928 61.77 55.0001 66.2646V78.3333C54.9879 88.4538 46.7872 96.6545 36.6667 96.6667H21.6667V100H36.6667C48.6272 99.9862 58.3196 90.2938 58.3334 78.3333V66.2646C58.3359 62.771 59.9041 59.4621 62.6067 57.2485C65.3093 55.0342 68.8624 54.1479 72.2885 54.8332L81.3331 56.6333L81.9866 53.3667L72.9371 51.5568C68.5312 50.6714 63.9617 51.8131 60.49 54.6663Z"
      fill="#0AA351"
    />
  </g>
  <defs>
    <clipPath id="clip0">
      <rect width="100" height="100" fill="white" />
    </clipPath>
  </defs>
</svg>
