<svg
  width="20"
  height="20"
  viewBox="0 0 20 20"
  fill="none"
  xmlns="http://www.w3.org/2000/svg"
>
  <path
    d="M10 8.75C10.6904 8.75 11.25 8.19036 11.25 7.5C11.25 6.80964 10.6904 6.25 10 6.25C9.30964 6.25 8.75 6.80964 8.75 7.5C8.75 8.19036 9.30964 8.75 10 8.75Z"
    fill="#E81F1F"
  />
  <path
    d="M10 1.25C6.55391 1.25 3.75 3.93164 3.75 7.22656C3.75 8.7957 4.46523 10.8824 5.87578 13.4289C7.00859 15.4734 8.31914 17.3223 9.00078 18.2422C9.11596 18.3994 9.26656 18.5272 9.44037 18.6153C9.61418 18.7034 9.8063 18.7493 10.0012 18.7493C10.196 18.7493 10.3882 18.7034 10.562 18.6153C10.7358 18.5272 10.8864 18.3994 11.0016 18.2422C11.682 17.3223 12.9938 15.4734 14.1266 13.4289C15.5348 10.8832 16.25 8.79648 16.25 7.22656C16.25 3.93164 13.4461 1.25 10 1.25ZM10 10C9.50555 10 9.0222 9.85338 8.61107 9.57867C8.19995 9.30397 7.87952 8.91352 7.6903 8.45671C7.50108 7.99989 7.45157 7.49723 7.54804 7.01227C7.6445 6.52732 7.8826 6.08186 8.23223 5.73223C8.58186 5.3826 9.02732 5.1445 9.51227 5.04804C9.99723 4.95157 10.4999 5.00108 10.9567 5.1903C11.4135 5.37952 11.804 5.69995 12.0787 6.11107C12.3534 6.5222 12.5 7.00555 12.5 7.5C12.4993 8.16282 12.2357 8.79828 11.767 9.26697C11.2983 9.73565 10.6628 9.99928 10 10Z"
    fill="#E81F1F"
  />
</svg>
