<svg
  width="150"
  height="150"
  viewBox="0 0 150 150"
  fill="none"
  xmlns="http://www.w3.org/2000/svg"
>
  <rect width="150" height="150" rx="75" fill="#61D597" fill-opacity="0.2" />
  <path
    d="M91.4327 44.92C91.118 45.4873 90.4087 45.6956 89.8412 45.3855C89.2738 45.0708 89.0654 44.3614 89.3802 43.7939C89.3846 43.785 91.1711 40.611 89.1187 36.7139C88.8172 36.1422 89.0388 35.433 89.6108 35.1358C90.1827 34.8342 90.8876 35.0514 91.189 35.6235C93.8354 40.6464 91.4371 44.9067 91.4327 44.92Z"
    fill="#605261"
  />
  <path
    fill-rule="evenodd"
    clip-rule="evenodd"
    d="M79.0109 73.7446C72.8486 71.4216 69.4839 65.2062 71.807 59.0442C72.7247 56.6148 74.3428 54.6553 76.3554 53.3254C79.4232 51.295 81.0279 50.4926 82.3579 48.2981C84.7163 44.4015 87.6999 42.167 90.5149 43.2265C93.3345 44.2906 94.0969 47.939 93.299 52.4211C92.8468 54.9481 93.5205 56.6104 94.487 60.1659C95.1165 62.4888 95.0412 65.029 94.1235 67.4585C91.8007 73.6205 85.1731 76.0676 79.0109 73.7446Z"
    fill="#FFE177"
  />
  <path
    fill-rule="evenodd"
    clip-rule="evenodd"
    d="M79.0109 73.7446C76.2488 72.7029 74.0501 70.8808 72.6757 68.6332C73.4206 69.103 74.2318 69.5065 75.1007 69.8344C81.2629 72.1574 87.8905 69.7102 90.2137 63.5482C91.1313 61.1187 91.2066 58.5785 90.5771 56.2556C89.6107 52.7003 88.9369 51.0378 89.389 48.5107C89.7613 46.4273 89.7924 44.5254 89.4421 42.9782C89.8011 43.0137 90.1602 43.0936 90.5149 43.2265C93.3344 44.2906 94.0969 47.939 93.299 52.421C92.8468 54.9481 93.5205 56.6104 94.4869 60.1659C95.1165 62.4888 95.0411 65.029 94.1235 67.4585C91.8007 73.6205 85.173 76.0675 79.0109 73.7446Z"
    fill="#FFD15B"
  />
  <path
    d="M63.6054 49.8453C63.8181 50.457 63.499 51.122 62.8871 51.3347C62.2754 51.5477 61.6104 51.2241 61.3976 50.6166C61.3932 50.6033 60.2273 47.163 55.9537 46.086C55.3287 45.9308 54.9475 45.2967 55.1025 44.6672C55.2576 44.0422 55.8961 43.6564 56.5211 43.8161C62.0271 45.1992 63.601 49.8319 63.6054 49.8453Z"
    fill="#605261"
  />
  <path
    fill-rule="evenodd"
    clip-rule="evenodd"
    d="M70.3218 65.9422C64.2617 69.1031 57.8247 67.0771 54.6637 61.0171C53.1387 58.0955 53.0058 53.4718 56.1045 51.5566C58.5959 50.0182 59.3895 50.6922 61.7214 49.4463C64.0754 48.2494 63.9778 47.2121 66.6643 46.0505C70.007 44.6054 73.722 47.3583 75.247 50.2843C78.4079 56.3444 76.382 62.7814 70.3218 65.9422Z"
    fill="#FE646F"
  />
  <path
    fill-rule="evenodd"
    clip-rule="evenodd"
    d="M70.3218 65.9422C67.7373 67.29 65.0862 67.6933 62.6479 67.2456C63.8981 67.0239 65.1615 66.5939 66.4118 65.9422C72.472 62.7814 74.4979 56.3444 71.337 50.2841C70.4061 48.5019 68.6682 46.7819 66.6911 46.0371C70.0292 44.6185 73.7265 47.3671 75.2471 50.2841C78.4079 56.3444 76.382 62.7814 70.3218 65.9422Z"
    fill="#FD4755"
  />
  <path
    fill-rule="evenodd"
    clip-rule="evenodd"
    d="M60.8347 48.5952C60.0411 47.5089 59.7573 45.9175 60.0633 44.1132C60.3647 42.3 61.1626 40.8768 62.2843 40.1144C63.2642 39.4494 63.5654 39.5247 64.2661 40.4822C65.0551 41.5683 65.33 43.1554 65.0286 44.951C64.7315 46.7199 63.969 48.1119 62.8962 48.8877C61.8986 49.606 61.5573 49.5794 60.8347 48.5952Z"
    fill="#9BE69D"
  />
  <path
    fill-rule="evenodd"
    clip-rule="evenodd"
    d="M90.5327 42.0828C90.8165 40.7394 91.836 39.445 93.4099 38.4521C94.9882 37.4591 96.5974 37.0954 97.9318 37.4144C99.111 37.6982 99.2838 37.9688 99.0357 39.1568C98.7519 40.5 97.7322 41.8033 96.1541 42.8008C94.5936 43.785 92.9976 44.1485 91.6677 43.8425C90.4618 43.568 90.2755 43.2886 90.5327 42.0828Z"
    fill="#9BE69D"
  />
  <path
    fill-rule="evenodd"
    clip-rule="evenodd"
    d="M51.2502 115C50.5631 115 50 114.437 50 113.745V61.1721C50 60.3829 50.4478 59.6914 51.1128 59.3501L53.7019 58.0201C54.4511 57.6387 55.2269 57.6609 55.9317 58.0201L58.5208 59.3501C59.2433 59.7179 60.0236 59.7225 60.7462 59.3501L63.3397 58.0201C64.0711 57.6432 64.8381 57.6476 65.5651 58.0201L68.1542 59.3501C68.9034 59.7312 69.6659 59.7136 70.3796 59.3501L72.9731 58.0201C73.341 57.834 73.7134 57.7407 74.0857 57.7407C74.4537 57.7407 74.8306 57.834 75.1985 58.0201L77.7874 59.3501C78.5012 59.7136 79.2682 59.7312 80.0174 59.3501L82.6063 58.0201C83.3334 57.6476 84.0959 57.6432 84.8318 58.0201L87.4207 59.3501C88.1477 59.7225 88.9279 59.7179 89.6505 59.3501L92.2396 58.0201C92.9399 57.6609 93.7202 57.6387 94.4651 58.0201L97.0541 59.3501C97.7235 59.6915 98.1713 60.3829 98.1713 61.1721V113.745C98.1713 114.437 97.6082 115 96.9166 115H51.2502Z"
    fill="#E19974"
  />
  <path
    fill-rule="evenodd"
    clip-rule="evenodd"
    d="M51.2502 115C50.5631 115 50 114.437 50 113.745V111.09H91.1313C92.8513 111.09 94.2612 109.68 94.2612 107.96V57.927C94.3277 57.9535 94.3986 57.9845 94.4651 58.0201L97.0541 59.3501C97.7235 59.6915 98.1713 60.3829 98.1713 61.1721V113.745C98.1713 114.437 97.6082 115 96.9166 115H51.2502Z"
    fill="#DC8758"
  />
  <path
    fill-rule="evenodd"
    clip-rule="evenodd"
    d="M74.0856 94.3857C81.9501 94.3857 88.3694 90.7193 88.3694 86.2241C88.3694 81.729 81.9501 78.0626 74.0856 78.0626C66.2167 78.0626 59.8018 81.729 59.8018 86.2241C59.8018 90.7193 66.2165 94.3857 74.0856 94.3857Z"
    fill="#FAF7F7"
  />
  <path
    fill-rule="evenodd"
    clip-rule="evenodd"
    d="M84.0513 80.381C86.7157 81.8617 88.3693 83.932 88.3693 86.2239C88.3693 90.7325 81.9721 94.3854 74.0854 94.3854C67.3647 94.3854 61.7258 91.7298 60.2051 88.1567C62.7809 89.5931 66.2964 90.4753 70.1754 90.4753C78.0621 90.4753 84.4593 86.8223 84.4593 82.3139C84.4593 81.6491 84.3174 80.9974 84.0513 80.381Z"
    fill="#DEDBEE"
  />
  <path
    d="M68.0653 85.0493C67.4179 85.0493 66.8903 84.5261 66.8903 83.8789C66.8903 83.2317 67.4179 82.7042 68.0653 82.7042H80.1059C80.7532 82.7042 81.2807 83.2318 81.2807 83.8789C81.2807 84.5262 80.7532 85.0493 80.1059 85.0493H68.0653ZM70.4104 89.744C69.7631 89.744 69.2358 89.2165 69.2358 88.5693C69.2358 87.922 69.7633 87.3945 70.4104 87.3945H77.7606C78.4079 87.3945 78.931 87.922 78.931 88.5693C78.931 89.2167 78.4078 89.744 77.7606 89.744H70.4104Z"
    fill="#3EC3A4"
  />
  <path
    d="M85.3459 110.695C84.6987 110.695 84.1712 110.172 84.1712 109.525C84.1712 108.878 84.6987 108.35 85.3459 108.35H92.6962C93.3433 108.35 93.871 108.878 93.871 109.525C93.871 110.172 93.3435 110.695 92.6962 110.695H85.3459Z"
    fill="#C86D36"
  />
</svg>
