<svg
  width="16"
  height="16"
  viewBox="0 0 16 16"
  fill="none"
  xmlns="http://www.w3.org/2000/svg"
>
  <path
    d="M8.10608 0.50075C7.11234 0.486693 6.12572 0.670281 5.20354 1.04085C4.28137 1.41141 3.44204 1.96156 2.73434 2.65932C2.02663 3.35709 1.46467 4.18855 1.0811 5.10539C0.697525 6.02223 0.5 7.00616 0.5 8C0.5 8.99384 0.697525 9.97777 1.0811 10.8946C1.46467 11.8115 2.02663 12.6429 2.73434 13.3407C3.44204 14.0384 4.28137 14.5886 5.20354 14.9592C6.12572 15.3297 7.11234 15.5133 8.10608 15.4992C10.0766 15.4714 11.957 14.669 13.3407 13.2657C14.7243 11.8623 15.5 9.97075 15.5 8C15.5 6.02925 14.7243 4.13769 13.3407 2.73434C11.957 1.33099 10.0766 0.528626 8.10608 0.50075ZM2.10668 8.00075C2.0941 7.20501 2.23996 6.41472 2.53577 5.67591C2.83158 4.93709 3.27143 4.26451 3.8297 3.69733C4.38798 3.13016 5.05352 2.67973 5.78757 2.37227C6.52161 2.06481 7.3095 1.90647 8.10533 1.90647C8.90117 1.90647 9.68906 2.06481 10.4231 2.37227C11.1572 2.67973 11.8227 3.13016 12.381 3.69733C12.9392 4.26451 13.3791 4.93709 13.6749 5.67591C13.9707 6.41472 14.1166 7.20501 14.104 8.00075C14.0791 9.57526 13.4361 11.0769 12.3139 12.1815C11.1916 13.2861 9.68004 13.9053 8.10533 13.9053C6.53063 13.9053 5.01905 13.2861 3.8968 12.1815C2.77454 11.0769 2.13159 9.57526 2.10668 8.00075Z"
    fill="black"
  />
  <path
    d="M12.184 4.96151C12.2771 5.0544 12.351 5.16475 12.4014 5.28624C12.4518 5.40774 12.4778 5.53798 12.4778 5.66951C12.4778 5.80105 12.4518 5.93129 12.4014 6.05278C12.351 6.17427 12.2771 6.28462 12.184 6.37751L7.684 10.8775C7.5911 10.9706 7.48075 11.0445 7.35926 11.0949C7.23777 11.1454 7.10753 11.1713 6.976 11.1713C6.84446 11.1713 6.71422 11.1454 6.59273 11.0949C6.47124 11.0445 6.36089 10.9706 6.26799 10.8775L4.26799 8.87751C4.08022 8.68974 3.97473 8.43506 3.97473 8.16951C3.97473 7.90396 4.08022 7.64929 4.26799 7.46151C4.45577 7.27374 4.71044 7.16825 4.97599 7.16825C5.24155 7.16825 5.49622 7.27374 5.684 7.46151L6.976 8.75551L10.768 4.96151C10.8609 4.86839 10.9712 4.7945 11.0927 4.74409C11.2142 4.69367 11.3445 4.66772 11.476 4.66772C11.6075 4.66772 11.7378 4.69367 11.8593 4.74409C11.9808 4.7945 12.0911 4.86839 12.184 4.96151Z"
    fill="black"
  />
</svg>
