<svg
  width="65"
  height="61"
  viewBox="0 0 65 61"
  fill="none"
  xmlns="http://www.w3.org/2000/svg"
>
  <path
    d="M32.7159 60.188C49.6822 60.188 63.4362 46.8762 63.4362 30.4552C63.4362 14.0342 49.6822 0.722412 32.7159 0.722412C15.7495 0.722412 1.99548 14.0342 1.99548 30.4552C1.99548 46.8762 15.7495 60.188 32.7159 60.188Z"
    fill="#94B938"
  />
  <path
    d="M55.9493 49.908C55.9468 49.9093 55.9442 49.9106 55.9417 49.9119C60.4439 44.8823 63.2331 38.3773 63.4252 31.245C62.6404 30.815 61.734 30.5684 60.7678 30.5684H17.7209C13.8791 30.5684 10.813 27.4646 10.991 23.7503C10.9953 23.6605 11.0001 23.5699 11.0053 23.4786C11.2709 18.9 4.52464 17.7599 3.20585 22.1644C2.41786 24.7959 1.99548 27.5777 1.99548 30.4551C1.99548 46.848 15.728 60.188 32.7159 60.188C41.8161 60.188 50.1977 56.3369 55.9493 49.908ZM36.0061 51.5885H46.8271C47.6924 51.5885 47.8117 52.8065 46.9605 52.9569C45.1622 53.2744 43.3092 53.4404 41.4161 53.4404C39.5233 53.4404 37.6706 53.2744 35.8725 52.9569C35.0215 52.8067 35.1408 51.5885 36.0061 51.5885Z"
    fill="#54A770"
  />
  <path
    d="M15.606 25.9922C15.606 26.8286 16.3191 27.5001 17.1829 27.4773L19.2727 27.422L30.8716 27.1149C34.7527 27.1096 37.0852 24.2973 38.0182 22.8724C38.3488 22.3675 38.9256 22.0649 39.5433 22.0649H43.3037C43.6112 22.0649 43.9111 22.1719 44.1358 22.375C44.2269 22.4573 44.3376 22.5259 44.4586 22.5341L57.2825 23.4005C59.1677 23.5279 60.9568 22.549 61.8149 20.8996C61.0068 18.5936 59.9142 16.4149 58.5777 14.4022C58.1522 14.316 57.7068 14.2844 57.2499 14.3184L48.4404 14.9731C44.3004 15.304 44.4294 15.217 44.1937 15.3503C43.9927 15.4639 43.8881 15.6566 43.8881 15.8609V15.6175H41.1891H38.4901V15.8123C37.2561 12.8887 34.3293 10.8021 30.8715 10.7105C29.2782 10.6684 17.3065 10.3514 15.6059 10.3064V25.9922H15.606ZM29.2345 14.7858C29.2345 14.0917 29.8159 13.5291 30.533 13.5291C31.2452 13.5291 31.8315 14.0923 31.8315 14.7858C31.8289 23.5649 31.8442 23.0843 31.8088 23.2698C31.7039 23.8132 31.2351 24.244 30.6355 24.2912C29.8646 24.3496 29.2345 23.7549 29.2345 23.0394V14.7858Z"
    fill="#54A770"
  />
  <path
    d="M5.10095 47.287H64.3908C64.7792 46.5651 65 45.7453 65 44.8751V34.3172C65 31.4281 62.5801 29.0862 59.5952 29.0862H5.40487C5.22651 29.0862 5.05029 29.095 4.8765 29.1114V47.301C4.95089 47.2924 5.02579 47.287 5.10095 47.287Z"
    fill="#FF640A"
  />
  <path
    d="M10.5716 46.8223C7.55295 46.8223 5.11456 44.4392 5.14401 41.5176C5.16064 39.8653 5.17524 37.5791 5.13729 34.3171C5.13729 31.4284 7.55663 29.0866 10.5412 29.0861H5.40478C3.25927 29.0861 1.40588 30.296 0.532949 32.0492C0.420723 32.2746 0.325127 32.5089 0.246797 32.7507C0.245654 32.7544 0.244131 32.7578 0.242988 32.7615C0.0850586 33.253 0 33.7755 0 34.3171V44.875C0 47.7641 2.41985 50.106 5.40478 50.106H10.5417H10.5421H59.5955C61.8691 50.1059 63.8132 48.7464 64.6115 46.8221H10.5716V46.8223Z"
    fill="#E04955"
  />
  <path
    d="M63.1851 43.9989C63.1851 46.4084 61.167 48.3617 58.6774 48.3617H18.3618C15.8722 48.3617 13.8541 46.4084 13.8541 43.9989V35.1934C13.8541 32.7839 15.8722 30.8306 18.3618 30.8306H58.6774C61.167 30.8306 63.1851 32.7839 63.1851 35.1934V43.9989Z"
    fill="#FCB54C"
  />
  <path
    d="M63.1851 35.1934C63.1851 32.7839 61.167 30.8306 58.6774 30.8306H40.0967V48.3617H58.6774C61.167 48.3617 63.1851 46.4084 63.1851 43.9989V35.1934Z"
    fill="#FFE046"
  />
  <path
    d="M39.9332 37.5407C40.714 37.5407 41.3469 36.9281 41.3469 36.1724C41.3469 35.4167 40.714 34.8041 39.9332 34.8041C39.1524 34.8041 38.5194 35.4167 38.5194 36.1724C38.5194 36.9281 39.1524 37.5407 39.9332 37.5407Z"
    fill="#FCB54C"
  />
  <path
    d="M45.6737 43.6475C46.8296 43.6475 47.7666 42.7406 47.7666 41.6219C47.7666 40.5031 46.8296 39.5962 45.6737 39.5962C44.5178 39.5962 43.5807 40.5031 43.5807 41.6219C43.5807 42.7406 44.5178 43.6475 45.6737 43.6475Z"
    fill="#FCB54C"
  />
  <path
    d="M51.5599 37.5407C52.3407 37.5407 52.9736 36.9281 52.9736 36.1724C52.9736 35.4167 52.3407 34.8041 51.5599 34.8041C50.7791 34.8041 50.1461 35.4167 50.1461 36.1724C50.1461 36.9281 50.7791 37.5407 51.5599 37.5407Z"
    fill="#FCB54C"
  />
  <path
    d="M56.5099 45.9334C57.5219 45.9334 58.3424 45.1394 58.3424 44.1599C58.3424 43.1804 57.5219 42.3864 56.5099 42.3864C55.4979 42.3864 54.6775 43.1804 54.6775 44.1599C54.6775 45.1394 55.4979 45.9334 56.5099 45.9334Z"
    fill="#FCB54C"
  />
  <path
    d="M57.3728 39.4174C57.9083 39.4174 58.3423 38.9973 58.3423 38.479C58.3423 37.9608 57.9083 37.5406 57.3728 37.5406C56.8373 37.5406 56.4033 37.9608 56.4033 38.479C56.4033 38.9973 56.8373 39.4174 57.3728 39.4174Z"
    fill="#FCB54C"
  />
  <path
    d="M34.5145 45.5182C35.4081 45.5182 36.1325 44.8171 36.1325 43.9522C36.1325 43.0874 35.4081 42.3862 34.5145 42.3862C33.6209 42.3862 32.8965 43.0874 32.8965 43.9522C32.8965 44.8171 33.6209 45.5182 34.5145 45.5182Z"
    fill="#FC9842"
  />
  <path
    d="M19.7135 39.4173C21.0297 39.4173 22.0967 38.3846 22.0967 37.1107C22.0967 35.8369 21.0297 34.8042 19.7135 34.8042C18.3974 34.8042 17.3304 35.8369 17.3304 37.1107C17.3304 38.3846 18.3974 39.4173 19.7135 39.4173Z"
    fill="#FC9842"
  />
  <path
    d="M27.2792 38.1563C27.8452 38.1563 28.3041 37.7121 28.3041 37.1643C28.3041 36.6165 27.8452 36.1724 27.2792 36.1724C26.7132 36.1724 26.2543 36.6165 26.2543 37.1643C26.2543 37.7121 26.7132 38.1563 27.2792 38.1563Z"
    fill="#FC9842"
  />
  <path
    d="M23.0893 45.3495C23.5749 45.3495 23.9686 44.9685 23.9686 44.4985C23.9686 44.0285 23.5749 43.6475 23.0893 43.6475C22.6037 43.6475 22.2101 44.0285 22.2101 44.4985C22.2101 44.9685 22.6037 45.3495 23.0893 45.3495Z"
    fill="#FC9842"
  />
  <path
    d="M35.4225 35.3476C35.924 35.3476 36.3305 34.9542 36.3305 34.4689C36.3305 33.9835 35.924 33.5901 35.4225 33.5901C34.921 33.5901 34.5145 33.9835 34.5145 34.4689C34.5145 34.9542 34.921 35.3476 35.4225 35.3476Z"
    fill="#FC9842"
  />
  <path
    d="M35.327 23.3575C36.9411 21.862 37.9448 19.7575 37.9448 17.4303C37.9448 12.986 34.2889 9.34958 29.6988 9.22806L22.4637 9.0365V23.3575H35.327ZM28.0617 13.3034C28.0617 12.6092 28.643 12.0466 29.3602 12.0466C30.0773 12.0466 30.6587 12.6092 30.6587 13.3034V21.557C30.6587 22.2511 30.0773 22.8138 29.3602 22.8138C28.643 22.8138 28.0617 22.2511 28.0617 21.557V13.3034Z"
    fill="#FFF5AA"
  />
  <path
    d="M32.2354 22.2262C31.8548 22.2362 31.5568 21.9332 31.5591 21.5647C31.5591 21.5622 31.5591 21.5596 31.5591 21.5571V13.3424C31.5591 12.7492 31.1502 12.2134 30.5531 12.0794C30.2874 12.0197 30.0352 12.0452 29.8103 12.1258C30.3052 12.3031 30.6586 12.7628 30.6586 13.3034V21.5571C30.6586 22.1045 30.2957 22.5609 29.8103 22.7347C29.8105 22.7349 29.8107 22.7349 29.8108 22.7349C29.2771 22.9268 28.6854 22.7608 28.3372 22.3294C25.3619 22.4081 22.9059 20.0952 22.9059 17.2145V9.04826L17.7056 8.91064V25.95L29.6986 25.6325C32.4914 25.5586 34.9366 24.182 36.4246 22.1155L32.2354 22.2262Z"
    fill="#FFE046"
  />
  <path d="M39.7963 14.135H42.7155V19.0813H39.7963V14.135Z" fill="#FFE046" />
  <path
    d="M40.0164 16.2158V14.135H37.3174V20.5823H42.7154V18.8281C41.2249 18.8281 40.0164 17.6585 40.0164 16.2158Z"
    fill="#FCB54C"
  />
  <path
    d="M59.6224 20.7261C60.5538 19.8966 61.142 18.7067 61.142 17.3758C61.142 14.7237 58.8093 12.6328 56.0773 12.8358L47.0182 13.509V20.726H59.6224V20.7261Z"
    fill="#A55A3C"
  />
  <path
    d="M53.5506 20.0107C50.012 19.7716 47.2676 16.9236 47.2676 13.4905L43.2816 13.7867C42.962 13.8104 42.7154 14.0683 42.7154 14.3784V20.4595C42.7154 20.7713 42.9646 21.0298 43.2858 21.0515L56.1097 21.9179C57.6086 22.0191 58.9824 21.4303 59.9147 20.4406L53.5506 20.0107Z"
    fill="#783C28"
  />
  <path
    d="M18.0999 8.92092L14.4332 8.82385V26.0365L18.0999 25.9394V8.92092Z"
    fill="#FCB54C"
  />
</svg>
