<svg
  width="65"
  height="63"
  viewBox="0 0 65 63"
  fill="none"
  xmlns="http://www.w3.org/2000/svg"
>
  <path
    d="M64.9999 31.4552C64.9999 37.5513 63.2082 43.2422 60.1067 48.0618C54.3696 56.977 44.1506 60.4815 32.4999 60.4815C14.5506 60.4815 1.61679 48.7402 1.61679 31.368C1.61679 25.1351 1.87298 19.4128 5.10406 14.5252C10.8787 5.79034 20.9906 0 32.4999 0C50.4492 0 64.9999 14.083 64.9999 31.4552Z"
    fill="#62C389"
  />
  <path
    d="M60.0496 24.5187C59.4921 24.2122 58.8765 23.9022 58.2117 23.6087C56.7006 22.9415 56.1881 21.1026 57.1334 19.7808C57.1458 19.7634 57.1582 19.7461 57.1704 19.7287C57.7536 18.9075 57.2842 17.774 56.2746 17.5771C56.1752 17.5577 56.0728 17.5385 55.9674 17.5196C54.3184 17.224 53.3312 15.5566 53.9362 14.0428C54.2334 13.2992 54.471 12.58 54.6606 11.9137C55.2024 10.0078 53.3876 8.24647 51.4184 8.77052C50.8005 8.93493 50.1386 9.13668 49.4538 9.3839C47.8928 9.94727 46.1809 9.00558 45.8826 7.41918C45.8787 7.39829 45.8748 7.37765 45.8708 7.357C45.6832 6.3771 44.5232 5.89716 43.6657 6.44886C43.5807 6.50353 43.4936 6.56042 43.4046 6.61965C42.0123 7.5461 40.1044 7.01616 39.4179 5.52179C39.0873 4.80225 38.7337 4.13948 38.3845 3.54551C37.3725 1.82297 34.7994 1.8371 33.7887 3.56038C33.473 4.09856 33.1536 4.69289 32.8512 5.33453C32.1618 6.7972 30.2614 7.29311 28.8955 6.37821C28.8775 6.36616 28.8596 6.35412 28.8417 6.34233C27.9932 5.77785 26.8225 6.23248 26.6192 7.20943C26.5992 7.30491 26.5795 7.40345 26.5601 7.5047C26.2542 9.10166 24.5312 10.0581 22.9659 9.47237C22.198 9.18497 21.4556 8.95508 20.7675 8.77187C18.7985 8.24746 16.9785 10.004 17.5199 11.9099C17.6898 12.5079 17.8982 13.1486 18.1537 13.8115C18.7357 15.3222 17.7628 16.9791 16.1238 17.2677C16.1022 17.2715 16.0808 17.2754 16.0596 17.2792C15.0471 17.4608 14.5512 18.5836 15.1211 19.4136C15.7065 20.2661 16.545 21.3398 17.633 22.3792C17.5302 22.4028 17.4266 22.4276 17.3224 22.4535C14.7547 23.0953 12.4009 20.8418 13.1124 18.3693C13.1394 18.2752 13.1669 18.1812 13.195 18.0873C14.6302 13.2741 7.89458 10.3062 5.10466 14.5257C1.87319 19.4128 0 25.2222 0 31.4553C0 37.9343 2.02478 43.9552 5.49402 48.9593C8.76649 53.5258 10.8434 54.7968 11.9865 55.8521C17.5812 60.264 24.7208 62.9105 32.5 62.9105C37.1894 62.9105 41.6457 61.9477 45.6719 60.217C45.6723 60.2172 45.6728 60.2172 45.6732 60.2173C47.2005 59.5618 48.8136 58.72 50.3213 57.7613C50.3207 57.7614 50.3199 57.7616 50.3191 57.7617C54.2621 55.2547 57.6079 51.9406 60.1047 48.0607C59.5716 44.1299 58.6908 40.0774 57.2357 37.0903C56.9672 36.5391 56.9761 35.9128 57.2038 35.3447C57.3635 34.9462 57.3358 34.4767 57.0596 34.0745C57.0538 34.0661 57.0479 34.0575 57.0419 34.0489C56.0301 32.5808 56.6108 30.5921 58.2677 29.8552C58.9177 29.5662 59.5199 29.2618 60.066 28.961C61.8432 27.9823 61.8274 25.496 60.0496 24.5187ZM17.3478 31.0424C16.5797 31.779 15.9405 32.5261 15.432 33.1899C15.2025 33.4894 14.8731 33.699 14.4997 33.7914C14.4922 33.7933 14.4847 33.7951 14.4772 33.7971C13.5564 34.0269 12.6315 33.4382 12.4599 32.533C12.2341 31.3405 12.0777 30.1246 11.9949 28.8891C13.0157 29.5236 15.2707 30.5321 17.3478 31.0424ZM26.3343 50.9343C27.163 49.8624 27.8248 48.5835 28.2071 47.19C28.2586 47.1718 28.3097 47.1516 28.3601 47.1272C28.8483 50.2361 30.3282 53.2273 32.8019 55.6215C33.1883 55.9955 33.6374 56.3445 34.1387 56.6705C31.5065 55.8212 29.0245 54.6547 26.7404 53.2181C25.943 52.7164 25.7644 51.6712 26.3343 50.9343Z"
    fill="#199A8E"
  />
  <path
    d="M23.5015 53.6786C20.2172 56.8573 10.6699 57.5224 6.01368 57.6549C4.56743 57.696 3.38537 56.5519 3.4279 55.1522C3.56476 50.6456 4.25183 41.4053 7.53623 38.2266C11.9449 33.9596 19.0929 33.9596 23.5016 38.2266C27.9103 42.4936 27.9102 49.4116 23.5015 53.6786Z"
    fill="#A0C83D"
  />
  <path
    d="M11.904 50.6367C11.5905 50.6367 11.2772 50.521 11.0379 50.2896C10.5597 49.8267 10.5597 49.0761 11.0379 48.6133L26.3815 33.7628C26.8598 33.3001 27.6351 33.3001 28.1135 33.7628C28.5917 34.2257 28.5917 34.9763 28.1135 35.4392L12.7699 50.2896C12.5307 50.521 12.2174 50.6367 11.904 50.6367Z"
    fill="#489160"
  />
  <path
    d="M53.3423 35.5934C57.9342 40.0377 58.8949 52.9568 59.0862 59.2577C59.1456 61.2147 57.4929 62.8143 55.471 62.7567C48.9608 62.5715 35.6126 61.6418 31.0207 57.1975C24.8567 51.2317 24.8567 41.5592 31.0207 35.5934C37.1846 29.6276 47.1784 29.6276 53.3423 35.5934Z"
    fill="#489160"
  />
  <path
    d="M47.2356 52.9334C46.8003 52.9334 46.365 52.7727 46.0329 52.4513L24.5805 31.6885C23.9161 31.0455 23.9161 30.0033 24.5805 29.3603C25.2447 28.7175 26.3219 28.7175 26.986 29.3603L48.4384 50.1231C49.1027 50.7661 49.1027 51.8083 48.4384 52.4513C48.1063 52.7726 47.671 52.9334 47.2356 52.9334Z"
    fill="#A0C83D"
  />
  <path
    d="M20.3201 35.0883C25.1859 30.3789 30.6967 28.0771 32.6288 29.9471C34.5609 31.8171 32.1827 37.1507 27.3168 41.8601C24.7657 44.3293 21.5062 45.6225 18.9824 46.2942C17.0108 46.8189 15.1966 45.063 15.7387 43.1548C16.4327 40.7121 17.7689 37.5574 20.3201 35.0883Z"
    fill="#FFE046"
  />
  <path
    d="M41.3023 14.7806C36.4365 19.49 34.0583 24.8237 35.9904 26.6936C37.9225 28.5636 43.4333 26.2619 48.2991 21.5524C50.8502 19.0833 52.1864 15.9286 52.8805 13.4859C53.4226 11.5777 51.6084 9.82184 49.6368 10.3465C47.113 11.0182 43.8535 12.3115 41.3023 14.7806Z"
    fill="#FFE046"
  />
  <path
    d="M39.2569 42.6801C39.2569 36.02 37.0418 30.6208 34.3094 30.6208C31.577 30.6208 29.3619 36.02 29.3619 42.6801C29.3619 46.172 30.7218 49.3172 32.0157 51.5194C33.0265 53.2397 35.5921 53.2397 36.6029 51.5194C37.8968 49.3172 39.2569 46.172 39.2569 42.6801Z"
    fill="#FFE046"
  />
  <path
    d="M32.822 41.926C35.0491 36.8324 35.1606 32.0094 33.0708 31.1535C30.9811 30.2976 27.4816 33.7329 25.2545 38.8265C23.8226 42.1013 24.129 45.618 24.5304 47.712C24.7186 48.6937 25.8769 49.1681 26.736 48.6153C28.5684 47.4364 31.3901 45.2008 32.822 41.926Z"
    fill="#FCB54C"
  />
  <path
    d="M39.2571 13.9607C39.2571 20.6209 37.042 26.02 34.3096 26.02C31.5772 26.02 29.3622 20.6209 29.3622 13.9607C29.3622 10.4688 30.7221 7.32366 32.016 5.12142C33.0268 3.40109 35.5924 3.40109 36.6032 5.12142C37.8971 7.32366 39.2571 10.4688 39.2571 13.9607Z"
    fill="#FFE046"
  />
  <path
    d="M43.3647 17.8143C41.1375 22.908 37.6381 26.3432 35.5483 25.4873C33.4585 24.6314 33.57 19.8084 35.7971 14.7147C37.229 11.44 40.0506 9.20442 41.8831 8.02547C42.7422 7.47267 43.9005 7.94707 44.0887 8.92882C44.4901 11.0228 44.7966 14.5395 43.3647 17.8143Z"
    fill="#FCB54C"
  />
  <path
    d="M48.2991 35.0883C43.4333 30.3789 37.9225 28.0771 35.9904 29.9471C34.0583 31.8171 36.4365 37.1507 41.3023 41.8601C43.8535 44.3293 47.113 45.6225 49.6368 46.2942C51.6084 46.8189 53.4226 45.063 52.8805 43.1548C52.1864 40.7121 50.8502 37.5574 48.2991 35.0883Z"
    fill="#FFE046"
  />
  <path
    d="M43.1979 38.959C41.0513 33.833 37.6065 30.3464 35.5035 31.1714C33.4005 31.9963 33.4358 36.8204 35.5823 41.9464C36.9624 45.2419 39.7484 47.519 41.5621 48.7249C42.4124 49.2902 43.578 48.833 43.7817 47.8542C44.216 45.7664 44.578 42.2546 43.1979 38.959Z"
    fill="#FCB54C"
  />
  <path
    d="M27.3168 14.7807C32.1827 19.4901 34.5609 24.8238 32.6288 26.6938C30.6967 28.5637 25.1859 26.262 20.3201 21.5526C17.7689 19.0834 16.4327 15.9287 15.7387 13.486C15.1966 11.5778 17.0108 9.82196 18.9824 10.3466C21.5062 11.0184 24.7657 12.3116 27.3168 14.7807Z"
    fill="#FFE046"
  />
  <path
    d="M33.0368 14.6944C35.1833 19.8204 35.2186 24.6445 33.1157 25.4694C31.0127 26.2944 27.5678 22.8078 25.4213 17.6818C24.0412 14.3862 24.4031 10.8744 24.8376 8.7866C25.0412 7.8078 26.2069 7.35059 27.0572 7.91593C28.8707 9.12192 31.6568 11.3989 33.0368 14.6944Z"
    fill="#FCB54C"
  />
  <path
    d="M49.1462 23.532C42.2648 23.532 36.6863 25.6759 36.6863 28.3204C36.6863 30.965 42.2648 33.1089 49.1462 33.1089C52.754 33.1089 56.0037 31.7927 58.279 30.5404C60.0565 29.5621 60.0565 27.0789 58.279 26.1006C56.0037 24.8483 52.754 23.532 49.1462 23.532Z"
    fill="#FFE046"
  />
  <path
    d="M48.3671 29.7601C43.1043 27.6046 38.1211 27.4967 37.2368 29.5193C36.3524 31.5419 39.9019 34.9289 45.1646 37.0844C48.5482 38.4703 52.1817 38.1737 54.3452 37.7852C55.3596 37.6031 55.8498 36.482 55.2786 35.6505C54.0605 33.8768 51.7507 31.146 48.3671 29.7601Z"
    fill="#FCB54C"
  />
  <path
    d="M19.4729 23.532C26.3543 23.532 31.9328 25.6759 31.9328 28.3204C31.9328 30.965 26.3543 33.1089 19.4729 33.1089C15.8651 33.1089 12.6154 31.7927 10.3401 30.5404C8.56259 29.562 8.56259 27.0789 10.3401 26.1006C12.6154 24.8483 15.8651 23.532 19.4729 23.532Z"
    fill="#FFE046"
  />
  <path
    d="M23.4547 19.5565C28.7175 21.712 32.2669 25.099 31.3825 27.1216C30.4981 29.1442 25.515 29.0363 20.2521 26.8807C16.8686 25.4949 14.5588 22.764 13.3407 20.9904C12.7695 20.1589 13.2597 19.0378 14.274 18.8557C16.4376 18.4672 20.0711 18.1706 23.4547 19.5565Z"
    fill="#FCB54C"
  />
  <path
    d="M45.3015 19.7179C40.0053 21.7954 36.4029 25.1295 37.2552 27.1649C38.1076 29.2003 43.0919 29.1661 48.3881 27.0886C51.7931 25.7529 54.1458 23.0564 55.3917 21.3011C55.9759 20.4781 55.5035 19.35 54.4922 19.1528C52.335 18.7324 48.7065 18.3821 45.3015 19.7179Z"
    fill="#FCB54C"
  />
  <path
    d="M20.2309 29.5522C25.5271 27.4747 30.5114 27.4405 31.3638 29.4759C32.2162 31.5113 28.6137 34.8454 23.3175 36.9229C19.9125 38.2587 16.284 37.9084 14.1269 37.4879C13.1155 37.2908 12.6432 36.1626 13.2273 35.3396C14.4733 33.5844 16.8259 30.8878 20.2309 29.5522Z"
    fill="#FCB54C"
  />
  <path
    d="M45.3591 28.3204C45.3591 31.6587 43.7786 34.6398 41.3024 36.6008C39.3976 38.1093 36.9987 38.1091 34.3455 38.1091C28.2431 38.1091 24.1958 34.2612 24.1958 28.355C24.1958 24.8765 24.9763 21.7512 27.6337 19.7982C29.4883 18.4352 31.8013 17.6263 34.3097 17.6263C40.4121 17.6262 45.3591 22.4142 45.3591 28.3204Z"
    fill="#A55A3C"
  />
  <path
    d="M40.7163 35.2995C34.5098 35.2859 29.5851 30.4203 29.6938 24.4143C29.7122 23.3946 29.8781 22.4098 30.1717 21.4789C30.6298 20.0266 28.8837 18.8803 27.6339 19.7985C24.905 21.8038 23.1686 25.0086 23.264 28.6016C23.4135 34.2393 28.1411 38.8379 33.9652 39.0093C36.7518 39.0913 39.3153 38.1743 41.3021 36.6005C41.8574 36.1608 41.5338 35.2945 40.8162 35.2992C40.7831 35.2995 40.7497 35.2996 40.7163 35.2995Z"
    fill="#783C28"
  />
</svg>
