<svg
  width="63"
  height="63"
  viewBox="0 0 63 63"
  fill="none"
  xmlns="http://www.w3.org/2000/svg"
>
  <path
    d="M63 30.4874C63 36.1303 61.4161 41.4149 58.655 45.948C53.1773 54.9409 43.264 58.2166 31.6972 58.2166C14.3003 58.2166 1.98369 47.0699 1.98369 30.2321C1.98369 23.829 2.03947 18.1422 5.52416 13.2365C11.2026 5.24212 20.7188 0 31.4999 0C48.897 0 63 13.6497 63 30.4874Z"
    fill="#FF640A"
  />
  <path
    d="M60.2837 23.9646C59.5899 23.9646 58.9779 23.5509 58.7079 22.9323C58.5646 22.6039 58.3907 22.292 58.1903 21.9993H58.1916C57.955 21.6527 57.6699 21.3265 57.3986 21.0683H57.3949C56.2742 20.0025 54.7314 19.3688 53.0828 19.4121C52.1826 19.4357 51.3106 19.0663 50.7297 18.4004C48.9285 16.3358 46.2923 15.0342 43.3867 14.9235C42.5883 14.8932 41.8409 14.532 41.339 13.9304C40.16 12.5172 38.6345 11.5857 36.9951 11.115C36.9944 11.1205 36.9936 11.1257 36.9928 11.1312C36.8519 11.0791 36.7038 11.0336 36.5467 10.997C32.9265 10.1522 28.8602 11.5072 26.7549 14.8922C26.2939 15.6333 25.4831 16.0981 24.5942 16.1878C22.3744 16.412 20.4079 17.5104 19.0855 19.1439C18.19 20.25 17.3387 19.8366 15.881 21.2711C15.0657 22.0733 14.5847 23.0063 14.3879 23.9648H11.7602C11.5225 23.9648 11.3298 24.1514 11.3298 24.3814C11.3298 24.9085 10.5263 24.9496 10.4703 24.4253C10.3597 23.3872 10.3029 22.3336 10.3029 21.2671C10.3029 19.2726 10.501 17.323 10.879 15.4355C11.4919 12.3747 7.34917 10.6677 5.52423 13.2368C2.03954 18.1421 0 24.0842 0 30.4873C0 47.4839 14.2543 60.9747 31.5 60.9747C41.9059 60.9747 51.5912 56.0411 57.4954 47.7074C57.4947 47.7079 57.4939 47.7083 57.4931 47.7087C57.8996 47.135 58.287 46.5477 58.6531 45.9467V38.0397C58.6531 37.1145 59.428 36.3645 60.384 36.3645C61.34 36.3645 62.1149 35.6145 62.1149 34.6892V25.6072C62.1149 24.6999 61.3549 23.9644 60.4175 23.9644H60.2837V23.9646Z"
    fill="#E04955"
  />
  <path
    d="M21.9721 45.7931V62.9103H45.9491C49.9061 62.9103 53.1139 59.8057 53.1139 55.9758V38.8521H29.1437C25.183 38.8521 21.9721 41.9597 21.9721 45.7931Z"
    fill="#FCB54C"
  />
  <path
    d="M47.514 19.413C46.6285 19.4405 45.7837 19.0855 45.2148 18.4284C43.4131 16.3475 40.7661 15.0346 37.8473 14.9236C37.0522 14.8934 36.3048 14.537 35.8055 13.9372C34.6256 12.5202 33.098 11.5865 31.4559 11.1151C31.4542 11.1267 31.4527 11.138 31.4511 11.1495C30.9952 14.2449 27.9759 16.2494 25.1307 17.1439C24.724 17.2718 24.3086 17.379 23.8886 17.4694V21.9994H52.6524C51.5416 20.3749 49.6105 19.3477 47.514 19.413Z"
    fill="#A55A3C"
  />
  <path
    d="M51.8596 21.0683H25.8711C24.8418 21.0683 24.2794 19.9168 24.9243 19.1402C24.9328 19.13 24.9413 19.1195 24.9498 19.1091C26.2734 17.4741 28.2419 16.3754 30.4639 16.1524C31.3514 16.0634 32.159 15.5973 32.619 14.8575C32.6268 14.845 32.6347 14.8325 32.6424 14.8201C33.6887 13.1567 32.9637 11.4535 31.0077 10.997C27.3874 10.1522 23.3212 11.5072 21.2157 14.8922C20.756 15.6314 19.9501 16.0983 19.0635 16.1868C16.8402 16.4091 14.8705 17.5082 13.5465 19.1438C12.651 20.2499 11.7997 19.8365 10.3419 21.2709C6.61507 24.9384 9.87475 31.3378 15.3196 30.4021C19.1999 32.9978 24.5514 31.8206 26.9089 27.8691C27.2236 27.9369 27.5442 27.9894 27.8704 28.0242C30.582 35.4145 40.7807 36.9174 45.6177 30.5467C49.4781 31.9404 53.6313 29.18 53.6313 25.1605C53.6313 23.5349 52.9434 22.0992 51.8596 21.0683Z"
    fill="#783C28"
  />
  <path
    d="M29.4549 39.5744H53.1138V36.008H21.7819V23.9647H9.25244V38.944V42.5104V55.976C9.25244 59.8058 12.4603 62.9105 16.4172 62.9105H22.4854C24.3256 62.9105 25.3628 60.8821 24.264 59.4534C23.5322 58.502 23.1009 57.3564 23.1009 55.976C23.1009 55.1023 24.2194 54.6921 24.8149 55.3488C26.4795 57.184 28.9531 58.3143 31.6974 58.2166C36.1979 58.0562 39.872 54.5368 40.0807 50.1826C40.3128 45.3375 36.3229 41.3389 31.3682 41.3389C27.523 41.3389 24.2614 43.7482 23.1008 47.0913V45.7242C23.1008 42.3278 25.9457 39.5744 29.4549 39.5744Z"
    fill="#FC9842"
  />
  <path
    d="M31.3681 55.6707C36.1852 55.6707 40.0903 51.8911 40.0903 47.2289C40.0903 42.5666 36.1852 38.7871 31.3681 38.7871C26.551 38.7871 22.646 42.5666 22.646 47.2289C22.646 51.8911 26.551 55.6707 31.3681 55.6707Z"
    fill="#FFF5AA"
  />
  <path
    d="M31.3681 55.6707C36.1852 55.6707 40.0903 51.8911 40.0903 47.2289C40.0903 42.5666 36.1852 38.7871 31.3681 38.7871C26.551 38.7871 22.646 42.5666 22.646 47.2289C22.646 51.8911 26.551 55.6707 31.3681 55.6707Z"
    fill="#FFF5AA"
  />
  <path
    d="M35.3665 47.2288C35.3665 50.7579 31.1833 53.6188 31.1833 53.6188C31.1833 53.6188 27 50.7579 27 47.2288C27 43.6997 31.1833 40.8389 31.1833 40.8389C31.1833 40.8389 35.3665 43.6997 35.3665 47.2288Z"
    fill="#A0C83D"
  />
  <path d="M26.1228 23.9646H56.5757V36.3646H26.1228V23.9646Z" fill="#FFE046" />
  <path d="M5.79065 23.9646H26.909V36.3646H5.79065V23.9646Z" fill="#FCB54C" />
  <path
    d="M33.9407 47.0848C33.6612 46.8901 33.2692 46.9535 33.0424 47.2043L32.4024 47.9118C32.2082 48.1265 31.8426 47.9935 31.8426 47.7081V43.465C31.8426 43.1317 31.5908 42.8339 31.248 42.8023C30.8547 42.7659 30.5238 43.0644 30.5238 43.4376V45.5048C30.5238 45.7902 30.1582 45.9233 29.9639 45.7084L29.3354 45.0136C29.0815 44.7328 28.6292 44.7195 28.358 44.9976C28.1217 45.24 28.1349 45.6243 28.3617 45.8751L29.5441 47.1823C30.1756 47.8804 30.5238 48.7767 30.5238 49.7046V54.422C30.5238 54.7554 30.7756 55.0531 31.1185 55.0847C31.5119 55.121 31.8426 54.8225 31.8426 54.4494V51.9079C31.8426 50.9801 32.1908 50.0837 32.8222 49.3856L34.0533 48.0246C34.3073 47.7437 34.2613 47.3082 33.9407 47.0848Z"
    fill="#94B938"
  />
</svg>
