<svg
  width="63"
  height="63"
  viewBox="0 0 63 63"
  fill="none"
  xmlns="http://www.w3.org/2000/svg"
>
  <path
    d="M31.5 62.9105C48.757 62.9105 62.7465 49.3707 62.7465 32.6685C62.7465 15.9663 48.757 2.42651 31.5 2.42651C14.2431 2.42651 0.25354 15.9663 0.25354 32.6685C0.25354 49.3707 14.2431 62.9105 31.5 62.9105Z"
    fill="#93DCFC"
  />
  <path
    d="M50.8869 51.5694C50.8576 51.5762 50.8282 51.5828 50.7988 51.5895C50.0155 51.766 49.2649 51.1963 49.2649 50.4179C49.2933 50.5921 49.3148 50.6907 49.3148 50.6907C49.3148 50.6907 53.4526 50.8253 55.4728 48.4911C56.3545 47.4724 56.6873 46.1518 56.7822 44.9868C56.9113 43.4023 55.3829 42.1759 53.7944 42.5789C52.6297 42.8744 51.3512 43.4225 50.4729 44.4372C50.466 44.4452 50.4592 44.4531 50.4523 44.461C50.0509 44.9316 49.2648 44.6677 49.2648 44.0575V41.9621C49.2931 42.1363 49.3147 42.235 49.3147 42.235C49.3147 42.235 53.4525 42.3696 55.4727 40.0354C56.3544 39.0167 56.6871 37.6961 56.7821 36.5311C56.9112 34.9466 55.3828 33.7202 53.7942 34.1232C52.6296 34.4187 51.351 34.9668 50.4728 35.9816C50.4659 35.9896 50.4591 35.9975 50.4522 36.0055C50.0508 36.476 49.2647 36.2122 49.2647 35.602V33.5064C49.293 33.6806 49.3146 33.7792 49.3146 33.7792C49.3146 33.7792 53.4524 33.9138 55.4726 31.5796C56.3543 30.5609 56.687 29.2403 56.782 28.0753C56.9111 26.4908 55.3827 25.2644 53.7941 25.6674C52.6295 25.9629 51.3509 26.511 50.4726 27.5257C50.4658 27.5337 50.4589 27.5416 50.4521 27.5496C50.0507 28.0202 49.2646 27.7562 49.2646 27.146V25.0505C49.2929 25.2247 49.3144 25.3234 49.3144 25.3234C49.3144 25.3234 53.4522 25.458 55.4724 23.1238C56.3541 22.1051 56.6869 20.7845 56.7818 19.6195C56.9109 18.035 55.3826 16.8087 53.794 17.2116C52.6293 17.5071 51.3508 18.0552 50.4725 19.0699C50.4657 19.0779 50.4588 19.0858 50.4519 19.0937C50.0505 19.5643 49.2644 19.3004 49.2644 18.6902V18.2422C50.2294 17.3008 51.7407 15.4957 51.7407 13.4225C51.7407 12.0935 51.1195 10.8743 50.4193 9.92234C49.4705 8.63218 47.4885 8.63218 46.5396 9.92234C45.8395 10.8743 45.2182 12.0935 45.2182 13.4225C45.2182 15.4957 46.7296 17.3008 47.6945 18.2422V18.7157C47.6945 19.2814 46.9662 19.526 46.5936 19.0902C46.5877 19.0834 46.582 19.0767 46.5762 19.0699C45.6162 17.9607 44.1786 17.4095 42.9337 17.1362C42.6009 17.063 42.3521 16.7959 42.3141 16.4677L42.312 16.4495C42.2642 16.0393 41.893 15.7387 41.4674 15.765C40.1858 15.8443 37.5373 16.2212 36.0447 17.9458C36.0081 17.988 35.9724 18.0308 35.9378 18.074C35.5793 18.521 34.8367 18.2657 34.8367 17.6999V15.4703C34.865 15.6446 34.8867 15.7433 34.8867 15.7433C34.8867 15.7433 39.0245 15.8779 41.0447 13.5437C41.9264 12.525 42.2592 11.2044 42.354 10.0394C42.4831 8.45487 40.9548 7.22849 39.3661 7.63151C38.2015 7.92702 36.9229 8.47515 36.0447 9.48983C35.3573 10.2839 35.0042 11.2614 34.8366 12.2055V8.66253C36.4234 7.11434 37.6591 5.09027 37.217 2.9335C35.2153 2.5752 33.1754 2.4006 31.015 2.43255C30.2852 4.77252 31.4952 6.93409 33.2666 8.66253V11.7764C33.0737 10.9704 32.7317 10.1641 32.1482 9.49007C31.27 8.47527 29.9914 7.92714 28.8268 7.63176C27.2382 7.22873 25.7098 8.45512 25.8389 10.0397C25.9339 11.2046 26.2665 12.5253 27.1483 13.544C29.0554 15.7473 32.8474 15.7509 33.2667 15.7444V17.5918C33.2667 18.1575 32.5384 18.402 32.1657 17.9663C32.1599 17.9595 32.1542 17.9528 32.1484 17.946C30.128 15.6118 25.9904 15.7465 25.9904 15.7465C25.9904 15.7465 25.8714 16.2882 25.8255 17.0881C24.042 17.4394 22.7952 18.1033 21.968 19.0548C21.553 19.5322 20.7439 19.2316 20.7439 18.6078V18.5155C20.7439 18.342 20.8132 18.1761 20.9365 18.0501C21.8971 17.0675 23.2203 15.3625 23.2203 13.4226C23.2203 11.8022 22.2965 10.3449 21.4324 9.33611C20.6682 8.44419 19.2497 8.44419 18.4855 9.33611C17.6214 10.3449 16.6977 11.802 16.6977 13.4226C16.6977 15.3625 18.0208 17.0675 18.9814 18.0501C19.1047 18.1761 19.174 18.342 19.174 18.5155C19.174 19.1436 18.3752 19.423 17.9451 18.9526C17.3206 18.2696 16.4568 17.7177 15.2843 17.3511C13.9312 16.928 13.1477 15.572 13.5179 14.2433C13.544 14.1493 13.5707 14.0555 13.5977 13.962C14.3311 11.4281 11.0762 9.63248 9.17377 11.5124C3.65614 16.9656 0.253667 24.4318 0.25354 32.668C0.253286 49.3494 14.3334 62.9464 31.5687 62.9104C37.4724 62.8981 42.9905 61.3002 47.6949 58.5344V58.5365C49.4877 57.4835 51.1687 56.2542 52.7089 54.8744C54.2211 53.5201 52.8921 51.1115 50.8869 51.5694ZM34.8371 23.9262C34.8654 24.1005 34.8871 24.1992 34.8871 24.1992C34.8871 24.1992 38.862 24.327 40.922 22.1331C41.0964 22.4823 41.3111 22.8169 41.5767 23.1238C43.4837 25.3273 47.276 25.3307 47.695 25.3242V27.5272C47.695 27.9961 47.0742 28.1873 46.7929 27.8055C45.8301 26.4988 44.295 25.8018 42.3641 25.4826C42.3158 24.7169 42.2032 24.202 42.2032 24.202C42.2032 24.202 38.0654 24.0674 36.0452 26.4016C36.0383 26.4095 36.0315 26.4174 36.0246 26.4254C35.6232 26.896 34.8371 26.6321 34.8371 26.0219V23.9262ZM34.8371 32.3819C34.8654 32.5562 34.8871 32.6549 34.8871 32.6549C34.8871 32.6549 38.862 32.7827 40.922 30.5889C41.0964 30.9381 41.3111 31.2727 41.5767 31.5796C43.4837 33.7831 47.276 33.7865 47.695 33.78V36.1451C47.695 36.5744 47.1234 36.7352 46.8767 36.3785C45.9204 34.996 44.3521 34.2671 42.3643 33.9384C42.3159 33.1727 42.2033 32.6578 42.2033 32.6578C42.2033 32.6578 38.0655 32.5232 36.0453 34.8574C35.358 35.6515 35.0048 36.6289 34.8372 37.5732V32.3819H34.8371ZM20.7444 25.0506C20.7727 25.2248 20.7943 25.3235 20.7943 25.3235C20.7943 25.3235 24.9321 25.4581 26.9523 23.1239C27.1619 22.8818 27.339 22.6218 27.4907 22.3516C29.4754 24.202 32.8715 24.2062 33.2671 24.2001V26.0474C33.2671 26.6131 32.5387 26.8577 32.1661 26.422C32.1603 26.4152 32.1546 26.4084 32.1487 26.4017C30.1284 24.0675 25.9907 24.2022 25.9907 24.2022C25.9907 24.2022 25.8718 24.7439 25.8258 25.5438C23.9474 25.9138 22.6646 26.6305 21.84 27.6648C21.4849 28.1103 20.7444 27.854 20.7444 27.2914V25.0506ZM20.7444 33.5063C20.7727 33.6805 20.7943 33.779 20.7943 33.779C20.8168 33.7698 25.717 33.9653 27.4908 30.8071C29.4755 32.6576 32.8716 32.6618 33.2672 32.6556V34.503C33.2672 35.0687 32.5389 35.3132 32.1663 34.8775C32.1604 34.8708 32.1547 34.864 32.1489 34.8572C30.1285 32.523 25.9909 32.6577 25.9909 32.6577C25.9909 32.6577 25.8719 33.1995 25.826 33.9993C23.8836 34.3818 22.5779 35.1352 21.7574 36.2273C21.4383 36.6518 20.7444 36.4312 20.7444 35.9063V33.5063ZM14.3851 32.6539C16.3457 33.7829 18.8394 33.7852 19.1746 33.7799V35.6273C19.1746 36.193 18.4463 36.4376 18.0737 36.0018C18.0679 35.995 18.0621 35.9883 18.0563 35.9815C17.2521 35.0524 16.1125 34.5152 15.0318 34.2042C14.8021 33.6945 14.5859 33.1778 14.3851 32.6539ZM19.1745 25.3242V27.1716C19.1745 27.7373 18.4462 27.9819 18.0736 27.5461C18.0677 27.5394 18.062 27.5326 18.0562 27.5258C16.5566 25.7932 13.8916 25.4212 12.6169 25.3444C12.5048 24.3157 12.4456 23.2719 12.4428 22.2151C12.6096 22.5347 12.8114 22.8411 13.0561 23.1239C14.9633 25.3273 18.7554 25.3307 19.1745 25.3242ZM27.9547 46.6258C28.2178 45.7759 28.2946 44.9006 28.2924 44.1573C28.289 43.0429 27.2414 42.21 26.1074 42.404C25.3518 42.5333 24.4778 42.761 23.6629 43.1609C22.6936 43.6366 21.5146 43.466 20.7756 42.6949C20.7652 42.6841 20.7548 42.6731 20.7444 42.6623V41.9621C20.7727 42.1363 20.7943 42.235 20.7943 42.235C20.817 42.2256 25.7172 42.4212 27.4908 39.2631C29.4755 41.1135 32.8716 41.1177 33.2672 41.1116V47.8878C33.2672 49.2479 31.8081 50.146 30.5336 49.5729C29.9811 49.3244 29.4374 49.0609 28.9029 48.7827C28.1036 48.3664 27.6942 47.4674 27.9547 46.6258ZM38.8298 52.0129C36.5295 51.6643 34.8371 49.7402 34.8371 47.4868V40.8377C34.8654 41.012 34.8871 41.1107 34.8871 41.1107C34.8871 41.1107 38.862 41.2385 40.922 39.0446C41.0964 39.3938 41.3111 39.7284 41.5767 40.0353C43.4837 42.2388 47.276 42.2422 47.695 42.2357V44.0831C47.695 44.6488 46.9667 44.8934 46.5941 44.4576C46.5883 44.4508 46.5825 44.4441 46.5767 44.4373C44.5564 42.1031 40.4187 42.2378 40.4187 42.2378C40.4187 42.2378 39.5564 46.1569 41.5768 48.4911C43.4839 50.6946 47.2761 50.698 47.6952 50.6915C47.6952 51.5193 47.0405 52.2138 46.1878 52.2798C43.7143 52.4712 41.2466 52.3792 38.8298 52.0129Z"
    fill="#81B8FD"
  />
  <path
    d="M34.7163 5.51339C34.7163 8.5584 31.455 11.0268 31.455 11.0268C31.455 11.0268 28.1937 8.5584 28.1937 5.51339C28.1937 2.46838 31.4552 0 31.4552 0C31.4552 0 34.7163 2.46838 34.7163 5.51339Z"
    fill="#FFD23C"
  />
  <path
    d="M33.448 11.1608C31.4277 13.495 32.29 17.4141 32.29 17.4141C32.29 17.4141 36.4278 17.5488 38.448 15.2146C40.4682 12.8804 39.606 8.96128 39.606 8.96128C39.606 8.96128 35.4684 8.82661 33.448 11.1608Z"
    fill="#FFD23C"
  />
  <path
    d="M20.6237 15.0933C20.6237 18.1384 17.3624 20.6067 17.3624 20.6067C17.3624 20.6067 14.1011 18.1384 14.1011 15.0933C14.1011 12.0483 17.3624 9.57996 17.3624 9.57996C17.3624 9.57996 20.6237 12.0483 20.6237 15.0933Z"
    fill="#FFD23C"
  />
  <path
    d="M15.4593 20.7408C17.4796 23.075 16.6174 26.9941 16.6174 26.9941C16.6174 26.9941 12.4796 27.1288 10.4594 24.7946C8.43917 22.4604 9.30131 18.5412 9.30131 18.5412C9.30131 18.5412 13.439 18.4066 15.4593 20.7408Z"
    fill="#FCB54C"
  />
  <path
    d="M15.4593 29.1966C17.4796 31.5308 16.6174 35.4499 16.6174 35.4499C16.6174 35.4499 12.4796 35.5846 10.4594 33.2504C8.43917 30.9162 9.30131 26.997 9.30131 26.997C9.30131 26.997 13.439 26.8624 15.4593 29.1966Z"
    fill="#FCB54C"
  />
  <path
    d="M15.4592 37.6523C17.4796 39.9865 16.6173 43.9056 16.6173 43.9056C16.6173 43.9056 12.4795 44.0403 10.4593 41.7061C8.43897 39.3719 9.30123 35.4527 9.30123 35.4527C9.30123 35.4527 13.4389 35.3181 15.4592 37.6523Z"
    fill="#FCB54C"
  />
  <path
    d="M15.4592 46.1081C17.4796 48.4423 16.6173 52.3614 16.6173 52.3614C16.6173 52.3614 12.4795 52.4961 10.4593 50.1619C8.43897 47.8277 9.30123 43.9085 9.30123 43.9085C9.30123 43.9085 13.4389 43.7739 15.4592 46.1081Z"
    fill="#FCB54C"
  />
  <path
    d="M19.3554 20.7408C17.3351 23.075 18.1974 26.9941 18.1974 26.9941C18.1974 26.9941 22.3351 27.1288 24.3553 24.7946C26.3755 22.4604 25.5134 18.5412 25.5134 18.5412C25.5134 18.5412 21.3758 18.4066 19.3554 20.7408Z"
    fill="#FFD23C"
  />
  <path
    d="M19.3554 29.1966C17.3351 31.5308 18.1974 35.4499 18.1974 35.4499C18.1974 35.4499 22.3351 35.5846 24.3553 33.2504C26.3755 30.9162 25.5134 26.997 25.5134 26.997C25.5134 26.997 21.3758 26.8624 19.3554 29.1966Z"
    fill="#FFD23C"
  />
  <path
    d="M19.3554 37.6523C17.3351 39.9865 18.1974 43.9056 18.1974 43.9056C18.1974 43.9056 22.3351 44.0403 24.3553 41.7061C26.3757 39.3719 25.5134 35.4527 25.5134 35.4527C25.5134 35.4527 21.3757 35.3181 19.3554 37.6523Z"
    fill="#FFD23C"
  />
  <path
    d="M19.3554 46.1081C17.3351 48.4423 18.1974 52.3614 18.1974 52.3614C18.1974 52.3614 22.3351 52.4961 24.3553 50.1619C26.3757 47.8277 25.5134 43.9085 25.5134 43.9085C25.5134 43.9085 21.3757 43.7739 19.3554 46.1081Z"
    fill="#FFD23C"
  />
  <path
    d="M16.5775 59.2449C17.0921 59.5161 17.616 59.7724 18.1474 60.016V19.1013H16.5775V59.2449Z"
    fill="#FFE046"
  />
  <path
    d="M33.448 19.6166C31.4277 21.9508 32.29 25.8699 32.29 25.8699C32.29 25.8699 36.4278 26.0046 38.448 23.6704C40.4682 21.3362 39.606 17.4171 39.606 17.4171C39.606 17.4171 35.4684 17.2824 33.448 19.6166Z"
    fill="#FFD23C"
  />
  <path
    d="M33.448 28.0723C31.4277 30.4065 32.29 34.3256 32.29 34.3256C32.29 34.3256 36.4278 34.4603 38.448 32.1261C40.4683 29.7919 39.606 25.8728 39.606 25.8728C39.606 25.8728 35.4684 25.7381 33.448 28.0723Z"
    fill="#FFD23C"
  />
  <path
    d="M33.448 36.5281C31.4277 38.8623 32.29 42.7814 32.29 42.7814C32.29 42.7814 36.4278 42.9161 38.448 40.5819C40.4683 38.2477 39.606 34.3286 39.606 34.3286C39.606 34.3286 35.4684 34.1939 33.448 36.5281Z"
    fill="#FFD23C"
  />
  <path
    d="M30.6702 62.8998C30.9459 62.9068 31.2225 62.9105 31.4999 62.9105C31.7474 62.9105 31.994 62.9069 32.2401 62.9014V9.52124H30.6702V62.8998Z"
    fill="#FFE046"
  />
  <path
    d="M29.5519 11.1608C31.5723 13.495 30.71 17.4141 30.71 17.4141C30.71 17.4141 26.5722 17.5488 24.552 15.2146C22.5318 12.8804 23.3939 8.96128 23.3939 8.96128C23.3939 8.96128 27.5316 8.82661 29.5519 11.1608Z"
    fill="#FCB54C"
  />
  <path
    d="M29.5519 19.6166C31.5723 21.9508 30.71 25.8699 30.71 25.8699C30.71 25.8699 26.5722 26.0046 24.552 23.6704C22.5318 21.3362 23.3939 17.4171 23.3939 17.4171C23.3939 17.4171 27.5316 17.2824 29.5519 19.6166Z"
    fill="#FCB54C"
  />
  <path
    d="M29.5518 28.0723C31.5721 30.4065 30.7099 34.3256 30.7099 34.3256C30.7099 34.3256 26.5721 34.4603 24.5519 32.1261C22.5316 29.7919 23.3938 25.8728 23.3938 25.8728C23.3938 25.8728 27.5315 25.7381 29.5518 28.0723Z"
    fill="#FCB54C"
  />
  <path
    d="M29.5518 36.5281C31.5721 38.8623 30.7099 42.7814 30.7099 42.7814C30.7099 42.7814 26.5721 42.9161 24.5519 40.5819C22.5316 38.2477 23.3938 34.3286 23.3938 34.3286C23.3938 34.3286 27.5315 34.1939 29.5518 36.5281Z"
    fill="#FCB54C"
  />
  <path
    d="M49.1442 15.0933C49.1442 18.1384 45.8829 20.6067 45.8829 20.6067C45.8829 20.6067 42.6216 18.1384 42.6216 15.0933C42.6216 12.0483 45.8829 9.57996 45.8829 9.57996C45.8829 9.57996 49.1442 12.0483 49.1442 15.0933Z"
    fill="#FFD23C"
  />
  <path
    d="M43.9796 20.7408C46 23.075 45.1377 26.9941 45.1377 26.9941C45.1377 26.9941 40.9999 27.1288 38.9797 24.7946C36.9595 22.4604 37.8217 18.5412 37.8217 18.5412C37.8217 18.5412 41.9593 18.4066 43.9796 20.7408Z"
    fill="#FCB54C"
  />
  <path
    d="M43.9796 29.1966C46 31.5308 45.1377 35.4499 45.1377 35.4499C45.1377 35.4499 40.9999 35.5846 38.9797 33.2504C36.9595 30.9162 37.8217 26.997 37.8217 26.997C37.8217 26.997 41.9593 26.8624 43.9796 29.1966Z"
    fill="#FCB54C"
  />
  <path
    d="M43.9795 37.6523C45.9999 39.9865 45.1376 43.9056 45.1376 43.9056C45.1376 43.9056 40.9998 44.0403 38.9796 41.7061C36.9593 39.3719 37.8216 35.4527 37.8216 35.4527C37.8216 35.4527 41.9592 35.3181 43.9795 37.6523Z"
    fill="#FCB54C"
  />
  <path
    d="M43.9795 46.1081C45.9999 48.4423 45.1376 52.3614 45.1376 52.3614C45.1376 52.3614 40.9998 52.4961 38.9796 50.1619C36.9593 47.8277 37.8216 43.9085 37.8216 43.9085C37.8216 43.9085 41.9592 43.7739 43.9795 46.1081Z"
    fill="#FCB54C"
  />
  <path
    d="M47.8759 20.7408C45.8556 23.075 46.7178 26.9941 46.7178 26.9941C46.7178 26.9941 50.8556 27.1288 52.8758 24.7946C54.896 22.4604 54.0339 18.5412 54.0339 18.5412C54.0339 18.5412 49.8961 18.4066 47.8759 20.7408Z"
    fill="#FFD23C"
  />
  <path
    d="M47.8759 29.1966C45.8556 31.5308 46.7178 35.4499 46.7178 35.4499C46.7178 35.4499 50.8556 35.5846 52.8758 33.2504C54.896 30.9162 54.0339 26.997 54.0339 26.997C54.0339 26.997 49.8961 26.8624 47.8759 29.1966Z"
    fill="#FFD23C"
  />
  <path
    d="M47.8759 37.6523C45.8556 39.9865 46.7178 43.9056 46.7178 43.9056C46.7178 43.9056 50.8556 44.0403 52.8758 41.7061C54.8962 39.3719 54.0339 35.4527 54.0339 35.4527C54.0339 35.4527 49.8961 35.3181 47.8759 37.6523Z"
    fill="#FFD23C"
  />
  <path
    d="M47.8759 46.1081C45.8556 48.4423 46.7178 52.3614 46.7178 52.3614C46.7178 52.3614 50.8556 52.4961 52.8758 50.1619C54.8962 47.8277 54.0339 43.9085 54.0339 43.9085C54.0339 43.9085 49.8961 43.7739 47.8759 46.1081Z"
    fill="#FFD23C"
  />
  <path
    d="M45.0981 59.9035C45.6302 59.6542 46.1532 59.3893 46.668 59.1121V19.1013H45.0981V59.9035Z"
    fill="#FFE046"
  />
</svg>
