<svg
  width="65"
  height="63"
  viewBox="0 0 65 63"
  fill="none"
  xmlns="http://www.w3.org/2000/svg"
>
  <g clip-path="url(#clip0)">
    <path
      d="M65 31.4552C65 48.8277 50.4495 62.9105 32.5 62.9105C14.5505 62.9105 0 48.8277 0 31.4552C0 14.0828 14.5505 0 32.5 0C50.4495 0 65 14.0828 65 31.4552Z"
      fill="#D9D9DB"
    />
    <path
      d="M64.7734 35.1712L54.3359 25.0693C51.2965 22.128 47.1447 20.882 43.1606 21.3265L33.9297 12.4019C31.4412 9.74961 27.8543 8.07788 23.884 8.07788C16.4161 8.07788 10.306 13.9916 10.306 21.2194V32.2587C10.306 36.1018 12.0338 39.5725 14.7742 41.981C14.7742 41.981 27.585 54.3934 36.1772 62.7089C51.1338 61.0784 63.0154 49.6249 64.7734 35.1712Z"
      fill="#AEADB3"
    />
    <path
      d="M27.0688 51.4603C21.7879 46.3496 21.7879 37.9862 27.0688 32.875L35.1338 25.0692C40.4143 19.9585 49.0555 19.9585 54.336 25.0692C59.6169 30.1799 59.6169 38.5434 54.336 43.6546L46.271 51.4603C40.9905 56.571 32.3493 56.571 27.0688 51.4603Z"
      fill="#E67500"
    />
    <path
      d="M54.3359 43.6541L46.2704 51.4603C40.99 56.571 32.3492 56.571 27.0688 51.4603L54.3359 25.0697C56.9767 27.6251 58.2958 30.994 58.2968 34.3619C58.2968 37.7303 56.9757 41.0987 54.3359 43.6541Z"
      fill="#9A4C00"
    />
    <path
      d="M39.7542 46.2215C41.719 44.2181 43.0629 41.7294 43.6411 39.0243C44.3825 35.5575 46.8616 32.7257 50.273 31.449L57.0803 28.9018C56.4416 27.5396 55.5509 26.2644 54.4089 25.1417L48.6191 27.3088C43.7478 29.1317 40.208 33.175 39.1497 38.1249C38.3185 42.0131 35.3371 45.0537 31.3688 46.0597L24.4182 47.8226C25.0633 49.1406 25.9461 50.3742 27.0688 51.4603C27.1457 51.5347 27.2235 51.6082 27.3019 51.6802L32.5313 50.354C35.292 49.6542 37.7899 48.2249 39.7542 46.2215Z"
      fill="#9A4C00"
    />
    <path
      d="M32.5317 50.354L27.3019 51.6806C27.2235 51.6082 27.1457 51.5343 27.0688 51.4603L33.405 45.3278C35.5295 44.3189 37.232 42.6659 38.2684 40.6207L54.1668 25.2329L54.4093 25.1422C55.5514 26.2639 56.4416 27.5401 57.0798 28.9018L50.2724 31.449C46.8621 32.7262 44.382 35.558 43.6416 39.0248C43.0629 41.729 41.719 44.2181 39.7542 46.222C37.7904 48.2253 35.292 49.6537 32.5317 50.354Z"
      fill="#703700"
    />
    <path
      d="M23.884 45.4002C16.4161 45.4002 10.306 39.4866 10.306 32.2587V21.2194C10.306 13.9916 16.4161 8.07788 23.884 8.07788C31.352 8.07788 37.4621 13.9916 37.4621 21.2194V32.2587C37.4621 39.4866 31.352 45.4002 23.884 45.4002Z"
      fill="#E67500"
    />
    <path
      d="M37.4616 21.2194V32.2587C37.4616 39.4866 31.352 45.3998 23.8841 45.3998V8.07788C27.6188 8.07788 31.0128 9.55714 33.474 11.9378C35.9347 14.3199 37.4616 17.6057 37.4616 21.2194Z"
      fill="#9A4C00"
    />
    <path
      d="M29.0271 33.0142C28.9523 30.2529 28.0844 27.5733 26.5173 25.2651C24.5084 22.3061 24.1925 18.6075 25.6723 15.3696L28.6245 8.90969C27.1779 8.38365 25.6163 8.09134 23.9887 8.07935L21.4774 13.574C19.3648 18.1966 19.8161 23.4787 22.6844 27.7029C24.9369 31.0209 25.0499 35.211 22.9795 38.6385L19.3524 44.6419C20.7712 45.132 22.2966 45.4003 23.884 45.4003C23.9927 45.4003 24.1018 45.3988 24.2099 45.396L26.9389 40.8795C28.3795 38.495 29.1015 35.775 29.0271 33.0142Z"
      fill="#9A4C00"
    />
    <path
      d="M26.9389 40.879L24.2099 45.3964C24.1013 45.3988 23.9927 45.3998 23.8841 45.3998V36.7272C24.6493 34.5602 24.6458 32.2261 23.8841 30.0706V8.30925L23.9892 8.07935C25.6163 8.09086 27.1779 8.38413 28.624 8.90969L25.6718 15.3701C24.193 18.607 24.5084 22.3071 26.5178 25.2646C28.0844 27.5733 28.9523 30.2529 29.0272 33.0147C29.102 35.775 28.379 38.4945 26.9389 40.879Z"
      fill="#703700"
    />
  </g>
  <defs>
    <clipPath id="clip0">
      <rect width="65" height="62.9105" fill="white" />
    </clipPath>
  </defs>
</svg>
