<svg
  width="65"
  height="63"
  viewBox="0 0 65 63"
  fill="none"
  xmlns="http://www.w3.org/2000/svg"
>
  <path
    d="M32.5 0C18.7186 0 6.94065 8.30205 2.21404 20.0206C0.78451 23.5647 5.10491 31.857 19.7746 36.1228C42.9607 42.8651 64.988 32.322 64.988 32.322C64.996 32.034 65.0001 31.745 65.0001 31.4552C65 14.083 50.4492 0 32.5 0V0Z"
    fill="#FFE046"
  />
  <path
    d="M64.9012 33.917C64.9433 33.389 64.9722 32.8573 64.9872 32.3221H56.8142C54.2758 32.3221 52.9577 30.6457 52.944 30.6359C52.9385 30.6299 52.933 30.6238 52.9276 30.6177C51.6641 29.2248 51.1227 27.3521 51.4713 25.5296L51.6084 24.8131C51.7565 24.0383 52.5267 23.5388 53.3279 23.6786C56.5731 24.2446 58.5634 20.3431 56.146 18.1876C55.5759 17.6793 55.2446 17.0064 55.2235 16.1884C55.1961 15.1314 54.6116 14.1402 53.6818 13.5734C53.014 13.1661 52.437 12.6222 52.0937 11.9341C51.8237 11.3928 51.4004 10.9367 50.8779 10.6186C50.223 10.2199 49.7688 9.61583 49.5948 8.81522C49.2976 7.45259 48.0912 6.41956 46.6575 6.30168C44.706 6.14119 43.0708 7.62687 43.0708 9.48207V9.49364C43.0718 9.86673 42.8306 10.1984 42.4691 10.328C41.0798 10.8257 40.1313 12.2028 40.3462 13.7614C40.5415 15.1772 41.9642 16.4347 43.4379 16.5097C43.4961 16.5126 43.5539 16.5141 43.6113 16.5141C44.4152 16.5146 45.0764 17.1223 45.0764 17.9005V18.8031C45.0764 19.9302 43.4201 20.1417 43.118 19.0531C42.923 18.3508 42.177 17.9349 41.4507 18.1227C40.725 18.3114 40.2946 19.0338 40.4894 19.7364L43.1289 29.2497C42.2669 29.449 41.5083 29.9059 40.9456 30.5326C39.9339 31.6597 38.4788 32.3221 36.9361 32.3221H32.8605C31.4294 32.3221 30.0808 31.7437 29.108 30.7543C29.0746 30.7202 29.0417 30.6853 29.0096 30.6497C27.7766 29.2888 27.293 27.4372 27.6333 25.6574L27.7974 24.7998C27.9455 24.0254 28.7153 23.5394 29.5162 23.6788C29.5793 23.6898 29.6432 23.6991 29.7078 23.7066C31.3174 23.8951 32.8486 22.9042 33.278 21.3909C33.6224 20.1773 33.2041 18.9646 32.3325 18.1875C31.7598 17.6768 31.4224 16.9746 31.4106 16.2211C31.4105 16.2101 31.4102 16.1993 31.41 16.1883C31.3825 15.1303 30.7969 14.1384 29.8658 13.5717C29.1992 13.166 28.6232 12.6232 28.2815 11.9365C28.0114 11.394 27.5878 10.937 27.0644 10.6183C26.4115 10.2208 25.9553 9.61731 25.7813 8.81497C25.484 7.45234 24.2777 6.41931 22.844 6.30144C20.8924 6.14095 19.2573 7.62663 19.2573 9.48182V9.4934C19.2583 9.86648 19.0171 10.1982 18.6556 10.3278C17.2663 10.8255 16.3178 12.2025 16.5327 13.7611C16.7279 15.177 18.1507 16.4344 19.6244 16.5094C19.6826 16.5124 19.7403 16.5139 19.7977 16.5139C20.6016 16.5143 21.2629 17.1221 21.2629 17.9003V18.8029C21.2629 19.93 19.6066 20.1415 19.3045 19.0529C19.1095 18.3506 18.3635 17.9346 17.6372 18.1225C16.9115 18.3112 16.4811 19.0336 16.6759 19.7361L19.1871 28.7868C19.1647 28.7901 19.1415 28.7947 19.1174 28.8002C15.9155 29.5376 12.7316 27.5107 12.4415 24.3378C12.3572 23.4153 12.3141 22.4813 12.3141 21.5376C12.3141 21.4685 12.3144 21.3994 12.3148 21.3304C12.351 15.9 4.63621 14.3671 2.48065 19.3809C0.919284 23.0127 0.0410539 26.9886 0.00122113 31.1587C-0.00768717 32.0878 0.027946 33.0072 0.101249 33.9167H64.9012V33.917ZM47.6616 22.6546C47.7198 22.6694 47.7783 22.683 47.8379 22.6947L47.8764 22.7021C48.6775 22.85 49.2143 23.5815 49.0658 24.3577L48.4823 27.4094C48.2314 27.2606 47.9557 27.1479 47.6616 27.0792V22.6546ZM23.8482 22.6546C23.9064 22.6694 23.9649 22.683 24.0245 22.6947C24.0373 22.6971 24.0502 22.6996 24.063 22.7021C24.8641 22.85 25.4009 23.5815 25.2524 24.3577L24.68 27.3512C24.4348 27.1304 24.1459 26.95 23.8482 26.8259V22.6546Z"
    fill="#FCB54C"
  />
  <path
    d="M7.31962 51.3382C8.70779 52.9829 10.7953 53.9259 12.9895 53.9259H54.5943C54.7915 53.9259 54.9794 53.9534 55.1579 54.0003C60.7294 48.7534 64.365 41.5904 64.9227 33.6089H54.0332C52.4803 33.6089 51.0022 32.9394 50.0276 31.7694C49.3446 30.9495 48.2985 30.4249 47.1254 30.4249C47.0845 30.4249 47.0439 30.4266 47.0031 30.4279C46.7015 29.2003 45.5642 28.2863 44.2035 28.2863C42.8432 28.2863 41.7061 29.1998 41.4041 30.4269C41.377 30.4264 41.3502 30.4249 41.323 30.4249C40.0349 30.4249 38.8832 30.9884 38.1161 31.8745C37.1422 32.9995 35.6718 33.6089 34.1552 33.6089H30.0794C28.4111 33.6089 26.8533 32.8246 25.8746 31.5171C25.1974 30.6125 24.0971 30.0241 22.8547 30.0241C22.8137 30.0241 22.7731 30.0258 22.7324 30.0271C22.4308 28.7995 21.2933 27.8855 19.9327 27.8855C18.5726 27.8855 17.4354 28.7991 17.1334 30.0261C17.1063 30.0256 17.0794 30.0241 17.0521 30.0241C15.7094 30.0241 14.515 30.6364 13.7498 31.588C12.7446 32.8381 11.2337 33.6087 9.59709 33.6087H5.63901V46.8123C5.63901 48.4224 6.19298 49.9931 7.24046 51.244C7.26681 51.2754 7.29315 51.3068 7.31962 51.3382Z"
    fill="#A55A3C"
  />
  <path
    d="M32.4999 62.9104C41.6163 62.9104 49.8552 59.2773 55.7564 53.4256C57.7031 51.4951 55.3016 48.4426 52.8598 49.7432C52.8121 49.7685 52.7644 49.7938 52.7165 49.819C51.7062 50.3499 50.7494 49.0255 51.6237 48.3029C51.6353 48.2933 51.6469 48.2838 51.6584 48.2744C56.314 44.4502 56.1627 38.094 51.4816 35.013C50.4463 34.3316 49.9352 33.1142 50.1631 31.9228C49.6066 31.3084 49.0208 30.7036 47.8084 30.4862L47.33 32.9878V30.4306C47.158 30.4216 47.0789 30.4254 47.0031 30.4279C46.7015 29.2003 45.5642 28.2863 44.2035 28.2863C43.4983 28.2863 42.8544 28.5332 42.3545 28.9407L43.6708 33.6846C37.5519 35.1561 34.7169 41.7935 39.1605 47.0374C39.1737 47.053 39.187 47.0685 39.2003 47.0839C41.3508 49.5782 39.295 53.329 35.9595 52.9651C33.3702 52.6825 30.7852 52.0527 28.2859 51.0499C27.1221 50.5829 26.8662 49.0811 27.8253 48.2905C27.8319 48.2851 27.8384 48.2797 27.8451 48.2744C32.5172 44.4366 32.3482 38.0489 27.6183 34.9805C26.6267 34.3372 26.1058 33.2004 26.3226 32.0642L26.3271 32.041C25.7838 31.4883 25.3944 30.6546 24.0471 30.2143L23.5168 32.9878V30.0815C23.2363 30.0328 22.9881 30.0192 22.7325 30.0272C22.2725 28.1552 20.033 27.2908 18.3725 28.3327L19.8575 33.6846C17.2642 34.3083 15.026 35.9699 13.911 38.2758C12.42 35.4376 9.43861 33.6267 6.15196 33.6137C4.67433 33.6077 2.71667 33.5987 0.0772705 33.6069C1.2197 49.9752 15.298 62.9104 32.4999 62.9104Z"
    fill="#783C28"
  />
  <path
    d="M28.6296 17.5079C28.6295 17.4969 28.6292 17.4861 28.629 17.4751C28.5928 16.0828 27.601 14.8547 26.2133 14.4861C24.3245 13.9846 22.4373 15.1574 22.0885 16.9817C22.0446 17.2113 22.0281 17.4395 22.0352 17.6638C20.3646 17.5959 18.8593 18.7667 18.6303 20.4383C18.4047 22.0862 19.5603 23.6505 21.2436 23.9813C21.2565 23.9839 21.2693 23.9862 21.2822 23.9887C22.0833 24.1366 22.6201 24.8681 22.4716 25.6444L18.3307 47.2981L20.873 47.7534L25.0139 26.0997C25.1623 25.3235 25.934 24.8265 26.7369 24.9658C26.7996 24.9767 26.8631 24.9859 26.9273 24.9934C28.5268 25.1804 30.0625 24.1905 30.4941 22.688C30.8438 21.4709 30.4257 20.2536 29.5516 19.4743C28.9788 18.9636 28.6416 18.2613 28.6296 17.5079Z"
    fill="#489160"
  />
  <path
    d="M23.0071 10.1339C23.0049 10.1232 23.0026 10.1124 23.0002 10.1017C22.7029 8.73909 21.4966 7.70606 20.0629 7.58818C18.1113 7.42769 16.4762 8.91337 16.4762 10.7686V10.7801C16.4769 11.1545 16.2335 11.4854 15.8709 11.6157C14.5223 12.1005 13.5901 13.4144 13.7362 14.9178C13.8865 16.4633 15.2074 17.6968 16.8082 17.7943C16.8728 17.7983 16.937 17.8004 17.0009 17.8007C17.8165 17.8052 18.4818 18.4299 18.4818 19.2193V41.2408H21.0672V19.2193C21.0672 18.4299 21.7326 17.8052 22.5482 17.8007C22.5612 17.8006 22.5743 17.8005 22.5874 17.8002C24.3045 17.7714 25.7351 16.4371 25.8232 14.777C25.8875 13.5683 25.2566 12.4975 24.2834 11.9051C23.6242 11.5039 23.1604 10.8728 23.0071 10.1339Z"
    fill="#A0C83D"
  />
  <path
    d="M20.182 39.924C19.5815 39.924 19.0317 39.5363 18.8685 38.9483L13.8949 21.0229C13.7001 20.3205 14.1303 19.598 14.8562 19.4093C15.5825 19.2213 16.3285 19.6373 16.5235 20.3397L21.4971 38.2651C21.692 38.9675 21.2617 39.69 20.5358 39.8787C20.4174 39.9093 20.2988 39.924 20.182 39.924Z"
    fill="#489160"
  />
  <path
    d="M19.7744 33.4044C18.0665 33.4044 16.4695 33.8258 15.1068 34.5573V45.3808C17.43 47.6444 18.9397 54.3311 19.3479 57.5202C19.4102 58.0065 20.1386 58.0065 20.2008 57.5202C20.6625 53.9134 22.5325 50.6258 25.3955 48.2742C27.482 46.5604 28.82 44.0022 28.82 41.4487C28.82 37.006 24.7701 33.4044 19.7744 33.4044Z"
    fill="#FFF5AA"
  />
  <path
    d="M18.853 46.5236C18.1167 45.9188 17.4738 45.209 16.9499 44.4313C16.846 44.2771 16.8378 44.0804 16.9283 43.9184C17.0187 43.7564 17.1936 43.6554 17.3837 43.6554H18.3308C18.7817 43.6554 19.1473 43.3015 19.1473 42.8652C19.1473 42.4288 18.7817 42.0749 18.3308 42.0749H16.8086C16.1895 42.0749 15.6586 41.6445 15.5519 41.0543C15.4707 40.6052 15.4285 40.1516 15.4285 39.698C15.4285 39.6978 15.4285 39.6978 15.4285 39.6977C15.4285 39.0157 15.9996 38.463 16.7043 38.463H21.0672C21.5181 38.463 21.8837 38.1092 21.8837 37.6728C21.8837 37.2364 21.5181 36.8825 21.0672 36.8825H17.0797C16.8392 36.8825 16.6171 36.7581 16.4971 36.5565C16.3772 36.3547 16.3775 36.1062 16.4985 35.9052C16.6863 35.5932 16.8964 35.2934 17.1272 35.0077C17.3126 34.7782 17.3175 34.4571 17.1394 34.2222C16.9612 33.9873 16.6433 33.8959 16.3613 33.9981C13.0576 35.1958 10.729 38.08 10.729 41.4486C10.729 44.0021 12.0669 46.5603 14.1534 48.2741C17.0164 50.6257 18.8864 53.9132 19.3481 57.52C19.4104 58.0064 20.1388 58.0064 20.201 57.52C20.3399 56.4348 20.6064 55.3788 20.989 54.3684C22.0449 51.5799 21.1927 48.4454 18.853 46.5236Z"
    fill="#FFE046"
  />
  <path
    d="M24.913 45.3807H21.0673C20.6164 45.3807 20.2508 45.7346 20.2508 46.171C20.2508 46.6074 20.6164 46.9613 21.0673 46.9613H24.913C25.3639 46.9613 25.7295 46.6074 25.7295 46.171C25.7295 45.7346 25.3639 45.3807 24.913 45.3807Z"
    fill="#FFE046"
  />
  <path
    d="M52.4429 17.5079C52.4428 17.4969 52.4425 17.4861 52.4423 17.4751C52.4061 16.0828 51.4143 14.8547 50.0266 14.4861C48.1378 13.9846 46.2506 15.1574 45.9018 16.9817C45.8579 17.2113 45.8414 17.4395 45.8485 17.6638C44.1779 17.5959 42.6726 18.7667 42.4436 20.4383C42.218 22.0862 43.3736 23.6505 45.0569 23.9813C45.0698 23.9839 45.0826 23.9862 45.0955 23.9887C45.8966 24.1366 46.4334 24.8681 46.2849 25.6444L42.144 47.2981L44.6863 47.7534L48.8272 26.0997C48.9756 25.3235 49.7473 24.8265 50.5502 24.9658C50.6129 24.9767 50.6764 24.9859 50.7405 24.9934C52.3401 25.1804 53.8758 24.1905 54.3074 22.688C54.6571 21.4709 54.239 20.2536 53.3649 19.4743C52.7921 18.9636 52.4548 18.2613 52.4429 17.5079Z"
    fill="#489160"
  />
  <path
    d="M46.8204 10.1339C46.8183 10.1232 46.816 10.1124 46.8135 10.1017C46.5163 8.73909 45.3099 7.70606 43.8762 7.58818C41.9247 7.42769 40.2895 8.91337 40.2895 10.7686V10.7801C40.2902 11.1545 40.0468 11.4854 39.6842 11.6157C38.3356 12.1005 37.4034 13.4144 37.5495 14.9178C37.6998 16.4633 39.0207 17.6968 40.6215 17.7943C40.6862 17.7983 40.7503 17.8004 40.8142 17.8007C41.6298 17.8052 42.2951 18.4299 42.2951 19.2193V41.2408H44.8806V19.2192C44.8806 18.4298 45.5459 17.805 46.3615 17.8006C46.3745 17.8005 46.3876 17.8004 46.4007 17.8001C48.1178 17.7713 49.5484 16.437 49.6366 14.7769C49.7008 13.5682 49.0699 12.4974 48.0967 11.9049C47.4375 11.5039 46.9738 10.8728 46.8204 10.1339Z"
    fill="#A0C83D"
  />
  <path
    d="M43.9953 39.924C43.3947 39.924 42.845 39.5363 42.6818 38.9483L37.7082 21.0229C37.5134 20.3205 37.9436 19.598 38.6695 19.4093C39.3958 19.2213 40.1418 19.6373 40.3368 20.3397L45.3104 38.2651C45.5052 38.9675 45.075 39.69 44.3491 39.8787C44.2307 39.9093 44.1121 39.924 43.9953 39.924Z"
    fill="#489160"
  />
  <path
    d="M43.5877 33.4044C41.8191 33.4044 40.1704 33.8576 38.7765 34.6378L39.1039 43.4594C41.5087 45.741 42.7446 54.2656 43.1613 57.5201C43.2235 58.0063 43.952 58.0063 44.0142 57.5201C44.4759 53.9133 46.3459 50.6257 49.2089 48.274C51.2953 46.5602 52.6333 44.0021 52.6333 41.4486C52.6333 37.006 48.5835 33.4044 43.5877 33.4044Z"
    fill="#FFF5AA"
  />
  <path
    d="M42.6662 46.5236C41.93 45.9188 41.2871 45.209 40.7632 44.4313C40.6593 44.2771 40.6511 44.0804 40.7415 43.9184C40.832 43.7565 41.0069 43.6554 41.197 43.6554H42.1441C42.595 43.6554 42.9606 43.3015 42.9606 42.8652C42.9606 42.4288 42.595 42.0749 42.1441 42.0749H40.6219C40.0028 42.0749 39.4719 41.6445 39.3652 41.0543C39.284 40.6052 39.2418 40.1516 39.2418 39.698C39.2418 39.6978 39.2418 39.6978 39.2418 39.6977C39.2418 39.0157 39.8129 38.463 40.5176 38.463H44.8805C45.3313 38.463 45.697 38.1092 45.697 37.6728C45.697 37.2364 45.3313 36.8825 44.8805 36.8825H40.8929C40.6523 36.8825 40.4303 36.7581 40.3103 36.5565C40.1904 36.3547 40.1906 36.1062 40.3117 35.9052C40.4995 35.5932 40.7096 35.2934 40.9403 35.0077C41.1257 34.7782 41.1307 34.4571 40.9525 34.2222C40.7743 33.9873 40.4565 33.8959 40.1745 33.9981C36.8708 35.1958 34.5421 38.08 34.5421 41.4486C34.5421 44.0021 35.88 46.5603 37.9666 48.2741C40.8296 50.6257 42.6996 53.9132 43.1613 57.52C43.2235 58.0064 43.952 58.0064 44.0142 57.52C44.153 56.4348 44.4195 55.3788 44.8022 54.3684C45.8582 51.5799 45.0059 48.4454 42.6662 46.5236Z"
    fill="#FFE046"
  />
  <path
    d="M48.7263 45.3807H44.8806C44.4297 45.3807 44.0641 45.7346 44.0641 46.171C44.0641 46.6074 44.4297 46.9613 44.8806 46.9613H48.7263C49.1772 46.9613 49.5428 46.6074 49.5428 46.171C49.5428 45.7346 49.1772 45.3807 48.7263 45.3807Z"
    fill="#FFE046"
  />
</svg>
