<svg
  width="65"
  height="63"
  viewBox="0 0 65 63"
  fill="none"
  xmlns="http://www.w3.org/2000/svg"
>
  <path
    d="M65 31.4552C65 35.1951 64.3257 38.7826 63.0882 42.11C58.5775 54.2384 47.1846 59.9344 33.0996 59.9344C15.1503 59.9344 2.91098 48.8308 2.91098 31.4586C2.91098 26.7663 1.06169 22.3107 2.96493 18.3111C8.10822 7.50279 19.3989 0 32.5 0C50.4492 0 65 14.0829 65 31.4552Z"
    fill="#FFE046"
  />
  <path
    d="M58.6215 50.1693H58.6232C59.0764 49.5777 59.5353 48.9118 59.6153 48.7981V48.7964C59.771 48.5688 59.9242 48.3393 60.074 48.1076V48.108C60.1603 47.9743 60.247 47.8407 60.3313 47.7057C61.4983 45.8375 62.5151 43.7486 63.2692 41.6067V41.6053C63.269 40.977 62.7426 40.4678 62.0934 40.4678H61.5687C60.4898 40.4678 59.6152 39.6213 59.6152 38.5771C59.6152 37.5328 60.4898 36.6864 61.5687 36.6864H61.8419C62.6301 36.6864 63.2691 36.0679 63.2691 35.305V30.8299C63.2691 30.067 62.6301 29.4485 61.8419 29.4485H61.0423C60.2541 29.4485 59.615 28.83 59.615 28.0671C59.615 27.3042 58.976 26.6858 58.1878 26.6858H56.5538C56.4613 26.6858 56.3733 26.6471 56.3125 26.5797L56.3077 26.5743C56.1925 26.4467 56.2042 26.2542 56.3334 26.1398C56.6186 25.887 57.0135 25.6003 57.2876 25.4174C59.0278 24.2557 60.1691 22.3138 60.1691 20.113C60.1691 16.5557 57.1895 13.672 53.5141 13.672C44.8817 13.7172 44.6868 13.6031 43.7062 13.7362C43.5802 13.7719 41.9638 13.8896 40.3879 15.1573C39.5602 14.5241 38.6581 13.9595 37.6848 13.4778C37.4733 13.3731 37.2231 13.3707 37.0064 13.4648L36.995 13.4698C36.6675 13.6121 36.2795 13.5263 36.0547 13.2552C34.8947 11.8556 33.3696 10.7153 31.555 9.98997C31.118 9.81529 30.619 9.86479 30.2264 10.1198L30.2082 10.1317C29.755 10.426 29.1647 10.4466 28.6976 10.1732C27.0753 9.22349 25.1936 8.8276 23.4842 9.40323C21.5243 10.0632 20.2061 11.8607 19.6355 13.911C18.6627 13.8454 17.8968 13.9265 17.8968 13.9265C16.338 15.9739 15.6257 18.3714 15.6923 20.7309C15.2524 20.8165 14.9145 20.8979 14.5686 20.9929C13.7089 22.6929 13.1379 24.6589 12.9798 26.686H12.6405C12.2258 24.68 12.007 22.6056 12.007 20.4816C12.007 20.4205 12.0075 20.3589 12.0084 20.297C12.086 15.351 5.10342 13.8186 2.96574 18.3117C1.12117 22.1885 0.0705776 26.4828 0.00336088 30.9935C-0.255685 48.3816 14.4941 62.8904 32.4615 62.9105C43.1282 62.9223 52.6626 57.9485 58.6215 50.1693ZM52.0889 47.7058V49.7723C52.0889 49.9915 52.2726 50.1693 52.4991 50.1693C52.9798 50.1693 53.0693 50.8353 52.6036 50.9508C46.3009 52.5152 39.5054 52.2411 33.2061 49.9809C31.9392 49.5264 32.281 47.7058 33.6321 47.7058H52.0889Z"
    fill="#FCB54C"
  />
  <path
    d="M53.8469 25.0846C55.8169 23.9662 57.1404 21.8964 57.1404 19.5262C57.1404 15.9689 54.1608 13.0852 50.4855 13.0852H41.6097C41.1866 13.0852 40.7732 13.1251 40.3721 13.1982V25.0846H53.8469Z"
    fill="#A55A3C"
  />
  <path
    d="M44.1189 19.4873C44.7106 19.4873 45.1904 19.178 45.1904 18.7965C45.1904 18.415 44.7106 18.1057 44.1189 18.1057C43.5271 18.1057 43.0473 18.415 43.0473 18.7965C43.0473 19.178 43.5271 19.4873 44.1189 19.4873Z"
    fill="#783C28"
  />
  <path
    d="M47.238 24.4109C46.311 24.4109 45.4284 24.2273 44.6266 23.8956C43.8282 23.5654 43.6931 22.553 44.3236 21.9752C44.4883 21.8242 44.5897 21.6397 44.5897 21.4214C44.5897 20.8274 43.7258 20.3458 42.66 20.3458C42.5171 20.3458 42.378 20.3544 42.2442 20.371C41.5307 20.4589 40.8738 19.9813 40.7257 19.3001C40.7237 19.2908 40.7218 19.2817 40.7198 19.2724C40.5979 18.6994 40.8655 18.1083 41.3936 17.8237C41.529 17.7506 41.6197 17.6502 41.6197 17.5216C41.6197 17.4128 41.5568 17.3257 41.4593 17.2582C40.9789 16.9256 40.7774 16.3254 40.9774 15.7877C41.2275 15.1153 41.5897 14.4948 42.0425 13.9474C42.3299 13.6 42.0694 13.0851 41.6096 13.0851C37.9342 13.0851 34.9547 15.9689 34.9547 19.5261C34.9547 23.0834 37.9343 25.9671 41.6096 25.9671H50.4854C51.2453 25.9671 51.9752 25.8436 52.6551 25.6163C53.3351 25.389 53.1578 24.4107 52.4384 24.4107H47.238V24.4109Z"
    fill="#783C28"
  />
  <path
    d="M51.8892 17.3532C52.4592 17.3532 52.9213 17.0918 52.9213 16.7693C52.9213 16.4468 52.4592 16.1854 51.8892 16.1854C51.3191 16.1854 50.8571 16.4468 50.8571 16.7693C50.8571 17.0918 51.3191 17.3532 51.8892 17.3532Z"
    fill="#783C28"
  />
  <path
    d="M47.1349 15.0931C47.541 15.0931 47.8701 14.8994 47.8701 14.6605C47.8701 14.4215 47.541 14.2278 47.1349 14.2278C46.7289 14.2278 46.3998 14.4215 46.3998 14.6605C46.3998 14.8994 46.7289 15.0931 47.1349 15.0931Z"
    fill="#783C28"
  />
  <path
    d="M50.6921 22.1161C51.216 22.1161 51.6407 21.8051 51.6407 21.4214C51.6407 21.0378 51.216 20.7268 50.6921 20.7268C50.1682 20.7268 49.7435 21.0378 49.7435 21.4214C49.7435 21.8051 50.1682 22.1161 50.6921 22.1161Z"
    fill="#783C28"
  />
  <path
    d="M29.4295 13.9496C30.6514 17.3487 28.7948 21.0629 25.2829 22.2454C21.7709 23.428 17.9333 21.6312 16.7115 18.2321C15.4896 14.833 16.9435 9.99886 20.4555 8.81625C23.9675 7.63364 28.2077 10.5505 29.4295 13.9496Z"
    fill="#A0C83D"
  />
  <path
    d="M22.6871 22.0553C23.5988 21.2276 23.5988 21.2276 23.1773 19.8803C22.7558 18.533 23.2177 18.4534 24.4158 17.1405C25.2476 16.2289 25.2461 16.5307 24.4219 13.9576C23.5977 11.3845 27.8341 9.15125 27.8341 9.15125C33.7658 11.1 36.9421 17.3336 34.9286 23.0746C33.4708 27.2314 29.6918 29.99 25.4657 30.4563C25.4659 30.4564 20.8972 23.6803 22.6871 22.0553Z"
    fill="#94B938"
  />
  <path
    d="M26.713 21.0795C25.4761 20.9048 25.4761 20.9048 25.0262 19.5661C24.5764 18.2275 24.1502 18.4177 22.3919 18.0033C21.1709 17.7156 21.3505 17.9623 20.5069 15.3952C19.6633 12.8279 14.8683 13.3395 14.8683 13.3395C11.1524 18.2203 12.2281 25.0924 17.271 28.6888C20.9223 31.2928 25.6523 31.4656 29.3952 29.5098C29.3952 29.51 29.1414 21.4225 26.713 21.0795Z"
    fill="#489160"
  />
  <path
    d="M24.6025 30.3044C26.058 29.2771 26.058 29.2771 25.7021 27.278C25.3461 25.279 26.0213 25.2442 27.9751 23.5722C29.3318 22.4112 29.2742 22.8426 28.567 19.0211C27.8598 15.1996 34.3276 12.7328 34.3276 12.7328C42.4538 16.5378 45.8546 25.998 41.9232 33.8631C39.0768 39.5578 33.1669 42.8548 27.0375 42.7964C27.0375 42.7963 21.7449 32.3213 24.6025 30.3044Z"
    fill="#489160"
  />
  <path
    d="M30.4341 28.3408C28.6341 28.4097 28.6341 28.4097 27.6312 26.6285C26.6283 24.8472 26.0765 25.2256 23.4724 25.0884C21.6641 24.9932 21.9859 25.2969 20.0896 21.8757C18.1934 18.4545 11.5402 20.4059 11.5402 20.4059C7.60889 28.2709 12.8996 36.0763 21.026 39.8813C26.9098 42.6362 31.7677 43.3259 36.5362 39.598C36.5361 39.598 33.968 28.2055 30.4341 28.3408Z"
    fill="#A0C83D"
  />
  <path
    d="M26.4356 37.8721C20.8447 35.2543 17.491 29.9597 17.2227 24.3493C17.0896 21.5688 14.3306 19.6207 11.5691 20.3978C11.5499 20.4033 11.5401 20.4061 11.5401 20.4061C7.60876 28.2711 11.0095 37.7315 19.1357 41.5365C25.0196 44.2914 31.7676 43.3262 36.5359 39.5981C36.5359 39.5981 36.5036 39.4544 36.4414 39.2011C33.1594 39.7738 29.6673 39.3853 26.4356 37.8721Z"
    fill="#489160"
  />
  <path
    d="M37.7833 30.4535C37.6244 31.5386 37.8283 32.6446 38.3348 33.6248L40.6102 38.0289C43.2815 40.3745 47.2857 41.0027 50.691 39.2895C54.9303 37.1567 56.6724 32.0888 54.5987 27.9229C53.2145 25.1424 50.4978 23.416 47.5581 23.1008L40.8597 26.3429C39.2201 27.1365 38.06 28.645 37.7914 30.4002C37.7886 30.418 37.786 30.4357 37.7833 30.4535Z"
    fill="#FF640A"
  />
  <path
    d="M42.5497 36.9963C41.627 35.2105 41.4065 33.2627 41.7863 31.4465C41.9143 30.8344 42.5134 30.4244 43.1542 30.4986C43.1663 30.5 43.1785 30.5014 43.1906 30.5028C43.9584 30.5903 44.4568 31.3301 44.2326 32.0461C43.7893 33.4622 43.3209 35.4709 44.1171 35.7634C44.6848 35.9721 45.3699 35.115 45.9482 34.1187C46.6753 32.8662 48.3145 32.4348 49.5966 33.1587C50.6164 33.7346 51.6557 34.1379 52.0361 33.6799C52.3982 33.244 51.8446 32.4118 51.1005 31.6083C50.0534 30.4777 50.1407 28.7473 51.2962 27.7206C52.1176 26.9909 52.7523 26.2148 52.4357 25.7468C51.9401 25.0139 49.7957 26.0478 48.4661 26.7894C47.9187 27.0948 47.2185 26.8389 47.0184 26.2589C47.015 26.2493 47.0117 26.2398 47.0084 26.2302C46.8335 25.7254 47.1101 25.1765 47.6304 25.0038C47.647 24.9982 47.6636 24.9928 47.6802 24.9874C48.7108 24.652 48.5266 23.1917 47.4445 23.0893C45.807 22.9341 44.1052 23.2167 42.5292 23.9986C38.2135 26.1397 36.4656 31.3038 38.6337 35.5026C39.2133 36.6248 40.012 37.5709 40.9544 38.3166C41.8476 39.023 43.0912 38.0319 42.5701 37.0359C42.5633 37.0226 42.5564 37.0095 42.5497 36.9963Z"
    fill="#E04955"
  />
  <path
    d="M45.8416 34.0671L45.9477 34.2724C47.0816 33.4153 48.3192 30.2184 48.3192 30.2184C48.3192 30.2184 52.3385 33.3737 53.1747 32.3669C54.0109 31.36 49.9627 28.2394 49.9627 28.2394C49.9627 28.2394 53.2541 26.1742 53.6232 24.9265L51.0982 26.1486C50.41 26.4817 49.8177 25.9797 49.7164 25.4146C49.0269 25.7944 48.5258 26.115 48.5258 26.115C48.5258 26.115 47.8835 23.7878 47.06 22.4741C46.6959 22.6504 46.4713 23.0152 46.4846 23.409C46.5112 24.201 46.5307 25.1581 46.5435 25.9127C46.5557 26.6397 46.0157 27.2645 45.2743 27.3812C44.3181 27.5318 43.0381 27.7722 42.1908 28.0836C41.9224 28.1824 41.7999 28.4827 41.9284 28.7313C43.4356 29.2129 45.8663 29.3172 45.8663 29.3172C45.8663 29.3172 45.728 29.6653 45.5521 30.181L45.5499 30.1874C45.1139 31.467 45.2188 32.8618 45.8416 34.0671Z"
    fill="#A0C83D"
  />
  <path
    d="M46.9871 26.5015C46.6813 25.0769 46.3669 22.9343 47.1556 22.6323C46.7667 21.9649 46.3319 21.5013 45.9022 21.6144C44.6142 21.9533 45.994 26.781 45.994 26.781C45.994 26.781 40.826 26.5148 40.7609 27.8051C40.7391 28.238 41.3069 28.5505 42.0708 28.7748C42.1674 27.9446 44.4249 27.7781 45.942 27.7605C46.622 27.7526 47.1253 27.1458 46.9871 26.5015Z"
    fill="#94B938"
  />
  <path
    d="M51.1961 26.3204C51.8808 25.9508 52.7134 25.5466 53.4236 25.3339C53.651 24.9857 53.7341 24.6703 53.5741 24.4336C53.0451 23.6515 50.6385 24.8814 49.3485 25.621C49.3514 25.6293 49.3545 25.6375 49.3574 25.6457C49.6209 26.3755 50.4985 26.6969 51.1961 26.3204Z"
    fill="#94B938"
  />
  <path
    d="M45.5789 30.1839C45.57 30.1829 45.561 30.1818 45.552 30.1807C45.0833 31.5542 44.3481 34.117 45.2556 34.4504C45.5334 34.5525 45.8394 34.3989 46.1473 34.0991C46.2085 33.3842 46.436 32.5127 46.6613 31.7866C46.8921 31.0418 46.3766 30.2767 45.5789 30.1839Z"
    fill="#94B938"
  />
  <path
    d="M52.2226 22.8427C52.2277 22.8394 52.2212 22.8418 52.2161 22.8435C52.2115 22.8448 52.206 22.8468 52.1993 22.8495L52.1604 22.865C50.92 23.3694 49.5448 24.6036 48.8101 26.1773C48.5789 26.6866 48.4063 27.2291 48.2979 27.7914L48.2972 27.795C48.265 27.962 48.099 28.0722 47.9265 28.0411C47.7721 28.0132 47.665 27.8817 47.6669 27.7348C47.6748 27.1184 47.7544 26.495 47.911 25.8815C48.0731 25.2699 48.3111 24.6688 48.6286 24.1029C49.6778 22.2229 51.2939 21.2487 51.3012 21.2426L51.335 21.2224C51.3467 21.2155 51.3571 21.2092 51.3793 21.1976C51.8486 20.9722 52.418 21.1577 52.6509 21.612C52.8837 22.0663 52.692 22.6173 52.2226 22.8427Z"
    fill="#94B938"
  />
  <path
    d="M35.9199 47.1193C40.6096 47.1193 44.4114 43.4397 44.4114 38.9008C44.4114 34.3618 40.6096 30.6823 35.9199 30.6823C31.2302 30.6823 27.4284 34.3618 27.4284 38.9008C27.4284 43.4397 31.2302 47.1193 35.9199 47.1193Z"
    fill="#E04955"
  />
  <path
    d="M32.671 36.09C35.7165 35.5077 38.5019 37.9137 38.317 40.9129C38.2795 41.5203 38.3119 42.131 38.4144 42.7334C38.763 44.7831 41.5121 45.4207 42.7788 43.7438C42.7867 43.7334 42.7945 43.7229 42.8024 43.7124C42.8024 43.7133 42.8025 43.714 42.8025 43.7149C44.9715 40.8174 44.9079 36.9382 42.8349 34.129C42.8344 34.1292 42.834 34.1295 42.8335 34.1297C42.4776 33.6475 42.0639 33.1943 41.589 32.7823C38.0976 29.7519 32.729 30.0346 29.598 33.4137C29.5771 33.4363 29.5563 33.459 29.5357 33.4819C28.2662 34.8821 29.7483 36.9775 31.5698 36.3757C31.9254 36.2582 32.293 36.1624 32.671 36.09Z"
    fill="#CE4529"
  />
  <path d="M12.5152 26.0991H17.0218V49.5827H12.5152V26.0991Z" fill="#A55A3C" />
  <path
    d="M12.8927 47.1192V26.0991H9.49554V49.5827H17.0218V47.1192H12.8927Z"
    fill="#783C28"
  />
  <path d="M52.1049 26.0991H56.587V49.5827H52.1049V26.0991Z" fill="#A55A3C" />
  <path
    d="M52.8239 47.1192V26.0991H49.0608V49.5827H56.587V47.1192H52.8239Z"
    fill="#783C28"
  />
  <path d="M5.95789 29.7609H60.241V36.0997H5.95789V29.7609Z" fill="#A55A3C" />
  <path d="M5.95789 40.764H60.241V47.1193H5.95789V40.764Z" fill="#A55A3C" />
  <path d="M5.95789 39.8812H60.241V41.0121H5.95789V39.8812Z" fill="#FFF5AA" />
  <path d="M5.95789 28.8618H60.241V29.9927H5.95789V28.8618Z" fill="#FFF5AA" />
  <path
    d="M11.2784 32.9371C11.6136 32.9371 11.8853 32.6741 11.8853 32.3497C11.8853 32.0253 11.6136 31.7623 11.2784 31.7623C10.9433 31.7623 10.6716 32.0253 10.6716 32.3497C10.6716 32.6741 10.9433 32.9371 11.2784 32.9371Z"
    fill="#FFF5AA"
  />
  <path
    d="M14.8166 32.9371C15.1517 32.9371 15.4234 32.6741 15.4234 32.3497C15.4234 32.0253 15.1517 31.7623 14.8166 31.7623C14.4814 31.7623 14.2097 32.0253 14.2097 32.3497C14.2097 32.6741 14.4814 32.9371 14.8166 32.9371Z"
    fill="#FFF5AA"
  />
  <path
    d="M11.2784 44.1318C11.6136 44.1318 11.8853 43.8688 11.8853 43.5444C11.8853 43.22 11.6136 42.957 11.2784 42.957C10.9433 42.957 10.6716 43.22 10.6716 43.5444C10.6716 43.8688 10.9433 44.1318 11.2784 44.1318Z"
    fill="#FFF5AA"
  />
  <path
    d="M14.8166 44.1318C15.1517 44.1318 15.4234 43.8688 15.4234 43.5444C15.4234 43.22 15.1517 42.957 14.8166 42.957C14.4814 42.957 14.2097 43.22 14.2097 43.5444C14.2097 43.8688 14.4814 44.1318 14.8166 44.1318Z"
    fill="#FFF5AA"
  />
  <path
    d="M51.285 32.9371C51.6202 32.9371 51.8919 32.6741 51.8919 32.3497C51.8919 32.0253 51.6202 31.7623 51.285 31.7623C50.9499 31.7623 50.6782 32.0253 50.6782 32.3497C50.6782 32.6741 50.9499 32.9371 51.285 32.9371Z"
    fill="#FFF5AA"
  />
  <path
    d="M54.823 32.9371C55.1582 32.9371 55.4299 32.6741 55.4299 32.3497C55.4299 32.0253 55.1582 31.7623 54.823 31.7623C54.4878 31.7623 54.2161 32.0253 54.2161 32.3497C54.2161 32.6741 54.4878 32.9371 54.823 32.9371Z"
    fill="#FFF5AA"
  />
  <path
    d="M51.285 44.1318C51.6202 44.1318 51.8919 43.8688 51.8919 43.5444C51.8919 43.22 51.6202 42.957 51.285 42.957C50.9499 42.957 50.6782 43.22 50.6782 43.5444C50.6782 43.8688 50.9499 44.1318 51.285 44.1318Z"
    fill="#FFF5AA"
  />
  <path
    d="M54.823 44.1318C55.1582 44.1318 55.4299 43.8688 55.4299 43.5444C55.4299 43.22 55.1582 42.957 54.823 42.957C54.4878 42.957 54.2161 43.22 54.2161 43.5444C54.2161 43.8688 54.4878 44.1318 54.823 44.1318Z"
    fill="#FFF5AA"
  />
  <path
    d="M11.2362 59.9345H17.8521C22.2247 58.2915 25.3086 54.1493 25.2304 49.3195C25.1331 43.3068 20.056 38.3979 13.8435 38.3095C9.69698 38.2505 6.04215 40.3045 3.95358 43.4305V52.8568C3.95358 55.1641 5.0918 57.3475 7.04479 58.6707C7.06456 58.6842 7.08446 58.6975 7.10435 58.7109C8.31604 59.5207 9.76369 59.9345 11.2362 59.9345Z"
    fill="#FF640A"
  />
  <path
    d="M17.7396 57.1503C15.0568 57.1503 12.5879 56.2657 10.6262 54.7816C9.96505 54.2814 9.82092 53.3687 10.2826 52.6903C10.2914 52.6775 10.3001 52.6647 10.3088 52.6519C10.8605 51.8386 12.0395 51.7077 12.7697 52.3765C14.2135 53.6993 16.355 55.3948 17.1696 54.6688C17.7505 54.1511 17.119 52.8813 16.258 51.6508C15.1757 50.1039 15.6107 48.0078 17.2265 46.9855C18.5117 46.1724 19.6009 45.2372 19.2717 44.5424C18.9584 43.8814 17.6363 44.0205 16.2378 44.3908C14.2701 44.9119 12.2412 43.8073 11.6798 41.9092C11.2807 40.56 10.7171 39.3942 9.97053 39.4784C8.80157 39.6101 8.7966 42.6254 8.91458 44.5534C8.96317 45.3473 8.24841 45.9867 7.43492 45.8745C7.42165 45.8727 7.40826 45.8708 7.39474 45.869C6.68635 45.7722 6.18752 45.1416 6.28267 44.4554C6.28573 44.4335 6.28879 44.4117 6.29198 44.3898C6.48827 43.0346 4.62648 42.3926 3.87383 43.5511C2.73498 45.3042 2.08475 47.3844 2.1077 49.6132C2.17071 55.717 7.35992 60.6881 13.6667 60.6896C15.3525 60.69 16.9539 60.3411 18.3981 59.7138C19.7667 59.1193 19.2989 57.1429 17.7988 57.1502C17.7793 57.1503 17.7595 57.1503 17.7396 57.1503Z"
    fill="#E04955"
  />
  <path
    d="M16.1343 51.7411H16.4427C16.0723 49.9662 12.95 46.7135 12.95 46.7135C12.95 46.7135 19.0799 44.0241 18.3562 42.4971C17.6325 40.9701 11.5276 43.7122 11.5276 43.7122C11.5276 43.7122 10.96 38.8058 9.67538 37.6646V41.2179C9.67538 42.1863 8.72772 42.561 7.98961 42.3464C8.04509 43.3434 8.13884 44.094 8.13884 44.094C8.13884 44.094 4.96855 43.4635 2.91098 43.6262C2.91098 44.1387 3.21875 44.6037 3.69972 44.8178C4.66716 45.2485 5.8286 45.7832 6.74285 46.2078C7.62355 46.6167 8.0604 47.5881 7.76946 48.4906C7.39422 49.6546 6.93863 51.2353 6.82014 52.3703C6.78264 52.7299 7.07242 53.0425 7.44588 53.0425C8.90118 51.6259 10.4404 48.9501 10.4404 48.9501C10.4404 48.9501 10.7783 49.3083 11.2956 49.8062L11.302 49.8124C12.5864 51.0478 14.3235 51.7411 16.1343 51.7411Z"
    fill="#A0C83D"
  />
  <path
    d="M7.70851 46.051C5.81878 45.5665 3.06086 44.6742 3.15664 43.6108C2.12824 43.6603 1.31845 43.8803 1.20442 44.4298C0.862473 46.0768 7.46681 47.3314 7.46681 47.3314C7.46681 47.3314 4.14104 52.9943 5.65374 53.818C6.16137 54.0944 6.86708 53.6368 7.58096 52.9073C6.63941 52.3158 7.75251 49.6775 8.6137 47.9595C8.99965 47.1897 8.56319 46.2701 7.70851 46.051Z"
    fill="#94B938"
  />
  <path
    d="M9.93918 41.2075C9.89314 40.2218 9.89186 39.0494 10.0493 38.1262C9.76291 37.6676 9.43231 37.3905 9.0549 37.4331C7.80737 37.5737 7.88556 40.9982 8.0242 42.8807C8.0358 42.8822 8.04741 42.8835 8.05902 42.885C9.08934 43.0129 9.98612 42.2117 9.93918 41.2075Z"
    fill="#94B938"
  />
  <path
    d="M11.3147 49.7779C11.3082 49.7874 11.3017 49.7969 11.2952 49.8064C12.6734 51.133 15.3254 53.4512 16.2538 52.6236C16.5381 52.3702 16.5315 51.9364 16.3503 51.4154C15.5268 50.9308 14.6118 50.1676 13.8701 49.4918C13.1096 48.7985 11.8902 48.934 11.3147 49.7779Z"
    fill="#94B938"
  />
  <path
    d="M6.35691 38.029C6.35589 38.0212 6.35487 38.0301 6.35398 38.0369C6.35296 38.0428 6.35207 38.0501 6.35143 38.0593L6.34735 38.1121C6.23205 39.8017 6.91544 42.0676 8.37928 43.81C8.85694 44.3665 9.40858 44.8763 10.0212 45.3254L10.0251 45.3282C10.2071 45.4617 10.2429 45.7126 10.105 45.8888C9.98177 46.0463 9.76137 46.0905 9.586 46.0029C8.8498 45.6355 8.14702 45.1833 7.50075 44.6501C6.86008 44.1119 6.27605 43.4943 5.78079 42.8078C4.13187 40.5333 3.90102 38.1474 3.89796 38.1356L3.89336 38.0859C3.89196 38.0686 3.89043 38.0534 3.88928 38.0216C3.89145 37.3621 4.44551 36.8291 5.12686 36.8311C5.80834 36.8333 6.35908 37.3695 6.35691 38.029Z"
    fill="#94B938"
  />
</svg>
