<svg
  width="65"
  height="63"
  viewBox="0 0 65 63"
  fill="none"
  xmlns="http://www.w3.org/2000/svg"
>
  <g clip-path="url(#clip0)">
    <path
      d="M32.5 1.66003C19.2355 1.66003 7.87731 9.55939 3.17358 20.7628L13.9836 47.3074L45.859 60.0554C56.6582 55.1807 64.1423 44.5789 64.1423 32.2853C64.1424 15.3714 49.9755 1.66003 32.5 1.66003Z"
      fill="#62C389"
    />
    <path
      d="M60.1064 36.2204C59.5313 35.6571 58.8055 35.3177 58.0445 35.2015C56.059 34.8984 54.3165 33.7296 53.2664 32.0708C51.9331 29.9645 49.7706 27.7342 46.5137 27.4639C45.3796 27.3697 44.3228 26.8935 43.4765 26.1566C42.4281 25.2436 41.2427 24.5609 39.9891 24.1058C37.843 23.3267 36.4246 21.3373 36.4246 19.1187V12.6237C36.4246 10.4783 37.8594 8.55792 39.984 7.94545C40.951 7.66674 41.9578 7.25757 42.9061 6.65991C43.9541 5.99943 44.8125 5.18232 45.504 4.3578C44.6961 4.00491 43.8693 3.68571 43.0271 3.39812L39.3522 5.71406C38.9654 5.95784 38.5 5.55335 38.7009 5.15121C38.7039 5.14492 38.7071 5.13875 38.7102 5.13245C39.1591 4.22745 39.4024 3.29012 39.524 2.41844C38.2188 2.13208 36.8829 1.9246 35.5222 1.79968C35.1857 2.23231 34.8746 2.70801 34.6158 3.22988C33.572 5.33426 33.6346 7.6149 33.7749 8.83193V15.1762C33.4657 14.6164 33.0858 14.0589 32.6162 13.5413C31.2142 11.9961 29.3453 11.1618 28.0917 10.7446C27.4363 10.5265 26.7835 11.0804 26.9222 11.7375C26.9266 11.7584 26.9312 11.7794 26.9358 11.8006C27.2335 13.1735 25.6793 14.2144 24.4647 13.449C23.8314 13.05 23.0699 13.7489 23.4528 14.3796C24.2437 15.6825 25.4885 17.2797 27.2897 18.4146C29.5675 19.8502 32.1821 20.1985 33.775 20.2633V23.6505C31.6396 24.0837 29.7393 25.1064 28.2774 26.5061C27.4738 27.2753 26.4273 27.8243 25.2594 28.0208C21.3278 28.6825 18.2506 31.7588 17.7216 35.6226C17.6037 35.642 17.4861 35.6628 17.3689 35.685C16.3188 35.8849 15.2589 35.3644 14.8514 34.4067C13.3236 30.8153 12.4804 26.8813 12.4804 22.7565C12.4804 22.6894 12.4806 22.6224 12.481 22.5555C12.5153 17.3984 5.18037 15.9853 3.17393 20.7629C1.69253 24.2906 0.870973 28.146 0.85771 32.1856C0.841514 37.1002 2.00957 41.7418 4.10376 45.8573L18.9087 59.9715C22.9352 61.8173 27.4363 62.8661 32.1991 62.909C37.0837 62.953 41.7152 61.9254 45.8587 60.0546C49.3746 58.4671 48.1536 53.3637 44.2741 53.3813C44.2237 53.3815 44.1734 53.3816 44.1229 53.3816C43.6261 53.3816 43.1319 53.3705 42.6408 53.3485C41.3187 53.2894 41.3727 51.3761 42.6962 51.3762C48.2999 51.377 47.7877 51.3773 47.9503 51.3694C50.8082 51.2305 52.0094 49.1846 52.7925 48.571L53.1296 48.2382L60.1174 41.3376C61.5585 39.9142 61.552 37.636 60.1064 36.2204Z"
      fill="#199A8E"
    />
    <path
      d="M30.2636 15.0104C32.5752 17.558 32.7428 21.0737 32.7428 21.0737C32.7428 21.0737 29.1625 20.4588 26.8509 17.9112C25.4497 16.3669 24.8361 14.4669 24.5704 13.2099C24.4312 12.5524 25.0856 11.9961 25.7413 12.2146C26.995 12.632 28.8624 13.4661 30.2636 15.0104Z"
      fill="#FFF5AA"
    />
    <path
      d="M33.917 29.7927H32.857L31.2672 21.0736V7.97461H34.0098L33.917 12.396V29.7927Z"
      fill="#A0C83D"
    />
    <path
      d="M49.7108 42.8738C51.1466 41.3588 52.043 39.3602 52.0954 37.1757C52.2063 32.552 48.6147 28.7318 44.0174 28.2637C42.8987 28.1498 41.8342 27.7131 41.0008 26.9818C36.65 23.1637 29.9172 23.3227 25.7575 27.3169V42.8738H49.7108Z"
      fill="#A55A3C"
    />
    <path
      d="M50.8852 39.7514C49.3804 40.4881 47.6807 40.9058 45.8792 40.9058C44.9536 40.9058 44.055 40.795 43.1958 40.5877C42.3332 40.3796 41.4285 40.47 40.6261 40.8405C39.4115 41.4013 38.0501 41.7124 36.6127 41.7047C31.4733 41.6773 27.2803 37.4489 27.4554 32.4775C27.4993 31.2325 27.8073 30.051 28.3274 28.9848C29.0703 27.4617 27.101 26.0541 25.8511 27.226C25.8238 27.2515 25.7966 27.2773 25.7695 27.3033C24.9438 28.0935 23.8953 28.6256 22.7513 28.8181C18.4323 29.545 15.1653 33.1764 15.1322 37.5345C15.0955 42.3773 19.29 46.4924 24.2937 46.5195C26.2309 46.53 28.0301 45.9615 29.5182 44.9829C30.7715 45.4573 32.1342 45.7206 33.5611 45.7206C35.3626 45.7206 37.0623 45.303 38.5671 44.5662C40.0128 45.3676 41.7071 45.7962 43.5123 45.7095C47.1684 45.5338 50.2613 43.225 51.5078 40.0653C51.2959 39.9679 51.0879 39.8638 50.8852 39.7514Z"
      fill="#783C28"
    />
    <path
      d="M49.3066 38.9088L43.4942 43.5511H33.7142C34.9551 42.5661 35.7762 41.1043 35.8786 39.4547H30.6406C28.8678 39.4547 27.5551 38.0524 27.4785 36.3943C27.4759 36.3393 27.4756 36.2848 27.4766 36.2303H17.5184C12.1221 36.2303 7.22223 39.2786 4.98138 44.0298L4.12411 45.8476C7.27324 52.0077 12.4993 56.9952 18.9181 59.9521L22.7443 52.1733H23.2668C23.5646 50.7559 25.0036 49.6498 26.4979 49.6498H49.9996L60.1114 39.71C57.3174 36.6758 52.5453 36.3221 49.3066 38.9088Z"
      fill="#FFBE82"
    />
    <path
      d="M17.3565 44.8995H26.0331L25.9391 44.8526H29.9513C32.2404 44.8526 34.2258 43.5981 35.2171 41.7616H20.5986C18.8081 41.7616 17.3565 43.1665 17.3565 44.8995Z"
      fill="#FF965A"
    />
    <path
      d="M35.4084 40.1347H30.7885C28.5605 40.1347 26.7544 38.3867 26.7544 36.2303H35.4084C35.6743 36.2303 35.89 36.4391 35.89 36.6964V39.6687C35.89 39.926 35.6743 40.1347 35.4084 40.1347Z"
      fill="#FFCEA1"
    />
    <path
      d="M50.2846 49.3683L50.6216 49.0355H25.9699C24.1794 49.0355 22.7278 50.4404 22.7278 52.1734H45.1706C46.6247 52.1734 48.0177 51.607 49.0355 50.6019L50.2846 49.3683Z"
      fill="#FF965A"
    />
    <path
      d="M36.2026 5.92974C34.6864 8.98639 31.4101 10.513 31.4101 10.513C31.4101 10.513 30.592 7.08382 32.1082 4.02729C33.0274 2.17446 34.5931 0.883865 35.684 0.154633C36.2545 -0.226893 37.0396 0.13797 37.089 0.807461C37.183 2.0872 37.1216 4.07691 36.2026 5.92974Z"
      fill="#FFF5AA"
    />
    <path
      d="M30.253 19.4743L19.8307 12.9062C19.8307 12.9062 21.2162 16.9648 24.7817 19.2119C25.54 19.6898 26.3358 20.0472 27.1188 20.3137C29.6217 21.1659 31.2671 23.4912 31.2671 26.0592V29.7928H32.7427L32.7417 23.9162C32.7413 22.1235 31.805 20.4525 30.253 19.4743Z"
      fill="#94B938"
    />
    <path
      d="M33.9131 14.2475V14.149C33.9131 11.6182 35.5918 9.39941 38.0586 8.56008C38.8424 8.29347 39.6391 7.93577 40.3984 7.45722C43.964 5.21028 45.3495 1.15161 45.3495 1.15161L35.6051 7.2364C33.1808 8.75016 32.4325 11.8511 33.9131 14.2475Z"
      fill="#94B938"
    />
  </g>
  <defs>
    <clipPath id="clip0">
      <rect width="65" height="62.9105" fill="white" />
    </clipPath>
  </defs>
</svg>
