<svg
  width="65"
  height="63"
  viewBox="0 0 65 63"
  fill="none"
  xmlns="http://www.w3.org/2000/svg"
>
  <g clip-path="url(#clip0)">
    <path
      d="M64.9996 31.4242C65.0165 48.7122 50.762 62.6985 32.9013 62.9077C29.1021 62.9524 25.4522 62.3639 22.0538 61.2475C21.3888 61.0291 20.812 60.6183 20.3954 60.0716C16.8303 55.3929 11.959 51.7048 6.30116 49.5113C5.91584 49.3616 5.58953 49.0986 5.36042 48.7631C1.96294 43.7824 -0.0122756 37.8131 -0.000373766 31.3959C0.0328523 13.9217 14.9325 -0.25278 32.9851 0.00304306C50.7001 0.254067 64.9828 14.2231 64.9996 31.4242Z"
      fill="#B34068"
    />
    <path
      d="M55.7215 28.2606C55.4046 28.5188 55.0749 28.767 54.7307 29.0027C50.4371 31.9425 47.4378 36.3332 46.325 41.3081L45.4125 45.3873C44.2997 50.3627 41.3004 54.753 37.0069 57.6928C32.4792 60.7929 27.1204 61.9141 22.0274 61.2407C15.0474 58.9431 9.13569 54.4108 5.19915 48.5254C1.41089 40.0755 3.02507 30.2155 9.2676 23.3145C10.5262 21.9231 11.9718 20.6507 13.6004 19.5357L25.5801 11.3336L29.7259 8.49551L35.4264 4.5924C42.5814 -0.306161 52.4847 1.33677 57.546 8.26176L58.2363 9.20586C62.6732 15.276 61.4929 23.5564 55.7215 28.2606Z"
      fill="#FAB2A8"
    />
    <path
      d="M55.7215 28.2606C55.4046 28.5188 55.0748 28.7669 54.7306 29.0026C50.437 31.9424 47.4378 36.3332 46.3249 41.308L45.4125 45.3873C44.2996 50.3627 41.3004 54.7529 37.0068 57.6927C32.4786 60.7929 27.1198 61.9141 22.0263 61.2407C16.3223 59.3621 11.3315 55.9912 7.54919 51.6096C4.20924 43.8447 5.38504 34.9456 10.484 28.2606C12.0084 26.2615 13.8825 24.4597 16.0932 22.9464L28.0729 14.7442L32.2188 11.9061L37.9193 8.003C44.6359 3.4049 53.774 4.57075 59.0555 10.459C62.4931 16.3741 61.1046 23.8727 55.7215 28.2606Z"
      fill="#FCCFC9"
    />
    <path
      d="M34.8075 54.6838C27.0584 59.9889 16.2952 58.2034 10.8139 50.7039C4.16719 41.6099 6.40424 28.9781 15.7998 22.5451L37.6258 7.60171C43.055 3.88483 50.5963 5.13563 54.4372 10.3903L55.127 11.3344C58.5874 16.0684 57.4225 22.6444 52.5314 25.9932C47.4468 29.4744 43.9204 34.6364 42.6027 40.5285L41.6903 44.6073C40.7768 48.6918 38.3325 52.27 34.8075 54.6838Z"
      fill="#F9A29B"
    />
    <path
      d="M42.9488 39.1769C42.8208 39.6228 42.7043 40.073 42.6021 40.5285L41.6902 44.6073C40.7767 48.6914 38.3318 52.27 34.8069 54.6833C27.949 59.3788 18.7305 58.5192 12.9015 53.0605C13.6831 43.5883 28.3348 25.3654 36.3254 27.2286C40.3373 28.1645 42.5213 34.1291 42.9488 39.1769ZM42.8307 13.5135C46.747 14.1614 52.4906 13.524 54.7762 10.8545L54.437 10.3903C50.5962 5.13563 43.0549 3.88483 37.6257 7.60171L34.5679 9.69534C36.4856 11.7434 40.194 13.0767 42.8307 13.5135ZM56.5382 14.0117C54.1856 12.9543 49.8276 15.3105 48.0185 16.2896C46.6339 17.0389 39.6777 20.8033 40.43 25.1974C40.7787 27.2329 42.6106 28.4079 42.923 28.608C44.5883 29.676 46.6294 29.7806 48.5774 29.3592C49.7591 28.1151 51.0812 26.9857 52.5313 25.9932C56.5511 23.241 58.0512 18.3093 56.5382 14.0117ZM20.3204 32.0696C21.7833 31.028 23.5602 30.0849 23.517 28.6771C23.4441 26.2975 18.2018 23.5444 13.7059 24.1827C6.40115 30.6911 4.81275 41.452 10.1359 49.7147C12.117 46.8708 12.602 37.5647 20.3204 32.0696ZM35.8394 23.349C36.2277 23.1124 39.9505 20.7769 39.7774 17.5673C39.6098 14.4504 35.8508 12.0477 32.2693 11.2692L18.6149 20.6175C20.7558 24.2211 30.1915 26.7889 35.8394 23.349Z"
      fill="#F56D59"
    />
    <path
      d="M45.1626 21.1047C42.3002 23.0644 38.9954 23.3053 37.7804 21.6432C36.566 19.9815 37.9014 17.0456 40.7633 15.0859C43.6252 13.1266 46.93 12.8852 48.145 14.5473C49.36 16.2095 48.0245 19.1454 45.1626 21.1047Z"
      fill="#F8DF92"
    />
    <path
      d="M45.1626 21.1046C43.3009 22.3794 41.2528 22.9261 39.7135 22.6957C39.6535 21.8606 39.9585 20.9031 40.564 19.9618C41.3064 19.6892 42.0612 19.3038 42.7877 18.8066C43.8936 18.0496 44.7708 17.1468 45.3615 16.2282C46.5204 15.8024 47.6481 15.6527 48.5864 15.7928C48.7049 17.4434 47.4006 19.5726 45.1626 21.1046Z"
      fill="#FBF1D1"
    />
  </g>
  <defs>
    <clipPath id="clip0">
      <rect width="65" height="62.9105" fill="white" />
    </clipPath>
  </defs>
</svg>
