<svg
  width="65"
  height="63"
  viewBox="0 0 65 63"
  fill="none"
  xmlns="http://www.w3.org/2000/svg"
>
  <g clip-path="url(#clip0)">
    <path
      d="M65 31.4552C65 48.8277 50.4495 62.9105 32.5 62.9105C14.5505 62.9105 0 48.8277 0 31.4552C0 14.0828 14.5505 0 32.5 0C50.4495 0 65 14.0828 65 31.4552Z"
      fill="#005FD2"
    />
    <path
      d="M64.7049 27.2147L55.7329 18.5311C55.7051 18.5004 55.6779 18.4692 55.6476 18.4399L50.0602 13.0321C49.3163 12.3121 48.1108 12.3121 47.3669 13.0321C46.6582 13.718 46.6265 14.8094 47.2692 15.5332L43.3004 18.7423L32.1757 7.92761C32.1757 7.92761 28.7579 11.6766 26.9379 15.3921C23.0881 13.0239 15.2522 12.5497 15.2522 12.5497C15.2522 12.5497 15.7883 20.8431 18.5376 24.3449H14.3695C12.1072 24.3449 10.2733 26.1199 10.2733 28.3095C10.2733 29.3784 10.7102 30.3479 11.4203 31.0607L13.9222 33.4154V36.288C13.9222 41.3598 16.1538 45.9263 19.7174 49.1209L33.9317 62.8778C51.2167 62.153 65 48.3631 65 31.4552C65 30.0167 64.8983 28.6018 64.7049 27.2147Z"
      fill="#003D8D"
    />
    <path
      d="M54.3622 19.4886L48.9072 14.209L36.1588 24.5168L43.712 31.8267L54.3622 19.4886Z"
      fill="#FFED97"
    />
    <path
      d="M43.7121 31.8273L39.9352 28.1718L51.6347 16.8484L54.3622 19.4887L53.3387 20.7611L43.7121 31.8273Z"
      fill="#FFDF47"
    />
    <path
      d="M52.9548 21.0462L47.3674 15.6384C46.6235 14.9184 46.6235 13.7516 47.3674 13.0322C48.1108 12.3122 49.3168 12.3122 50.0602 13.0322L55.6476 18.44C56.3915 19.1594 56.3915 20.3267 55.6476 21.0462C54.9042 21.7661 53.6982 21.7661 52.9548 21.0462Z"
      fill="white"
    />
    <path
      d="M32.7539 53.7771H31.9922C22.0125 53.7771 13.9227 45.9469 13.9227 36.2885V31.4965H50.8239V36.2885C50.8234 45.9469 42.7336 53.7771 32.7539 53.7771Z"
      fill="#FFF5CB"
    />
    <path
      d="M50.8229 31.4956V36.2876C50.8229 45.947 42.7336 53.7777 32.7539 53.7777H32.373V31.4956H50.8229Z"
      fill="#FFED97"
    />
    <path
      d="M32.1757 7.92761C32.1757 7.92761 25.827 14.8915 25.827 19.2443C25.827 23.5972 27.89 25.3894 32.1757 27.0788C36.4613 25.3894 38.5248 23.5972 38.5248 19.2443C38.5248 14.8915 32.1757 7.92761 32.1757 7.92761Z"
      fill="#00FFEA"
    />
    <path
      d="M38.5248 19.2443C38.5248 23.2669 36.7614 25.1033 33.1095 26.6939C32.8104 26.8235 32.5 26.9521 32.1757 27.0793V7.92761C32.1757 7.92761 38.5248 14.8915 38.5248 19.2443Z"
      fill="#00DFC1"
    />
    <path
      d="M35.6054 20.2513L32.8313 22.116L32.6507 19.1364L32.686 19.1719L35.3143 15.8347L32.5625 17.6845L32.1757 11.3071L31.7889 17.6845L29.037 15.8347L31.6659 19.1719L31.7006 19.1364L31.5201 22.116L28.7464 20.2513L31.4343 23.5281L30.9984 30.7147H33.353L32.9171 23.5281L35.6054 20.2513Z"
      fill="#00CEB4"
    />
    <path
      d="M33.1095 26.694L33.353 30.7142H32.1757V11.3071L32.5625 17.684L35.3138 15.8342L32.686 19.1719L32.6503 19.1364L32.8313 22.1165L35.6044 20.2509L32.9166 23.5286L33.1095 26.694Z"
      fill="#008878"
    />
    <path
      d="M15.2522 12.5498C15.2522 12.5498 15.8508 21.8194 19.0306 24.897C22.2104 27.9746 24.979 27.8301 29.2439 26.0921C31.0395 21.9644 31.1893 19.2847 28.0095 16.2072C24.8293 13.1291 15.2522 12.5498 15.2522 12.5498Z"
      fill="#00FFEA"
    />
    <path
      d="M28.0095 16.2071C30.9483 19.0513 31.043 21.5568 29.6232 25.1805C29.5062 25.4767 29.3807 25.78 29.2444 26.092L15.2522 12.5502C15.2522 12.5502 24.8293 13.129 28.0095 16.2071Z"
      fill="#00DFC1"
    />
    <path
      d="M26.6805 18.917L26.0814 22.1337L23.7769 20.1505L23.828 20.1519L23.2483 15.993L22.6537 19.1843L17.7214 14.9395L22.1067 19.7137L18.8094 20.2887L23.1065 20.8498L23.1055 20.8004L25.1546 23.0312L21.8305 23.611L26.1256 24.0881L31.0678 29.4681L32.7326 27.8569L27.1739 23.0735L26.6805 18.917Z"
      fill="#00CEB4"
    />
    <path
      d="M29.6232 25.1805L32.7321 27.8569L31.9 28.6622L17.7209 14.9395L22.6537 19.1843L23.2478 15.993L23.828 20.1514L23.7764 20.151L26.0819 22.1342L26.68 18.917L27.1739 23.074L29.6232 25.1805Z"
      fill="#008878"
    />
    <path
      d="M50.3766 32.2745H14.3695C12.1072 32.2745 10.2733 30.4996 10.2733 28.31C10.2733 26.1204 12.1072 24.3455 14.3695 24.3455H50.3766C52.6389 24.3455 54.4728 26.1204 54.4728 28.31C54.4728 30.4996 52.6389 32.2745 50.3766 32.2745Z"
      fill="white"
    />
    <path
      d="M54.4728 28.3095C54.4728 29.4043 54.0146 30.3959 53.2732 31.1135C52.631 31.7355 51.7751 32.1521 50.8229 32.2515C50.6761 32.2673 50.5273 32.275 50.3761 32.275H32.373V24.3445H50.3761C52.6384 24.3445 54.4728 26.1199 54.4728 28.3095Z"
      fill="#FFF5CB"
    />
    <path
      d="M55.6476 21.0461C56.3915 20.3266 56.3915 19.1593 55.6476 18.4399L52.8175 15.7002L50.1261 18.3083L52.9548 21.0461C53.6982 21.766 54.9042 21.766 55.6476 21.0461Z"
      fill="#FFF5CB"
    />
  </g>
  <defs>
    <clipPath id="clip0">
      <rect width="65" height="62.9105" fill="white" />
    </clipPath>
  </defs>
</svg>
