<svg
  width="65"
  height="63"
  viewBox="0 0 65 63"
  fill="none"
  xmlns="http://www.w3.org/2000/svg"
>
  <path
    d="M33.5447 0C21.9499 0 11.8203 6.27361 6.36511 15.6115L29.2365 57.3502L64.015 39.2952C64.658 36.7889 64.9999 34.162 64.9999 31.4552C65 14.083 50.917 0 33.5447 0Z"
    fill="#94B938"
  />
  <path
    d="M56.6005 52.8493C56.6008 52.8493 56.6012 52.8492 56.6014 52.8492C60.1053 49.0747 62.6941 44.4395 64.014 39.295C64.4599 37.557 64.0307 35.6938 62.8132 34.3757C62.806 34.3679 62.7988 34.3602 62.7916 34.3524C60.0778 31.4392 58.0028 27.3996 57.3316 23.2844C57.1147 21.9546 56.4126 20.788 55.4129 19.972C53.6577 18.5392 52.3404 16.6524 51.6501 14.4944C50.9126 12.1891 49.8608 9.92296 48.549 8.51164C48.392 8.34267 48.1925 8.2372 47.9825 8.19589C47.3571 8.07308 46.7324 7.94836 46.1278 7.74649C42.9233 6.67667 39.1862 7.39732 39.1862 7.39732C39.1887 7.41046 37.9411 13.8587 41.156 17.0734C43.6234 19.5408 48.0001 19.3817 49.9042 19.1739C47.0079 20.3896 46.6565 23.2746 46.6625 23.2614C45.9839 27.3121 43.9918 31.354 41.1986 34.3521C38.5035 37.245 38.2367 41.8084 39.6998 45.6967C40.8658 48.7953 37.8032 51.786 34.7191 50.5818C34.6667 50.5614 34.6144 50.5407 34.5621 50.5201C32.524 49.7115 31.5918 47.3544 32.5133 45.3648C35.4796 38.9606 33.6919 31.0835 27.9851 29.1666C25.7035 28.4001 23.2556 28.7838 21.0649 30.0372C20.9824 30.0844 20.8989 30.1289 20.8143 30.1706C20.1805 30.4833 19.4235 30.0937 19.2989 29.398L19.2944 29.3725C19.1755 28.7086 19.6987 28.1049 20.3727 28.1282C22.5478 28.2032 25.7822 27.9225 27.7733 25.9315C30.179 23.5257 30.0877 19.3042 29.889 17.33C29.824 16.6841 29.3153 16.1745 28.6693 16.1095C26.7092 15.9123 22.5315 15.8209 20.1173 18.1765C20.1119 18.1816 20.1064 18.1858 20.1012 18.1911C20.0897 18.2024 20.0783 18.2136 20.0669 18.2251C19.6068 18.6852 19.2381 19.2117 18.944 19.7761C18.2401 21.1268 16.3859 21.3072 15.3872 20.157C15.376 20.1441 15.3649 20.1315 15.354 20.119C14.9668 19.6782 14.769 19.1005 14.8197 18.5159C14.8251 18.4537 14.8307 18.3914 14.8365 18.3292C15.2879 13.4631 8.82822 11.3909 6.36494 15.6116C3.47712 20.5597 1.91468 26.3445 2.10686 32.4582C2.29318 38.4073 4.1516 44.2472 7.64274 49.3038C13.3433 57.5606 22.8491 62.9106 33.5446 62.9106C42.3744 62.9106 50.6652 59.2433 56.6005 52.8493ZM15.8531 29.7346C15.2253 27.4823 14.8421 25.1285 14.7333 22.7029C16.096 25.0003 16.9136 27.7518 17.3297 30.4328C17.0196 30.3337 16.4745 30.0411 15.8531 29.7346Z"
    fill="#54A770"
  />
  <path
    d="M26.1874 14.5431C26.1874 14.5431 19.7272 13.297 16.5113 16.5129L16.5323 17.1237C16.653 20.636 18.4196 23.8868 21.301 25.8988C22.3764 25.5642 23.4015 25.0353 24.2177 24.2192C27.4335 21.0032 26.1874 14.5431 26.1874 14.5431Z"
    fill="#A0C83D"
  />
  <path
    d="M13.495 27.1986H15.6519C14.463 21.1455 11.8852 18.3011 11.7439 18.1491C11.3488 17.7242 10.6866 17.7005 10.26 18.0933C9.83346 18.4863 9.80629 19.1519 10.1973 19.5803C10.2072 19.5912 11.1962 20.6887 12.1706 22.9554C12.6213 24.0042 13.1151 25.4181 13.495 27.1986Z"
    fill="#A55A3C"
  />
  <path
    d="M13.3495 26.5565C13.8049 28.4542 14.1412 30.8138 14.1364 33.6386C14.1354 34.2205 14.6064 34.693 15.1883 34.694H15.1901C15.7711 34.694 16.2427 34.2235 16.2436 33.6422C16.2478 31.0606 15.9894 28.8253 15.5948 26.9179C14.8355 26.9841 14.0645 26.864 13.3495 26.5565Z"
    fill="#783C28"
  />
  <path
    d="M24.4292 27.4546C22.1476 26.6881 19.6998 27.0719 17.5091 28.3251C16.0694 29.1487 14.3107 29.1487 12.8709 28.3251C10.6803 27.0717 8.2323 26.6881 5.95087 27.4546L6.02266 34.9315C6.0891 41.8417 11.3416 47.5966 18.2172 48.292L24.7676 48.9545C26.8487 47.3849 28.5929 44.997 29.5757 42.0713C31.7243 35.6751 29.4201 29.131 24.4292 27.4546Z"
    fill="#FF640A"
  />
  <path
    d="M24.6691 46.9006C24.664 46.8988 24.6587 46.8972 24.6536 46.8954C23.715 46.5778 22.7059 46.5778 21.7673 46.8954C21.7622 46.8972 21.757 46.8988 21.7519 46.9006C16.7611 48.5772 10.9733 44.7512 8.82478 38.3551C7.83531 35.4098 7.79145 32.4341 8.51872 29.9164C8.72595 29.1992 8.51821 28.4261 7.97929 27.9094C7.44037 27.3927 6.65915 27.2167 5.95138 27.4543C5.95113 27.4544 5.951 27.4544 5.95074 27.4545C0.959907 29.131 -1.34422 35.6751 0.804326 42.0712C2.95288 48.4674 8.74049 52.2933 13.7315 50.6167C13.7366 50.6149 13.7418 50.6133 13.7469 50.6115C14.6855 50.2939 15.6946 50.2939 16.6332 50.6115C16.6383 50.6133 16.6435 50.6149 16.6486 50.6167C19.441 51.5548 22.4828 50.7699 24.9969 48.7764C25.3081 48.5297 25.4592 48.1326 25.391 47.7414C25.3228 47.3501 25.0462 47.0274 24.6697 46.901C24.6696 46.9007 24.6693 46.9007 24.6691 46.9006Z"
    fill="#E04955"
  />
  <path
    d="M20.7199 23.527C21.9582 22.6532 23.2174 21.1524 24.1529 18.6009C24.3108 18.1704 23.789 17.8147 23.4486 18.1219L19.3726 21.7998C18.9395 22.1905 18.2523 21.8754 18.2607 21.2922C18.2761 20.2224 18.396 19.0001 18.7407 17.8272C19.1271 16.5123 17.523 15.518 16.5457 16.4789C16.5342 16.4901 16.5228 16.5015 16.5114 16.5129C13.2955 19.7289 14.5415 26.1891 14.5415 26.1891C14.5415 26.1891 18.1388 26.8825 21.3009 25.8981C21.9848 25.6851 21.8431 24.6804 21.127 24.67C21.1074 24.6697 21.0879 24.6693 21.0684 24.6691C20.4587 24.6581 20.2218 23.8784 20.7199 23.527Z"
    fill="#94B938"
  />
  <path
    d="M45.3064 7.65503C42.0904 4.4391 35.6302 5.68515 35.6302 5.68515C35.6302 5.68515 34.9293 9.31899 35.9355 12.4927L47.2762 17.3312C47.2762 17.3313 48.5223 10.8711 45.3064 7.65503Z"
    fill="#A0C83D"
  />
  <path
    d="M47.4217 12.7191C47.4213 12.7191 47.422 12.7191 47.4216 12.7191C47.4211 12.7254 47.4205 12.7318 47.4198 12.7382C47.3388 13.5352 46.2289 13.676 45.9264 12.9342C45.3729 11.5764 43.865 9.24769 39.9345 8.66541L43.5636 12.5927C44.0693 13.1399 43.635 14.027 42.8932 13.9567C41.0512 13.7822 39.0128 13.2306 37.6002 11.818C37.5437 11.7615 37.4888 11.7041 37.435 11.6457C36.7878 10.9422 35.6492 11.5934 35.9393 12.5042C36.2749 13.5579 36.7991 14.5603 37.6002 15.3614C40.8162 18.5773 47.2764 17.3313 47.2764 17.3313C47.2764 17.3313 47.6939 15.1663 47.4217 12.7191Z"
    fill="#94B938"
  />
  <path
    d="M46.6243 15.2947H48.7861C47.5541 9.62249 45.1301 6.94675 44.9931 6.79945C44.5969 6.37314 43.9302 6.34891 43.5041 6.74513C43.078 7.14135 43.0536 7.80805 43.4498 8.23411C43.478 8.26459 45.4882 10.4852 46.6243 15.2947Z"
    fill="#A55A3C"
  />
  <path
    d="M47.5137 14.9037C47.1848 14.9037 46.8628 14.9334 46.55 14.9896C47.0415 16.9595 47.3902 19.3824 47.3853 22.2889C47.3843 22.8708 47.8552 23.3433 48.4371 23.3443H48.4389C49.0199 23.3443 49.4915 22.8738 49.4925 22.2925C49.4973 19.4694 49.1879 17.06 48.7297 15.0412C48.3389 14.9513 47.932 14.9037 47.5137 14.9037Z"
    fill="#783C28"
  />
  <path
    d="M59.2358 32.64C56.522 29.7268 54.447 25.6872 53.7758 21.5721C53.3568 19.0028 51.127 17.0419 48.4394 17.0419C47.6767 17.0419 46.9508 17.1999 46.2929 17.485C44.9596 18.0627 44.1064 19.3886 44.1064 20.8416V47.1862C44.1064 47.1862 51.7947 51.3318 52.8471 51.1742C56.2339 50.6665 59.4923 47.7323 60.9137 43.5009C62.3107 39.3411 61.5363 35.1093 59.2358 32.64Z"
    fill="#FFE046"
  />
  <path
    d="M52.9675 48.442C50.5884 48.442 48.4766 47.4473 46.7586 45.8702C45.0344 44.2875 44.2884 41.9322 44.1868 39.6612C44.0888 37.4739 45.2357 34.9753 46.7586 33.4523C46.8052 33.4056 46.8527 33.3594 46.9006 33.3138C48.5775 31.7197 48.988 29.233 48.0313 27.1265C47.5466 26.0592 47.2592 24.8173 47.1943 23.3697C47.1353 22.0524 47.5281 20.6226 48.1824 19.3608C48.7713 18.2253 47.6149 16.953 46.4282 17.4303C44.7401 18.1092 43.4289 19.6229 43.1062 21.5494C42.9901 22.2429 42.8628 22.9352 42.6664 23.6105C41.692 26.9601 40.0192 30.0889 37.6424 32.6402C35.3421 35.1095 34.5675 39.3413 35.9648 43.5009C37.8278 49.0471 42.8465 52.3647 47.1742 50.9109L47.1876 50.9064C47.9994 50.6329 48.8784 50.6329 49.6903 50.9064L49.7036 50.9109C50.8607 51.2996 52.1159 51.3409 53.3641 51.0619C54.9261 50.7127 54.6626 48.4235 53.0623 48.4416C53.0309 48.4417 52.9993 48.442 52.9675 48.442Z"
    fill="#FCB54C"
  />
</svg>
