<svg
  width="65"
  height="63"
  viewBox="0 0 65 63"
  fill="none"
  xmlns="http://www.w3.org/2000/svg"
>
  <g clip-path="url(#clip0)">
    <path
      d="M65 31.4552C65 43.3178 58.2153 53.6466 48.1967 59.0051C43.5436 61.4938 38.1112 61.5608 32.4185 61.5608C14.4693 61.5608 2.14862 49.0138 2.14862 31.6416C2.14862 22.0894 4.39916 13.3453 11.3436 7.57645C17.029 2.85372 24.4201 0 32.5 0C50.4492 0 65 14.0829 65 31.4552Z"
      fill="#93DCFC"
    />
    <path
      d="M46.2126 52.4909C41.1003 52.4764 36.9785 48.4274 36.9785 43.4795V27.9374C36.9785 27.9371 36.9785 27.9369 36.9785 27.9366C36.9784 27.5807 36.9188 27.1851 36.7889 26.8078H36.7884C36.5509 26.1186 36.1034 25.5224 35.5176 25.0923C34.7135 24.5019 34.0662 23.706 33.6486 22.7713C33.3608 22.1273 33.8415 21.4077 34.5665 21.4077C35.1986 21.4077 35.7507 20.9461 35.7917 20.3354C35.8366 19.6663 35.289 19.1099 34.6072 19.1099V17.4429C34.6072 15.5935 33.0582 14.0942 31.1472 14.0942H18.2268C16.3476 14.0942 15.0246 12.2966 15.6492 10.5811C15.6642 10.5399 15.6793 10.4988 15.6944 10.4576C16.6315 7.91778 13.4591 5.82149 11.3445 7.5778C4.48521 13.2754 0.108467 21.693 0.00181369 31.1034C-0.195075 48.4891 14.5357 62.9105 32.5 62.9105C38.1927 62.9105 43.5432 61.4935 48.1961 59.0044C51.4573 57.2598 50.1668 52.4765 46.4407 52.4908C46.397 52.4909 46.3535 52.491 46.3097 52.491C46.2775 52.491 46.245 52.491 46.2126 52.4909Z"
      fill="#81B8FD"
    />
    <path
      d="M64.3505 29.8832C64.1355 29.7847 63.8831 29.8449 63.7141 30.0068C63.1401 30.5568 62.2985 30.6907 61.5936 30.4093C61.338 30.0351 61.084 29.7891 60.7911 29.5657C60.792 29.5655 60.793 29.5654 60.7939 29.5653C60.7878 29.5606 60.5911 29.4211 60.5346 29.3848C60.25 28.7172 60.3732 27.9008 60.9532 27.3341C61.1204 27.1708 61.1821 26.9265 61.0806 26.7186C60.899 26.3466 60.4266 26.2907 60.1573 26.551C59.8412 26.8568 59.5951 27.2235 59.4406 27.6337C59.2059 28.2566 58.5991 28.6859 57.9141 28.6738C56.9599 28.6571 55.9625 28.8356 54.9969 29.126C53.1839 29.6715 51.2644 29.7345 49.3898 29.4438C49.0801 29.3958 48.7659 29.3698 48.4489 29.3692C40.7397 29.3692 37.4621 35.5112 43.7108 38.336C43.5333 38.6333 43.3061 39.042 43.1147 39.4227L43.1136 39.4216C42.9816 39.6841 42.7993 40.0811 42.7151 40.2788C42.4355 40.9513 42.198 41.6103 42.0279 42.3749C41.8887 43.0015 41.8823 43.2611 41.8554 43.4507C41.5395 46.7866 43.5313 48.7999 47.0606 48.4886L47.0625 48.4903C47.0706 48.4896 47.0293 48.4938 47.165 48.48C47.1646 48.4797 47.1642 48.4794 47.1639 48.4791C47.5137 48.4449 47.9842 48.3628 48.174 48.3234C48.8983 48.1729 49.6701 47.9262 50.3398 47.6584L50.339 47.6576C50.6359 47.5389 50.9863 47.3853 51.2255 47.2728L51.2241 47.2715C51.5916 47.0985 51.9614 46.9084 52.3322 46.7015C53.2661 48.6124 54.7637 49.8515 56.4525 49.8515C59.2835 49.8515 61.5785 46.3708 61.5785 42.0771C61.5785 41.7702 61.5523 41.4675 61.5035 41.17C61.2093 39.3722 61.2963 37.5348 61.8568 35.7973C62.1828 34.7867 62.3444 33.8234 62.3284 32.9486C62.3163 32.2846 62.7589 31.6962 63.4036 31.4692C63.8285 31.3195 64.2087 31.0815 64.5232 30.7771C64.7927 30.5165 64.735 30.0595 64.3505 29.8832Z"
      fill="#81B8FD"
    />
    <path
      d="M40.8747 7.58169C40.3538 9.51796 41.2421 11.9101 42.2478 13.6491C41.71 14.566 41.3461 15.5871 41.3434 16.6496C41.3434 18.1608 41.6715 19.5557 42.2257 20.6794C43.9029 24.0809 47.028 24.2095 48.8754 21.4855C49.1876 21.0252 49.8094 20.8703 50.3205 21.1119C50.3278 21.1154 50.3352 21.1188 50.3424 21.1223L50.3414 21.1233C50.5677 21.2298 50.9212 21.3824 51.1086 21.4573C51.7177 21.6908 52.2501 21.8808 52.9848 22.0334C53.3358 22.1072 53.608 22.1401 53.9478 22.1781C56.9134 22.441 58.6167 20.9836 58.4573 17.8135L58.4589 17.8119C58.4583 17.8052 58.4618 17.8399 58.4496 17.726C58.4494 17.7263 58.4491 17.7266 58.4488 17.7269C58.421 17.4694 58.3623 17.1178 58.3095 16.88C58.1957 16.368 57.9955 15.7233 57.7142 15.064L57.7135 15.0648C57.6066 14.8142 57.4671 14.5166 57.3689 14.3215L57.3678 14.3226C57.3663 14.3195 57.3647 14.3164 57.3631 14.3134C57.1134 13.8173 57.268 13.2176 57.742 12.9108C57.9734 12.7612 58.1874 12.6012 58.3827 12.4324C56.3929 9.90019 54.0169 7.66792 51.3376 5.82021C51.3317 5.82169 51.3257 5.82329 51.3199 5.82477C50.1849 6.1188 48.9823 6.09306 47.8886 5.67745C46.6857 5.22033 45.5363 4.9906 44.5213 5.01228C43.9519 5.02447 43.4278 4.69509 43.247 4.17243C43.1163 3.79476 42.897 3.45749 42.6102 3.178C42.4436 3.01565 42.1753 2.9835 41.9806 3.11321C41.7185 3.28775 41.6943 3.63746 41.9081 3.8444C42.4158 4.33577 42.5239 5.0464 42.2763 5.62682C41.9415 5.84079 41.7205 6.05364 41.5191 6.30099C41.5189 6.30025 41.5188 6.29939 41.5188 6.29865C41.508 6.31195 41.4622 6.37342 41.3587 6.51409C40.7559 6.75454 40.0378 6.64466 39.5411 6.18335C39.3495 6.00535 39.0477 5.96729 38.8471 6.1358C38.6291 6.31873 38.6205 6.6385 38.8208 6.83251C39.3407 7.33558 40.0673 7.62887 40.8747 7.58169Z"
      fill="#81B8FD"
    />
    <path
      d="M32.1303 27.3646C31.0738 26.5889 30.3371 25.4964 29.9817 24.2808H10.772V29.5898H33.5352C33.3716 28.6852 32.8562 27.8976 32.1303 27.3646Z"
      fill="#FFF5AA"
    />
    <path
      d="M10.9908 29.5898C11.0234 29.3752 11.0446 29.1584 11.0539 28.9399L11.0608 28.7775C11.1613 26.3936 13.1874 24.5112 15.6524 24.5112H30.0531C29.8737 23.9785 29.768 23.4193 29.744 22.8498L29.5572 18.4213H6.6274L6.44056 22.85C6.36586 24.6203 5.51275 26.2937 4.05435 27.3645C3.32827 27.8975 2.81307 28.6851 2.6494 29.5898H10.9908Z"
      fill="#FFE046"
    />
    <path
      d="M33.5913 58.7332V30.2095C33.5913 29.8146 33.524 29.4351 33.4016 29.0801H12.7494V58.7332H33.5913Z"
      fill="#FFE046"
    />
    <path
      d="M27.7601 16.3665H11.0415V22.5311H31.2199V19.7152C31.2199 17.8658 29.6709 16.3665 27.7601 16.3665Z"
      fill="#FF640A"
    />
    <path
      d="M14.7838 16.3665H8.42463C6.51378 16.3665 4.96463 17.8657 4.96463 19.7152V22.5311H11.3238V19.7152C11.3238 17.8658 12.8729 16.3665 14.7838 16.3665Z"
      fill="#E04955"
    />
    <path
      d="M16.8847 58.1422C16.6336 58.1422 16.3884 58.118 16.1515 58.0716C14.5914 57.7669 15.0388 55.5073 16.6149 55.7225C17.2305 55.8065 17.8633 55.8389 18.5085 55.8147C23.9383 55.6111 28.3614 51.3598 28.6045 46.1059C28.8745 40.2682 24.0644 35.4531 18.0923 35.4531C17.3189 35.4531 16.5653 35.5342 15.8396 35.6878C14.4785 35.9761 13.1974 34.9458 13.1974 33.5973V29.0801H2.78323C2.66092 29.4352 2.5936 29.8146 2.5936 30.2095V58.9518C2.5936 60.9226 4.24444 62.5204 6.28078 62.5204H29.9039C31.9404 62.5204 33.5912 60.9226 33.5912 58.9516V58.1421H16.8847V58.1422Z"
      fill="#FCB54C"
    />
    <path
      d="M18.0923 53.4769C23.904 53.4769 28.6154 48.917 28.6154 43.2921C28.6154 37.6672 23.904 33.1073 18.0923 33.1073C12.2806 33.1073 7.56923 37.6672 7.56923 43.2921C7.56923 48.917 12.2806 53.4769 18.0923 53.4769Z"
      fill="#FFF5AA"
    />
    <path
      d="M17.7362 36.9371H13.9089L11.9953 40.145L13.9089 43.353H17.7362L19.6497 40.145L17.7362 36.9371Z"
      fill="#FFE046"
    />
    <path
      d="M23.4209 40.145H19.5937L17.68 43.353L19.5937 46.5609H23.4209L25.3345 43.353L23.4209 40.145Z"
      fill="#FCB54C"
    />
    <path
      d="M17.7362 43.2311H13.9089L11.9953 46.4391L13.9089 49.6469H17.7362L19.6497 46.4391L17.7362 43.2311Z"
      fill="#FC9842"
    />
    <path
      d="M31.2199 21.3822H12.5966C12.6821 21.6846 12.7344 22.0003 12.7494 22.3245C12.7713 22.7972 12.6841 23.2548 12.5134 23.6801H31.2201C31.8756 23.6801 32.4071 23.1657 32.4071 22.5312C32.4071 21.8967 31.8755 21.3822 31.2199 21.3822Z"
      fill="#FF640A"
    />
    <path
      d="M13.0185 23.68H4.96459C4.30901 23.68 3.77753 23.1656 3.77753 22.5311C3.77753 21.8966 4.30889 21.3822 4.96459 21.3822H13.0185C13.674 21.3822 14.2055 21.8966 14.2055 22.5311C14.2055 23.1656 13.6742 23.68 13.0185 23.68Z"
      fill="#E04955"
    />
    <path
      d="M58.953 33.923C58.1625 33.923 57.3719 33.6318 56.7699 33.0493C56.1868 32.4849 55.8657 31.7345 55.8657 30.9363C55.8657 30.1382 56.1868 29.3878 56.7699 28.8233C56.9916 28.609 57.3509 28.609 57.5724 28.8233C57.7941 29.0379 57.7941 29.3857 57.5724 29.6001C57.2037 29.957 57.0005 30.4315 57.0005 30.9361C57.0005 31.4409 57.2035 31.9154 57.5724 32.2723C58.3337 33.009 59.5723 33.0089 60.3335 32.2723C60.5552 32.0579 60.9145 32.0579 61.136 32.2723C61.3577 32.4868 61.3577 32.8346 61.136 33.0492C60.5342 33.6318 59.7436 33.923 58.953 33.923Z"
      fill="#444145"
    />
    <path
      d="M57.733 32.1172C57.6296 32.0172 57.5209 31.9237 57.4072 31.8369C56.658 31.2647 55.2796 31.3768 53.6505 31.86C46.9263 33.8544 42.3927 39.9415 42.3927 46.7483V49.6279H47.6597C49.6165 48.7343 51.6515 47.3487 53.5171 45.5431C58.5119 40.7089 60.3993 34.698 57.733 32.1172Z"
      fill="#FFE046"
    />
    <path
      d="M43.4513 50.4728C40.7849 47.892 42.6724 41.8811 47.6672 37.0469C50.829 33.9867 54.4778 32.1323 57.4065 31.8376C54.5862 29.6834 48.6624 31.5507 43.8612 36.1975C38.8664 41.0317 36.9788 47.0427 39.6453 49.6234C40.6238 50.5704 42.08 50.9232 43.7778 50.7524C43.664 50.6655 43.5547 50.5729 43.4513 50.4728Z"
      fill="#FCB54C"
    />
    <path
      d="M38.6406 44.6472L44.7868 50.5958C45.7582 50.3937 46.788 50.0395 47.8381 49.5451L39.7262 41.694C39.2153 42.7103 38.8494 43.707 38.6406 44.6472Z"
      fill="#783C28"
    />
    <path
      d="M43.6757 50.7627C43.6745 50.7628 43.6764 50.7626 43.6757 50.7627V50.7627Z"
      fill="#FCB54C"
    />
    <path
      d="M55.7496 31.0881C52.6349 30.3862 47.8588 32.3283 43.8611 36.1975C43.0347 36.9973 42.2941 37.8293 41.6444 38.6726C41.6425 38.675 41.6405 38.6776 41.6386 38.6801C40.8686 39.6804 40.2275 40.6965 39.7263 41.6938L38.6499 44.649C38.4985 45.3122 38.47 45.7139 38.4682 45.7229C38.3166 47.3238 38.6865 48.6954 39.6453 49.6234C40.6035 50.5508 42.0206 50.9071 43.6735 50.7609L43.6752 50.7626H43.6759C43.6784 50.7623 43.6953 50.7606 43.7778 50.7522C43.7774 50.752 43.7771 50.7516 43.7767 50.7514C44.1049 50.7184 44.4421 50.6659 44.7866 50.5944L43.0376 46.1415C42.6476 45.7641 42.5018 45.2107 42.6577 44.6987C42.6608 44.6886 42.6638 44.6785 42.667 44.6684C42.9927 43.6095 44.3682 43.27 45.1754 44.0511L49.7637 48.4919C50.5604 47.9955 51.3556 47.4238 52.1331 46.7813L45.1068 39.9809C45.8347 38.9808 46.6913 37.9913 47.6672 37.0467C50.2621 34.5353 53.1848 32.8361 55.7685 32.1444C56.3293 31.9945 56.3165 31.2159 55.7496 31.0881Z"
      fill="#FCB54C"
    />
    <path
      d="M38.6406 44.6472L44.7868 50.5958C45.7582 50.3937 46.788 50.0395 47.8381 49.5451L39.7262 41.694C39.2153 42.7103 38.8494 43.707 38.6406 44.6472Z"
      fill="#444145"
    />
    <path
      d="M41.2655 39.1798L50.4357 48.0552C51.2111 47.5297 51.9806 46.9336 52.7295 46.2713L43.1088 36.9598C42.4243 37.6845 41.8085 38.4293 41.2655 39.1798Z"
      fill="#444145"
    />
    <path
      d="M45.0616 31.6417C43.5582 31.6417 40.6395 36.7708 40.8563 37.3177C41.2284 38.2561 40.4426 39.3496 39.5205 39.5948C39.2348 39.6708 38.9602 39.6784 38.7035 39.6334C40.1726 40.8074 42.4733 41.5644 45.0616 41.5644C49.498 41.5644 53.0943 36.6032 53.0943 36.6032C53.0943 36.6032 49.498 31.6417 45.0616 31.6417Z"
      fill="white"
    />
    <path
      d="M41.2208 38.3108C41.2208 36.2181 43.1792 34.7045 45.4956 33.9297C46.7761 33.5014 46.4692 31.6539 45.1144 31.6418C45.0967 31.6417 45.0791 31.6416 45.0615 31.6416C40.6252 31.6416 37.0288 33.8628 37.0288 36.6028C37.0288 37.7078 37.614 38.7283 38.6033 39.5527C39.6425 40.4187 41.2358 39.6727 41.2209 38.3456C41.2208 38.3341 41.2208 38.3224 41.2208 38.3108Z"
      fill="#FFF5AA"
    />
    <path
      d="M53.0654 36.575L50.4824 45.6684C50.4824 46.6723 49.6071 47.5195 48.5699 47.5195C48.5066 47.5195 48.4441 47.5161 48.3823 47.5099C49.181 50.228 50.9767 52.1239 53.0655 52.1239C55.8965 52.1239 58.1915 48.6432 58.1915 44.3495C58.1915 40.0558 53.0654 36.575 53.0654 36.575Z"
      fill="white"
    />
    <path
      d="M56.1286 39.4323C56.1422 39.4574 56.1591 39.4805 56.1833 39.499C56.1652 39.4766 56.1468 39.4545 56.1286 39.4323Z"
      fill="#FFF5AA"
    />
    <path
      d="M50.6587 46.9813C50.6587 44.7769 52.1432 42.6585 53.5879 41.1187C54.8542 39.769 54.6105 37.6444 53.0783 36.5838C53.0697 36.5779 53.0654 36.575 53.0654 36.575C53.0654 36.575 47.9394 40.0557 47.9394 44.3493C47.9394 45.4117 48.0799 46.4241 48.3342 47.3463C48.6933 48.6481 50.6652 48.3844 50.659 47.0371C50.6587 47.0185 50.6587 46.9999 50.6587 46.9813Z"
      fill="#FFF5AA"
    />
    <path
      d="M37.3246 9.86162C36.6397 9.86162 35.9547 9.60935 35.4333 9.10468C35.2414 8.9188 35.2413 8.61762 35.4333 8.43175C35.6252 8.24599 35.9365 8.24599 36.1286 8.43175C36.788 9.06994 37.8613 9.06994 38.5207 8.43175C38.8401 8.12256 39.016 7.71139 39.016 7.2741C39.016 6.83681 38.8401 6.42575 38.5207 6.11657C38.3286 5.93069 38.3286 5.62952 38.5207 5.44364C38.7127 5.25788 39.0239 5.25788 39.2159 5.44364C39.7211 5.93254 39.9993 6.58269 39.9993 7.2741C39.9993 7.96551 39.7211 8.61565 39.2159 9.10468C38.6945 9.60923 38.0095 9.86162 37.3246 9.86162Z"
      fill="#444145"
    />
    <path
      d="M54.9154 19.1537L53.9815 16.5939C53.1881 15.0309 51.9895 13.3712 50.3992 11.8322C46.072 7.64407 40.6915 6.06145 38.3814 8.29717C38.2918 8.38389 38.2082 8.47492 38.1305 8.57038C36.2022 10.9352 38.8821 15.1671 43.0416 19.1928C47.3689 23.381 51.6976 25.3868 54.0076 23.1511C54.9861 22.2041 55.2547 20.7915 54.9154 19.1537Z"
      fill="#FFE046"
    />
    <path
      d="M54.812 20.2721C52.5021 22.5078 47.1215 20.9252 42.7943 16.737C40.055 14.0858 38.3953 11.0265 38.1313 8.5708C36.2032 10.9356 37.8745 15.9027 42.034 19.9285C46.3612 24.1166 51.7416 25.6993 54.0517 23.4635C54.8995 22.643 55.2152 21.4221 55.0622 19.9985C54.9845 20.0938 54.9015 20.1855 54.812 20.2721Z"
      fill="#FCB54C"
    />
    <path
      d="M49.5973 24.3058L54.9219 19.1523C54.7411 18.3379 54.424 17.4744 53.9814 16.5939L46.9537 23.3956C47.8636 23.8239 48.7558 24.1308 49.5973 24.3058Z"
      fill="#783C28"
    />
    <path
      d="M53.0391 14.9794C52.5948 14.3113 52.0831 13.6446 51.5079 12.9926L45.4208 18.8841C44.5257 18.2737 43.6399 17.5555 42.7944 16.7372C40.5464 14.5615 39.0254 12.1108 38.4064 9.94442C38.272 9.47412 37.575 9.48495 37.4607 9.96018C36.8324 12.5719 38.5709 16.5766 42.0342 19.9285C42.7501 20.6214 43.4949 21.2425 44.2498 21.7872C44.2521 21.7888 44.2542 21.7904 44.2565 21.792C45.152 22.4376 46.0615 22.9753 46.9542 23.3956C47.2115 23.5168 48.3902 23.3931 48.3902 23.3931C49.2513 23.7129 49.1767 24.2172 49.597 24.3088C50.1472 24.4289 50.3989 24.4191 50.5607 24.4505C51.9936 24.5776 53.2214 24.2674 54.052 23.4634C54.8822 22.6599 55.201 21.4717 55.0701 20.0858L55.0718 20.0842C55.07 20.0658 55.0671 20.0467 55.0652 20.0281C55.0642 20.0181 55.0637 20.0082 55.0625 19.9983C55.0623 19.9986 55.062 19.9989 55.0617 19.9993C54.9725 19.1675 54.7243 18.2672 54.3271 17.3363L50.9355 20.619C50.5976 20.946 50.1024 21.0683 49.6439 20.9375C49.6349 20.9349 49.6259 20.9323 49.6168 20.9298C48.669 20.6567 48.3651 19.5033 49.0643 18.8265L53.0391 14.9794Z"
      fill="#FCB54C"
    />
    <path
      d="M49.5973 24.3058L54.9219 19.1523C54.7411 18.3379 54.424 17.4744 53.9814 16.5939L46.9537 23.3956C47.8636 23.8239 48.7558 24.1308 49.5973 24.3058Z"
      fill="#444145"
    />
    <path
      d="M44.7036 22.1049L52.648 14.4159C52.1776 13.7657 51.6441 13.1205 51.0513 12.4926L42.7165 20.5594C43.3651 21.1332 44.0319 21.6497 44.7036 22.1049Z"
      fill="#444145"
    />
    <path
      d="M42.3969 12.1866C42.3969 12.1866 37.956 15.2021 37.956 18.9219L45.0378 24.3374C46.1299 23.1104 46.8378 21.1415 46.8378 18.9219C46.8378 15.2022 42.3969 12.1866 42.3969 12.1866Z"
      fill="white"
    />
    <path
      d="M43.9257 22.1424C42.0524 22.1424 40.6977 20.5003 40.0041 18.558C39.6207 17.4844 37.967 17.7417 37.9563 18.8776C37.9561 18.8923 37.956 18.9071 37.956 18.9219C37.956 22.6417 39.9443 25.6571 42.3969 25.6571C43.3861 25.6571 44.2995 25.1665 45.0374 24.337C45.8125 23.4658 45.1447 22.1298 43.9569 22.1422C43.9464 22.1424 43.936 22.1424 43.9257 22.1424Z"
      fill="#FFF5AA"
    />
    <path
      d="M49.3309 7.91284C45.6188 7.91284 42.5862 11.9216 42.3834 12.1953C43.8847 11.4183 47.3419 13.0886 47.352 13.095C47.6144 13.2627 51.2448 14.4028 52.0526 15.6155C52.1555 15.7699 52.2423 15.9303 52.3153 16.0945C54.6653 15.4043 56.29 13.925 56.29 12.2111C56.2899 9.83716 53.1743 7.91284 49.3309 7.91284Z"
      fill="white"
    />
    <path
      d="M44.9295 9.6425C44.952 9.63105 44.9727 9.61688 44.9893 9.59656C44.969 9.61183 44.9495 9.62723 44.9295 9.6425Z"
      fill="#FFF5AA"
    />
    <path
      d="M51.6868 14.2289C49.7135 14.2289 47.8173 12.9841 46.439 11.7728C45.2308 10.711 43.3291 10.9153 42.3798 12.2001C42.3746 12.2072 42.3719 12.2108 42.3719 12.2108C42.3719 12.2108 45.4875 16.5089 49.3308 16.5089C50.2817 16.5089 51.188 16.3912 52.0135 16.1778C52.0625 16.1651 52.109 16.1501 52.1532 16.1329C53.1571 15.7405 52.8919 14.2236 51.7366 14.2286C51.7201 14.2289 51.7034 14.2289 51.6868 14.2289Z"
      fill="#FFF5AA"
    />
  </g>
  <defs>
    <clipPath id="clip0">
      <rect width="65" height="62.9105" fill="white" />
    </clipPath>
  </defs>
</svg>
