<svg
  width="18"
  height="17"
  viewBox="0 0 18 17"
  fill="none"
  xmlns="http://www.w3.org/2000/svg"
>
  <path
    d="M17.3333 7.89695C17.3333 12.2123 13.6021 15.7105 8.99999 15.7105C8.17463 15.7117 7.35268 15.5969 6.5552 15.369C5.94687 15.6994 4.54999 16.3334 2.19999 16.7464C1.99166 16.7821 1.83332 16.5499 1.91561 16.3423C2.28436 15.4091 2.6177 14.1657 2.7177 13.0316C1.44166 11.6586 0.666656 9.8615 0.666656 7.89695C0.666656 3.58162 4.39791 0.083374 8.99999 0.083374C13.6021 0.083374 17.3333 3.58162 17.3333 7.89695ZM5.87499 7.89695C5.87499 7.60091 5.76524 7.31699 5.56989 7.10766C5.37454 6.89832 5.10959 6.78072 4.83332 6.78072C4.55706 6.78072 4.2921 6.89832 4.09675 7.10766C3.9014 7.31699 3.79166 7.60091 3.79166 7.89695C3.79166 8.19299 3.9014 8.4769 4.09675 8.68624C4.2921 8.89557 4.55706 9.01317 4.83332 9.01317C5.10959 9.01317 5.37454 8.89557 5.56989 8.68624C5.76524 8.4769 5.87499 8.19299 5.87499 7.89695ZM10.0417 7.89695C10.0417 7.60091 9.93191 7.31699 9.73656 7.10766C9.54121 6.89832 9.27626 6.78072 8.99999 6.78072C8.72372 6.78072 8.45877 6.89832 8.26342 7.10766C8.06807 7.31699 7.95832 7.60091 7.95832 7.89695C7.95832 8.19299 8.06807 8.4769 8.26342 8.68624C8.45877 8.89557 8.72372 9.01317 8.99999 9.01317C9.27626 9.01317 9.54121 8.89557 9.73656 8.68624C9.93191 8.4769 10.0417 8.19299 10.0417 7.89695ZM13.1667 9.01317C13.4429 9.01317 13.7079 8.89557 13.9032 8.68624C14.0986 8.4769 14.2083 8.19299 14.2083 7.89695C14.2083 7.60091 14.0986 7.31699 13.9032 7.10766C13.7079 6.89832 13.4429 6.78072 13.1667 6.78072C12.8904 6.78072 12.6254 6.89832 12.4301 7.10766C12.2347 7.31699 12.125 7.60091 12.125 7.89695C12.125 8.19299 12.2347 8.4769 12.4301 8.68624C12.6254 8.89557 12.8904 9.01317 13.1667 9.01317Z"
    fill="#4F4F4F"
  />
</svg>
