<svg
  width="20"
  height="20"
  viewBox="0 0 20 20"
  fill="none"
  xmlns="http://www.w3.org/2000/svg"
>
  <path
    d="M3.33331 8.75C2.64165 8.75 2.08331 9.30833 2.08331 10C2.08331 10.6917 2.64165 11.25 3.33331 11.25C4.02498 11.25 4.58331 10.6917 4.58331 10C4.58331 9.30833 4.02498 8.75 3.33331 8.75ZM3.33331 3.75C2.64165 3.75 2.08331 4.30833 2.08331 5C2.08331 5.69167 2.64165 6.25 3.33331 6.25C4.02498 6.25 4.58331 5.69167 4.58331 5C4.58331 4.30833 4.02498 3.75 3.33331 3.75ZM3.33331 13.75C2.64165 13.75 2.08331 14.3167 2.08331 15C2.08331 15.6833 2.64998 16.25 3.33331 16.25C4.01665 16.25 4.58331 15.6833 4.58331 15C4.58331 14.3167 4.02498 13.75 3.33331 13.75ZM5.83331 15.8333H17.5V14.1667H5.83331V15.8333ZM5.83331 10.8333H17.5V9.16667H5.83331V10.8333ZM5.83331 4.16667V5.83333H17.5V4.16667H5.83331Z"
    fill="#1C1C1C"
  />
</svg>
