<svg
  width="20"
  height="20"
  viewBox="0 0 20 20"
  fill="none"
  xmlns="http://www.w3.org/2000/svg"
>
  <path
    d="M11.7659 17.9166C11.3399 17.9163 10.9314 17.7467 10.6303 17.4452L3.38808 10.2077C3.08662 9.90659 2.91706 9.49808 2.91669 9.07198V4.52377C2.91669 4.09753 3.086 3.68875 3.38737 3.38735C3.68874 3.08595 4.09749 2.91663 4.52369 2.91663H9.07152C9.49759 2.917 9.90606 3.08657 10.2071 3.38805L17.444 10.6256C17.5938 10.7749 17.7127 10.9523 17.7938 11.1476C17.8749 11.343 17.9167 11.5524 17.9167 11.7639C17.9167 11.9755 17.8749 12.1849 17.7938 12.3803C17.7127 12.5756 17.5938 12.753 17.444 12.9023L12.9016 17.4452C12.6005 17.7467 12.192 17.9163 11.7659 17.9166ZM4.52369 3.98805C4.38163 3.98805 4.24538 4.0445 4.14492 4.14496C4.04446 4.24543 3.98803 4.38169 3.98803 4.52377V9.07198C3.98832 9.14286 4.00267 9.21298 4.03026 9.27827C4.05784 9.34356 4.09811 9.40272 4.14873 9.45234L11.3856 16.6898C11.486 16.7896 11.6217 16.8456 11.7633 16.8456C11.9048 16.8456 12.0405 16.7896 12.1409 16.6898L16.6887 12.1416C16.7885 12.0413 16.8445 11.9055 16.8445 11.7639C16.8445 11.6224 16.7885 11.4866 16.6887 11.3863L9.45185 4.14877C9.40224 4.09815 9.34308 4.05788 9.27779 4.03029C9.21251 4.00271 9.1424 3.98835 9.07152 3.98805H4.52369Z"
    fill="black"
  />
  <path
    d="M7.91669 10.4166C7.42224 10.4166 6.93889 10.27 6.52776 9.9953C6.11664 9.7206 5.79621 9.33015 5.60699 8.87334C5.41777 8.41652 5.36826 7.91385 5.46472 7.4289C5.56119 6.94395 5.79929 6.49849 6.14892 6.14886C6.49855 5.79923 6.94401 5.56113 7.42896 5.46466C7.91392 5.3682 8.41658 5.41771 8.8734 5.60693C9.33021 5.79615 9.72066 6.11658 9.99536 6.5277C10.2701 6.93882 10.4167 7.42217 10.4167 7.91663C10.4167 8.57967 10.1533 9.21555 9.68446 9.68439C9.21561 10.1532 8.57973 10.4166 7.91669 10.4166ZM7.91669 6.66663C7.66946 6.66663 7.42779 6.73994 7.22223 6.87729C7.01666 7.01464 6.85645 7.20987 6.76184 7.43827C6.66723 7.66668 6.64247 7.91801 6.69071 8.16049C6.73894 8.40297 6.85799 8.62569 7.0328 8.80051C7.20762 8.97533 7.43035 9.09438 7.67283 9.14261C7.9153 9.19084 8.16664 9.16609 8.39504 9.07148C8.62345 8.97687 8.81867 8.81665 8.95603 8.61109C9.09338 8.40553 9.16669 8.16385 9.16669 7.91663C9.16669 7.58511 9.03499 7.26716 8.80057 7.03274C8.56615 6.79832 8.24821 6.66663 7.91669 6.66663Z"
    fill="black"
  />
</svg>
