<svg
  width="20"
  height="20"
  viewBox="0 0 20 20"
  fill="none"
  xmlns="http://www.w3.org/2000/svg"
>
  <path
    d="M7.75 1.66663V3.16663H12.25V1.66663H13.75V3.16663H16.75C16.9489 3.16663 17.1397 3.24564 17.2803 3.3863C17.421 3.52695 17.5 3.71771 17.5 3.91663V15.9166C17.5 16.1155 17.421 16.3063 17.2803 16.447C17.1397 16.5876 16.9489 16.6666 16.75 16.6666H3.25C3.05109 16.6666 2.86032 16.5876 2.71967 16.447C2.57902 16.3063 2.5 16.1155 2.5 15.9166V3.91663C2.5 3.71771 2.57902 3.52695 2.71967 3.3863C2.86032 3.24564 3.05109 3.16663 3.25 3.16663H6.25V1.66663H7.75ZM16 8.41663H4V15.1666H16V8.41663ZM12.277 9.26863L13.3375 10.3291L9.625 14.0416L6.973 11.3896L8.035 10.3291L9.62575 11.9206L12.2778 9.26863H12.277ZM6.25 4.66663H4V6.91663H16V4.66663H13.75V5.41663H12.25V4.66663H7.75V5.41663H6.25V4.66663Z"
    fill="black"
  />
</svg>
