<svg
  width="16"
  height="16"
  viewBox="0 0 16 16"
  fill="none"
  xmlns="http://www.w3.org/2000/svg"
>
  <path
    d="M14.7363 0.827245C14.2462 0.337267 13.5815 0.0620117 12.8885 0.0620117C12.1955 0.0620117 11.5308 0.337267 11.0407 0.827245L6.14324 5.72473C6.07997 5.78781 6.03223 5.86474 6.00381 5.94944L4.56337 10.2707C4.52943 10.3722 4.52443 10.4812 4.54893 10.5854C4.57343 10.6895 4.62645 10.7848 4.70207 10.8606C4.77768 10.9363 4.87289 10.9895 4.97702 11.0141C5.08116 11.0388 5.19011 11.034 5.29165 11.0002L9.61296 9.55975C9.69808 9.53148 9.77542 9.48374 9.83882 9.42032L14.7363 4.52283C15.2263 4.03272 15.5015 3.36807 15.5015 2.67504C15.5015 1.98201 15.2263 1.31736 14.7363 0.827245ZM11.8554 1.64196C12.1309 1.37506 12.5002 1.22717 12.8837 1.23019C13.2673 1.23321 13.6342 1.38691 13.9054 1.65811C14.1766 1.92932 14.3303 2.29628 14.3334 2.67981C14.3364 3.06333 14.1885 3.43267 13.9216 3.70812L9.11976 8.50881L6.01994 9.54246L7.0536 6.44264L11.8554 1.64196Z"
    fill="black"
  />
  <path
    d="M7.41426 2.38651C7.556 2.38651 7.69659 2.39227 7.83602 2.40149L8.85355 1.38397C7.39506 1.07387 5.8754 1.24357 4.52125 1.86777C3.1671 2.49197 2.05103 3.53722 1.3395 4.84759C0.627976 6.15797 0.359133 7.66325 0.573071 9.13891C0.78701 10.6146 1.47227 11.9815 2.52663 13.0359C3.58099 14.0903 4.94795 14.7755 6.42361 14.9895C7.89927 15.2034 9.40456 14.9345 10.7149 14.223C12.0253 13.5115 13.0705 12.3954 13.6947 11.0413C14.3189 9.68712 14.4887 8.16746 14.1786 6.70897L13.161 7.72765C13.2455 8.88205 12.9804 10.0351 12.4001 11.0367C11.8199 12.0382 10.9514 12.8417 9.90792 13.3426C8.86442 13.8435 7.69425 14.0185 6.54988 13.8447C5.40551 13.671 4.33999 13.1566 3.49215 12.3687C2.64432 11.5807 2.05347 10.5556 1.79659 9.42695C1.53971 8.29833 1.62871 7.11851 2.052 6.0412C2.47529 4.9639 3.21324 4.03905 4.1697 3.38717C5.12616 2.73529 6.25678 2.38659 7.41426 2.38651Z"
    fill="black"
  />
</svg>
