<svg
  width="20"
  height="20"
  viewBox="0 0 20 20"
  fill="none"
  xmlns="http://www.w3.org/2000/svg"
>
  <path
    d="M16.7359 12.6666L17.7375 13.2675C17.7993 13.3045 17.8505 13.3568 17.886 13.4195C17.9215 13.4822 17.9402 13.553 17.9402 13.625C17.9402 13.697 17.9215 13.7678 17.886 13.8304C17.8505 13.8931 17.7993 13.9455 17.7375 13.9825L10.4292 18.3675C10.2996 18.4453 10.1512 18.4865 10 18.4865C9.84882 18.4865 9.70046 18.4453 9.57085 18.3675L2.26252 13.9825C2.20073 13.9455 2.14958 13.8931 2.11406 13.8304C2.07854 13.7678 2.05988 13.697 2.05988 13.625C2.05988 13.553 2.07854 13.4822 2.11406 13.4195C2.14958 13.3568 2.20073 13.3045 2.26252 13.2675L3.26419 12.6666L10 16.7083L16.7359 12.6666ZM16.7359 8.74998L17.7375 9.35081C17.7993 9.3878 17.8505 9.44018 17.886 9.50284C17.9215 9.5655 17.9402 9.63629 17.9402 9.70831C17.9402 9.78033 17.9215 9.85112 17.886 9.91378C17.8505 9.97644 17.7993 10.0288 17.7375 10.0658L10 14.7083L2.26252 10.0658C2.20073 10.0288 2.14958 9.97644 2.11406 9.91378C2.07854 9.85112 2.05988 9.78033 2.05988 9.70831C2.05988 9.63629 2.07854 9.5655 2.11406 9.50284C2.14958 9.44018 2.20073 9.3878 2.26252 9.35081L3.26419 8.74998L10 12.7916L16.7359 8.74998ZM10.4284 1.09081L17.7375 5.47581C17.7993 5.5128 17.8505 5.56518 17.886 5.62784C17.9215 5.6905 17.9402 5.76129 17.9402 5.83331C17.9402 5.90533 17.9215 5.97612 17.886 6.03878C17.8505 6.10144 17.7993 6.15382 17.7375 6.19081L10 10.8333L2.26252 6.19081C2.20073 6.15382 2.14958 6.10144 2.11406 6.03878C2.07854 5.97612 2.05988 5.90533 2.05988 5.83331C2.05988 5.76129 2.07854 5.6905 2.11406 5.62784C2.14958 5.56518 2.20073 5.5128 2.26252 5.47581L9.57085 1.09081C9.70046 1.01294 9.84882 0.971802 10 0.971802C10.1512 0.971802 10.2996 1.01294 10.4292 1.09081H10.4284ZM10 2.77664L4.90585 5.83331L10 8.88998L15.0942 5.83331L10 2.77664Z"
    fill="black"
  />
</svg>
