<svg
  width="14"
  height="14"
  viewBox="0 0 14 14"
  fill="none"
  xmlns="http://www.w3.org/2000/svg"
>
  <path
    d="M11.354 3.396C11.4006 3.44245 11.4375 3.49762 11.4627 3.55837C11.4879 3.61911 11.5009 3.68423 11.5009 3.75C11.5009 3.81577 11.4879 3.88089 11.4627 3.94163C11.4375 4.00238 11.4006 4.05755 11.354 4.104L9.604 5.854C9.51291 5.94499 9.39023 5.99732 9.26151 6.00012C9.13279 6.00291 9.00796 5.95595 8.913 5.869L8.163 5.184C8.07011 5.09339 8.01609 4.97022 8.01234 4.84051C8.0086 4.7108 8.05543 4.58472 8.14293 4.4889C8.23044 4.39308 8.35177 4.33504 8.48129 4.32703C8.6108 4.31903 8.73836 4.36169 8.837 4.446L9.234 4.808L10.646 3.396C10.6924 3.34944 10.7476 3.31249 10.8084 3.28729C10.8691 3.26208 10.9342 3.24911 11 3.24911C11.0658 3.24911 11.1309 3.26208 11.1916 3.28729C11.2524 3.31249 11.3076 3.34944 11.354 3.396ZM11.354 9.104C11.4479 9.01025 11.5007 8.88304 11.5008 8.75035C11.5009 8.61767 11.4483 8.49039 11.3545 8.3965C11.2607 8.30261 11.1335 8.24982 11.0009 8.24972C10.8682 8.24963 10.7409 8.30225 10.647 8.396L9.234 9.808L8.837 9.446C8.73836 9.36169 8.6108 9.31903 8.48129 9.32703C8.35177 9.33504 8.23044 9.39308 8.14293 9.4889C8.05543 9.58472 8.0086 9.7108 8.01234 9.84051C8.01609 9.97022 8.07011 10.0934 8.163 10.184L8.913 10.869C9.0079 10.9557 9.13253 11.0024 9.261 10.9996C9.38948 10.9968 9.51195 10.9447 9.603 10.854L11.353 9.104H11.354ZM3 9.5C3 9.36739 3.05268 9.24022 3.14645 9.14645C3.24022 9.05268 3.36739 9 3.5 9H6C6.13261 9 6.25979 9.05268 6.35355 9.14645C6.44732 9.24022 6.5 9.36739 6.5 9.5C6.5 9.63261 6.44732 9.75979 6.35355 9.85355C6.25979 9.94732 6.13261 10 6 10H3.5C3.36739 10 3.24022 9.94732 3.14645 9.85355C3.05268 9.75979 3 9.63261 3 9.5ZM3.5 4C3.36739 4 3.24022 4.05268 3.14645 4.14645C3.05268 4.24022 3 4.36739 3 4.5C3 4.63261 3.05268 4.75979 3.14645 4.85355C3.24022 4.94732 3.36739 5 3.5 5H6C6.13261 5 6.25979 4.94732 6.35355 4.85355C6.44732 4.75979 6.5 4.63261 6.5 4.5C6.5 4.36739 6.44732 4.24022 6.35355 4.14645C6.25979 4.05268 6.13261 4 6 4H3.5ZM0 1.5C0 1.10218 0.158035 0.720645 0.43934 0.43934C0.720645 0.158035 1.10218 0 1.5 0H12.5C12.8978 0 13.2794 0.158035 13.5607 0.43934C13.842 0.720645 14 1.10218 14 1.5V12.5C14 12.8978 13.842 13.2794 13.5607 13.5607C13.2794 13.842 12.8978 14 12.5 14H1.5C1.10218 14 0.720645 13.842 0.43934 13.5607C0.158035 13.2794 0 12.8978 0 12.5V1.5ZM1.5 1C1.36739 1 1.24022 1.05268 1.14645 1.14645C1.05268 1.24022 1 1.36739 1 1.5V12.5C1 12.6326 1.05268 12.7598 1.14645 12.8536C1.24022 12.9473 1.36739 13 1.5 13H12.5C12.6326 13 12.7598 12.9473 12.8536 12.8536C12.9473 12.7598 13 12.6326 13 12.5V1.5C13 1.36739 12.9473 1.24022 12.8536 1.14645C12.7598 1.05268 12.6326 1 12.5 1H1.5Z"
    fill="black"
  />
</svg>
