<svg
  width="20"
  height="24"
  viewBox="0 0 20 24"
  fill="none"
  xmlns="http://www.w3.org/2000/svg"
>
  <path
    d="M14.3417 9.00002L10.6917 2.44002C10.5333 2.16002 10.2667 2.02002 9.99999 2.02002C9.73333 2.02002 9.46666 2.16002 9.30833 2.45002L5.65833 9.00002H1.66666C1.20833 9.00002 0.833328 9.45002 0.833328 10C0.833328 10.09 0.841662 10.18 0.866662 10.27L2.98333 19.54C3.17499 20.38 3.81666 21 4.58333 21H15.4167C16.1833 21 16.825 20.38 17.025 19.54L19.1417 10.27L19.1667 10C19.1667 9.45002 18.7917 9.00002 18.3333 9.00002H14.3417ZM7.49999 9.00002L9.99999 4.60002L12.5 9.00002H7.49999ZM9.99999 17C9.08333 17 8.33333 16.1 8.33333 15C8.33333 13.9 9.08333 13 9.99999 13C10.9167 13 11.6667 13.9 11.6667 15C11.6667 16.1 10.9167 17 9.99999 17Z"
    fill="white"
  />
</svg>
