<svg
  width="18"
  height="18"
  viewBox="0 0 18 18"
  fill="none"
  xmlns="http://www.w3.org/2000/svg"
>
  <path
    d="M6.1875 8.90719C6.1875 9.17363 6.08873 9.42915 5.91291 9.61755C5.7371 9.80595 5.49864 9.91179 5.25 9.91179C5.00136 9.91179 4.7629 9.80595 4.58709 9.61755C4.41127 9.42915 4.3125 9.17363 4.3125 8.90719C4.3125 8.64075 4.41127 8.38523 4.58709 8.19683C4.7629 8.00843 5.00136 7.90259 5.25 7.90259C5.49864 7.90259 5.7371 8.00843 5.91291 8.19683C6.08873 8.38523 6.1875 8.64075 6.1875 8.90719V8.90719ZM9.9375 8.90719C9.9375 9.17363 9.83873 9.42915 9.66291 9.61755C9.4871 9.80595 9.24864 9.91179 9 9.91179C8.75136 9.91179 8.5129 9.80595 8.33709 9.61755C8.16127 9.42915 8.0625 9.17363 8.0625 8.90719C8.0625 8.64075 8.16127 8.38523 8.33709 8.19683C8.5129 8.00843 8.75136 7.90259 9 7.90259C9.24864 7.90259 9.4871 8.00843 9.66291 8.19683C9.83873 8.38523 9.9375 8.64075 9.9375 8.90719ZM12.75 9.91179C12.9986 9.91179 13.2371 9.80595 13.4129 9.61755C13.5887 9.42915 13.6875 9.17363 13.6875 8.90719C13.6875 8.64075 13.5887 8.38523 13.4129 8.19683C13.2371 8.00843 12.9986 7.90259 12.75 7.90259C12.5014 7.90259 12.2629 8.00843 12.0871 8.19683C11.9113 8.38523 11.8125 8.64075 11.8125 8.90719C11.8125 9.17363 11.9113 9.42915 12.0871 9.61755C12.2629 9.80595 12.5014 9.91179 12.75 9.91179V9.91179Z"
    fill="white"
  />
  <path
    d="M3.52969 16.7461L3.54844 16.7421C5.26406 16.3774 6.31219 15.8962 6.79969 15.632C7.51743 15.8372 8.25717 15.9405 9 15.9394C13.1419 15.9394 16.5 12.791 16.5 8.90722C16.5 5.02342 13.1419 1.875 9 1.875C4.85812 1.875 1.5 5.02342 1.5 8.90722C1.5 10.6753 2.19656 12.2927 3.34688 13.5284C3.2664 14.3221 3.10158 15.1034 2.85562 15.8571L2.85281 15.8681C2.78292 16.084 2.70663 16.2974 2.62406 16.508C2.55 16.6949 2.69344 16.9038 2.88 16.8717C3.09718 16.8336 3.31377 16.7918 3.52969 16.7461V16.7461ZM4.27969 13.6238C4.29282 13.4767 4.27552 13.3284 4.22901 13.1893C4.1825 13.0502 4.10793 12.9238 4.01062 12.8191C3.01688 11.7502 2.4375 10.382 2.4375 8.90722C2.4375 5.70053 5.25375 2.8796 9 2.8796C12.7463 2.8796 15.5625 5.70053 15.5625 8.90722C15.5625 12.1149 12.7463 14.9348 9 14.9348C8.33916 14.9359 7.68104 14.844 7.0425 14.6616C6.81935 14.5975 6.58199 14.624 6.37594 14.7359C6.01313 14.9328 5.21344 15.3085 3.90656 15.633C4.08888 14.9772 4.2138 14.3045 4.27969 13.6238V13.6238Z"
    fill="white"
  />
</svg>
