<svg
  width="20"
  height="20"
  viewBox="0 0 20 20"
  fill="none"
  xmlns="http://www.w3.org/2000/svg"
>
  <path
    d="M18.6278 10.4222L14.7778 8.64995V3.57217C14.776 3.46564 14.7437 3.36186 14.6846 3.27321C14.6255 3.18456 14.5421 3.11477 14.4445 3.07217L10.2778 1.1555C10.2047 1.12166 10.125 1.10413 10.0445 1.10413C9.96388 1.10413 9.88426 1.12166 9.81113 1.1555L5.64447 3.07217C5.54803 3.1168 5.46642 3.18815 5.40931 3.27775C5.3522 3.36736 5.32198 3.47146 5.32224 3.57772V8.6555L1.48891 10.4222C1.39248 10.4668 1.31087 10.5381 1.25375 10.6278C1.19664 10.7174 1.16643 10.8215 1.16669 10.9277V16.3611C1.16643 16.4673 1.19664 16.5714 1.25375 16.661C1.31087 16.7506 1.39248 16.822 1.48891 16.8666L5.65558 18.7833C5.72871 18.8171 5.80833 18.8347 5.88891 18.8347C5.96949 18.8347 6.04911 18.8171 6.12224 18.7833L10.0556 16.9722L13.9889 18.7833C14.062 18.8171 14.1417 18.8347 14.2222 18.8347C14.3028 18.8347 14.3824 18.8171 14.4556 18.7833L18.6222 16.8666C18.7187 16.822 18.8003 16.7506 18.8574 16.661C18.9145 16.5714 18.9447 16.4673 18.9445 16.3611V10.9277C18.9452 10.8221 18.9158 10.7184 18.8597 10.6288C18.8037 10.5393 18.7232 10.4676 18.6278 10.4222ZM17.0667 10.9277L14.2278 12.2222L11.3889 10.9277L14.2278 9.62217L17.0667 10.9277ZM10.0556 2.26661L12.8945 3.57217L10.0556 4.87772L7.22224 3.57217L10.0556 2.26661ZM5.88891 9.61661L8.7278 10.9222L5.88891 12.2222L3.05002 10.9277L5.88891 9.61661ZM9.50002 15.9999L5.88891 17.6666L2.2778 15.9999V11.7944L5.65558 13.3333C5.7272 13.3655 5.80483 13.3821 5.88336 13.3821C5.96188 13.3821 6.03951 13.3655 6.11113 13.3333L9.48891 11.7777L9.50002 15.9999ZM6.44447 8.64995V4.44439L9.82224 5.99995C9.89538 6.03379 9.97499 6.05132 10.0556 6.05132C10.1362 6.05132 10.2158 6.03379 10.2889 5.99995L13.6667 4.44439V8.6555L10.0556 10.3222L6.44447 8.64995ZM17.8389 16.0055L14.2278 17.6722L10.6111 16.0055V11.7888L13.9945 13.3333C14.0653 13.3647 14.142 13.3809 14.2195 13.3809C14.297 13.3809 14.3736 13.3647 14.4445 13.3333L17.8222 11.7777L17.8389 16.0055Z"
    fill="black"
  />
</svg>
