<svg
  width="26"
  height="23"
  viewBox="0 0 26 23"
  fill="none"
  xmlns="http://www.w3.org/2000/svg"
>
  <path
    d="M0.166656 3.26984C0.166656 2.53523 0.420171 1.83071 0.871431 1.31127C1.32269 0.791821 1.93473 0.5 2.57291 0.5H17.0104C17.6486 0.5 18.2606 0.791821 18.7119 1.31127C19.1631 1.83071 19.4167 2.53523 19.4167 3.26984V6.03967H21.0529C21.4134 6.04004 21.7693 6.13366 22.0941 6.31361C22.419 6.49355 22.7046 6.75522 22.9298 7.07929L25.3055 10.4954C25.6474 10.9869 25.8335 11.5979 25.8333 12.2275V16.1957C25.8333 16.9304 25.5798 17.6349 25.1285 18.1543C24.6773 18.6738 24.0653 18.9656 23.4271 18.9656H22.625C22.625 19.9451 22.287 20.8844 21.6853 21.577C21.0836 22.2696 20.2676 22.6587 19.4167 22.6587C18.5658 22.6587 17.7497 22.2696 17.148 21.577C16.5463 20.8844 16.2083 19.9451 16.2083 18.9656H8.18749C8.18841 19.4578 8.10383 19.9454 7.93872 20.3994C7.77361 20.8535 7.5313 21.2651 7.22603 21.6098C6.92076 21.9545 6.55871 22.2256 6.16114 22.4069C5.76357 22.5883 5.33852 22.6763 4.91097 22.6658C4.48342 22.6554 4.062 22.5466 3.67149 22.346C3.28098 22.1453 2.92925 21.8569 2.63699 21.4975C2.34473 21.1381 2.11783 20.7151 1.96963 20.2534C1.82144 19.7916 1.75493 19.3004 1.77403 18.8086C1.30409 18.6182 0.89707 18.2646 0.609157 17.7966C0.321243 17.3286 0.16663 16.7692 0.166656 16.1957L0.166656 3.26984ZM2.24245 17.0378C2.53248 16.4912 2.94108 16.0409 3.42809 15.7311C3.91509 15.4213 4.46374 15.2627 5.02011 15.2709C5.57648 15.2791 6.12142 15.4538 6.60138 15.7778C7.08133 16.1019 7.47978 16.5641 7.75757 17.119H16.6382C16.9204 16.5582 17.3253 16.0922 17.8125 15.7673V3.26984C17.8125 3.02497 17.728 2.79013 17.5776 2.61698C17.4271 2.44383 17.2231 2.34656 17.0104 2.34656H2.57291C2.36018 2.34656 2.15617 2.44383 2.00575 2.61698C1.85533 2.79013 1.77082 3.02497 1.77082 3.26984V16.1957C1.7707 16.3735 1.81513 16.5474 1.89879 16.6968C1.98245 16.8462 2.10177 16.9646 2.24245 17.0378ZM19.4167 15.2725C19.9798 15.2725 20.5331 15.4431 21.0208 15.7673C21.5085 16.0914 21.9135 16.5576 22.1951 17.119H23.4271C23.6398 17.119 23.8438 17.0218 23.9942 16.8486C24.1447 16.6755 24.2292 16.4406 24.2292 16.1957V12.2256C24.2288 12.0161 24.1666 11.8129 24.0527 11.6495L21.6785 8.23339C21.6035 8.12525 21.5083 8.03791 21.4001 7.97782C21.2918 7.91773 21.1731 7.88643 21.0529 7.88623H19.4167V15.2725ZM4.97916 17.119C4.5537 17.119 4.14568 17.3136 3.84484 17.6599C3.544 18.0062 3.37499 18.4758 3.37499 18.9656C3.37499 19.4553 3.544 19.925 3.84484 20.2713C4.14568 20.6176 4.5537 20.8121 4.97916 20.8121C5.40461 20.8121 5.81263 20.6176 6.11347 20.2713C6.41431 19.925 6.58332 19.4553 6.58332 18.9656C6.58332 18.4758 6.41431 18.0062 6.11347 17.6599C5.81263 17.3136 5.40461 17.119 4.97916 17.119ZM19.4167 17.119C18.9912 17.119 18.5832 17.3136 18.2823 17.6599C17.9815 18.0062 17.8125 18.4758 17.8125 18.9656C17.8125 19.4553 17.9815 19.925 18.2823 20.2713C18.5832 20.6176 18.9912 20.8121 19.4167 20.8121C19.8421 20.8121 20.2501 20.6176 20.551 20.2713C20.8518 19.925 21.0208 19.4553 21.0208 18.9656C21.0208 18.4758 20.8518 18.0062 20.551 17.6599C20.2501 17.3136 19.8421 17.119 19.4167 17.119Z"
    fill="#1C1C1C"
  />
</svg>
