<svg
  width="28"
  height="28"
  viewBox="0 0 28 28"
  fill="none"
  xmlns="http://www.w3.org/2000/svg"
>
  <path
    d="M24.8889 11.3611H24.1111V6.86107C24.1111 6.66216 24.0292 6.47139 23.8833 6.33074C23.7374 6.19009 23.5396 6.11107 23.3333 6.11107H4.66665C4.48248 6.11397 4.30322 6.05375 4.16079 5.94112C4.01836 5.8285 3.922 5.67079 3.88887 5.49607V5.22608C3.922 5.05136 4.01836 4.89365 4.16079 4.78103C4.30322 4.66841 4.48248 4.60818 4.66665 4.61108H23.0067C23.2129 4.61108 23.4108 4.53206 23.5566 4.39141C23.7025 4.25076 23.7844 4.05999 23.7844 3.86108C23.7844 3.66217 23.7025 3.4714 23.5566 3.33075C23.4108 3.1901 23.2129 3.11108 23.0067 3.11108H4.66665C4.04781 3.11108 3.45432 3.34814 3.01674 3.77009C2.57915 4.19205 2.33332 4.76434 2.33332 5.36107C2.32786 5.451 2.32786 5.54115 2.33332 5.63107V21.0585C2.33637 21.4623 2.42188 21.8616 2.58496 22.2336C2.74805 22.6055 2.98551 22.9428 3.2838 23.2263C3.58208 23.5097 3.93534 23.7338 4.32342 23.8856C4.71149 24.0374 5.12677 24.114 5.54554 24.111H23.3333C23.5396 24.111 23.7374 24.032 23.8833 23.8913C24.0292 23.7507 24.1111 23.5599 24.1111 23.361V18.861H24.8889C25.0952 18.861 25.293 18.782 25.4388 18.6414C25.5847 18.5007 25.6667 18.3099 25.6667 18.111V12.111C25.6667 11.9121 25.5847 11.7214 25.4388 11.5807C25.293 11.4401 25.0952 11.3611 24.8889 11.3611ZM22.5555 22.611H5.54554C5.11294 22.615 4.69619 22.4542 4.38594 22.1634C4.0757 21.8727 3.89705 21.4756 3.88887 21.0585V7.52107C4.14134 7.59162 4.40404 7.62202 4.66665 7.61107H22.5555V11.3611H17.1111C16.0797 11.3611 15.0905 11.7561 14.3612 12.4594C13.6319 13.1627 13.2222 14.1165 13.2222 15.111C13.2222 16.1056 13.6319 17.0594 14.3612 17.7627C15.0905 18.4659 16.0797 18.861 17.1111 18.861H22.5555V22.611ZM24.1111 17.361H17.1111C16.4923 17.361 15.8988 17.124 15.4612 16.702C15.0236 16.2801 14.7778 15.7078 14.7778 15.111C14.7778 14.5143 15.0236 13.942 15.4612 13.5201C15.8988 13.0981 16.4923 12.861 17.1111 12.861H24.1111V17.361Z"
    fill="#1C1C1C"
  />
  <path
    d="M17.8966 16.7222C18.541 16.7222 19.0633 16.1999 19.0633 15.5556C19.0633 14.9112 18.541 14.3889 17.8966 14.3889C17.2523 14.3889 16.73 14.9112 16.73 15.5556C16.73 16.1999 17.2523 16.7222 17.8966 16.7222Z"
    fill="#1C1C1C"
  />
</svg>
