<svg
  width="200"
  height="151"
  viewBox="0 0 200 151"
  fill="none"
  xmlns="http://www.w3.org/2000/svg"
>
  <g clip-path="url(#clip0_3632_13611)">
    <path
      opacity="0.1"
      d="M2.15271 72.179C5.31083 84.6343 11.9907 95.4012 22.5469 100.62C44.4919 111.467 93.9837 105.873 130.921 99.4516C150.028 96.1304 166.822 86.9647 179.022 74.0659L2.15271 72.179Z"
      fill="#0AA351"
    />
    <path
      opacity="0.1"
      d="M195.851 13.55H175.584C174.622 13.55 173.833 12.8226 173.833 11.9339C173.833 11.0452 174.622 10.316 175.584 10.316H179.089C178.126 10.316 177.339 9.58867 177.339 8.69808C177.339 7.80748 178.126 7.08202 179.089 7.08202H176.588C175.624 7.08202 174.835 6.3547 174.835 5.46411C174.835 4.57351 175.624 3.84805 176.588 3.84805H187.166C184.818 2.84056 182.075 2.12438 178.913 1.74773C150.068 -1.67178 139.77 0.589955 136.137 2.91478C131.61 5.84863 126.58 7.88436 121.312 8.91516C103.516 12.305 70.2351 16.3832 40.0702 7.61638C25.0777 3.25061 13.9343 10.6184 7.25623 22.9346H199.371C199.12 19.3555 198.369 16.0492 196.991 13.1566C196.665 13.4138 196.263 13.5522 195.851 13.55Z"
      fill="#0AA351"
    />
    <path
      opacity="0.1"
      d="M0.434573 46.1812C-0.343875 53.425 -0.079258 60.7461 1.22001 67.9117L179.159 73.9213C184.057 68.7371 188.218 62.8776 191.522 56.5139L0.434573 46.1812ZM70.8115 61.6831H67.3079C68.2715 61.6831 69.0606 62.4122 69.0606 63.301C69.0606 64.1897 68.2715 64.917 67.3079 64.917H47.041C46.0792 64.917 45.2901 64.1897 45.2901 63.301C45.2901 62.4122 46.0792 61.6831 47.041 61.6831H50.5464C49.5828 61.6831 48.7955 60.9558 48.7955 60.067C48.7955 59.1783 49.5828 58.4491 50.5464 58.4491H48.0428C47.0792 58.4491 46.2901 57.7218 46.2901 56.833C46.2901 55.9443 47.0792 55.2151 48.0428 55.2151H68.3097C69.2733 55.2151 70.0606 55.9424 70.0606 56.833C70.0606 57.7236 69.2733 58.4491 68.3097 58.4491H70.8115C71.7751 58.4491 72.5624 59.1764 72.5624 60.067C72.5624 60.9576 71.7751 61.6831 70.8115 61.6831Z"
      fill="#0AA351"
    />
    <path
      opacity="0.1"
      d="M199.378 23.0459L5.1126 27.4061C2.74901 33.015 1.18177 39.3568 0.459961 45.9286H195.975C197.247 42.0837 198.191 38.1337 198.796 34.1227C199.38 30.2616 199.613 26.5266 199.378 23.0459ZM39.9029 37.3418H36.3993C37.3629 37.3418 38.152 38.071 38.152 38.9597C38.152 39.8485 37.3629 40.5776 36.3993 40.5776H16.1324C15.1706 40.5776 14.3815 39.8485 14.3815 38.9597C14.3815 38.071 15.1706 37.3418 16.1324 37.3418H19.6378C18.6742 37.3418 17.8869 36.6145 17.8869 35.7257C17.8869 34.837 18.6742 34.1078 19.6378 34.1078H17.1342C16.1706 34.1078 15.3815 33.3805 15.3815 32.4918C15.3815 31.603 16.1706 30.8739 17.1342 30.8739H37.4011C38.3647 30.8739 39.152 31.6012 39.152 32.4918C39.152 33.3824 38.3647 34.1078 37.4011 34.1078H39.9029C40.8665 34.1078 41.6538 34.837 41.6538 35.7257C41.6538 36.6145 40.8665 37.3418 39.9029 37.3418Z"
      fill="#0AA351"
    />
    <path
      opacity="0.1"
      d="M99.1037 144.922C143.987 144.922 180.371 141.506 180.371 137.293C180.371 133.079 143.987 129.663 99.1037 129.663C54.2208 129.663 17.8361 133.079 17.8361 137.293C17.8361 141.506 54.2208 144.922 99.1037 144.922Z"
      fill="#0AA351"
    />
    <path
      d="M181.931 74.2755C181.93 74.2625 181.93 74.2495 181.931 74.2365C181.931 74.2161 181.931 74.1975 181.931 74.179C181.895 73.9665 181.816 73.7638 181.7 73.5834C181.284 72.9038 180.705 72.3443 180.017 71.9581C178.817 71.2864 177.168 70.9988 176.688 69.7167C176.54 69.3197 176.537 68.8874 176.464 68.4718C176.337 67.8242 176.045 67.2222 175.618 66.7262C175.19 66.2302 174.643 65.8577 174.03 65.646C173.459 65.4512 172.842 65.3973 172.288 65.1561C171.048 64.6181 170.393 63.2915 169.839 62.065C169.121 60.4818 168.404 58.8979 167.686 57.3133C167.141 57.5935 166.435 57.4618 165.924 57.1111C165.432 56.7371 165.04 56.2426 164.784 55.6732C164.044 54.2074 163.726 52.5468 162.857 51.1515C161.988 49.7563 160.252 48.6542 158.717 49.2609C158.417 49.4137 158.108 49.5445 157.79 49.6524C156.475 49.9659 155.021 48.4334 153.895 49.1774C153.708 49.2998 153.556 49.4699 153.454 49.6709C153.453 49.6586 153.453 49.6462 153.454 49.6338C153.307 49.9356 153.225 50.2658 153.214 50.6023C153.214 50.671 153.214 50.7378 153.214 50.8027C153.214 50.8139 153.214 50.825 153.214 50.8361C153.214 51.1033 153.23 51.3742 153.234 51.6451C153.238 51.8726 153.221 52.0999 153.183 52.3242V52.3056C153.161 52.4318 153.13 52.5559 153.088 52.6767C152.795 53.4782 151.984 54.0033 151.604 54.7566V54.7195C151.562 54.8014 151.525 54.8864 151.494 54.9737C151.426 55.1711 151.391 55.3787 151.39 55.5878C151.357 57.0035 152.828 58.3357 152.999 59.8553C153.121 60.9314 153.363 61.2765 154.259 61.8851L154.455 62.0187C154.377 62.0187 154.297 62.0298 154.208 62.0316C154.173 62.0323 154.139 62.036 154.104 62.0428C153.946 61.9983 153.78 61.9903 153.619 62.0191C153.457 62.048 153.304 62.1131 153.17 62.2098C152.483 62.7664 150.857 62.3378 150.135 62.2098C149.414 62.0817 146.941 62.4268 146.595 63.8258C146.25 65.2248 145.657 68.1118 145.657 68.1118C145.657 68.1118 145.657 69.9431 145.437 70.2845C145.429 70.3085 145.429 70.3347 145.437 70.3587C145.437 70.8726 145.455 73.9619 144.968 74.7579C144.848 74.9434 144.857 75.3535 144.946 75.8581C144.434 76.5316 143.952 77.3183 144.037 77.8341C144.194 78.8899 146.292 82.2092 149.299 80.4317C149.299 80.4317 151.01 77.2385 148.857 75.5408L148.95 75.1698C149.601 75.9861 150.083 76.5725 150.083 76.5725C150.083 76.5725 150.108 76.6411 150.148 76.758H150.083C150.364 77.5382 150.534 78.3555 150.588 79.1849C150.58 79.489 150.526 79.79 150.428 80.0773H150.484C150.468 80.1404 150.45 80.2035 150.428 80.2629C150.322 80.5762 150.125 80.8488 149.863 81.044C148.359 82.1312 146.637 89.8961 146.637 89.8961C146.637 89.8961 143.226 102.448 142.545 103.162C141.981 103.749 145.523 105.4 148.181 105.203C148.552 105.181 148.919 105.11 149.272 104.992C149.288 105.177 149.306 105.363 149.325 105.532C149.381 106.088 149.439 106.604 149.475 106.765C149.57 107.17 149.757 111.3 149.757 111.3C149.757 111.3 149.374 113.983 149.466 115.85C149.466 115.978 149.483 116.1 149.494 116.221L149.163 116.273C148.661 117.423 150.728 127.021 151.01 127.828C151.197 128.464 151.302 129.122 151.323 129.785C151.323 129.785 151.141 130.468 151.292 130.841C151.386 131.069 151.447 131.31 151.474 131.556C151.474 131.556 151.35 132.175 151.537 132.58C151.724 132.984 151.506 133.693 151.506 133.693C151.506 133.693 151.444 136.489 150.881 138.01C150.727 138.42 150.683 138.863 150.751 139.296C150.82 139.729 151 140.135 151.272 140.474C151.311 140.527 151.353 140.578 151.399 140.625C151.399 140.625 154.508 140.651 155.055 140.625H155.126C155.346 140.593 155.91 138.077 155.408 136.866C154.906 135.654 155.346 134.162 155.346 134.162V131.958C155.346 131.958 155.91 131.428 155.346 130.288C154.783 129.149 154.875 128.804 154.875 128.804C154.875 128.804 155.503 126.971 154.844 126.381C154.186 125.791 154.97 123.553 154.97 123.553L155.192 116.094C155.076 116.056 154.957 116.025 154.837 116.002C154.824 115.879 154.812 115.753 154.799 115.619C154.67 114.269 154.559 112.432 154.846 111.909C155.134 111.385 155.272 106.817 155.317 103.643L158.183 103.754C158.243 105.238 158.306 106.593 158.346 106.765C158.441 107.17 158.63 111.3 158.63 111.3C158.63 111.3 158.244 113.983 158.337 115.85C158.337 115.978 158.353 116.1 158.364 116.221L158.033 116.273C157.532 117.423 159.599 127.021 159.881 127.828C160.068 128.464 160.173 129.122 160.195 129.785C160.195 129.785 160.013 130.468 160.163 130.841C160.257 131.069 160.318 131.31 160.344 131.556C160.344 131.556 160.221 132.175 160.408 132.58C160.595 132.984 160.377 133.693 160.377 133.693C160.377 133.693 160.315 136.489 159.752 138.01C159.601 138.421 159.558 138.864 159.629 139.296C159.7 139.728 159.882 140.133 160.155 140.471C160.194 140.524 160.237 140.574 160.283 140.621C160.283 140.621 163.392 140.647 163.939 140.621H164.01C164.23 140.589 164.793 138.074 164.292 136.862C163.79 135.65 164.23 134.159 164.23 134.159V131.958C164.23 131.958 164.793 131.428 164.23 130.288C163.666 129.149 163.759 128.804 163.759 128.804C163.759 128.804 164.386 126.971 163.728 126.381C163.07 125.791 163.853 123.553 163.853 123.553L164.079 116.094C163.96 116.055 163.838 116.024 163.715 116.002C163.702 115.879 163.69 115.753 163.677 115.619C163.548 114.269 163.437 112.432 163.724 111.909C163.955 111.48 164.088 108.719 164.148 106.023C164.148 105.838 164.148 105.652 164.162 105.467C165.479 105.411 166.79 105.261 168.086 105.018C168.086 105.018 166.553 99.4867 167.022 98.5868C167.224 98.1991 166.933 96.134 166.535 93.9094C167.09 94.368 167.781 94.6229 168.495 94.633C169.181 95.9781 171.266 99.073 172.44 99.5498C173.819 100.106 172.784 95.171 172.128 94.4567C171.817 94.0667 171.556 93.6385 171.35 93.182C171.368 93.1598 171.388 93.1412 171.406 93.1208C171.424 93.1004 171.439 87.87 171.124 87.9646C170.81 88.0593 170.435 87.1872 170.435 87.1872L169.464 78.4909L169.057 74.8506C169.397 75.1067 169.801 75.27 170.148 75.5241C171.093 76.2311 171.402 77.4723 171.817 78.5707C172.159 79.4743 172.639 80.3705 173.426 80.9382C174.213 81.506 175.368 81.6563 176.153 81.0811C176.88 80.5412 177.095 79.5671 177.255 78.6783C178.575 79.1515 180.177 77.8861 180.006 76.5038C179.964 76.1624 179.84 75.7895 180.015 75.4908C180.364 74.9007 181.469 75.244 181.833 74.6614C181.894 74.5606 181.926 74.4441 181.924 74.3256C181.929 74.2996 181.931 74.2884 181.931 74.2755ZM164.275 79.0587C164.255 79.3908 164.702 82.0589 165.066 84.1703C164.768 82.8549 164.17 81.4503 162.992 80.4874C162.992 80.4874 162.992 80.4206 162.977 80.3018H162.992C162.992 80.3018 162.942 79.7712 162.935 79.016C162.937 78.3466 162.986 77.6783 163.081 77.0159V76.9992H163.057C163.057 76.9435 163.072 76.886 163.081 76.8304C163.153 76.2714 163.302 75.7255 163.522 75.2087C163.62 75.0062 163.733 74.8114 163.859 74.6261C164.053 76.4203 164.293 78.7229 164.275 79.0587ZM165.253 85.2409C165.413 86.1519 165.528 86.792 165.528 86.792L166.493 93.5568V93.5884C165.973 90.7329 165.31 87.7234 165.31 87.7234C165.377 86.8962 165.358 86.064 165.253 85.2409Z"
      fill="url(#paint0_linear_3632_13611)"
    />
    <path
      d="M153.421 60.2264C153.239 58.5121 151.421 57.0333 151.966 55.4024C152.263 54.5137 153.19 53.97 153.503 53.0868C153.71 52.5042 153.617 51.8641 153.619 51.2444C153.621 50.6247 153.763 49.9327 154.268 49.5894C155.359 48.8472 156.763 50.3742 158.035 50.0625C158.343 49.9551 158.643 49.8249 158.932 49.6729C160.417 49.0699 162.097 50.1683 162.932 51.5561C163.766 52.944 164.079 54.599 164.795 56.0574C165.04 56.6205 165.418 57.1123 165.897 57.4879C166.391 57.8367 167.068 57.9684 167.602 57.6901L169.684 62.4214C170.23 63.6404 170.855 64.9614 172.048 65.4977C172.582 65.737 173.179 65.7908 173.731 65.9856C174.332 66.2018 174.867 66.5753 175.281 67.0686C175.696 67.562 175.977 68.1578 176.095 68.7966C176.166 69.2122 176.168 69.6426 176.311 70.0378C176.775 71.3143 178.369 71.6001 179.531 72.2643C180.203 72.6511 180.767 73.2075 181.168 73.8804C181.349 74.2014 181.506 74.6225 181.311 74.938C180.96 75.5168 179.893 75.1754 179.555 75.7636C179.384 76.0605 179.504 76.4316 179.555 76.773C179.72 78.1478 178.169 79.4076 176.893 78.9364C176.739 79.8214 176.529 80.7918 175.828 81.328C175.073 81.9031 173.955 81.751 173.193 81.187C172.431 80.6229 171.97 79.7305 171.639 78.8306C171.237 77.7359 170.937 76.5002 170.022 75.797C169.691 75.5447 169.295 75.3814 168.971 75.1272C168.244 74.5595 167.881 73.6225 167.621 72.7152C167.284 71.5834 167.017 70.42 166.53 69.3513C166.042 68.2826 165.272 67.2881 164.215 66.8001C163.224 66.3456 162.082 66.3753 161.059 66.006C159.297 65.3715 157.993 63.8593 156.241 63.1469C155.68 62.9065 155.15 62.6001 154.659 62.234C153.777 61.6421 153.537 61.2989 153.421 60.2264Z"
      fill="#3F3D56"
    />
    <g opacity="0.1">
      <path
        opacity="0.1"
        d="M153.585 52.7232C153.622 52.6506 153.655 52.5756 153.683 52.4987C153.888 51.9161 153.797 51.276 153.799 50.6563C153.799 50.4496 153.818 50.2434 153.855 50.0403C153.688 50.4069 153.606 50.8084 153.617 51.2129C153.616 51.712 153.674 52.2352 153.585 52.7232Z"
        fill="black"
      />
      <path
        opacity="0.1"
        d="M175.999 80.7453C175.244 81.3187 174.126 81.1684 173.364 80.6025C172.602 80.0366 172.139 79.1478 171.817 78.2442C171.415 77.1496 171.117 75.9139 170.201 75.2107C169.871 74.9583 169.473 74.7932 169.152 74.5409C168.424 73.9731 168.061 73.0361 167.799 72.1381C167.462 71.0063 167.197 69.843 166.708 68.7742C166.219 67.7055 165.452 66.711 164.393 66.2231C163.404 65.7685 162.263 65.7982 161.239 65.429C159.475 64.7944 158.172 63.2822 156.421 62.5698C155.86 62.3287 155.329 62.0224 154.837 61.6569C153.975 61.0502 153.746 60.7069 153.619 59.6364C153.437 58.0296 151.837 56.6288 152.086 55.1147C152.046 55.1967 152.01 55.2809 151.979 55.3671C151.434 56.9998 153.252 58.4786 153.434 60.1911C153.552 61.2617 153.797 61.605 154.652 62.2117C155.143 62.5772 155.675 62.8835 156.235 63.1245C157.986 63.837 159.29 65.351 161.053 65.9837C162.077 66.3548 163.219 66.3233 164.208 66.7778C165.266 67.2658 166.026 68.2622 166.522 69.329C167.019 70.3959 167.284 71.5555 167.613 72.6929C167.881 73.5909 168.232 74.5279 168.966 75.0956C169.295 75.348 169.693 75.5131 170.015 75.7654C170.924 76.4686 171.23 77.7043 171.631 78.799C171.962 79.6989 172.426 80.5895 173.188 81.1535C173.95 81.7176 175.068 81.8697 175.822 81.2964C176.304 80.9253 176.55 80.3594 176.711 79.7527C176.568 80.144 176.321 80.4874 175.999 80.7453Z"
        fill="black"
      />
      <path
        opacity="0.1"
        d="M179.735 75.1811C179.665 75.3142 179.635 75.465 179.648 75.6153C180.059 75.2015 180.986 75.4446 181.309 74.9121C181.385 74.7805 181.414 74.6269 181.393 74.4761C180.971 74.8843 180.044 74.6412 179.735 75.1811Z"
        fill="black"
      />
      <path
        opacity="0.1"
        d="M177.064 78.3538C177.03 78.5393 176.995 78.7379 176.951 78.9308C178.064 79.2852 179.35 78.3742 179.531 77.2239C179.09 78.1089 177.999 78.7008 177.064 78.3538Z"
        fill="black"
      />
    </g>
    <path
      d="M155.77 61.1189C155.77 61.1189 156.375 62.3657 154.588 62.3917C152.801 62.4177 155.739 70.4887 155.739 70.4887L158.71 74.3479L162.406 72.307L162.619 66.6777L162.892 63.2767C162.892 63.2767 159.437 62.1319 160.073 60.6179C160.71 59.1039 155.77 61.1189 155.77 61.1189Z"
      fill="#FBBEBE"
    />
    <path
      d="M166.499 94.0263C166.499 94.0263 168.681 96.2175 171.226 93.3101L169.271 91.1931H166.799L166.499 94.0263Z"
      fill="#575A89"
    />
    <path
      opacity="0.1"
      d="M166.735 91.1931L166.435 94.0263C166.435 94.0263 168.617 96.2175 171.162 93.3101"
      fill="black"
    />
    <path
      d="M170.406 91.5791C170.406 91.5791 171.284 93.9299 171.921 94.6405C172.557 95.3511 173.557 100.268 172.224 99.7113C170.891 99.1547 168.346 95.0116 168.193 94.301C168.041 93.5904 167.982 91.5791 167.982 91.5791H170.406Z"
      fill="#FBBEBE"
    />
    <path
      d="M151.346 103.639L163.102 104.103L161.739 99.0304L155.817 98.908L151.346 103.639Z"
      fill="#575A89"
    />
    <path
      opacity="0.1"
      d="M152.981 103.639L164.739 104.103L163.375 99.0304L157.452 98.908L152.981 103.639Z"
      fill="black"
    />
    <path
      d="M155.194 112.013C154.915 112.542 155.023 114.371 155.148 115.724C155.228 116.584 155.315 117.247 155.315 117.247C155.315 117.247 150.921 118.638 150.255 117.432C150.086 117.126 150.003 116.59 149.974 115.961C149.883 114.106 150.255 111.432 150.255 111.432C150.255 111.432 150.074 107.32 149.983 106.918C149.946 106.756 149.89 106.244 149.835 105.689C149.755 104.866 149.679 103.949 149.679 103.949L155.679 100.702C155.679 100.702 155.679 101.311 155.668 102.248C155.635 105.19 155.539 111.363 155.194 112.013Z"
      fill="#FBBEBE"
    />
    <path
      opacity="0.1"
      d="M155.315 117.247C155.315 117.247 150.921 118.638 150.255 117.432C150.086 117.126 150.003 116.59 149.974 115.961C150.883 115.82 153.65 115.43 155.148 115.724C155.228 116.584 155.315 117.247 155.315 117.247Z"
      fill="black"
    />
    <path
      d="M155.466 140.625H155.397C154.868 140.645 151.861 140.625 151.861 140.625C151.817 140.578 151.776 140.528 151.737 140.476C151.472 140.137 151.296 139.733 151.227 139.304C151.159 138.875 151.2 138.435 151.346 138.027C151.892 136.511 151.952 133.728 151.952 133.728C151.952 133.728 152.165 133.018 151.983 132.615C151.801 132.213 151.921 131.595 151.921 131.595C151.893 131.35 151.832 131.111 151.739 130.884C151.588 130.513 151.77 129.832 151.77 129.832C151.749 129.172 151.647 128.518 151.466 127.884C151.194 127.08 149.194 117.525 149.679 116.38C149.679 116.38 153.921 115.638 155.528 116.195L155.315 123.616C155.315 123.616 154.557 125.843 155.194 126.431C155.83 127.019 155.224 128.843 155.224 128.843C155.224 128.843 155.134 129.183 155.679 130.327C156.224 131.472 155.679 131.997 155.679 131.997V134.192C155.679 134.192 155.255 135.677 155.739 136.883C156.223 138.089 155.679 140.586 155.466 140.625Z"
      fill="#3F3D56"
    />
    <path
      d="M163.792 112.013C163.513 112.541 163.621 114.371 163.746 115.723C163.826 116.584 163.913 117.247 163.913 117.247C163.913 117.247 159.519 118.638 158.853 117.432C158.684 117.126 158.601 116.59 158.572 115.961C158.481 114.106 158.853 111.432 158.853 111.432C158.853 111.432 158.672 107.32 158.581 106.918C158.532 106.701 158.446 104.63 158.379 102.773C158.323 101.188 158.277 99.7559 158.277 99.7559L164.277 100.702C164.277 100.702 164.277 103.394 164.202 106.161C164.137 108.844 164.015 111.593 163.792 112.013Z"
      fill="#FBBEBE"
    />
    <path
      opacity="0.1"
      d="M163.913 117.247C163.913 117.247 159.519 118.638 158.853 117.432C158.684 117.126 158.601 116.59 158.572 115.961C159.481 115.82 162.248 115.43 163.746 115.724C163.826 116.584 163.913 117.247 163.913 117.247Z"
      fill="black"
    />
    <path
      d="M164.064 140.625H163.995C163.466 140.645 160.459 140.625 160.459 140.625C160.415 140.578 160.374 140.529 160.335 140.477C160.07 140.137 159.894 139.733 159.825 139.304C159.757 138.875 159.798 138.436 159.944 138.027C160.49 136.504 160.544 133.721 160.544 133.721C160.544 133.721 160.757 133.01 160.575 132.608C160.393 132.205 160.513 131.587 160.513 131.587C160.486 131.343 160.424 131.104 160.332 130.877C160.181 130.506 160.363 129.825 160.363 129.825C160.342 129.165 160.24 128.51 160.059 127.877C159.786 127.073 157.786 117.518 158.272 116.373C158.272 116.373 162.513 115.631 164.121 116.187L163.908 123.609C163.908 123.609 163.15 125.836 163.786 126.424C164.422 127.012 163.817 128.836 163.817 128.836C163.817 128.836 163.726 129.175 164.272 130.32C164.817 131.465 164.272 131.99 164.272 131.99V134.185C164.272 134.185 163.848 135.669 164.332 136.875C164.815 138.081 164.277 140.586 164.064 140.625Z"
      fill="#3F3D56"
    />
    <path
      opacity="0.1"
      d="M158.133 62.5773C160.493 62.5773 162.406 60.6252 162.406 58.2171C162.406 55.8091 160.493 53.8569 158.133 53.8569C155.774 53.8569 153.861 55.8091 153.861 58.2171C153.861 60.6252 155.774 62.5773 158.133 62.5773Z"
      fill="black"
    />
    <path
      d="M158.133 62.3918C160.493 62.3918 162.406 60.4397 162.406 58.0316C162.406 55.6235 160.493 53.6714 158.133 53.6714C155.774 53.6714 153.861 55.6235 153.861 58.0316C153.861 60.4397 155.774 62.3918 158.133 62.3918Z"
      fill="#FBBEBE"
    />
    <path
      opacity="0.1"
      d="M149.679 103.949L155.679 100.702C155.679 100.702 155.679 101.311 155.668 102.248C154.792 102.782 153.47 103.585 152.199 104.344C151.508 104.758 150.834 105.159 150.255 105.495C150.121 105.569 149.981 105.631 149.835 105.68C149.755 104.866 149.679 103.949 149.679 103.949Z"
      fill="black"
    />
    <path
      opacity="0.1"
      d="M164.277 100.695C164.277 100.695 164.277 103.387 164.202 106.153H164.181C163.732 106.17 163.284 106.155 162.837 106.111C162.053 106.025 161.426 105.814 161.201 105.395C160.744 104.578 159.466 103.539 158.386 102.765C158.33 101.181 158.284 99.7485 158.284 99.7485L164.277 100.695Z"
      fill="black"
    />
    <path
      d="M163.161 77.1143C163.009 78.322 162.979 79.5426 163.073 80.7564C165.83 83.0757 165.315 87.961 165.315 87.961C165.315 87.961 167.437 97.8577 166.982 98.7539C166.528 99.65 168.011 105.155 168.011 105.155C166.747 105.4 165.467 105.55 164.181 105.604C163.732 105.62 163.283 105.606 162.837 105.561C162.053 105.476 161.426 105.264 161.201 104.845C160.353 103.331 156.686 101.073 156.686 101.073C156.686 101.073 154.363 102.494 152.199 103.788C151.508 104.201 150.834 104.602 150.255 104.938C149.786 105.192 149.268 105.337 148.737 105.363C146.165 105.558 142.737 103.914 143.283 103.331C143.95 102.619 147.254 90.1262 147.254 90.1262C147.254 90.1262 148.919 82.3948 150.374 81.3131C150.629 81.1165 150.819 80.8453 150.919 80.5356C151.417 79.1237 150.584 76.8601 150.584 76.8601C150.584 76.8601 145.888 70.9543 146.099 70.6129C146.31 70.2715 146.312 68.4495 146.312 68.4495C146.312 68.4495 146.888 65.5737 147.221 64.1821C147.554 62.7905 149.948 62.4492 150.644 62.5735C151.341 62.6978 152.915 63.1301 153.581 62.5735C154.246 62.0168 155.37 62.7905 155.37 62.7905L158.13 63.5661L160.612 62.0818C160.612 62.0818 163.099 62.2117 163.312 62.5512C163.524 62.8907 166.797 63.542 166.797 63.542C168.462 64.6849 168.402 70.1287 168.402 70.1287C168.402 70.1287 164.402 73.6836 163.584 75.5094C163.372 76.0222 163.23 76.5622 163.161 77.1143Z"
      fill="#575A89"
    />
    <path
      d="M167.497 69.3755L168.406 70.1177L169.346 78.7453L170.284 87.4045C170.284 87.4045 170.648 88.2709 170.951 88.1782C171.255 88.0854 171.224 93.3102 171.224 93.3102C171.224 93.3102 167.744 91.1264 166.497 94.0264L165.526 87.0334C165.526 87.0334 164.282 79.8901 164.313 79.3334C164.344 78.7768 163.677 72.7468 163.677 72.7468L167.497 69.3755Z"
      fill="#575A89"
    />
    <path
      d="M146.77 69.7781L146.103 70.613C146.103 70.613 146.165 74.1995 145.648 75.066C145.132 75.9324 147.074 81.0033 147.801 80.6934C148.528 80.3836 150.164 72.4684 150.164 72.3756C150.164 72.2829 146.77 69.7781 146.77 69.7781Z"
      fill="#575A89"
    />
    <path
      d="M146.71 74.8804C146.71 74.8804 144.588 77.0753 144.739 78.1273C144.89 79.1793 146.921 82.4838 149.83 80.7082C149.83 80.7082 152.528 75.5298 146.71 74.8804Z"
      fill="#575A89"
    />
    <path
      opacity="0.1"
      d="M155.397 140.631C154.868 140.651 151.861 140.631 151.861 140.631C151.817 140.584 151.776 140.534 151.737 140.482C152.506 140.215 154.168 139.814 155.397 140.631Z"
      fill="black"
    />
    <path
      opacity="0.1"
      d="M163.999 140.631C163.47 140.651 160.462 140.631 160.462 140.631C160.418 140.584 160.377 140.534 160.339 140.482C161.104 140.215 162.766 139.814 163.999 140.631Z"
      fill="black"
    />
    <path
      opacity="0.1"
      d="M152.414 86.2429C151.95 90.7812 152.103 99.7874 152.199 103.788C151.508 104.201 150.834 104.602 150.255 104.938C149.786 105.192 149.268 105.337 148.737 105.363C148.545 104.153 151.214 91.7275 152.414 86.2429Z"
      fill="black"
    />
    <path
      opacity="0.1"
      d="M152.981 83.6677C152.968 83.7327 152.748 84.7197 152.414 86.243C152.544 84.9424 152.726 84.0091 152.981 83.6677Z"
      fill="black"
    />
    <path
      opacity="0.1"
      d="M160.363 83.1777C160.363 83.1777 162.939 99.6908 155.31 101.732C155.308 101.724 160.588 100.906 160.363 83.1777Z"
      fill="black"
    />
    <path
      opacity="0.1"
      d="M164.181 105.604C163.732 105.62 163.283 105.606 162.837 105.561L160.779 82.9829C162.092 83.8587 163.662 99.8819 164.181 105.604Z"
      fill="black"
    />
    <path
      opacity="0.1"
      d="M154.952 55.4674C155.088 55.4563 155.226 55.4707 155.357 55.51C155.55 55.6082 155.724 55.7415 155.87 55.9034C156.107 56.1056 156.39 56.2431 156.694 56.3032C156.997 56.3632 157.31 56.3437 157.604 56.2466C157.812 56.1521 158.032 56.0895 158.257 56.0611C158.604 56.0611 158.904 56.3208 159.084 56.6177C159.264 56.9146 159.357 57.2671 159.512 57.5844C159.666 57.9017 159.913 58.2022 160.253 58.2802C160.416 58.2866 160.577 58.3244 160.726 58.3915C160.818 58.4674 160.888 58.5666 160.93 58.6791C161.213 59.3043 161.439 60.0428 162.044 60.3489C162.267 60.4543 162.51 60.5081 162.755 60.5066C163.005 60.5253 163.255 60.4794 163.482 60.373C163.706 60.2455 163.891 60.0574 164.017 59.8294C164.395 59.1912 164.439 58.4008 164.35 57.6604C164.239 56.7265 163.913 55.8327 163.399 55.0517C162.857 54.2619 162.12 53.633 161.262 53.2291C160.405 52.8252 159.457 52.6609 158.517 52.7529C158.189 52.7906 157.864 52.8526 157.544 52.9384C156.388 53.2539 155.254 53.8439 154.552 54.8328C154.382 55.0797 154.195 55.314 153.994 55.5342C154.312 55.5026 154.632 55.4748 154.952 55.4674Z"
      fill="black"
    />
    <path
      d="M154.952 55.2818C155.088 55.2707 155.226 55.2852 155.357 55.3245C155.55 55.4226 155.724 55.5559 155.87 55.7178C156.107 55.92 156.39 56.0576 156.694 56.1176C156.997 56.1777 157.31 56.1582 157.604 56.0611C157.812 55.9665 158.032 55.904 158.257 55.8755C158.604 55.8755 158.904 56.1353 159.084 56.4322C159.264 56.729 159.357 57.0816 159.512 57.3988C159.666 57.7161 159.913 58.0167 160.253 58.0946C160.416 58.1011 160.577 58.1388 160.726 58.2059C160.818 58.2818 160.888 58.381 160.93 58.4935C161.213 59.1188 161.439 59.8572 162.044 60.1634C162.267 60.2687 162.51 60.3226 162.755 60.3211C163.005 60.3398 163.255 60.2938 163.482 60.1875C163.706 60.0599 163.891 59.8718 164.017 59.6439C164.395 59.0056 164.439 58.2152 164.35 57.4749C164.239 56.541 163.913 55.6471 163.399 54.8662C162.857 54.0764 162.12 53.4474 161.262 53.0435C160.405 52.6397 159.457 52.4753 158.517 52.5674C158.189 52.605 157.864 52.667 157.544 52.7529C156.388 53.0683 155.254 53.6583 154.552 54.6473C154.382 54.8941 154.195 55.1285 153.994 55.3486C154.312 55.3171 154.632 55.2892 154.952 55.2818Z"
      fill="#3F3D56"
    />
    <path
      opacity="0.1"
      d="M150.315 65.6648C150.315 65.6648 150.528 67.3977 149.801 67.83C149.074 68.2623 150.315 65.6648 150.315 65.6648Z"
      fill="black"
    />
    <path
      opacity="0.1"
      d="M165.739 79.0867C165.739 79.0867 167.466 76.4891 167.71 77.2313C167.953 77.9734 165.739 79.0867 165.739 79.0867Z"
      fill="black"
    />
    <path
      opacity="0.1"
      d="M165.861 79.9513C165.861 79.9513 167.564 77.8176 167.728 78.6525C167.891 79.4874 165.861 79.9513 165.861 79.9513Z"
      fill="black"
    />
    <path
      opacity="0.1"
      d="M160.857 77.4111C160.239 77.42 159.636 77.2175 159.144 76.8359H158.995C158.485 77.3115 157.815 77.5686 157.124 77.554C156.765 77.5625 156.408 77.4965 156.075 77.36C155.741 77.2235 155.438 77.0193 155.184 76.7599H154.986C154.463 77.1949 153.805 77.4267 153.13 77.4142C152.455 77.4016 151.807 77.1455 151.299 76.6912L150.588 76.6782C150.588 76.6782 151.421 78.9418 150.923 80.3538L163.073 80.5746C162.979 79.3607 163.009 78.1402 163.161 76.9324V76.9157L162.493 76.9027C162.013 77.2424 161.441 77.4202 160.857 77.4111Z"
      fill="black"
    />
    <path
      opacity="0.1"
      d="M160.857 77.7822C160.239 77.7911 159.636 77.5886 159.144 77.207H158.995C158.485 77.6826 157.815 77.9397 157.124 77.9251C156.765 77.9336 156.408 77.8676 156.075 77.7311C155.741 77.5946 155.438 77.3904 155.184 77.131H154.986C154.463 77.566 153.805 77.7978 153.13 77.7853C152.455 77.7727 151.807 77.5166 151.299 77.0623L150.588 77.0493C150.588 77.0493 151.421 79.3129 150.923 80.7249L163.073 80.9457C162.979 79.7318 163.009 78.5112 163.161 77.3035V77.2868L162.493 77.2738C162.013 77.6135 161.441 77.7913 160.857 77.7822Z"
      fill="black"
    />
    <path
      d="M160.857 77.5967C160.239 77.6056 159.636 77.4031 159.144 77.0215H158.995C158.485 77.4971 157.815 77.7542 157.124 77.7395C156.765 77.748 156.408 77.682 156.075 77.5455C155.741 77.409 155.438 77.2049 155.184 76.9454H154.986C154.463 77.3805 153.805 77.6123 153.13 77.5997C152.455 77.5871 151.807 77.331 151.299 76.8768L150.588 76.8638C150.588 76.8638 151.421 79.1274 150.923 80.5393L163.073 80.7601C162.979 79.5462 163.009 78.3257 163.161 77.118V77.1013L162.493 77.0883C162.013 77.428 161.441 77.6058 160.857 77.5967Z"
      fill="#3F3D56"
    />
    <path
      opacity="0.1"
      d="M160.317 65.2249C160.317 65.2249 162.875 65.3918 162.892 65.7629C162.908 66.134 160.317 65.2249 160.317 65.2249Z"
      fill="black"
    />
    <path
      opacity="0.1"
      d="M154.103 63.6423C154.103 63.6423 151.545 63.8093 151.528 64.1804C151.512 64.5515 154.103 63.6423 154.103 63.6423Z"
      fill="black"
    />
    <path
      opacity="0.1"
      d="M163.879 71.229C163.853 71.2105 163.828 71.1957 163.802 71.179C164.457 71.7801 164.348 73.0937 163.544 74.1773C162.741 75.2608 161.521 75.7117 160.779 75.2256C160.802 75.246 160.822 75.2683 160.848 75.2887C161.575 75.8564 162.848 75.4111 163.688 74.2905C164.528 73.1698 164.61 71.7987 163.879 71.229Z"
      fill="black"
    />
    <path
      opacity="0.1"
      d="M149.826 74.038C149.179 72.8468 149.263 71.5313 149.995 71.0322C149.968 71.0452 149.939 71.0563 149.912 71.0712C149.108 71.5276 149.003 72.8951 149.668 74.1271C150.334 75.359 151.534 75.9825 152.337 75.5335C152.364 75.5179 152.389 75.5005 152.414 75.4815C151.612 75.8526 150.474 75.2292 149.826 74.038Z"
      fill="black"
    />
    <path
      opacity="0.1"
      d="M150.692 63.9931L150.457 64.3641L149.859 64.0394L150.174 63.5459C150.382 63.6462 150.56 63.8004 150.692 63.9931Z"
      fill="black"
    />
    <path
      d="M146.892 77.7248C146.892 77.7248 147.425 75.1681 146.71 74.3554C145.996 73.5428 146.225 69.2827 147.315 69.3755C148.406 69.4683 150.043 72.8377 149.77 73.5502C149.497 74.2626 148.466 77.9104 148.466 77.9104L146.892 77.7248Z"
      fill="#FBBEBE"
    />
    <path
      opacity="0.1"
      d="M163.999 59.2783C163.873 59.5063 163.688 59.6944 163.464 59.8219C163.237 59.9283 162.987 59.9742 162.737 59.9555C162.492 59.957 162.249 59.9032 162.026 59.7978C161.421 59.4898 161.195 58.7514 160.912 58.128C160.876 58.0155 160.812 57.9145 160.726 57.8348C160.579 57.7665 160.42 57.7268 160.259 57.7179C159.919 57.64 159.673 57.3376 159.517 57.0221C159.361 56.7067 159.268 56.3579 159.09 56.0555C158.912 55.753 158.61 55.4877 158.263 55.4989C158.037 55.5294 157.816 55.5951 157.61 55.6937C157.316 55.79 157.002 55.8089 156.699 55.7486C156.396 55.6882 156.113 55.5506 155.875 55.3486C155.729 55.1867 155.556 55.0534 155.363 54.9552C155.231 54.9159 155.094 54.9015 154.957 54.9125C154.748 54.9125 154.541 54.933 154.332 54.9497C154.228 55.0882 154.117 55.2208 153.999 55.3467C154.317 55.3189 154.637 55.291 154.957 55.2836C155.094 55.2726 155.231 55.287 155.363 55.3263C155.556 55.4244 155.729 55.5577 155.875 55.7196C156.113 55.9217 156.396 56.0593 156.699 56.1196C157.002 56.18 157.316 56.1611 157.61 56.0648C157.816 55.9662 158.037 55.9005 158.263 55.8699C158.61 55.8699 158.91 56.1297 159.09 56.4266C159.27 56.7234 159.363 57.0759 159.517 57.3932C159.672 57.7105 159.919 58.0111 160.259 58.089C160.42 58.0979 160.579 58.1376 160.726 58.2059C160.818 58.2818 160.888 58.381 160.93 58.4935C161.213 59.1188 161.439 59.8572 162.044 60.1633C162.267 60.2687 162.51 60.3225 162.755 60.3211C163.005 60.3398 163.255 60.2938 163.482 60.1875C163.706 60.0599 163.891 59.8718 164.017 59.6438C164.299 59.1194 164.426 58.5223 164.381 57.9257C164.367 58.4022 164.236 58.8674 163.999 59.2783Z"
      fill="black"
    />
    <path
      d="M147.697 79.7526C148.601 79.7526 149.334 79.2459 149.334 78.6208C149.334 77.9957 148.601 77.489 147.697 77.489C146.794 77.489 146.061 77.9957 146.061 78.6208C146.061 79.2459 146.794 79.7526 147.697 79.7526Z"
      fill="#575A89"
    />
    <path
      d="M94.3602 141.621C125.338 141.621 150.45 115.994 150.45 84.3821C150.45 52.7697 125.338 27.1428 94.3602 27.1428C63.3826 27.1428 38.2703 52.7697 38.2703 84.3821C38.2703 115.994 63.3826 141.621 94.3602 141.621Z"
      fill="#0AA351"
    />
    <path
      d="M123.79 113.146C123.79 122.182 109.871 113.918 94.9473 113.918C80.024 113.918 64.9297 121.841 64.9297 112.805C64.9297 107.652 69.7405 100.487 76.6422 95.2824C81.8421 91.3601 88.2275 88.551 94.6419 88.551C101.238 88.551 107.7 91.592 112.854 95.7667C119.36 101.03 123.79 108.103 123.79 113.146Z"
      fill="#444053"
    />
    <path
      d="M112.852 95.763C104.92 94.544 90.5729 93.0578 76.6422 95.2788C81.8421 91.3564 88.2275 88.5474 94.6419 88.5474C101.236 88.5474 107.698 91.5884 112.852 95.763Z"
      fill="#F6F8FB"
    />
    <path
      opacity="0.05"
      d="M64.9297 43.9768C64.9297 43.9768 48.0337 54.9998 48.1719 72.2421C48.31 89.4843 64.9297 43.9768 64.9297 43.9768Z"
      fill="black"
    />
    <path
      d="M150.428 12.8449C150.428 12.8449 135.119 11.9043 136.925 22.8511C136.925 22.8511 136.561 24.7845 138.285 25.6639C138.285 25.6639 138.312 24.8531 139.854 25.1277C140.403 25.2215 140.962 25.2489 141.517 25.2094C142.268 25.1573 142.982 24.8563 143.55 24.3522C143.55 24.3522 147.854 22.5394 149.528 15.3609C149.528 15.3609 150.766 13.7949 150.717 13.3941L148.134 14.5185C148.134 14.5185 149.015 16.4203 148.315 18.0011C148.315 18.0011 148.232 14.589 147.735 14.6614C147.635 14.6781 146.394 15.3201 146.394 15.3201C146.394 15.3201 147.912 18.6338 146.757 21.0403C146.757 21.0403 147.192 16.9584 145.91 15.5594L144.092 16.643C144.092 16.643 145.866 20.0643 144.663 22.8567C144.663 22.8567 144.972 18.5744 143.71 16.9064L142.061 18.2182C142.061 18.2182 143.728 21.5913 142.712 23.9069C142.712 23.9069 142.579 18.9214 141.705 18.5447C141.705 18.5447 140.263 19.8435 140.043 20.376C140.043 20.376 141.185 22.8233 140.477 24.1147C140.477 24.1147 140.043 20.7935 139.687 20.7749C139.687 20.7749 138.25 22.9755 138.099 24.4858C138.099 24.4858 138.163 22.2407 139.337 20.5653C139.337 20.5653 137.948 20.8083 137.139 21.7286C137.139 21.7286 137.363 20.1719 139.685 20.0365C139.685 20.0365 140.872 18.3666 141.19 18.2664C141.19 18.2664 138.872 18.0679 137.467 18.7043C137.467 18.7043 138.703 17.2367 141.614 17.9028L143.25 16.5483C143.25 16.5483 140.199 16.1216 138.905 16.5929C138.905 16.5929 140.394 15.2941 143.688 16.2403L145.461 15.1586C145.461 15.1586 142.859 14.5872 141.308 14.7875C141.308 14.7875 142.945 13.8877 145.979 14.8636L147.252 14.2829C147.252 14.2829 145.345 13.9007 144.786 13.8413C144.228 13.7819 144.199 13.6224 144.199 13.6224C145.41 13.4214 146.652 13.5685 147.786 14.0472C147.786 14.0472 150.474 13.0175 150.428 12.8449Z"
      fill="#0AA351"
    />
    <path
      d="M134.727 7.97823C134.727 7.97823 127.818 7.55149 128.625 12.498C128.625 12.498 128.463 13.3719 129.239 13.769C129.239 13.769 129.25 13.3979 129.949 13.5278C130.197 13.5694 130.449 13.5819 130.699 13.5649C131.039 13.5401 131.362 13.4041 131.619 13.1771C131.619 13.1771 133.563 12.357 134.319 9.11374C134.319 9.11374 134.879 8.40683 134.865 8.225L133.698 8.73338C133.698 8.73338 134.098 9.59244 133.783 10.3068C133.783 10.3068 133.745 8.76493 133.521 8.80204C133.476 8.80204 132.914 9.0989 132.914 9.0989C132.914 9.0989 133.601 10.5962 133.083 11.6835C133.083 11.6835 133.279 9.83921 132.701 9.20651L131.879 9.69634C131.879 9.69634 132.681 11.2437 132.138 12.5054C132.138 12.5054 132.276 10.5702 131.707 9.81694L130.961 10.4088C130.961 10.4088 131.714 11.9321 131.256 12.9786C131.256 12.9786 131.196 10.7261 130.799 10.5554C130.799 10.5554 130.149 11.1417 130.049 11.3829C130.049 11.3829 130.565 12.4961 130.245 13.0732C130.245 13.0732 130.049 11.5722 129.881 11.5666C129.881 11.5666 129.232 12.5592 129.165 13.2365C129.196 12.6062 129.389 11.9953 129.723 11.4645C129.349 11.5368 129.004 11.7193 128.73 11.9896C128.73 11.9896 128.83 11.2864 129.883 11.2252C129.883 11.2252 130.419 10.4719 130.563 10.4255C130.563 10.4255 129.516 10.3365 128.881 10.624C128.881 10.624 129.439 9.95981 130.756 10.253L131.483 9.64253C131.483 9.64253 130.105 9.45699 129.519 9.66109C129.519 9.66109 130.192 9.07478 131.681 9.50338L132.481 9.01355C132.481 9.01355 131.307 8.75565 130.605 8.84842C130.605 8.84842 131.345 8.44209 132.716 8.88367L133.289 8.6202C133.289 8.6202 132.427 8.44765 132.176 8.42168C131.925 8.3957 131.909 8.32334 131.909 8.32334C132.454 8.23068 133.015 8.29493 133.527 8.50888C133.527 8.50888 134.747 8.05616 134.727 7.97823Z"
      fill="#0AA351"
    />
    <path
      opacity="0.1"
      d="M195.104 135.446C197.808 135.446 200 135.069 200 134.602C200 134.136 197.808 133.758 195.104 133.758C192.4 133.758 190.208 134.136 190.208 134.602C190.208 135.069 192.4 135.446 195.104 135.446Z"
      fill="#0AA351"
    />
    <path
      opacity="0.1"
      d="M8.50345 149.49C11.2076 149.49 13.3997 149.112 13.3997 148.646C13.3997 148.179 11.2076 147.802 8.50345 147.802C5.79931 147.802 3.60718 148.179 3.60718 148.646C3.60718 149.112 5.79931 149.49 8.50345 149.49Z"
      fill="#0AA351"
    />
    <path
      opacity="0.1"
      d="M36.9266 150.549C39.6307 150.549 41.8228 150.172 41.8228 149.705C41.8228 149.239 39.6307 148.861 36.9266 148.861C34.2224 148.861 32.0303 149.239 32.0303 149.705C32.0303 150.172 34.2224 150.549 36.9266 150.549Z"
      fill="#0AA351"
    />
    <path
      d="M184.388 144.911C188.425 144.911 191.698 144.346 191.698 143.649C191.698 142.952 188.425 142.387 184.388 142.387C180.35 142.387 177.077 142.952 177.077 143.649C177.077 144.346 180.35 144.911 184.388 144.911Z"
      fill="#0AA351"
    />
    <path
      d="M187.409 141.588C187.743 141.31 187.986 140.935 188.108 140.514C188.197 140.089 188.018 139.577 187.62 139.421C187.173 139.246 186.695 139.564 186.333 139.883C185.971 140.202 185.555 140.566 185.08 140.499C185.324 140.273 185.507 139.987 185.61 139.668C185.713 139.349 185.734 139.008 185.669 138.679C185.649 138.542 185.592 138.414 185.506 138.308C185.257 138.037 184.808 138.152 184.509 138.365C183.564 139.044 183.3 140.354 183.295 141.534C183.2 141.109 183.28 140.666 183.279 140.235C183.277 139.805 183.159 139.308 182.799 139.079C182.575 138.958 182.324 138.898 182.071 138.905C181.646 138.888 181.173 138.931 180.882 139.248C180.519 139.643 180.615 140.304 180.929 140.733C181.244 141.161 181.72 141.439 182.159 141.738C182.511 141.952 182.812 142.245 183.039 142.594C183.065 142.643 183.087 142.694 183.104 142.748H185.768C186.364 142.438 186.916 142.048 187.409 141.588Z"
      fill="#0AA351"
    />
    <path
      d="M10.7888 126.03C10.7888 126.03 11.787 127.362 10.327 129.37C8.86707 131.378 7.66345 133.081 8.14526 134.335C8.14526 134.335 10.347 130.598 12.1452 130.544C13.9433 130.491 12.7597 128.277 10.7888 126.03Z"
      fill="#0AA351"
    />
    <path
      opacity="0.1"
      d="M10.7889 126.03C10.8755 126.159 10.9441 126.3 10.9925 126.448C12.7416 128.544 13.6725 130.502 11.9925 130.55C10.4252 130.596 8.538 133.454 8.09619 134.176C8.11164 134.231 8.12984 134.287 8.15074 134.341C8.15074 134.341 10.3525 130.604 12.1507 130.55C13.9488 130.496 12.7597 128.277 10.7889 126.03Z"
      fill="black"
    />
    <path
      d="M12.6452 127.728C12.6452 128.197 12.5925 128.578 12.5289 128.578C12.4652 128.578 12.4143 128.207 12.4143 127.728C12.4143 127.249 12.4779 127.479 12.5434 127.479C12.6089 127.479 12.6452 127.259 12.6452 127.728Z"
      fill="#FFD037"
    />
    <path
      d="M13.2743 128.288C12.8707 128.513 12.5198 128.648 12.4889 128.591C12.458 128.533 12.7616 128.307 13.1652 128.082C13.5688 127.858 13.4088 128.021 13.4398 128.082C13.4707 128.144 13.6852 128.064 13.2743 128.288Z"
      fill="#FFD037"
    />
    <path
      d="M5.51268 126.03C5.51268 126.03 4.51452 127.362 5.97267 129.37C7.43083 131.378 8.63626 133.081 8.15445 134.335C8.15445 134.335 5.95086 130.598 4.15453 130.544C2.35819 130.491 3.53999 128.277 5.51268 126.03Z"
      fill="#0AA351"
    />
    <path
      opacity="0.1"
      d="M5.51263 126.03C5.42516 126.159 5.35655 126.299 5.309 126.448C3.55994 128.544 2.62723 130.502 4.30902 130.55C5.87445 130.596 7.7635 133.454 8.20349 134.176C8.18866 134.231 8.17107 134.287 8.15077 134.341C8.15077 134.341 5.94717 130.604 4.15084 130.55C2.35451 130.496 3.53994 128.277 5.51263 126.03Z"
      fill="black"
    />
    <path
      d="M3.65625 127.728C3.65625 128.197 3.70716 128.578 3.77079 128.578C3.83443 128.578 3.88534 128.207 3.88534 127.728C3.88534 127.249 3.8217 127.479 3.75807 127.479C3.69443 127.479 3.65625 127.259 3.65625 127.728Z"
      fill="#FFD037"
    />
    <path
      d="M3.01811 128.288C3.42174 128.513 3.77446 128.648 3.80537 128.591C3.83628 128.533 3.53265 128.307 3.12902 128.082C2.72539 127.858 2.88357 128.021 2.85448 128.082C2.82539 128.144 2.61449 128.064 3.01811 128.288Z"
      fill="#FFD037"
    />
    <path
      d="M3.97449 134.166C3.97449 134.166 6.76716 134.079 7.61078 133.467C8.45441 132.855 11.9071 132.125 12.1162 133.096C12.3252 134.066 16.3124 137.975 13.1598 138.001C10.0071 138.027 5.83445 137.499 4.99447 136.977C4.15448 136.456 3.97449 134.166 3.97449 134.166Z"
      fill="#A8A8A8"
    />
    <path
      opacity="0.2"
      d="M13.2125 137.669C10.0598 137.695 5.88718 137.167 5.0472 136.645C4.40721 136.248 4.15267 134.821 4.06721 134.163H3.97449C3.97449 134.163 4.1563 136.461 4.99083 136.983C5.82536 137.504 10.0035 138.033 13.1561 138.007C14.0652 138.007 14.3798 137.667 14.3634 137.18C14.2361 137.478 13.8907 137.664 13.2125 137.669Z"
      fill="black"
    />
    <path
      d="M74.4187 76.8769C75.4859 76.8157 80.5095 76.4297 83.7003 74.5725C84.2128 74.2648 84.7917 74.0908 85.3857 74.066C86.4003 74.0363 87.5675 74.4686 86.8203 76.888C85.6094 80.8456 78.5786 85.2986 74.215 85.0518C70.0187 84.8143 65.0407 83.0888 61.7535 77.0216C61.4385 76.4379 61.2834 75.7784 61.3044 75.1124C61.3426 73.8878 61.7789 72.3534 64.0316 74.0641C67.0752 76.3741 72.8496 76.812 74.0078 76.8769C74.1446 76.8844 74.2818 76.8844 74.4187 76.8769Z"
      fill="#444053"
    />
    <path
      d="M114.781 76.8769C115.849 76.8157 120.872 76.4297 124.063 74.5725C124.576 74.2648 125.154 74.0908 125.749 74.066C126.763 74.0363 127.93 74.4686 127.183 76.888C125.972 80.8456 118.941 85.2986 114.578 85.0518C110.382 84.8143 105.403 83.0888 102.116 77.0216C101.801 76.4379 101.646 75.7784 101.667 75.1124C101.705 73.8878 102.142 72.3534 104.394 74.0641C107.438 76.3741 113.212 76.812 114.371 76.8769C114.507 76.8844 114.645 76.8844 114.781 76.8769Z"
      fill="#444053"
    />
  </g>
  <defs>
    <linearGradient
      id="paint0_linear_3632_13611"
      x1="162.204"
      y1="140.638"
      x2="162.204"
      y2="48.9733"
      gradientUnits="userSpaceOnUse"
    >
      <stop stop-color="#808080" stop-opacity="0.25" />
      <stop offset="0.54" stop-color="#808080" stop-opacity="0.12" />
      <stop offset="1" stop-color="#808080" stop-opacity="0.1" />
    </linearGradient>
    <clipPath id="clip0_3632_13611">
      <rect width="200" height="150.549" fill="white" />
    </clipPath>
  </defs>
</svg>
