<svg width="320" height="48" viewBox="0 0 320 48" fill="none" xmlns="http://www.w3.org/2000/svg">
  <rect width="320" height="48" fill="white"/>
  <path d="M51.2578 18.625L54.9766 27.9062L58.6953 18.625H60.6406V30H59.1406V25.5703L59.2812 20.7891L55.5469 30H54.3984L50.6719 20.8125L50.8203 25.5703V30H49.3203V18.625H51.2578ZM68.2812 30C68.1979 29.8333 68.1302 29.5365 68.0781 29.1094C67.4062 29.8073 66.6042 30.1562 65.6719 30.1562C64.8385 30.1562 64.1536 29.9219 63.6172 29.4531C63.0859 28.9792 62.8203 28.3802 62.8203 27.6562C62.8203 26.776 63.1536 26.0938 63.8203 25.6094C64.4922 25.1198 65.4349 24.875 66.6484 24.875H68.0547V24.2109C68.0547 23.7057 67.9036 23.3047 67.6016 23.0078C67.2995 22.7057 66.8542 22.5547 66.2656 22.5547C65.75 22.5547 65.3177 22.6849 64.9688 22.9453C64.6198 23.2057 64.4453 23.5208 64.4453 23.8906H62.9922C62.9922 23.4688 63.1406 23.0625 63.4375 22.6719C63.7396 22.276 64.1458 21.9635 64.6562 21.7344C65.1719 21.5052 65.737 21.3906 66.3516 21.3906C67.3255 21.3906 68.0885 21.6354 68.6406 22.125C69.1927 22.6094 69.4792 23.2786 69.5 24.1328V28.0234C69.5 28.7995 69.599 29.4167 69.7969 29.875V30H68.2812ZM65.8828 28.8984C66.3359 28.8984 66.7656 28.7812 67.1719 28.5469C67.5781 28.3125 67.8724 28.0078 68.0547 27.6328V25.8984H66.9219C65.151 25.8984 64.2656 26.4167 64.2656 27.4531C64.2656 27.9062 64.4167 28.2604 64.7188 28.5156C65.0208 28.7708 65.4089 28.8984 65.8828 28.8984ZM75.8516 22.8438C75.6328 22.8073 75.3958 22.7891 75.1406 22.7891C74.1927 22.7891 73.5495 23.1927 73.2109 24V30H71.7656V21.5469H73.1719L73.1953 22.5234C73.6693 21.7682 74.3411 21.3906 75.2109 21.3906C75.4922 21.3906 75.7057 21.4271 75.8516 21.5V22.8438ZM79.5469 26.0859L78.6406 27.0312V30H77.1953V18H78.6406V25.2578L79.4141 24.3281L82.0469 21.5469H83.8047L80.5156 25.0781L84.1875 30H82.4922L79.5469 26.0859ZM88.6484 30.1562C87.5026 30.1562 86.5703 29.7812 85.8516 29.0312C85.1328 28.276 84.7734 27.2682 84.7734 26.0078V25.7422C84.7734 24.9036 84.9323 24.1562 85.25 23.5C85.5729 22.8385 86.0208 22.3229 86.5938 21.9531C87.1719 21.5781 87.7969 21.3906 88.4688 21.3906C89.5677 21.3906 90.4219 21.7526 91.0312 22.4766C91.6406 23.2005 91.9453 24.237 91.9453 25.5859V26.1875H86.2188C86.2396 27.0208 86.4818 27.6953 86.9453 28.2109C87.4141 28.7214 88.0078 28.9766 88.7266 28.9766C89.237 28.9766 89.6693 28.8724 90.0234 28.6641C90.3776 28.4557 90.6875 28.1797 90.9531 27.8359L91.8359 28.5234C91.1276 29.612 90.0651 30.1562 88.6484 30.1562ZM88.4688 22.5781C87.8854 22.5781 87.3958 22.7917 87 23.2188C86.6042 23.6406 86.3594 24.2344 86.2656 25H90.5V24.8906C90.4583 24.1562 90.2604 23.5885 89.9062 23.1875C89.5521 22.7812 89.0729 22.5781 88.4688 22.5781ZM95.5859 19.5V21.5469H97.1641V22.6641H95.5859V27.9062C95.5859 28.2448 95.6562 28.5 95.7969 28.6719C95.9375 28.8385 96.1771 28.9219 96.5156 28.9219C96.6823 28.9219 96.9115 28.8906 97.2031 28.8281V30C96.8229 30.1042 96.4531 30.1562 96.0938 30.1562C95.4479 30.1562 94.9609 29.9609 94.6328 29.5703C94.3047 29.1797 94.1406 28.625 94.1406 27.9062V22.6641H92.6016V21.5469H94.1406V19.5H95.5859ZM100.43 30H98.9844V21.5469H100.43V30ZM98.8672 19.3047C98.8672 19.0703 98.9375 18.8724 99.0781 18.7109C99.224 18.5495 99.4375 18.4688 99.7188 18.4688C100 18.4688 100.214 18.5495 100.359 18.7109C100.505 18.8724 100.578 19.0703 100.578 19.3047C100.578 19.5391 100.505 19.7344 100.359 19.8906C100.214 20.0469 100 20.125 99.7188 20.125C99.4375 20.125 99.224 20.0469 99.0781 19.8906C98.9375 19.7344 98.8672 19.5391 98.8672 19.3047ZM104.117 21.5469L104.164 22.6094C104.81 21.7969 105.654 21.3906 106.695 21.3906C108.482 21.3906 109.383 22.3984 109.398 24.4141V30H107.953V24.4062C107.948 23.7969 107.807 23.3464 107.531 23.0547C107.26 22.763 106.836 22.6172 106.258 22.6172C105.789 22.6172 105.378 22.7422 105.023 22.9922C104.669 23.2422 104.393 23.5703 104.195 23.9766V30H102.75V21.5469H104.117ZM111.234 25.7031C111.234 24.3854 111.539 23.3385 112.148 22.5625C112.758 21.7812 113.565 21.3906 114.57 21.3906C115.602 21.3906 116.406 21.7552 116.984 22.4844L117.055 21.5469H118.375V29.7969C118.375 30.8906 118.049 31.7526 117.398 32.3828C116.753 33.013 115.883 33.3281 114.789 33.3281C114.18 33.3281 113.583 33.1979 113 32.9375C112.417 32.6771 111.971 32.3203 111.664 31.8672L112.414 31C113.034 31.7656 113.792 32.1484 114.688 32.1484C115.391 32.1484 115.938 31.9505 116.328 31.5547C116.724 31.1589 116.922 30.6016 116.922 29.8828V29.1562C116.344 29.8229 115.555 30.1562 114.555 30.1562C113.565 30.1562 112.763 29.7578 112.148 28.9609C111.539 28.1641 111.234 27.0781 111.234 25.7031ZM112.688 25.8672C112.688 26.8203 112.883 27.5703 113.273 28.1172C113.664 28.6589 114.211 28.9297 114.914 28.9297C115.826 28.9297 116.495 28.5156 116.922 27.6875V23.8281C116.479 23.0208 115.815 22.6172 114.93 22.6172C114.227 22.6172 113.677 22.8906 113.281 23.4375C112.885 23.9844 112.688 24.7943 112.688 25.8672Z" fill="#1C1C1C"/>
  <path d="M296 18L294.59 19.41L299.17 24L294.59 28.59L296 30L302 24L296 18Z" fill="#BDBDBD"/>
  <rect x="16" y="12" width="24" height="24" rx="3" fill="#E81F1F"/>
  <line y1="47.5" x2="320" y2="47.5" stroke="#ECECEC"/>
  <path d="M19 14H20.125V32H19V14ZM20.125 30.875H37V32H20.125V30.875Z" fill="white"/>
  <path fill-rule="evenodd" clip-rule="evenodd" d="M35.1888 18.8508L30.2962 24.9686L26.8751 21.5452L22.7733 25.6481L21.9768 24.8516L26.8751 19.9545L30.2039 23.2811L34.3102 18.1477L35.1888 18.8497V18.8508Z" fill="white"/>
  <path fill-rule="evenodd" clip-rule="evenodd" d="M30.25 17.9375C30.25 17.7883 30.3093 17.6452 30.4148 17.5398C30.5202 17.4343 30.6633 17.375 30.8125 17.375H35.3125C35.4617 17.375 35.6048 17.4343 35.7102 17.5398C35.8157 17.6452 35.875 17.7883 35.875 17.9375V22.4375C35.875 22.5867 35.8157 22.7298 35.7102 22.8352C35.6048 22.9407 35.4617 23 35.3125 23C35.1633 23 35.0202 22.9407 34.9148 22.8352C34.8093 22.7298 34.75 22.5867 34.75 22.4375V18.5H30.8125C30.6633 18.5 30.5202 18.4407 30.4148 18.3352C30.3093 18.2298 30.25 18.0867 30.25 17.9375Z" fill="white"/>
  </svg>
  