<svg
  width="28"
  height="28"
  viewBox="0 0 28 28"
  fill="none"
  xmlns="http://www.w3.org/2000/svg"
>
  <path
    d="M14.2712 4.08514C14.0971 4.01503 13.9028 4.01503 13.7287 4.08514L5.0254 7.58299L8.53123 8.99121L17.5058 5.38493L14.2712 4.08514ZM19.4687 6.17477L10.4941 9.78105L14 11.1893L22.9746 7.58299L19.4687 6.17477ZM24.2083 8.6659L14.7291 12.4759V24.0846L24.2083 20.2746V8.66737V8.6659ZM13.2708 24.086V12.4744L3.79165 8.6659V20.2761L13.2708 24.086ZM13.1877 2.72381C13.7091 2.51426 14.2908 2.51426 14.8123 2.72381L25.2087 6.90306C25.3439 6.95749 25.4598 7.05134 25.5414 7.17252C25.623 7.29371 25.6666 7.43667 25.6666 7.58299V20.2761C25.6665 20.5689 25.579 20.8549 25.4155 21.0973C25.252 21.3397 25.02 21.5273 24.7494 21.6359L14.2712 25.8474C14.0971 25.9175 13.9028 25.9175 13.7287 25.8474L3.25206 21.6359C2.98118 21.5275 2.74885 21.34 2.58508 21.0976C2.42131 20.8552 2.33361 20.569 2.33331 20.2761V7.58299C2.33335 7.43667 2.37698 7.29371 2.45859 7.17252C2.54021 7.05134 2.65606 6.95749 2.79123 6.90306L13.1877 2.72381Z"
    fill="#1C1C1C"
  />
</svg>
