<svg
  width="24"
  height="24"
  viewBox="0 0 24 24"
  fill="none"
  xmlns="http://www.w3.org/2000/svg"
>
  <rect width="24" height="24" rx="5" fill="#2F80ED" />
  <path
    d="M9.52375 8.39286C9.52375 8.62966 9.42968 8.85676 9.26224 9.0242C9.0948 9.19165 8.86769 9.28571 8.63089 9.28571C8.39409 9.28571 8.16699 9.19165 7.99955 9.0242C7.83211 8.85676 7.73804 8.62966 7.73804 8.39286C7.73804 8.15606 7.83211 7.92895 7.99955 7.76151C8.16699 7.59407 8.39409 7.5 8.63089 7.5C8.86769 7.5 9.0948 7.59407 9.26224 7.76151C9.42968 7.92895 9.52375 8.15606 9.52375 8.39286Z"
    fill="white"
  />
  <path
    d="M8.63089 12.8572C8.86769 12.8572 9.0948 12.7632 9.26224 12.5957C9.42968 12.4283 9.52375 12.2012 9.52375 11.9644C9.52375 11.7276 9.42968 11.5005 9.26224 11.333C9.0948 11.1656 8.86769 11.0715 8.63089 11.0715C8.39409 11.0715 8.16699 11.1656 7.99955 11.333C7.83211 11.5005 7.73804 11.7276 7.73804 11.9644C7.73804 12.2012 7.83211 12.4283 7.99955 12.5957C8.16699 12.7632 8.39409 12.8572 8.63089 12.8572Z"
    fill="white"
  />
  <path
    d="M9.52375 15.5357C9.52375 15.7725 9.42968 15.9996 9.26224 16.167C9.0948 16.3345 8.86769 16.4285 8.63089 16.4285C8.39409 16.4285 8.16699 16.3345 7.99955 16.167C7.83211 15.9996 7.73804 15.7725 7.73804 15.5357C7.73804 15.2989 7.83211 15.0718 7.99955 14.9043C8.16699 14.7369 8.39409 14.6428 8.63089 14.6428C8.86769 14.6428 9.0948 14.7369 9.26224 14.9043C9.42968 15.0718 9.52375 15.2989 9.52375 15.5357Z"
    fill="white"
  />
  <path
    d="M11.9047 8.09546C11.7469 8.09546 11.5955 8.15817 11.4839 8.2698C11.3722 8.38143 11.3095 8.53283 11.3095 8.6907C11.3095 8.84857 11.3722 8.99997 11.4839 9.1116C11.5955 9.22322 11.7469 9.28594 11.9047 9.28594H16.6667C16.8245 9.28594 16.9759 9.22322 17.0875 9.1116C17.1992 8.99997 17.2619 8.84857 17.2619 8.6907C17.2619 8.53283 17.1992 8.38143 17.0875 8.2698C16.9759 8.15817 16.8245 8.09546 16.6667 8.09546H11.9047Z"
    fill="white"
  />
  <path
    d="M11.3095 12.262C11.3095 12.1041 11.3722 11.9527 11.4839 11.8411C11.5955 11.7295 11.7469 11.6667 11.9047 11.6667H16.6667C16.8245 11.6667 16.9759 11.7295 17.0875 11.8411C17.1992 11.9527 17.2619 12.1041 17.2619 12.262C17.2619 12.4199 17.1992 12.5713 17.0875 12.6829C16.9759 12.7945 16.8245 12.8572 16.6667 12.8572H11.9047C11.7469 12.8572 11.5955 12.7945 11.4839 12.6829C11.3722 12.5713 11.3095 12.4199 11.3095 12.262Z"
    fill="white"
  />
  <path
    d="M11.9047 15.2383C11.7469 15.2383 11.5955 15.301 11.4839 15.4126C11.3722 15.5243 11.3095 15.6757 11.3095 15.8335C11.3095 15.9914 11.3722 16.1428 11.4839 16.2544C11.5955 16.366 11.7469 16.4288 11.9047 16.4288H16.6667C16.8245 16.4288 16.9759 16.366 17.0875 16.2544C17.1992 16.1428 17.2619 15.9914 17.2619 15.8335C17.2619 15.6757 17.1992 15.5243 17.0875 15.4126C16.9759 15.301 16.8245 15.2383 16.6667 15.2383H11.9047Z"
    fill="white"
  />
  <path
    d="M4.16666 5.71445C4.16666 5.08298 4.41751 4.47738 4.86402 4.03086C5.31054 3.58435 5.91614 3.3335 6.54761 3.3335H18.4524C19.0838 3.3335 19.6894 3.58435 20.136 4.03086C20.5825 4.47738 20.8333 5.08298 20.8333 5.71445V17.6192C20.8333 18.2507 20.5825 18.8563 20.136 19.3028C19.6894 19.7493 19.0838 20.0002 18.4524 20.0002H6.54761C5.91614 20.0002 5.31054 19.7493 4.86402 19.3028C4.41751 18.8563 4.16666 18.2507 4.16666 17.6192V5.71445ZM6.54761 4.52397C6.23187 4.52397 5.92907 4.6494 5.70582 4.87266C5.48256 5.09591 5.35713 5.39871 5.35713 5.71445V17.6192C5.35713 17.9349 5.48256 18.2377 5.70582 18.461C5.92907 18.6843 6.23187 18.8097 6.54761 18.8097H18.4524C18.7681 18.8097 19.0709 18.6843 19.2942 18.461C19.5174 18.2377 19.6428 17.9349 19.6428 17.6192V5.71445C19.6428 5.39871 19.5174 5.09591 19.2942 4.87266C19.0709 4.6494 18.7681 4.52397 18.4524 4.52397H6.54761Z"
    fill="white"
  />
</svg>
