<svg width="24" height="24" viewBox="0 0 24 24" fill="none" xmlns="http://www.w3.org/2000/svg">
<path d="M3.80773 3C3.59351 3 3.38806 3.0878 3.23658 3.24408C3.0851 3.40036 3 3.61232 3 3.83333C3 4.05435 3.0851 4.26631 3.23658 4.42259C3.38806 4.57887 3.59351 4.66667 3.80773 4.66667H4.20513C4.38052 4.66698 4.55105 4.72618 4.69094 4.83533C4.83084 4.94448 4.93249 5.09764 4.98055 5.27167L7.54267 14.5217C7.68758 15.0437 7.99329 15.5028 8.41357 15.8297C8.83385 16.1565 9.34585 16.3333 9.87216 16.3333H17.2532C17.7376 16.3334 18.2109 16.1837 18.612 15.9036C19.0131 15.6234 19.3237 15.2257 19.5035 14.7617L21.8847 8.61833C21.9826 8.36554 22.019 8.09186 21.9907 7.82122C21.9624 7.55057 21.8702 7.2912 21.7223 7.06576C21.5744 6.84033 21.3753 6.65571 21.1422 6.52803C20.9092 6.40035 20.6494 6.33351 20.3856 6.33333H6.95464L6.53301 4.81333C6.38847 4.29129 6.08313 3.83198 5.66315 3.50483C5.24317 3.17768 4.73138 3.00047 4.20513 3H3.80773ZM9.09674 14.0617L7.41666 8H20.3839L18.0028 14.1433C17.9428 14.2978 17.8393 14.4302 17.7057 14.5235C17.5721 14.6168 17.4145 14.6666 17.2532 14.6667H9.87216C9.69677 14.6664 9.52624 14.6072 9.38635 14.498C9.24645 14.3889 9.1448 14.2357 9.09674 14.0617Z" fill="#0AA351"/>
<path d="M10.2696 23C10.5878 23 10.9029 22.9353 11.1969 22.8097C11.4909 22.6841 11.758 22.4999 11.983 22.2678C12.208 22.0356 12.3865 21.76 12.5083 21.4567C12.6301 21.1534 12.6927 20.8283 12.6927 20.5C12.6927 20.1717 12.6301 19.8466 12.5083 19.5433C12.3865 19.24 12.208 18.9644 11.983 18.7322C11.758 18.5001 11.4909 18.3159 11.1969 18.1903C10.9029 18.0647 10.5878 18 10.2696 18C9.62689 18 9.01055 18.2634 8.55611 18.7322C8.10167 19.2011 7.84637 19.837 7.84637 20.5C7.84637 21.163 8.10167 21.7989 8.55611 22.2678C9.01055 22.7366 9.62689 23 10.2696 23ZM10.2696 21.3333C10.0553 21.3333 9.84989 21.2455 9.69841 21.0893C9.54693 20.933 9.46183 20.721 9.46183 20.5C9.46183 20.279 9.54693 20.067 9.69841 19.9107C9.84989 19.7545 10.0553 19.6667 10.2696 19.6667C10.4838 19.6667 10.6892 19.7545 10.8407 19.9107C10.9922 20.067 11.0773 20.279 11.0773 20.5C11.0773 20.721 10.9922 20.933 10.8407 21.0893C10.6892 21.2455 10.4838 21.3333 10.2696 21.3333Z" fill="#0AA351"/>
<path d="M16.7314 23C17.0496 23 17.3647 22.9353 17.6587 22.8097C17.9527 22.6841 18.2199 22.4999 18.4449 22.2678C18.6699 22.0356 18.8484 21.76 18.9701 21.4567C19.0919 21.1534 19.1546 20.8283 19.1546 20.5C19.1546 20.1717 19.0919 19.8466 18.9701 19.5433C18.8484 19.24 18.6699 18.9644 18.4449 18.7322C18.2199 18.5001 17.9527 18.3159 17.6587 18.1903C17.3647 18.0647 17.0496 18 16.7314 18C16.0887 18 15.4724 18.2634 15.018 18.7322C14.5635 19.2011 14.3082 19.837 14.3082 20.5C14.3082 21.163 14.5635 21.7989 15.018 22.2678C15.4724 22.7366 16.0887 23 16.7314 23ZM16.7314 21.3333C16.5172 21.3333 16.3117 21.2455 16.1603 21.0893C16.0088 20.933 15.9237 20.721 15.9237 20.5C15.9237 20.279 16.0088 20.067 16.1603 19.9107C16.3117 19.7545 16.5172 19.6667 16.7314 19.6667C16.9456 19.6667 17.1511 19.7545 17.3026 19.9107C17.454 20.067 17.5391 20.279 17.5391 20.5C17.5391 20.721 17.454 20.933 17.3026 21.0893C17.1511 21.2455 16.9456 21.3333 16.7314 21.3333Z" fill="#0AA351"/>
</svg>
