<svg width="24" height="24" viewBox="0 0 24 24" fill="none" xmlns="http://www.w3.org/2000/svg">
<path d="M8.25 11.8763C8.25 12.2316 8.1183 12.5723 7.88388 12.8235C7.64946 13.0747 7.33152 13.2158 7 13.2158C6.66848 13.2158 6.35054 13.0747 6.11612 12.8235C5.8817 12.5723 5.75 12.2316 5.75 11.8763C5.75 11.5211 5.8817 11.1804 6.11612 10.9292C6.35054 10.678 6.66848 10.5369 7 10.5369C7.33152 10.5369 7.64946 10.678 7.88388 10.9292C8.1183 11.1804 8.25 11.5211 8.25 11.8763ZM13.25 11.8763C13.25 12.2316 13.1183 12.5723 12.8839 12.8235C12.6495 13.0747 12.3315 13.2158 12 13.2158C11.6685 13.2158 11.3505 13.0747 11.1161 12.8235C10.8817 12.5723 10.75 12.2316 10.75 11.8763C10.75 11.5211 10.8817 11.1804 11.1161 10.9292C11.3505 10.678 11.6685 10.5369 12 10.5369C12.3315 10.5369 12.6495 10.678 12.8839 10.9292C13.1183 11.1804 13.25 11.5211 13.25 11.8763ZM17 13.2158C17.3315 13.2158 17.6495 13.0747 17.8839 12.8235C18.1183 12.5723 18.25 12.2316 18.25 11.8763C18.25 11.5211 18.1183 11.1804 17.8839 10.9292C17.6495 10.678 17.3315 10.5369 17 10.5369C16.6685 10.5369 16.3505 10.678 16.1161 10.9292C15.8817 11.1804 15.75 11.5211 15.75 11.8763C15.75 12.2316 15.8817 12.5723 16.1161 12.8235C16.3505 13.0747 16.6685 13.2158 17 13.2158Z" fill="#0AA351"/>
<path d="M4.70625 22.3282L4.73125 22.3228C7.01875 21.8366 8.41625 21.195 9.06625 20.8427C10.0232 21.1162 11.0096 21.254 12 21.2526C17.5225 21.2526 22 17.0547 22 11.8763C22 6.6979 17.5225 2.5 12 2.5C6.4775 2.5 2 6.6979 2 11.8763C2 14.2338 2.92875 16.3903 4.4625 18.0378C4.3552 19.0962 4.13544 20.1379 3.8075 21.1427L3.80375 21.1575C3.71055 21.4453 3.60884 21.7298 3.49875 22.0107C3.4 22.2599 3.59125 22.5385 3.84 22.4956C4.12958 22.4448 4.41837 22.389 4.70625 22.3282ZM5.70625 18.1651C5.72376 17.969 5.70069 17.7712 5.63868 17.5857C5.57667 17.4003 5.47725 17.2317 5.3475 17.0922C4.0225 15.667 3.25 13.8426 3.25 11.8763C3.25 7.6007 7.005 3.83947 12 3.83947C16.995 3.83947 20.75 7.6007 20.75 11.8763C20.75 16.1532 16.995 19.9131 12 19.9131C11.1189 19.9145 10.2414 19.792 9.39 19.5488C9.09247 19.4633 8.77598 19.4986 8.50125 19.6479C8.0175 19.9104 6.95125 20.4114 5.20875 20.844C5.45185 19.9695 5.6184 19.0727 5.70625 18.1651Z" fill="#0AA351"/>
</svg>
