<svg width="50" height="50" viewBox="0 0 50 50" fill="none" xmlns="http://www.w3.org/2000/svg">
<path d="M48.9164 25.0443C48.9164 38.5524 37.9664 49.5029 24.4582 49.5029C10.9504 49.5029 0 38.5524 0 25.0443C0 11.5365 10.9504 0.58606 24.4582 0.58606C37.9664 0.58606 48.9164 11.5365 48.9164 25.0443Z" fill="#94C5FF"/>
<path d="M24.4583 49.5028C32.2795 49.5028 39.2428 45.8316 43.7197 40.1187H5.19678C9.67407 45.8316 16.6374 49.5028 24.4583 49.5028Z" fill="#50309E"/>
<path d="M35.3873 23.0368H28.9902V22.5537C28.9902 22.2921 29.1973 22.0801 29.4528 22.0801H34.9248C35.1802 22.0801 35.3873 22.2921 35.3873 22.5537V23.0368Z" fill="#CE2844"/>
<path d="M41.6929 28.9561L36.9175 23.5544C36.8867 23.5142 36.8582 23.4718 36.8285 23.4307C36.6066 23.1225 36.2539 22.9386 35.8768 22.9386H28.736V17.2112C28.736 16.5422 28.2065 16 27.5531 16H10.3766C7.65261 19.1744 6 23.3362 6 27.8939C6 31.2008 6.87011 34.2993 8.38786 36.9636H8.67543C9.02177 36.9636 9.32471 36.7125 9.38431 36.3632C9.53565 35.4745 10.0097 34.6995 10.6779 34.1688C11.2649 33.7028 12.0018 33.4253 12.8019 33.4253C14.5132 33.4253 15.9351 34.6941 16.2194 36.3632C16.279 36.7125 16.5817 36.9633 16.928 36.9633H30.5188C30.8652 36.9633 31.1681 36.7125 31.2274 36.3632C31.512 34.6941 32.9336 33.4253 34.645 33.4253C36.3566 33.4253 37.7783 34.6941 38.0625 36.3632C38.1221 36.7125 38.4248 36.9633 38.7714 36.9633H40.5567C41.3537 36.9633 42 36.3022 42 35.4863C42 33.4067 42 29.8667 42 29.8667C41.9997 29.5366 41.8918 29.2162 41.6929 28.9561Z" fill="#EF3A50"/>
<path d="M41.693 28.9562L36.9176 23.5545C36.8868 23.5143 36.8582 23.4718 36.8286 23.4307C36.6067 23.1225 36.2537 22.9386 35.8769 22.9386H28.7361V36.9637H30.5186C30.865 36.9637 31.1679 36.7126 31.2275 36.3633C31.5118 34.6945 32.9337 33.4256 34.6451 33.4256C36.3564 33.4256 37.7781 34.6945 38.0626 36.3633C38.1219 36.7128 38.4249 36.9637 38.7712 36.9637H40.5568C41.3538 36.9637 41.9998 36.3025 41.9998 35.4864C41.9998 33.4068 41.9998 29.8668 41.9998 29.8668C41.9998 29.5369 41.8919 29.2163 41.693 28.9562Z" fill="#FDD33A"/>
<path d="M37.6153 36.978C37.6153 38.6471 36.2942 40 34.6641 40C33.0343 40 31.7129 38.6471 31.7129 36.978C31.7129 35.3093 33.0343 33.9563 34.6641 33.9563C36.2942 33.9563 37.6153 35.3093 37.6153 36.978Z" fill="#181B2B"/>
<path d="M35.8823 36.978C35.8823 37.667 35.3368 38.2255 34.6639 38.2255C33.991 38.2255 33.4456 37.667 33.4456 36.978C33.4456 36.289 33.991 35.7305 34.6639 35.7305C35.3368 35.7305 35.8823 36.289 35.8823 36.978Z" fill="white"/>
<path d="M15.7645 36.978C15.7645 38.6471 14.4431 40 12.8133 40C11.1832 40 9.86182 38.6471 9.86182 36.978C9.86182 35.3093 11.1832 33.9563 12.8133 33.9563C14.4431 33.9563 15.7645 35.3093 15.7645 36.978Z" fill="#181B2B"/>
<path d="M14.0317 36.978C14.0317 37.667 13.4863 38.2255 12.8134 38.2255C12.1404 38.2255 11.595 37.667 11.595 36.978C11.595 36.289 12.1404 35.7305 12.8134 35.7305C13.4863 35.7305 14.0317 36.289 14.0317 36.978Z" fill="white"/>
<path d="M35.3282 24.2308C34.4605 24.2308 31.7634 24.2308 30.5395 24.2311C30.1995 24.2311 29.9246 24.5131 29.9246 24.8613V28.1468C29.9246 28.4949 30.2 28.7773 30.5401 28.7773H38.1349C38.6633 28.7773 38.9465 28.1406 38.5988 27.7328C37.6718 26.6451 36.2862 25.0204 35.7888 24.4434C35.672 24.3078 35.5048 24.2308 35.3282 24.2308Z" fill="#71A2EA"/>
<path d="M31.4338 28.1471V24.8613C31.4338 24.5131 31.709 24.2311 32.049 24.2311C32.8291 24.2311 34.2076 24.2308 35.3295 24.2308C35.329 24.2308 35.3287 24.2308 35.3282 24.2308C34.4608 24.2308 31.7634 24.2308 30.5398 24.2311C30.1998 24.2311 29.9246 24.5134 29.9246 24.8613V28.1471C29.9246 28.4949 30.2 28.7773 30.5401 28.7773H32.0496C31.7096 28.7773 31.4338 28.4949 31.4338 28.1471Z" fill="#578DCE"/>
<path d="M25.9712 22.8722V21.9416C25.9712 21.5305 25.6455 21.197 25.2439 21.197H7.25668C6.95099 21.9782 6.69748 22.7861 6.5 23.6169H25.2439C25.6455 23.6169 25.9712 23.2836 25.9712 22.8722Z" fill="#CE2844"/>
<path d="M25.9712 30.9764V30.0459C25.9712 29.6345 25.6455 29.3012 25.2439 29.3012H6.05371C6.11578 30.1243 6.23169 30.9323 6.3984 31.7211H25.2439C25.6455 31.7211 25.9712 31.3876 25.9712 30.9764Z" fill="#CE2844"/>
<path d="M31.6494 30.5435H30.2119C30.0531 30.5435 29.9246 30.4116 29.9246 30.2491C29.9246 30.0865 30.0531 29.9547 30.2119 29.9547H31.6494C31.8082 29.9547 31.937 30.0865 31.937 30.2491C31.937 30.4116 31.8082 30.5435 31.6494 30.5435Z" fill="#182B32"/>
<path d="M15.9458 35.4743C16.073 35.753 16.1661 36.0511 16.2194 36.3632C16.279 36.7125 16.5816 36.9636 16.928 36.9636H28.736V35.4743H15.9458Z" fill="#CE2844"/>
<path d="M8.67541 36.9636C9.02175 36.9636 9.3247 36.7125 9.3843 36.3632C9.43731 36.0511 9.53124 35.753 9.65868 35.4743H7.62842C7.85968 35.9841 8.11291 36.481 8.38757 36.9636H8.67541Z" fill="#CE2844"/>
<path d="M28.7361 36.9636H30.5189C30.5458 36.9636 30.5727 36.9619 30.5991 36.9588C30.6518 36.9529 30.7035 36.9411 30.7526 36.924C30.7771 36.9155 30.8012 36.9057 30.8246 36.8944C30.8433 36.8857 30.8617 36.8759 30.8795 36.8658C30.9688 36.8135 31.0465 36.7426 31.1067 36.6571C31.1305 36.6231 31.1517 36.5868 31.1698 36.5483C31.1967 36.4906 31.2162 36.4287 31.2275 36.3632C31.2454 36.2589 31.2676 36.156 31.294 36.055C31.3335 35.9037 31.383 35.7561 31.4409 35.6135C31.4601 35.5662 31.4816 35.5204 31.5027 35.4743H28.7361V36.9636Z" fill="#E0AF24"/>
</svg>
