<svg width="50" height="50" viewBox="0 0 50 50" fill="none" xmlns="http://www.w3.org/2000/svg">
<g clip-path="url(#clip0)">
<path d="M49.4881 25.549C49.4881 39.053 38.541 50 25.037 50C11.533 50 0.585938 39.053 0.585938 25.549C0.585938 12.0449 11.533 1.0979 25.037 1.0979C38.541 1.0979 49.4881 12.0449 49.4881 25.549Z" fill="#FDD33A"/>
<path d="M35.0902 10H29.777C29.4522 10 29.1559 10.1535 28.99 10.3983C28.0808 11.7426 26.4108 12.6437 24.5 12.6437C22.5892 12.6437 20.9192 11.7426 20.01 10.3983C19.8441 10.1535 19.5475 10 19.223 10H13.9098C13.4073 10 13 10.3574 13 10.7983V47.0441C16.4191 48.9172 20.4587 50 24.7866 50C28.8755 50 32.7061 49.0329 36 47.3468V10.7983C36 10.3574 35.5927 10 35.0902 10Z" fill="#EF3A50"/>
<path d="M19.011 10.7983C19.011 10.3717 19.3579 10.0241 19.7941 10.0021C19.7831 10.0015 19.7723 10 19.7613 10H14.9353C14.4788 10 14.1089 10.3574 14.1089 10.7983V47.0441C15.5731 47.9272 17.163 48.6346 18.8461 49.1357L19.011 38.6368V10.7983Z" fill="#CE2844"/>
<path d="M34.1932 37.8332H32.5196C32.2912 37.8332 32.1064 37.6544 32.1064 37.4341C32.1064 37.2134 32.2912 37.0346 32.5196 37.0346H34.1932C34.4213 37.0346 34.6064 37.2134 34.6064 37.4341C34.6064 37.6544 34.4213 37.8332 34.1932 37.8332ZM29.7921 37.8332H28.1185C27.8904 37.8332 27.7053 37.6544 27.7053 37.4341C27.7053 37.2134 27.8904 37.0346 28.1185 37.0346H29.7921C30.0205 37.0346 30.2053 37.2134 30.2053 37.4341C30.2053 37.6544 30.0205 37.8332 29.7921 37.8332ZM25.3913 37.8332H23.7177C23.4896 37.8332 23.3045 37.6544 23.3045 37.4341C23.3045 37.2134 23.4896 37.0346 23.7177 37.0346H25.3913C25.6194 37.0346 25.8045 37.2134 25.8045 37.4341C25.8045 37.6544 25.6194 37.8332 25.3913 37.8332ZM20.9905 37.8332H19.3169C19.0885 37.8332 18.9037 37.6544 18.9037 37.4341C18.9037 37.2134 19.0885 37.0346 19.3169 37.0346H20.9905C21.2186 37.0346 21.4037 37.2134 21.4037 37.4341C21.4037 37.6544 21.2186 37.8332 20.9905 37.8332ZM16.5894 37.8332H14.9157C14.6877 37.8332 14.5025 37.6544 14.5025 37.4341C14.5025 37.2134 14.6877 37.0346 14.9157 37.0346H16.5894C16.8178 37.0346 17.0026 37.2134 17.0026 37.4341C17.0026 37.6544 16.8178 37.8332 16.5894 37.8332Z" fill="white"/>
<path d="M33.4897 25.1276C33.4897 29.834 29.5403 33.6493 24.6688 33.6493C19.797 33.6493 15.8476 29.834 15.8476 25.1276C15.8476 20.4211 19.797 16.6058 24.6688 16.6058C29.5403 16.6058 33.4897 20.4211 33.4897 25.1276Z" fill="white"/>
<path d="M15.8476 25.1275C15.8476 27.7535 17.0774 30.1019 19.011 31.665V18.5897C17.0774 20.1531 15.8476 22.5012 15.8476 25.1275Z" fill="#E8E8E8"/>
<path d="M20.9937 23.5871C20.5758 23.1833 20.3666 22.6972 20.3666 22.1283C20.3666 21.5549 20.5758 21.0663 20.9937 20.6626C21.4113 20.2591 21.9145 20.0571 22.5034 20.0571C23.0922 20.0571 23.598 20.2591 24.0207 20.6626C24.4383 21.0663 24.6474 21.5549 24.6474 22.1283C24.6474 22.6972 24.4383 23.1833 24.0207 23.5871C23.598 23.9905 23.0922 24.1925 22.5034 24.1925C21.9149 24.1925 21.4113 23.9905 20.9937 23.5871ZM20.965 29.6833C20.9223 29.509 20.9507 29.346 21.0506 29.1947L26.9551 20.3461C27.0549 20.1947 27.1948 20.1007 27.3752 20.0641C27.5508 20.0275 27.717 20.0571 27.8737 20.1535C28.0304 20.25 28.1277 20.3852 28.1659 20.5594C28.2038 20.734 28.1732 20.8942 28.0733 21.0413L22.1758 29.8966C22.076 30.0434 21.936 30.1352 21.7557 30.1719C21.5753 30.2131 21.4066 30.1856 21.2499 30.0892C21.0979 29.9927 21.0032 29.8575 20.965 29.6833ZM21.8125 21.4539C21.6227 21.6422 21.5279 21.8668 21.5279 22.1283C21.5279 22.3853 21.6227 22.6078 21.8125 22.7958C22.0024 22.9792 22.233 23.071 22.5037 23.071C22.7741 23.071 23.0044 22.9792 23.1943 22.7958C23.3892 22.6078 23.4865 22.3853 23.4865 22.1283C23.4865 21.8668 23.3892 21.6422 23.1943 21.4539C23.0044 21.2705 22.7741 21.1786 22.5037 21.1786C22.233 21.1786 22.0024 21.2705 21.8125 21.4539ZM25.3241 29.6006C24.9061 29.1971 24.6973 28.7107 24.6973 28.1418C24.6973 27.5684 24.9061 27.0801 25.3241 26.6764C25.7417 26.2726 26.2449 26.0709 26.8337 26.0709C27.4226 26.0709 27.9261 26.2726 28.3438 26.6764C28.7617 27.0801 28.9705 27.5684 28.9705 28.1418C28.9705 28.7107 28.7617 29.1971 28.3438 29.6006C27.9258 30.0043 27.4226 30.206 26.8337 30.206C26.2452 30.206 25.7417 30.0043 25.3241 29.6006ZM26.1432 27.4677C25.9483 27.6557 25.851 27.8803 25.851 28.1421C25.851 28.4034 25.9483 28.6261 26.1432 28.8092C26.333 28.993 26.5633 29.0845 26.8341 29.0845C27.1048 29.0845 27.3348 28.993 27.5249 28.8092C27.7148 28.6261 27.8099 28.4034 27.8099 28.1421C27.8099 27.8806 27.7148 27.656 27.5249 27.4677C27.3348 27.2843 27.1048 27.1924 26.8341 27.1924C26.5633 27.1924 26.333 27.2843 26.1432 27.4677Z" fill="#50309E"/>
</g>
<defs>
<clipPath id="clip0">
<rect width="50" height="50" fill="white"/>
</clipPath>
</defs>
</svg>
