<svg width="50" height="50" viewBox="0 0 50 50" fill="none" xmlns="http://www.w3.org/2000/svg">
<path d="M49.4881 24.4511C49.4881 37.9551 38.541 48.9021 25.037 48.9021C11.533 48.9021 0.585938 37.9551 0.585938 24.4511C0.585938 10.947 11.533 0 25.037 0C38.541 0 49.4881 10.947 49.4881 24.4511Z" fill="#50309E"/>
<path d="M35.6974 13.6916L27.4478 4.5879C26.0472 3.04215 23.6193 3.04215 22.2187 4.5879L13.9695 13.6916C13.775 13.9064 13.667 14.1861 13.667 14.4759V37.8324C13.667 38.4772 14.1896 39 14.8344 39H31.0271L35.9999 33.861V14.4759C35.9999 14.1861 35.8919 13.9067 35.6974 13.6916ZM24.8334 10.0131C23.6898 10.0131 22.7627 9.0859 22.7627 7.94184C22.7627 6.79777 23.6898 5.87032 24.8334 5.87032C25.977 5.87032 26.9038 6.79777 26.9038 7.94184C26.9038 9.0859 25.9767 10.0131 24.8334 10.0131Z" fill="#FDD33A"/>
<path d="M18.7447 37.8325V15.3401C18.7447 14.4942 19.0591 13.6783 19.6272 13.0517L23.1568 9.15649C22.901 8.8042 22.7535 8.3683 22.7633 7.89758C22.7862 6.80082 23.6865 5.89748 24.7826 5.87129C25.1826 5.86147 25.5574 5.96591 25.8777 6.15366L27.2964 4.58798C27.3211 4.5606 27.347 4.53501 27.3723 4.50883C25.9613 3.04371 23.5949 3.0693 22.219 4.58798L13.9695 13.6917C13.775 13.9065 13.667 14.1862 13.667 14.476V37.8325C13.667 38.4772 14.1896 39 14.8344 39H19.9118C19.2673 39 18.7447 38.4772 18.7447 37.8325Z" fill="#E0AF24"/>
<path d="M24.7338 8.40715C25.3778 8.40715 25.9 7.88466 25.9 7.24018V0.0279693C25.5595 0.00981899 25.2165 0 24.8712 0C24.4328 0 23.9983 0.0160675 23.5673 0.0452269V7.24018C23.5673 7.88466 24.0896 8.40715 24.7338 8.40715Z" fill="#71A2EA"/>
<path d="M24.7338 7.24018V0.0452269C24.9727 0.0291594 25.2127 0.0175552 25.4539 0.00981899C25.2603 0.00386809 25.0663 0 24.8712 0C24.4328 0 23.9983 0.0160675 23.5673 0.0452269V7.24018C23.5673 7.88466 24.0896 8.40715 24.7338 8.40715C24.9465 8.40715 25.1452 8.34913 25.3168 8.24975C24.9685 8.04802 24.7338 7.67192 24.7338 7.24018Z" fill="#578DCE"/>
<path d="M15.8299 14.7919H14.5849C14.2625 14.7919 14.001 14.5307 14.001 14.2081C14.001 13.8859 14.2625 13.6243 14.5849 13.6243H15.8299C16.1521 13.6243 16.4135 13.8859 16.4135 14.2081C16.4135 14.5307 16.1521 14.7919 15.8299 14.7919Z" fill="#EF3A50"/>
<path d="M30.9964 14.7918H28.8677C28.5453 14.7918 28.2842 14.5306 28.2842 14.2081C28.2842 13.8858 28.5453 13.6243 28.8677 13.6243H30.9964C31.3185 13.6243 31.58 13.8858 31.58 14.2081C31.58 14.5306 31.3185 14.7918 30.9964 14.7918ZM25.9407 14.7918H23.812C23.4899 14.7918 23.2284 14.5306 23.2284 14.2081C23.2284 13.8858 23.4899 13.6243 23.812 13.6243H25.9407C26.2631 13.6243 26.5243 13.8858 26.5243 14.2081C26.5243 14.5306 26.2631 14.7918 25.9407 14.7918ZM20.8853 14.7918H18.7566C18.4344 14.7918 18.173 14.5306 18.173 14.2081C18.173 13.8858 18.4344 13.6243 18.7566 13.6243H20.8853C21.2074 13.6243 21.4688 13.8858 21.4688 14.2081C21.4688 14.5306 21.2074 14.7918 20.8853 14.7918Z" fill="#EF3A50"/>
<path d="M35.1684 14.7918H33.9234C33.6013 14.7918 33.3398 14.5306 33.3398 14.2081C33.3398 13.8858 33.6013 13.6243 33.9234 13.6243H35.1684C35.4909 13.6243 35.752 13.8858 35.752 14.2081C35.752 14.5306 35.4909 14.7918 35.1684 14.7918Z" fill="#EF3A50"/>
<path d="M33.7675 25.9896C33.7675 30.981 29.7227 35.0273 24.7336 35.0273C19.7442 35.0273 15.6995 30.981 15.6995 25.9896C15.6995 20.9986 19.7442 16.9523 24.7336 16.9523C29.7227 16.9523 33.7675 20.9986 33.7675 25.9896Z" fill="#EF3A50"/>
<path d="M15.6994 25.9898C15.6994 28.6826 16.8769 31.0995 18.7445 32.7554V19.2245C16.8769 20.8803 15.6994 23.2973 15.6994 25.9898Z" fill="#CE2844"/>
<path d="M16.4135 14.2081C16.4135 13.8859 16.1521 13.6243 15.8299 13.6243H14.5849C14.2625 13.6243 14.001 13.8859 14.001 14.2081C14.001 14.5307 14.2625 14.7919 14.5849 14.7919H15.8299C16.1521 14.7919 16.4135 14.5307 16.4135 14.2081Z" fill="#CE2844"/>
<path d="M18.1729 14.2081C18.1729 14.5307 18.4344 14.7919 18.7565 14.7919H18.7898C18.857 14.3798 18.9992 13.9844 19.2089 13.6243H18.7565C18.4344 13.6243 18.1729 13.8859 18.1729 14.2081Z" fill="#CE2844"/>
<path d="M20.9699 24.356C20.5419 23.9281 20.328 23.4124 20.328 22.809C20.328 22.2008 20.5422 21.6828 20.9699 21.2546C21.3979 20.8268 21.9133 20.6125 22.5162 20.6125C23.1191 20.6125 23.6372 20.8268 24.07 21.2546C24.498 21.6828 24.7118 22.2011 24.7118 22.809C24.7118 23.4124 24.4977 23.9281 24.07 24.356C23.6372 24.7841 23.1191 24.9981 22.5162 24.9981C21.9133 24.9984 21.3979 24.7841 20.9699 24.356ZM20.9407 30.8213C20.897 30.6363 20.9261 30.4637 21.0282 30.303L27.0752 20.919C27.1772 20.7586 27.3206 20.659 27.5056 20.62C27.6852 20.581 27.8557 20.6125 28.016 20.7149C28.1766 20.8169 28.2762 20.9607 28.3152 21.1454C28.3539 21.3302 28.3223 21.5004 28.2203 21.656L22.1807 31.0475C22.0787 31.2031 21.935 31.3004 21.7503 31.3394C21.5656 31.3831 21.3931 31.3539 21.2325 31.2519C21.0769 31.1495 20.9797 31.0061 20.9407 30.8213ZM21.8086 22.094C21.6141 22.2937 21.5168 22.5317 21.5168 22.809C21.5168 23.0816 21.6141 23.3175 21.8086 23.5169C22.0031 23.7115 22.239 23.8088 22.5162 23.8088C22.7934 23.8088 23.0293 23.7115 23.2238 23.5169C23.4231 23.3175 23.5227 23.0816 23.5227 22.809C23.5227 22.5317 23.4231 22.2934 23.2238 22.094C23.0293 21.8994 22.7934 21.8021 22.5162 21.8021C22.239 21.8021 22.0031 21.8994 21.8086 22.094ZM25.4048 30.7336C24.9768 30.3057 24.763 29.79 24.763 29.1869C24.763 28.5787 24.9768 28.0607 25.4048 27.6325C25.8325 27.2044 26.348 26.9904 26.9512 26.9904C27.5541 26.9904 28.0695 27.2044 28.4975 27.6325C28.9255 28.0607 29.1394 28.5787 29.1394 29.1869C29.1394 29.79 28.9255 30.3057 28.4975 30.7336C28.0695 31.1617 27.5541 31.376 26.9512 31.376C26.348 31.376 25.8325 31.1617 25.4048 30.7336ZM26.2436 28.4716C26.044 28.6713 25.9447 28.9093 25.9447 29.1869C25.9447 29.4639 26.044 29.6999 26.2436 29.8945C26.4381 30.0891 26.674 30.1864 26.9512 30.1864C27.2284 30.1864 27.4643 30.0891 27.6588 29.8945C27.853 29.6999 27.9506 29.4639 27.9506 29.1869C27.9506 28.9093 27.853 28.6713 27.6588 28.4716C27.4643 28.277 27.2284 28.1797 26.9512 28.1797C26.674 28.1797 26.4381 28.277 26.2436 28.4716Z" fill="white"/>
<path d="M35.9999 33.861H31.9293C31.1206 33.861 30.4647 34.5168 30.4647 35.3258V38.9999H31.0272L35.9999 33.861Z" fill="#E0AF24"/>
<path d="M31.0273 38.9999V35.0309C31.0273 34.3846 31.5511 33.861 32.1968 33.861H35.9997L31.0273 38.9999Z" fill="#FFE388"/>
</svg>
