<svg width="25" height="50" viewBox="0 0 25 50" fill="none" xmlns="http://www.w3.org/2000/svg">
<g clip-path="url(#clip0)">
<path d="M49.4881 25.549C49.4881 39.053 38.541 50 25.037 50C11.533 50 0.585938 39.053 0.585938 25.549C0.585938 12.0449 11.533 1.0979 25.037 1.0979C38.541 1.0979 49.4881 12.0449 49.4881 25.549Z" fill="#FDD33A"/>
<path d="M24.7842 11.0033C24.6897 11.0012 24.5949 11 24.4999 11C24.4049 11 24.3104 11.0012 24.2159 11.0033C14.7024 11.2151 8.94512 22.6805 13.7029 31.7375L18.6896 41.2304L23.2714 49.9524C23.6745 49.9833 24.0808 50 24.491 50C24.9076 50 25.3202 49.9824 25.7296 49.9509L30.2206 41.4012L35.2973 31.7375C40.0547 22.6805 34.2977 11.2151 24.7842 11.0033Z" fill="#EF3A50"/>
<path d="M18.4812 31.7375C14.0859 23.3702 18.665 12.9483 26.8891 11.2422C26.2112 11.1015 25.5086 11.0193 24.7842 11.0033C24.6897 11.0012 24.5949 11 24.4999 11C24.4049 11 24.3104 11.0012 24.2159 11.0033C14.7024 11.2151 8.94512 22.6805 13.7029 31.7375L18.6896 41.2304L23.2714 49.9524C23.6745 49.9833 24.0808 50 24.491 50C24.9076 50 25.3202 49.9824 25.7296 49.9509L26.8891 47.7431L23.4679 41.2304L18.4812 31.7375Z" fill="#CE2844"/>
<path d="M33.4278 24.6666C33.4278 30.0861 29.4306 34.479 24.4999 34.479C19.5691 34.479 15.5719 30.0861 15.5719 24.6666C15.5719 19.2473 19.5691 14.8544 24.4999 14.8544C29.4306 14.8544 33.4278 19.2473 33.4278 24.6666Z" fill="#E8E8E8"/>
<path d="M19.2188 24.6666C19.2188 19.9341 22.2669 15.9845 26.3232 15.0594C25.7346 14.9252 25.1247 14.8544 24.4999 14.8544C19.5691 14.8544 15.5719 19.2473 15.5719 24.6666C15.5719 30.0861 19.5691 34.479 24.4999 34.479C25.1247 34.479 25.7346 34.4082 26.3232 34.274C22.2669 33.349 19.2188 29.399 19.2188 24.6666Z" fill="#C1C1C1"/>
</g>
<defs>
<clipPath id="clip0">
<rect width="50" height="50" fill="white"/>
</clipPath>
</defs>
</svg>
