<svg width="50" height="50" viewBox="0 0 50 50" fill="none" xmlns="http://www.w3.org/2000/svg">
<path d="M48.904 25.5859C48.904 38.7997 38.192 49.5117 24.9783 49.5117C11.7641 49.5117 1.05247 38.7997 1.05247 25.5859C1.05247 12.3722 11.7641 1.66016 24.9783 1.66016C38.192 1.66016 48.904 12.3722 48.904 25.5859Z" fill="#46CEC3"/>
<path d="M24.0567 13.2072C24.3476 13.3165 24.6671 13.3771 25.0023 13.3771C25.3249 13.3771 25.6326 13.3206 25.9145 13.2187L31.2148 21.4416H32.6357L26.9088 12.5566C27.2443 12.182 27.4456 11.7065 27.4456 11.1884C27.4456 9.97983 26.3516 9 25.0023 9C23.6526 9 22.5586 9.97983 22.5586 11.1884C22.5586 11.6944 22.7506 12.1596 23.0723 12.5302L17.3282 21.4416H18.749L24.0567 13.2072Z" fill="#6843AF"/>
<path d="M27.4451 11.1884C27.4451 12.3973 26.3511 13.3771 25.0018 13.3771C23.6521 13.3771 22.5581 12.3973 22.5581 11.1884C22.5581 9.97983 23.6521 9 25.0018 9C26.3511 9 27.4451 9.97983 27.4451 11.1884Z" fill="#EF3A50"/>
<path d="M24.0818 11.1884C24.0818 10.218 24.7871 9.39578 25.7634 9.10906C25.5238 9.03875 25.2677 9 25.0018 9C23.6521 9 22.5581 9.97983 22.5581 11.1884C22.5581 12.3973 23.6521 13.3771 25.0018 13.3771C25.2677 13.3771 25.5238 13.3384 25.7634 13.268C24.7871 12.9813 24.0818 12.1588 24.0818 11.1884Z" fill="#CE2844"/>
<path d="M20.4655 18.7783H19.0447L17.3281 21.4417H18.7489L20.4655 18.7783Z" fill="#50309E"/>
<path d="M30.9186 18.7783H29.4978L31.2147 21.4417H32.6352L30.9186 18.7783Z" fill="#50309E"/>
<path d="M44.7695 35H5.23047C4.55083 35 4 34.5063 4 33.8979V21.7203C4 21.1118 4.55083 20.6182 5.23047 20.6182H44.7695C45.4492 20.6182 46 21.1118 46 21.7203V33.8979C46 34.5063 45.4492 35 44.7695 35Z" fill="#EF3A50"/>
<path d="M44.7695 35H5.23047C4.55083 35 4 34.5063 4 33.8979V21.7203C4 21.1118 4.55083 20.6182 5.23047 20.6182H44.7695C45.4492 20.6182 46 21.1118 46 21.7203V33.8979C46 34.5063 45.4492 35 44.7695 35Z" fill="#EF3A50"/>
<path d="M44.7695 33.9157H10.2994C9.6201 33.9157 9.06927 33.4227 9.06895 32.8139C9.06863 29.8136 9.06799 21.7206 9.06799 21.7206C9.06799 21.1119 9.61914 20.6185 10.2985 20.6185H5.23047C4.55083 20.6185 4 21.1119 4 21.7206V33.8979C4 34.5064 4.55083 35 5.23047 35H44.7695C45.4492 35 46 34.5064 46 33.8979V32.8136C46 33.4221 45.4492 33.9157 44.7695 33.9157Z" fill="#CE2844"/>
<path d="M17.6857 27.22C18.3983 27.2231 18.9809 27.4751 19.4333 27.9762C19.8928 28.4836 20.0479 29.0645 19.8983 29.7183C19.7916 30.1939 19.524 30.5848 19.0965 30.8913C18.6726 31.1944 18.1881 31.3459 17.6431 31.3459H17.6376C17.1316 31.3459 16.6757 31.207 16.2697 30.9295C15.8739 30.6583 15.6051 30.309 15.4625 29.8811C15.4125 29.7313 15.4375 29.5941 15.5375 29.4695C15.6371 29.3449 15.7727 29.2829 15.9435 29.2829C16.1966 29.2829 16.3568 29.3897 16.4244 29.6035C16.5029 29.8429 16.6526 30.0392 16.8734 30.1922C17.098 30.3486 17.3527 30.4269 17.6376 30.4269H17.6591C17.9478 30.4269 18.2061 30.3503 18.4339 30.1971C18.6656 30.0406 18.8187 29.8397 18.8937 29.5938C19.0004 29.2207 18.9274 28.8854 18.6745 28.5887C18.4288 28.2982 18.1045 28.1484 17.7017 28.1387C17.1246 28.1292 16.6346 27.9458 16.2322 27.5882C15.8259 27.2309 15.623 26.7955 15.623 26.2815V26.1474C15.623 25.6337 15.8243 25.1949 16.2267 24.8312C16.6257 24.4705 17.1086 24.2902 17.6751 24.2902H17.7071C18.1525 24.2902 18.5531 24.4085 18.9097 24.6444C19.2622 24.8774 19.5083 25.1791 19.6471 25.549C19.7006 25.696 19.6756 25.8332 19.5724 25.9609C19.4724 26.0851 19.3372 26.1474 19.1661 26.1474H19.161C18.9222 26.1474 18.7652 26.047 18.6906 25.8461C18.6194 25.6578 18.4944 25.5045 18.3163 25.3866C18.1346 25.2652 17.9318 25.2046 17.7071 25.2046H17.6751C17.3864 25.2046 17.1425 25.297 16.9429 25.4822C16.7397 25.6641 16.6382 25.886 16.6382 26.1477V26.2961C16.6382 26.5544 16.7417 26.7731 16.9484 26.9516C17.1512 27.1304 17.3973 27.22 17.6857 27.22Z" fill="white"/>
<path d="M24.9003 25.5508C24.968 25.7327 25.0019 25.9179 25.0019 26.1061V30.8974C25.0019 31.0219 24.9519 31.1287 24.8523 31.2183C24.7558 31.3044 24.6385 31.3474 24.4995 31.3474C24.3604 31.3474 24.2428 31.3044 24.1467 31.2183C24.0506 31.1287 24.0025 31.0219 24.0025 30.8974V28.0256H21.9235V30.8974C21.9235 31.0219 21.8754 31.1287 21.779 31.2183C21.6793 31.3044 21.5617 31.3474 21.4265 31.3474C21.2874 31.3474 21.1679 31.3044 21.0683 31.2183C20.9721 31.1287 20.9241 31.0219 20.9241 30.8974V26.1061C20.9241 25.9179 20.9561 25.7327 21.0202 25.5508C21.0311 25.5189 21.0327 25.5109 21.0257 25.5267C21.2464 24.9429 21.6848 24.56 22.3401 24.3781C22.3436 24.3781 22.349 24.3764 22.3561 24.3732C22.4096 24.3606 22.465 24.3477 22.5221 24.335H22.5381C22.5487 24.3319 22.5557 24.3301 22.5592 24.3301C22.6092 24.3207 22.6608 24.3126 22.7143 24.3063L22.7518 24.3014C22.823 24.2983 22.8871 24.2966 22.9441 24.2966H22.9816C23.0386 24.2966 23.1008 24.2983 23.1687 24.3014L23.2113 24.3063C23.2648 24.3126 23.3164 24.3204 23.3664 24.3301C23.3699 24.3301 23.3754 24.3319 23.3824 24.335H23.4039C23.4606 24.3477 23.5161 24.3606 23.5696 24.3732C23.5731 24.3764 23.5766 24.3781 23.5802 24.3781C24.2358 24.56 24.6741 24.9429 24.8949 25.5267C24.8984 25.5301 24.9003 25.5347 24.9003 25.5413V25.5508ZM24.0025 27.1305V26.1061C24.0025 25.9847 23.9759 25.8682 23.9224 25.7566L23.9169 25.7471C23.8778 25.6673 23.8279 25.5938 23.7673 25.5267C23.7708 25.5301 23.7673 25.5252 23.7567 25.5126C23.7247 25.4805 23.6891 25.4486 23.6497 25.4167C23.6356 25.4073 23.6247 25.3992 23.6176 25.3929C23.5962 25.3769 23.575 25.3625 23.5536 25.3499C23.5321 25.337 23.509 25.3243 23.484 25.3114C23.4626 25.3019 23.4376 25.2908 23.4094 25.2778C23.3844 25.2684 23.3594 25.2589 23.3344 25.2491C23.3059 25.2397 23.2898 25.2348 23.2863 25.2348C23.2472 25.2222 23.2062 25.2127 23.1633 25.2061C23.1562 25.2061 23.1421 25.2047 23.1207 25.2015C23.0707 25.1949 23.0261 25.1917 22.987 25.1917H22.939C22.8996 25.1917 22.8553 25.1949 22.8053 25.2015C22.7839 25.2047 22.7698 25.2061 22.7627 25.2061C22.7198 25.2127 22.6788 25.2222 22.6397 25.2348L22.5862 25.2491C22.5612 25.2589 22.5381 25.2684 22.5166 25.2778C22.4846 25.2908 22.4596 25.3019 22.442 25.3114C22.4135 25.3243 22.3904 25.337 22.3724 25.3499C22.351 25.3625 22.3298 25.3769 22.3083 25.3929C22.3048 25.3929 22.2939 25.4007 22.2763 25.4167C22.2369 25.4486 22.2013 25.4805 22.1693 25.5126C22.1658 25.5158 22.1642 25.5189 22.1642 25.5221C22.1603 25.5252 22.1568 25.5267 22.1533 25.5267C22.0927 25.5938 22.0446 25.6673 22.0091 25.7471C22.0091 25.7439 22.0071 25.7471 22.0036 25.7566C21.9501 25.8682 21.9235 25.9847 21.9235 26.1061V27.1305H24.0025Z" fill="white"/>
<path d="M29.5658 30.4507C29.7045 30.4507 29.8221 30.4938 29.9186 30.5802C30.0182 30.6694 30.0679 30.7748 30.0679 30.8959C30.0679 31.0205 30.0182 31.1272 29.9186 31.2168C29.8221 31.3029 29.7048 31.3459 29.5658 31.3459H26.6796C26.5409 31.3459 26.4213 31.3029 26.3217 31.2168C26.2256 31.1272 26.1775 31.0205 26.1775 30.8959V24.8263C26.1775 24.702 26.2256 24.5967 26.3217 24.5106C26.4213 24.4214 26.5409 24.3766 26.6796 24.3766C26.8152 24.3766 26.9328 24.4214 27.0324 24.5106C27.1285 24.5967 27.1769 24.702 27.1769 24.8263V30.4507H29.5658Z" fill="white"/>
<path d="M34.0602 30.4508C34.1992 30.4508 34.3168 30.4938 34.4129 30.5802C34.5126 30.6695 34.5626 30.7748 34.5626 30.8959C34.5626 31.0205 34.5126 31.1272 34.4129 31.2168C34.3168 31.3029 34.1992 31.3459 34.0602 31.3459H31.4255C31.2865 31.3459 31.1673 31.3029 31.0676 31.2168C30.9712 31.1272 30.9231 31.0205 30.9231 30.8959V24.9079C30.9231 24.7867 30.9712 24.6814 31.0676 24.5919C31.1673 24.5058 31.2865 24.4627 31.4255 24.4627H34.0602C34.1992 24.4627 34.3168 24.5058 34.4129 24.5919C34.5126 24.6814 34.5626 24.7867 34.5626 24.9079C34.5626 25.0324 34.5126 25.1377 34.4129 25.2238C34.3168 25.3131 34.1992 25.3579 34.0602 25.3579H31.9225V27.2151H33.7394C33.8785 27.2151 33.9977 27.2581 34.0976 27.3442C34.1938 27.4306 34.2418 27.5357 34.2418 27.6602C34.2418 27.7848 34.1938 27.8901 34.0976 27.9762C33.9977 28.0655 33.8785 28.1102 33.7394 28.1102H31.9225V30.4508H34.0602Z" fill="white"/>
</svg>
