<svg width="60" height="60" viewBox="0 0 60 60" fill="none" xmlns="http://www.w3.org/2000/svg">
<path d="M30.1992 58.3573C45.8605 58.3573 58.5565 45.6614 58.5565 30.0001C58.5565 14.3388 45.8605 1.64282 30.1992 1.64282C14.538 1.64282 1.84198 14.3388 1.84198 30.0001C1.84198 45.6614 14.538 58.3573 30.1992 58.3573Z" fill="#94B938"/>
<path d="M51.6455 48.553C51.6431 48.5543 51.6408 48.5555 51.6385 48.5568C55.7944 43.7598 58.369 37.5558 58.5463 30.7534C57.8219 30.3434 56.9853 30.1082 56.0933 30.1082H16.3578C12.8114 30.1082 9.98124 27.1479 10.1455 23.6055C10.1495 23.5198 10.154 23.4334 10.1588 23.3464C10.4039 18.9796 4.17659 17.8922 2.95925 22.0929C2.23186 24.6027 1.84198 27.2559 1.84198 30.0001C1.84198 45.6346 14.5182 58.3574 30.1992 58.3574C38.5995 58.3574 46.3363 54.6845 51.6455 48.553ZM33.2364 50.1558H43.225C44.0237 50.1558 44.1339 51.3175 43.3481 51.4609C41.6882 51.7637 39.9777 51.9221 38.2302 51.9221C36.4831 51.9221 34.7728 51.7637 33.1131 51.4609C32.3275 51.3176 32.4376 50.1558 33.2364 50.1558Z" fill="#54A770"/>
<path d="M14.4055 25.7436C14.4055 26.5413 15.0638 27.1817 15.8611 27.1599L17.7902 27.1072L28.4969 26.8143C32.0794 26.8093 34.2325 24.1271 35.0937 22.7681C35.3989 22.2866 35.9314 21.9979 36.5015 21.9979H39.9727C40.2565 21.9979 40.5333 22.1 40.7407 22.2937C40.8249 22.3722 40.9271 22.4376 41.0387 22.4455L52.8762 23.2718C54.6163 23.3933 56.2678 22.4597 57.0599 20.8865C56.314 18.6873 55.3054 16.6093 54.0717 14.6898C53.6789 14.6075 53.2678 14.5774 52.8461 14.6099L44.7142 15.2342C40.8927 15.5498 41.0118 15.4668 40.7942 15.594C40.6087 15.7024 40.5121 15.8861 40.5121 16.081V15.8489H38.0207H35.5293V16.0346C34.3902 13.2463 31.6886 11.2562 28.4968 11.1689C27.026 11.1287 15.9753 10.8263 14.4054 10.7834V25.7436H14.4055ZM26.9857 15.0556C26.9857 14.3936 27.5223 13.857 28.1843 13.857C28.8418 13.857 29.3829 14.3942 29.3829 15.0556C29.3806 23.4286 29.3946 22.9702 29.3619 23.1471C29.2651 23.6654 28.8324 24.0763 28.2789 24.1213C27.5673 24.1769 26.9857 23.6097 26.9857 22.9274V15.0556Z" fill="#54A770"/>
<path d="M4.70856 46.0531H59.4377C59.7962 45.3646 60 44.5827 60 43.7528V33.6834C60 30.9279 57.7663 28.6943 55.0109 28.6943H4.98911C4.82446 28.6943 4.6618 28.7028 4.50137 28.7184V46.0664C4.57005 46.0582 4.63919 46.0531 4.70856 46.0531Z" fill="#FF640A"/>
<path d="M9.75844 45.61C6.97195 45.61 4.72113 43.3372 4.74832 40.5508C4.76367 38.9748 4.77715 36.7945 4.74211 33.6834C4.74211 30.9283 6.97535 28.6948 9.73031 28.6943H4.98902C3.00855 28.6943 1.29773 29.8483 0.491953 31.5204C0.388359 31.7354 0.300117 31.9588 0.227812 32.1895C0.226758 32.193 0.225352 32.1962 0.224297 32.1998C0.0785156 32.6685 0 33.1668 0 33.6834V43.7528C0 46.5082 2.23371 48.7418 4.98902 48.7418H9.73078H9.73113H55.0112C57.1099 48.7417 58.9045 47.4452 59.6414 45.6099H9.75844V45.61Z" fill="#E04955"/>
<path d="M58.3248 42.9173C58.3248 45.2153 56.4618 47.0782 54.1638 47.0782H16.9494C14.6513 47.0782 12.7884 45.2153 12.7884 42.9173V34.5191C12.7884 32.2211 14.6513 30.3582 16.9494 30.3582H54.1638C56.4618 30.3582 58.3248 32.2211 58.3248 34.5191V42.9173Z" fill="#FCB54C"/>
<path d="M58.3248 34.5191C58.3248 32.2211 56.4618 30.3582 54.1638 30.3582H37.0123V47.0782H54.1638C56.4618 47.0782 58.3248 45.2153 58.3248 42.9173V34.5191Z" fill="#FFE046"/>
<path d="M36.8614 36.7577C37.5821 36.7577 38.1664 36.1734 38.1664 35.4527C38.1664 34.732 37.5821 34.1477 36.8614 34.1477C36.1407 34.1477 35.5564 34.732 35.5564 35.4527C35.5564 36.1734 36.1407 36.7577 36.8614 36.7577Z" fill="#FCB54C"/>
<path d="M42.1603 42.5822C43.2273 42.5822 44.0923 41.7172 44.0923 40.6502C44.0923 39.5832 43.2273 38.7183 42.1603 38.7183C41.0933 38.7183 40.2284 39.5832 40.2284 40.6502C40.2284 41.7172 41.0933 42.5822 42.1603 42.5822Z" fill="#FCB54C"/>
<path d="M47.5938 36.7577C48.3145 36.7577 48.8988 36.1734 48.8988 35.4527C48.8988 34.732 48.3145 34.1477 47.5938 34.1477C46.873 34.1477 46.2888 34.732 46.2888 35.4527C46.2888 36.1734 46.873 36.7577 47.5938 36.7577Z" fill="#FCB54C"/>
<path d="M52.163 44.7621C53.0972 44.7621 53.8545 44.0048 53.8545 43.0706C53.8545 42.1365 53.0972 41.3792 52.163 41.3792C51.2288 41.3792 50.4715 42.1365 50.4715 43.0706C50.4715 44.0048 51.2288 44.7621 52.163 44.7621Z" fill="#FCB54C"/>
<path d="M52.9595 38.5477C53.4538 38.5477 53.8545 38.147 53.8545 37.6528C53.8545 37.1585 53.4538 36.7578 52.9595 36.7578C52.4652 36.7578 52.0645 37.1585 52.0645 37.6528C52.0645 38.147 52.4652 38.5477 52.9595 38.5477Z" fill="#FCB54C"/>
<path d="M31.8595 44.3663C32.6844 44.3663 33.3531 43.6976 33.3531 42.8727C33.3531 42.0478 32.6844 41.3792 31.8595 41.3792C31.0347 41.3792 30.366 42.0478 30.366 42.8727C30.366 43.6976 31.0347 44.3663 31.8595 44.3663Z" fill="#FC9842"/>
<path d="M18.1971 38.5476C19.4121 38.5476 20.397 37.5627 20.397 36.3478C20.397 35.1328 19.4121 34.1479 18.1971 34.1479C16.9822 34.1479 15.9973 35.1328 15.9973 36.3478C15.9973 37.5627 16.9822 38.5476 18.1971 38.5476Z" fill="#FC9842"/>
<path d="M25.1808 37.345C25.7033 37.345 26.1269 36.9214 26.1269 36.3989C26.1269 35.8764 25.7033 35.4529 25.1808 35.4529C24.6583 35.4529 24.2347 35.8764 24.2347 36.3989C24.2347 36.9214 24.6583 37.345 25.1808 37.345Z" fill="#FC9842"/>
<path d="M21.3132 44.2053C21.7615 44.2053 22.1249 43.8419 22.1249 43.3937C22.1249 42.9454 21.7615 42.582 21.3132 42.582C20.865 42.582 20.5016 42.9454 20.5016 43.3937C20.5016 43.8419 20.865 44.2053 21.3132 44.2053Z" fill="#FC9842"/>
<path d="M32.6977 34.6662C33.1606 34.6662 33.5358 34.291 33.5358 33.8281C33.5358 33.3652 33.1606 32.99 32.6977 32.99C32.2348 32.99 31.8596 33.3652 31.8596 33.8281C31.8596 34.291 32.2348 34.6662 32.6977 34.6662Z" fill="#FC9842"/>
<path d="M32.6095 23.2307C34.0995 21.8044 35.0259 19.7972 35.0259 17.5777C35.0259 13.339 31.6513 9.87086 27.4143 9.75496L20.7357 9.57227V23.2307H32.6095ZM25.9031 13.6417C25.9031 12.9797 26.4397 12.4431 27.1017 12.4431C27.7637 12.4431 28.3003 12.9797 28.3003 13.6417V21.5136C28.3003 22.1755 27.7637 22.7121 27.1017 22.7121C26.4397 22.7121 25.9031 22.1755 25.9031 21.5136V13.6417Z" fill="#FFF5AA"/>
<path d="M29.7557 22.1516C29.4044 22.1613 29.1294 21.8723 29.1315 21.5208C29.1315 21.5184 29.1315 21.5159 29.1315 21.5136V13.6789C29.1315 13.1131 28.754 12.6021 28.2029 12.4743C27.9576 12.4173 27.7248 12.4417 27.5172 12.5186C27.974 12.6877 28.3003 13.1261 28.3003 13.6417V21.5136C28.3003 22.0356 27.9652 22.4709 27.5172 22.6367C27.5173 22.6368 27.5176 22.6368 27.5177 22.6368C27.025 22.8198 26.4788 22.6615 26.1574 22.2501C23.411 22.3252 21.1439 20.1193 21.1439 17.3718V9.5834L16.3436 9.45215V25.7032L27.4141 25.4004C29.9921 25.3299 32.2491 24.017 33.6227 22.0461L29.7557 22.1516Z" fill="#FFE046"/>
<path d="M36.7351 14.4348H39.4297V19.1523H36.7351V14.4348Z" fill="#FFE046"/>
<path d="M36.9382 16.4194V14.4348H34.4468V20.5839H39.4296V18.9108C38.0537 18.9108 36.9382 17.7953 36.9382 16.4194Z" fill="#FCB54C"/>
<path d="M55.036 20.7209C55.8958 19.9298 56.4388 18.795 56.4388 17.5256C56.4388 14.9962 54.2856 13.002 51.7637 13.1956L43.4014 13.8377V20.7208H55.036V20.7209Z" fill="#A55A3C"/>
<path d="M49.4313 20.0386C46.1649 19.8106 43.6317 17.0944 43.6317 13.8201L39.9523 14.1026C39.6573 14.1252 39.4296 14.3712 39.4296 14.6669V20.4667C39.4296 20.764 39.6596 21.0106 39.9561 21.0313L51.7936 21.8576C53.1772 21.9542 54.4453 21.3926 55.3059 20.4487L49.4313 20.0386Z" fill="#783C28"/>
<path d="M16.7076 9.46196L13.323 9.36938V25.7857L16.7076 25.6931V9.46196Z" fill="#FCB54C"/>
</svg>
