<svg width="60" height="60" viewBox="0 0 60 60" fill="none" xmlns="http://www.w3.org/2000/svg">
<path d="M60 30C60 46.5688 46.5688 60 30 60C13.4312 60 0 46.5688 0 30C0 13.4312 13.4312 0 30 0C46.5688 0 60 13.4312 60 30Z" fill="#D9D9DB"/>
<path d="M59.7908 33.5439L50.1562 23.9094C47.3506 21.1042 43.5182 19.9159 39.8405 20.3398L31.3197 11.8281C29.0227 9.29849 25.7117 7.7041 22.0468 7.7041C15.1534 7.7041 9.51324 13.3442 9.51324 20.2377V30.7662C9.51324 34.4315 11.1081 37.7416 13.6377 40.0387C13.6377 40.0387 25.4631 51.8769 33.3943 59.8077C47.2005 58.2527 58.168 47.329 59.7908 33.5439Z" fill="#AEADB3"/>
<path d="M24.9866 49.0795C20.1119 44.2052 20.1119 36.2287 24.9866 31.354L32.4312 23.9094C37.3055 19.0351 45.282 19.0351 50.1563 23.9094C55.031 28.7836 55.031 36.7602 50.1563 41.6349L42.7117 49.0795C37.8374 53.9538 29.8609 53.9538 24.9866 49.0795Z" fill="#E67500"/>
<path d="M50.1563 41.6345L42.7112 49.0796C37.8369 53.9539 29.8608 53.9539 24.9866 49.0796L50.1563 23.9099C52.5938 26.347 53.8115 29.5601 53.8124 32.7722C53.8124 35.9848 52.5929 39.1974 50.1563 41.6345Z" fill="#9A4C00"/>
<path d="M36.6962 44.083C38.5099 42.1723 39.7504 39.7988 40.2842 37.2189C40.9685 33.9124 43.2569 31.2116 46.4058 29.994L52.6896 27.5646C52.1 26.2655 51.2778 25.0492 50.2236 23.9785L44.8792 26.0453C40.3826 27.7839 37.1151 31.6401 36.1382 36.361C35.371 40.0694 32.6189 42.9693 28.9559 43.9288L22.5399 45.6101C23.1354 46.8672 23.9502 48.0436 24.9866 49.0795C25.0576 49.1505 25.1294 49.2205 25.2018 49.2892L30.0289 48.0244C32.5772 47.357 34.883 45.9937 36.6962 44.083Z" fill="#9A4C00"/>
<path d="M30.0293 48.0244L25.2017 49.2897C25.1294 49.2205 25.0575 49.1501 24.9866 49.0796L30.8354 43.2307C32.7965 42.2685 34.368 40.692 35.3247 38.7414L50.0002 24.0655L50.224 23.979C51.2782 25.0488 52.0999 26.266 52.6891 27.5647L46.4053 29.994C43.2573 31.2121 40.968 33.9129 40.2846 37.2194C39.7504 39.7984 38.5098 42.1724 36.6962 44.0835C34.8834 45.9942 32.5772 47.3565 30.0293 48.0244Z" fill="#703700"/>
<path d="M22.0468 43.2998C15.1534 43.2998 9.51324 37.6597 9.51324 30.7662V20.2377C9.51324 13.3442 15.1534 7.7041 22.0468 7.7041C28.9403 7.7041 34.5804 13.3442 34.5804 20.2377V30.7662C34.5804 37.6597 28.9403 43.2998 22.0468 43.2998Z" fill="#E67500"/>
<path d="M34.5799 20.2377V30.7662C34.5799 37.6597 28.9403 43.2993 22.0468 43.2993V7.7041C25.4942 7.7041 28.6272 9.11493 30.899 11.3854C33.1705 13.6573 34.5799 16.7912 34.5799 20.2377Z" fill="#9A4C00"/>
<path d="M26.7943 31.4868C26.7252 28.8533 25.9241 26.2976 24.4775 24.0963C22.6231 21.2741 22.3315 17.7466 23.6975 14.6585L26.4226 8.4975C25.0873 7.99579 23.6458 7.71701 22.1434 7.70557L19.8253 12.946C17.8752 17.3548 18.2918 22.3925 20.9395 26.4212C23.0186 29.5858 23.123 33.582 21.2119 36.8509L17.8638 42.5766C19.1734 43.044 20.5815 43.2999 22.0468 43.2999C22.1471 43.2999 22.2478 43.2985 22.3476 43.2958L24.8666 38.9882C26.1964 36.7141 26.8629 34.1199 26.7943 31.4868Z" fill="#9A4C00"/>
<path d="M24.8666 38.9878L22.3476 43.2962C22.2473 43.2985 22.1471 43.2994 22.0468 43.2994V35.0281C22.7531 32.9613 22.7499 30.7352 22.0468 28.6794V7.92484L22.1439 7.70557C23.6458 7.71655 25.0873 7.99625 26.4221 8.4975L23.6971 14.659C22.332 17.7462 22.6231 21.2751 24.478 24.0958C25.9241 26.2976 26.7252 28.8533 26.7943 31.4873C26.8634 34.1199 26.196 36.7136 24.8666 38.9878Z" fill="#703700"/>
</svg>
