<svg width="60" height="60" viewBox="0 0 60 60" fill="none" xmlns="http://www.w3.org/2000/svg">
<path d="M30.9644 0.964355C20.2614 0.964355 10.911 6.75537 5.87552 15.375L26.9876 53.9029L59.0908 37.2368C59.6843 34.9233 59.9999 32.4985 59.9999 29.9999C60 13.964 47.0003 0.964355 30.9644 0.964355Z" fill="#94B938"/>
<path d="M52.2466 49.7482C52.2468 49.7482 52.2472 49.7481 52.2474 49.7481C55.4818 46.264 57.8714 41.9854 59.0897 37.2366C59.5014 35.6323 59.1052 33.9124 57.9813 32.6957C57.9747 32.6885 57.968 32.6814 57.9614 32.6742C55.4563 29.9851 53.541 26.2562 52.9214 22.4576C52.7212 21.2301 52.0731 20.1532 51.1503 19.4C49.5302 18.0774 48.3142 16.3357 47.677 14.3437C46.9962 12.2158 46.0253 10.124 44.8144 8.82123C44.6695 8.66526 44.4854 8.56791 44.2915 8.52977C43.7142 8.41641 43.1375 8.30128 42.5794 8.11494C39.6215 7.12742 36.1718 7.79263 36.1718 7.79263C36.1742 7.80476 35.0226 13.7569 37.9902 16.7244C40.2677 19.002 44.3077 18.8551 46.0653 18.6633C43.3919 19.7855 43.0675 22.4486 43.073 22.4363C42.4466 26.1755 40.6078 29.9065 38.0295 32.6739C35.5417 35.3443 35.2954 39.5567 36.646 43.1458C37.7222 46.0061 34.8952 48.7667 32.0483 47.6551C32 47.6363 31.9517 47.6172 31.9034 47.5982C30.0221 46.8518 29.1616 44.676 30.0122 42.8395C32.7504 36.928 31.1001 29.6568 25.8324 27.8873C23.7263 27.1798 21.4667 27.534 19.4445 28.6909C19.3684 28.7345 19.2913 28.7756 19.2132 28.8141C18.6282 29.1027 17.9294 28.7431 17.8144 28.1009L17.8102 28.0774C17.7005 27.4646 18.1834 26.9073 18.8056 26.9288C20.8133 26.9981 23.799 26.739 25.6368 24.9011C27.8576 22.6804 27.7733 18.7836 27.5899 16.9613C27.5298 16.365 27.0603 15.8946 26.4639 15.8346C24.6546 15.6526 20.7983 15.5682 18.5698 17.7427C18.5648 17.7474 18.5598 17.7513 18.555 17.7561C18.5444 17.7666 18.5338 17.7769 18.5233 17.7875C18.0986 18.2122 17.7583 18.6982 17.4868 19.2192C16.837 20.466 15.1254 20.6325 14.2036 19.5708C14.1932 19.5589 14.183 19.5472 14.1729 19.5357C13.8155 19.1288 13.6329 18.5955 13.6798 18.0559C13.6847 17.9985 13.6899 17.941 13.6952 17.8836C14.1119 13.3918 8.14913 11.479 5.87534 15.375C3.20967 19.9425 1.76742 25.2823 1.94481 30.9258C2.1168 36.4172 3.83227 41.8079 7.05485 46.4755C12.3169 54.0971 21.0915 59.0355 30.9642 59.0355C39.1148 59.0355 46.7679 55.6504 52.2466 49.7482ZM14.6336 28.4116C14.0541 26.3326 13.7004 24.1598 13.6 21.9209C14.8579 24.0415 15.6125 26.5813 15.9966 29.0561C15.7104 28.9646 15.2072 28.6946 14.6336 28.4116Z" fill="#54A770"/>
<path d="M24.173 14.3887C24.173 14.3887 18.2098 13.2385 15.2412 16.207L15.2606 16.7708C15.372 20.0129 17.0027 23.0137 19.6625 24.8709C20.6552 24.562 21.6014 24.0738 22.3548 23.3205C25.3232 20.3519 24.173 14.3887 24.173 14.3887Z" fill="#A0C83D"/>
<path d="M12.4569 26.0705H14.4479C13.3505 20.4831 10.971 17.8575 10.8405 17.7172C10.4759 17.325 9.86456 17.3031 9.47081 17.6657C9.07705 18.0285 9.05197 18.6428 9.41289 19.0383C9.42207 19.0483 10.335 20.0614 11.2344 22.1538C11.6504 23.1219 12.1062 24.427 12.4569 26.0705Z" fill="#A55A3C"/>
<path d="M12.3226 25.478C12.743 27.2297 13.0534 29.4078 13.049 32.0153C13.0481 32.5525 13.4828 32.9886 14.0199 32.9896H14.0216C14.5579 32.9896 14.9932 32.5552 14.994 32.0186C14.9979 29.6356 14.7594 27.5723 14.3952 25.8116C13.6943 25.8727 12.9826 25.7618 12.3226 25.478Z" fill="#783C28"/>
<path d="M22.55 26.3069C20.4439 25.5995 18.1844 25.9537 16.1623 27.1105C14.8332 27.8708 13.2098 27.8708 11.8808 27.1105C9.8587 25.9536 7.59904 25.5995 5.4931 26.3069L5.55938 33.2087C5.62071 39.5874 10.4692 44.8995 16.8158 45.5414L22.8624 46.153C24.7834 44.7041 26.3934 42.4999 27.3006 39.7993C29.2839 33.8951 27.157 27.8544 22.55 26.3069Z" fill="#FF640A"/>
<path d="M22.7714 44.257C22.7667 44.2554 22.7619 44.2539 22.7572 44.2522C21.8908 43.9591 20.9593 43.9591 20.0929 44.2522C20.0882 44.2539 20.0834 44.2554 20.0787 44.257C15.4718 45.8047 10.1292 42.273 8.14597 36.3689C7.23262 33.6502 7.19212 30.9034 7.86346 28.5793C8.05474 27.9173 7.86298 27.2037 7.36552 26.7267C6.86805 26.2497 6.14693 26.0873 5.4936 26.3066C5.49337 26.3067 5.49325 26.3067 5.49302 26.3068C0.886097 27.8543 -1.24079 33.895 0.742484 39.7992C2.72576 45.7033 8.06816 49.2349 12.6752 47.6873C12.6799 47.6856 12.6847 47.6841 12.6894 47.6825C13.5558 47.3893 14.4873 47.3893 15.3537 47.6825C15.3584 47.6841 15.3632 47.6856 15.3679 47.6873C17.9456 48.5532 20.7533 47.8287 23.0741 45.9885C23.3613 45.7609 23.5008 45.3943 23.4378 45.0331C23.3748 44.672 23.1195 44.3741 22.772 44.2574C22.7719 44.2572 22.7717 44.2572 22.7714 44.257Z" fill="#E04955"/>
<path d="M19.126 22.6814C20.2691 21.8748 21.4314 20.4895 22.2949 18.1343C22.4407 17.7369 21.9591 17.4086 21.6448 17.6921L17.8824 21.0871C17.4826 21.4477 16.8482 21.1569 16.856 20.6186C16.8703 19.631 16.9809 18.5027 17.2991 17.4201C17.6558 16.2063 16.175 15.2885 15.273 16.1755C15.2624 16.1859 15.2518 16.1963 15.2413 16.2069C12.2728 19.1755 13.423 25.1387 13.423 25.1387C13.423 25.1387 16.7435 25.7788 19.6624 24.8701C20.2937 24.6735 20.1629 23.7461 19.5018 23.7365C19.4838 23.7362 19.4658 23.7359 19.4478 23.7357C18.885 23.7255 18.6662 23.0058 19.126 22.6814Z" fill="#94B938"/>
<path d="M41.8212 8.03052C38.8527 5.06197 32.8894 6.21217 32.8894 6.21217C32.8894 6.21217 32.2424 9.56647 33.1712 12.4961L43.6396 16.9623C43.6396 16.9624 44.7898 10.9992 41.8212 8.03052Z" fill="#A0C83D"/>
<path d="M43.7739 12.705C43.7735 12.705 43.7741 12.705 43.7738 12.705C43.7733 12.7108 43.7727 12.7167 43.7721 12.7226C43.6974 13.4583 42.6728 13.5883 42.3935 12.9035C41.8826 11.6502 40.4908 9.50062 36.8626 8.96313L40.2125 12.5883C40.6794 13.0934 40.2784 13.9123 39.5937 13.8474C37.8934 13.6864 36.0118 13.1771 34.7079 11.8732C34.6557 11.821 34.605 11.7681 34.5553 11.7141C33.9579 11.0648 32.907 11.6659 33.1748 12.5066C33.4845 13.4793 33.9684 14.4045 34.7079 15.144C37.6764 18.1126 43.6397 16.9624 43.6397 16.9624C43.6397 16.9624 44.0251 14.9639 43.7739 12.705Z" fill="#94B938"/>
<path d="M43.0378 15.0826H45.0333C43.896 9.84674 41.6585 7.37683 41.5321 7.24087C41.1663 6.84734 40.5509 6.82498 40.1576 7.19072C39.7642 7.55646 39.7417 8.17188 40.1075 8.56517C40.1335 8.5933 41.989 10.6431 43.0378 15.0826Z" fill="#A55A3C"/>
<path d="M43.8588 14.7217C43.5552 14.7217 43.258 14.7491 42.9692 14.801C43.4229 16.6194 43.7447 18.8559 43.7402 21.5388C43.7393 22.076 44.174 22.5121 44.7112 22.513H44.7128C45.2491 22.513 45.6844 22.0787 45.6854 21.5421C45.6897 18.9361 45.4042 16.7121 44.9812 14.8486C44.6205 14.7656 44.2449 14.7217 43.8588 14.7217Z" fill="#783C28"/>
<path d="M54.6792 31.0936C52.1741 28.4045 50.2587 24.6756 49.6392 20.877C49.2524 18.5054 47.1941 16.6953 44.7133 16.6953C44.0092 16.6953 43.3392 16.8412 42.7319 17.1044C41.5011 17.6376 40.7136 18.8615 40.7136 20.2028V44.5208C40.7136 44.5208 47.8105 48.3475 48.7819 48.202C51.9082 47.7334 54.9159 45.0249 56.228 41.119C57.5176 37.2792 56.8027 33.3729 54.6792 31.0936Z" fill="#FFE046"/>
<path d="M48.8931 45.68C46.697 45.68 44.7476 44.7618 43.1617 43.306C41.5702 41.845 40.8816 39.6709 40.7878 37.5747C40.6973 35.5556 41.756 33.2492 43.1617 31.8433C43.2048 31.8002 43.2486 31.7576 43.2929 31.7155C44.8407 30.244 45.2196 27.9486 44.3365 26.0042C43.8891 25.019 43.6239 23.8726 43.564 22.5364C43.5095 21.3204 43.872 20.0005 44.476 18.8359C45.0196 17.7877 43.9522 16.6133 42.8567 17.0539C41.2985 17.6805 40.0882 19.0778 39.7903 20.8561C39.6831 21.4962 39.5656 22.1353 39.3843 22.7586C38.4849 25.8505 36.9408 28.7387 34.7468 31.0937C32.6235 33.373 31.9085 37.2793 33.1983 41.119C34.918 46.2385 39.5506 49.3009 43.5454 47.959L43.5577 47.9548C44.3071 47.7023 45.1185 47.7023 45.8679 47.9548L45.8803 47.959C46.9483 48.3177 48.107 48.3559 49.2592 48.0983C50.7009 47.776 50.4577 45.6629 48.9805 45.6796C48.9516 45.6797 48.9224 45.68 48.8931 45.68Z" fill="#FCB54C"/>
</svg>
