<svg width="60" height="60" viewBox="0 0 60 60" fill="none" xmlns="http://www.w3.org/2000/svg">
<g clip-path="url(#clip0)">
<path d="M59.9996 29.9703C60.0152 46.4584 46.8572 59.7977 30.3704 59.9973C26.8635 60.0398 23.4943 59.4786 20.3573 58.4139C19.7434 58.2056 19.211 57.8137 18.8265 57.2923C15.5357 52.8301 11.0391 49.3126 5.81642 47.2206C5.46074 47.0778 5.15953 46.8269 4.94805 46.507C1.81191 41.7568 -0.0113642 36.0635 -0.00037788 29.9432C0.0302923 13.2774 13.7838 -0.241225 30.4478 0.00276326C46.8 0.242174 59.9841 13.5649 59.9996 29.9703Z" fill="#B34068"/>
<path d="M51.4353 26.9531C51.1427 27.1994 50.8383 27.436 50.5206 27.6608C46.5573 30.4646 43.7888 34.6522 42.7615 39.3969L41.9193 43.2875C40.892 48.0326 38.1235 52.2198 34.1602 55.0236C29.9808 57.9803 25.0342 59.0496 20.333 58.4074C13.8899 56.2161 8.43294 51.8934 4.79921 46.2803C1.30235 38.2214 2.79237 28.8176 8.5547 22.2358C9.71651 20.9088 11.0509 19.6953 12.5542 18.6319L23.6124 10.8091L27.4393 8.10239L32.7013 4.37985C39.3059 -0.292084 48.4474 1.27484 53.1194 7.87945L53.7566 8.77988C57.8522 14.5692 56.7627 22.4666 51.4353 26.9531Z" fill="#FAB2A8"/>
<path d="M51.4352 26.9532C51.1427 27.1995 50.8383 27.4362 50.5206 27.6609C46.5573 30.4648 43.7887 34.6524 42.7615 39.3971L41.9192 43.2876C40.892 48.0328 38.1234 52.22 34.1601 55.0238C29.9803 57.9805 25.0337 59.0498 20.332 58.4076C15.0668 56.6159 10.4599 53.401 6.96849 49.2221C3.88545 41.8164 4.97081 33.329 9.67754 26.9532C11.0847 25.0467 12.8146 23.3282 14.8553 21.8849L25.9135 14.0622L29.7404 11.3554L35.0024 7.63287C41.2023 3.24749 49.6376 4.3594 54.5127 9.97525C57.686 15.6167 56.4042 22.7684 51.4352 26.9532Z" fill="#FCCFC9"/>
<path d="M32.13 52.1541C24.977 57.2137 15.0417 55.5108 9.98202 48.3583C3.84662 39.685 5.91159 27.6376 14.5844 21.5022L34.7315 7.25018C39.7431 3.70526 46.7043 4.89819 50.2497 9.90979L50.8864 10.8102C54.0807 15.3251 53.0054 21.597 48.4905 24.7908C43.797 28.1109 40.5419 33.0342 39.3256 38.6537L38.4833 42.5438C37.6401 46.4393 35.3838 49.852 32.13 52.1541Z" fill="#F9A29B"/>
<path d="M39.645 37.3646C39.5269 37.7899 39.4193 38.2193 39.325 38.6537L38.4832 42.5438C37.64 46.4389 35.3832 49.852 32.1295 52.1536C25.799 56.6319 17.2897 55.812 11.9091 50.6059C12.6306 41.5719 26.1552 24.192 33.5311 25.9691C37.2344 26.8617 39.2504 32.5503 39.645 37.3646ZM39.5361 12.8885C43.151 13.5064 48.4528 12.8985 50.5627 10.3524L50.2496 9.90979C46.7042 4.89819 39.743 3.70526 34.7314 7.25018L31.9088 9.24695C33.679 11.2002 37.1021 12.4719 39.5361 12.8885ZM52.1891 13.3636C50.0175 12.3552 45.9947 14.6023 44.3247 15.5362C43.0467 16.2507 36.6256 19.841 37.32 24.0318C37.6418 25.9732 39.3328 27.0938 39.6212 27.2847C41.1584 28.3032 43.0425 28.403 44.8406 28.0011C45.9315 26.8145 47.1519 25.7374 48.4904 24.7908C52.201 22.166 53.5858 17.4624 52.1891 13.3636ZM18.7573 30.5861C20.1077 29.5927 21.7478 28.6932 21.708 27.3506C21.6407 25.081 16.8017 22.4553 12.6516 23.0641C5.90875 29.2714 4.44253 39.5344 9.35617 47.4148C11.1849 44.7026 11.6326 35.827 18.7573 30.5861ZM33.0825 22.2689C33.4409 22.0433 36.8774 19.8158 36.7176 16.7547C36.5629 13.782 33.093 11.4904 29.7871 10.748L17.183 19.6638C19.1592 23.1007 27.869 25.5497 33.0825 22.2689Z" fill="#F56D59"/>
<path d="M41.6885 20.1284C39.0463 21.9974 35.9958 22.2272 34.8742 20.642C33.7532 19.0572 34.9859 16.2571 37.6277 14.388C40.2695 12.5194 43.32 12.2892 44.4415 13.8744C45.563 15.4597 44.3303 18.2598 41.6885 20.1284Z" fill="#F8DF92"/>
<path d="M41.6886 20.1284C39.9701 21.3442 38.0796 21.8656 36.6587 21.6459C36.6033 20.8494 36.8848 19.9361 37.4437 19.0385C38.129 18.7785 38.8257 18.4109 39.4963 17.9366C40.5171 17.2147 41.3269 16.3537 41.8721 15.4775C42.9419 15.0715 43.9829 14.9287 44.849 15.0623C44.9584 16.6366 43.7544 18.6672 41.6886 20.1284Z" fill="#FBF1D1"/>
</g>
<defs>
<clipPath id="clip0">
<rect width="60" height="60" fill="white"/>
</clipPath>
</defs>
</svg>
