<svg width="60" height="60" viewBox="0 0 60 60" fill="none" xmlns="http://www.w3.org/2000/svg">
<path d="M59.9999 30C59.9999 35.814 58.346 41.2417 55.4832 45.8382C50.1873 54.341 40.7544 57.6834 29.9999 57.6834C13.4314 57.6834 1.49243 46.4853 1.49243 29.9168C1.49243 23.9722 1.72892 18.5147 4.71145 13.8532C10.0418 5.52246 19.3759 0 29.9999 0C46.5685 0 59.9999 13.4314 59.9999 30Z" fill="#62C389"/>
<path d="M55.4304 23.3842C54.9158 23.0919 54.3476 22.7963 53.7339 22.5163C52.339 21.88 51.8659 20.1261 52.7385 18.8656C52.75 18.8489 52.7614 18.8324 52.7727 18.8159C53.3111 18.0326 52.8777 16.9515 51.9458 16.7638C51.8541 16.7453 51.7595 16.727 51.6622 16.709C50.1401 16.427 49.2288 14.8368 49.7872 13.393C50.0616 12.6838 50.2809 11.9979 50.4559 11.3624C50.9561 9.5447 49.2809 7.86482 47.4632 8.36462C46.8928 8.52142 46.2818 8.71384 45.6497 8.94962C44.2087 9.48693 42.6285 8.5888 42.3532 7.07579C42.3496 7.05587 42.3459 7.03618 42.3423 7.0165C42.1691 6.08193 41.0984 5.62419 40.3068 6.15036C40.2284 6.20251 40.148 6.25677 40.0658 6.31325C38.7806 7.19685 37.0194 6.69142 36.3858 5.26618C36.0806 4.57993 35.7541 3.94782 35.4319 3.38134C34.4977 1.73849 32.1225 1.75197 31.1896 3.39552C30.8981 3.9088 30.6033 4.47564 30.3241 5.08759C29.6878 6.48259 27.9336 6.95556 26.6728 6.08298C26.6562 6.0715 26.6396 6.06001 26.6231 6.04876C25.8398 5.5104 24.7593 5.944 24.5715 6.87575C24.5531 6.96681 24.535 7.06079 24.517 7.15736C24.2346 8.68044 22.6441 9.59263 21.1993 9.034C20.4905 8.7599 19.8052 8.54064 19.17 8.36591C17.3524 7.86575 15.6724 9.54107 16.1722 11.3588C16.329 11.9291 16.5214 12.5401 16.7572 13.1724C17.2945 14.6132 16.3964 16.1934 14.8835 16.4687C14.8636 16.4724 14.8438 16.476 14.8242 16.4796C13.8896 16.6528 13.4319 17.7237 13.958 18.5153C14.4983 19.3283 15.2723 20.3524 16.2766 21.3437C16.1817 21.3662 16.0861 21.3899 15.9899 21.4146C13.6198 22.0267 11.447 19.8775 12.1037 17.5193C12.1287 17.4295 12.1541 17.3399 12.18 17.2504C13.5048 12.6599 7.2873 9.82923 4.71199 13.8536C1.7291 18.5146 0 24.0552 0 29.9999C0 36.1792 1.86902 41.9215 5.07141 46.6941C8.09215 51.0494 10.0093 52.2615 11.0645 53.2681C16.2288 57.4758 22.8192 59.9999 30 59.9999C34.3287 59.9999 38.4422 59.0816 42.1587 57.431C42.159 57.4311 42.1595 57.4311 42.1598 57.4313C43.5697 56.8061 45.0587 56.0032 46.4504 55.0889C46.4498 55.089 46.4491 55.0892 46.4484 55.0893C50.088 52.6983 53.1765 49.5375 55.4812 45.8371C54.9892 42.0881 54.1761 38.2232 52.8329 35.3742C52.5851 34.8485 52.5933 34.2512 52.8035 33.7093C52.9509 33.3293 52.9254 32.8815 52.6704 32.498C52.665 32.4899 52.6596 32.4817 52.6541 32.4735C51.7201 31.0733 52.2561 29.1767 53.7855 28.4739C54.3855 28.1983 54.9415 27.9079 55.4455 27.621C57.086 26.6876 57.0715 24.3163 55.4304 23.3842ZM16.0133 29.6061C15.3043 30.3087 14.7143 31.0212 14.245 31.6542C14.0331 31.9399 13.729 32.1399 13.3843 32.228C13.3774 32.2297 13.3705 32.2315 13.3636 32.2334C12.5136 32.4525 11.6598 31.8911 11.5015 31.0277C11.293 29.8904 11.1486 28.7308 11.0722 27.5524C12.0145 28.1576 14.096 29.1195 16.0133 29.6061ZM24.3086 48.5777C25.0736 47.5554 25.6845 46.3357 26.0373 45.0067C26.0849 44.9893 26.132 44.97 26.1785 44.9468C26.6292 47.9119 27.9953 50.7647 30.2787 53.0481C30.6354 53.4048 31.0499 53.7376 31.5127 54.0485C29.0829 53.2385 26.7919 52.1261 24.6834 50.7559C23.9474 50.2774 23.7825 49.2805 24.3086 48.5777Z" fill="#199A8E"/>
<path d="M21.6937 51.1953C18.662 54.227 9.8492 54.8613 5.55111 54.9876C4.21611 55.0269 3.12498 53.9357 3.16424 52.6008C3.29056 48.3027 3.92478 39.4898 6.95654 36.4582C11.0261 32.3886 17.6242 32.3886 21.6938 36.4582C25.7634 40.5278 25.7633 47.1258 21.6937 51.1953Z" fill="#A0C83D"/>
<path d="M10.9883 48.2941C10.699 48.2941 10.4098 48.1837 10.1889 47.9631C9.74743 47.5216 9.74743 46.8057 10.1889 46.3643L24.3522 32.2009C24.7937 31.7595 25.5094 31.7595 25.9509 32.2009C26.3924 32.6423 26.3924 33.3582 25.9509 33.7997L11.7877 47.9631C11.5669 48.1837 11.2777 48.2941 10.9883 48.2941Z" fill="#489160"/>
<path d="M49.2391 33.9468C53.4778 38.1855 54.3645 50.5069 54.5411 56.5163C54.596 58.3827 53.0704 59.9084 51.204 59.8535C45.1946 59.6769 32.8732 58.7901 28.6345 54.5514C22.9447 48.8616 22.9447 39.6366 28.6345 33.9468C34.3243 28.257 43.5493 28.257 49.2391 33.9468Z" fill="#489160"/>
<path d="M43.6021 50.4846C43.2003 50.4846 42.7985 50.3313 42.4919 50.0248L22.6897 30.2226C22.0764 29.6093 22.0764 28.6153 22.6897 28.0021C23.3028 27.389 24.2971 27.389 24.9101 28.0021L44.7124 47.8043C45.3256 48.4175 45.3256 49.4115 44.7124 50.0248C44.4058 50.3312 44.004 50.4846 43.6021 50.4846Z" fill="#A0C83D"/>
<path d="M18.757 33.465C23.2486 28.9735 28.3355 26.7782 30.1189 28.5617C31.9024 30.3451 29.7071 35.432 25.2156 39.9236C22.8607 42.2785 19.8519 43.5119 17.5222 44.1525C15.7023 44.6529 14.0277 42.9783 14.5281 41.1584C15.1687 38.8287 16.4021 35.8199 18.757 33.465Z" fill="#FFE046"/>
<path d="M38.1253 14.097C33.6337 18.5885 31.4385 23.6754 33.2219 25.4589C35.0054 27.2424 40.0923 25.0471 44.5838 20.5555C46.9387 18.2006 48.1721 15.1919 48.8128 12.8622C49.3132 11.0422 47.6386 9.36764 45.8186 9.86803C43.489 10.5087 40.4802 11.7421 38.1253 14.097Z" fill="#FFE046"/>
<path d="M36.2372 40.7057C36.2372 34.3537 34.1925 29.2043 31.6702 29.2043C29.148 29.2043 27.1033 34.3537 27.1033 40.7057C27.1033 44.0361 28.3586 47.0357 29.553 49.1361C30.4861 50.7768 32.8543 50.7768 33.7873 49.1361C34.9817 47.0357 36.2372 44.0361 36.2372 40.7057Z" fill="#FFE046"/>
<path d="M30.2973 39.9866C32.3531 35.1285 32.456 30.5287 30.527 29.7124C28.5979 28.896 25.3677 32.1725 23.3118 37.0304C21.9901 40.1537 22.273 43.5077 22.6435 45.5048C22.8172 46.4411 23.8864 46.8936 24.6794 46.3664C26.3709 45.2419 28.9755 43.1098 30.2973 39.9866Z" fill="#FCB54C"/>
<path d="M36.2374 13.315C36.2374 19.667 34.1927 24.8163 31.6705 24.8163C29.1483 24.8163 27.1036 19.667 27.1036 13.315C27.1036 9.98461 28.3589 6.98496 29.5533 4.88461C30.4863 3.24387 32.8545 3.24387 33.7876 4.88461C34.982 6.98496 36.2374 9.98461 36.2374 13.315Z" fill="#FFE046"/>
<path d="M40.0289 16.9902C37.9731 21.8483 34.7429 25.1246 32.8138 24.3083C30.8848 23.4919 30.9877 18.8921 33.0435 14.0341C34.3653 10.9108 36.9698 8.77868 38.6614 7.65427C39.4544 7.12704 40.5236 7.5795 40.6973 8.51583C41.0678 10.5129 41.3507 13.867 40.0289 16.9902Z" fill="#FCB54C"/>
<path d="M44.5838 33.465C40.0923 28.9735 35.0054 26.7782 33.2219 28.5617C31.4385 30.3451 33.6337 35.432 38.1253 39.9236C40.4802 42.2785 43.489 43.5119 45.8186 44.1525C47.6386 44.6529 49.3132 42.9783 48.8128 41.1584C48.1721 38.8287 46.9387 35.8199 44.5838 33.465Z" fill="#FFE046"/>
<path d="M39.875 37.1566C37.8936 32.2678 34.7137 28.9425 32.7725 29.7293C30.8313 30.5161 30.8639 35.117 32.8453 40.0058C34.1192 43.1489 36.6909 45.3206 38.365 46.4707C39.15 47.0099 40.2259 46.5738 40.4139 45.6403C40.8148 43.649 41.1489 40.2997 39.875 37.1566Z" fill="#FCB54C"/>
<path d="M25.2156 14.097C29.7071 18.5885 31.9024 23.6754 30.1189 25.4589C28.3355 27.2424 23.2486 25.0471 18.757 20.5555C16.4021 18.2006 15.1687 15.1919 14.5281 12.8622C14.0277 11.0422 15.7023 9.36764 17.5222 9.86803C19.8519 10.5087 22.8607 11.7421 25.2156 14.097Z" fill="#FFE046"/>
<path d="M30.4956 14.0147C32.477 18.9035 32.5095 23.5044 30.5683 24.2912C28.6271 25.078 25.4472 21.7527 23.4658 16.8639C22.1919 13.7208 22.526 10.3714 22.927 8.38019C23.115 7.44667 24.191 7.01062 24.9759 7.5498C26.6499 8.69999 29.2217 10.8716 30.4956 14.0147Z" fill="#FCB54C"/>
<path d="M45.3658 22.4434C39.0137 22.4434 33.8644 24.488 33.8644 27.0103C33.8644 29.5325 39.0137 31.5772 45.3658 31.5772C48.6961 31.5772 51.6958 30.3219 53.7961 29.1275C55.4369 28.1945 55.4369 25.8262 53.7961 24.8932C51.6958 23.6988 48.6961 22.4434 45.3658 22.4434Z" fill="#FFE046"/>
<path d="M44.6467 28.3832C39.7886 26.3274 35.1888 26.2245 34.3725 28.1536C33.5561 30.0826 36.8326 33.3129 41.6905 35.3687C44.8138 36.6904 48.1678 36.4075 50.1649 36.037C51.1012 35.8633 51.5537 34.7941 51.0265 34.0011C49.902 32.3095 47.7699 29.705 44.6467 28.3832Z" fill="#FCB54C"/>
<path d="M17.9751 22.4434C24.3271 22.4434 29.4764 24.488 29.4764 27.0103C29.4764 29.5325 24.3271 31.5772 17.9751 31.5772C14.6447 31.5772 11.6451 30.3219 9.5447 29.1275C7.90396 28.1945 7.90396 25.8262 9.5447 24.8932C11.6451 23.6988 14.6447 22.4434 17.9751 22.4434Z" fill="#FFE046"/>
<path d="M21.6505 18.6519C26.5085 20.7077 29.7848 23.938 28.9685 25.867C28.1521 27.796 23.5523 27.6931 18.6943 25.6373C15.571 24.3155 13.4389 21.711 12.3145 20.0194C11.7873 19.2264 12.2397 18.1572 13.176 17.9835C15.1732 17.613 18.5272 17.3301 21.6505 18.6519Z" fill="#FCB54C"/>
<path d="M41.8168 18.8057C36.928 20.7871 33.6027 23.967 34.3895 25.9082C35.1763 27.8494 39.7772 27.8168 44.666 25.8354C47.8091 24.5615 49.9808 21.9898 51.1309 20.3157C51.6701 19.5307 51.234 18.4548 50.3005 18.2668C48.3092 17.8659 44.9599 17.5318 41.8168 18.8057Z" fill="#FCB54C"/>
<path d="M18.6747 28.1851C23.5635 26.2037 28.1644 26.1711 28.9512 28.1124C29.738 30.0536 26.4127 33.2334 21.5239 35.2148C18.3808 36.4888 15.0315 36.1547 13.0402 35.7537C12.1067 35.5657 11.6707 34.4897 12.2098 33.7048C13.36 32.0307 15.5316 29.459 18.6747 28.1851Z" fill="#FCB54C"/>
<path d="M41.8699 27.0103C41.8699 30.1942 40.4111 33.0374 38.1253 34.9077C36.367 36.3464 34.1527 36.3462 31.7036 36.3462C26.0706 36.3462 22.3347 32.6763 22.3347 27.0434C22.3347 23.7258 23.0551 20.745 25.5081 18.8824C27.22 17.5825 29.3551 16.811 31.6705 16.811C37.3035 16.8109 41.8699 21.3774 41.8699 27.0103Z" fill="#A55A3C"/>
<path d="M37.5843 33.6665C31.8553 33.6536 27.3093 29.0131 27.4097 23.2849C27.4266 22.3124 27.5798 21.3731 27.8509 20.4853C28.2737 19.1002 26.6619 18.0069 25.5083 18.8827C22.9892 20.7952 21.3864 23.8517 21.4745 27.2785C21.6125 32.6554 25.9764 37.0412 31.3525 37.2047C33.9248 37.2829 36.2911 36.4083 38.125 34.9074C38.6376 34.488 38.3389 33.6618 37.6766 33.6662C37.646 33.6665 37.6152 33.6666 37.5843 33.6665Z" fill="#783C28"/>
</svg>
