<svg width="60" height="60" viewBox="0 0 60 60" fill="none" xmlns="http://www.w3.org/2000/svg">
<path d="M30 60C45.9295 60 58.8429 47.0866 58.8429 31.1571C58.8429 15.2276 45.9295 2.31421 30 2.31421C14.0705 2.31421 1.1571 15.2276 1.1571 31.1571C1.1571 47.0866 14.0705 60 30 60Z" fill="#93DCFC"/>
<path d="M47.8956 49.1836C47.8685 49.19 47.8414 49.1964 47.8143 49.2027C47.0912 49.3711 46.3984 48.8277 46.3984 48.0853C46.4245 48.2515 46.4444 48.3455 46.4444 48.3455C46.4444 48.3455 50.2639 48.4739 52.1287 46.2477C52.9426 45.2761 53.2498 44.0166 53.3374 42.9055C53.4566 41.3942 52.0458 40.2246 50.5794 40.609C49.5043 40.8908 48.3241 41.4136 47.5134 42.3813C47.5071 42.3889 47.5008 42.3964 47.4944 42.4041C47.1239 42.8529 46.3983 42.6012 46.3983 42.0192V40.0207C46.4244 40.1869 46.4443 40.281 46.4443 40.281C46.4443 40.281 50.2638 40.4094 52.1286 38.1832C52.9425 37.2116 53.2496 35.9521 53.3373 34.841C53.4565 33.3298 52.0457 32.1601 50.5793 32.5445C49.5042 32.8263 48.324 33.3491 47.5133 34.3169C47.507 34.3246 47.5007 34.3321 47.4943 34.3397C47.1238 34.7884 46.3982 34.5368 46.3982 33.9548V31.9562C46.4243 32.1224 46.4442 32.2164 46.4442 32.2164C46.4442 32.2164 50.2637 32.3448 52.1285 30.1186C52.9424 29.147 53.2495 27.8875 53.3372 26.7764C53.4564 25.2651 52.0455 24.0955 50.5792 24.4799C49.5041 24.7617 48.3239 25.2845 47.5132 26.2522C47.5069 26.2598 47.5005 26.2673 47.4942 26.275C47.1237 26.7238 46.398 26.4721 46.398 25.8901V23.8915C46.4242 24.0576 46.4441 24.1517 46.4441 24.1517C46.4441 24.1517 50.2636 24.2802 52.1284 22.054C52.9423 21.0824 53.2494 19.8228 53.3371 18.7118C53.4562 17.2005 52.0454 16.031 50.5791 16.4153C49.504 16.6971 48.3238 17.2199 47.5131 18.1876C47.5068 18.1952 47.5004 18.2027 47.4941 18.2103C47.1235 18.6592 46.3979 18.4074 46.3979 17.8255V17.3982C47.2887 16.5003 48.6837 14.7787 48.6837 12.8014C48.6837 11.5339 48.1103 10.3712 47.464 9.46323C46.5881 8.23276 44.7586 8.23276 43.8827 9.46323C43.2364 10.3712 42.6629 11.5339 42.6629 12.8014C42.6629 14.7787 44.058 16.5003 44.9488 17.3982V17.8498C44.9488 18.3893 44.2765 18.6226 43.9325 18.2069C43.9271 18.2005 43.9219 18.1941 43.9165 18.1876C43.0303 17.1298 41.7033 16.6041 40.5541 16.3433C40.247 16.2736 40.0173 16.0188 39.9823 15.7058L39.9803 15.6885C39.9362 15.2972 39.5935 15.0105 39.2006 15.0356C38.0176 15.1112 35.5728 15.4707 34.1951 17.1155C34.1613 17.1558 34.1284 17.1966 34.0964 17.2378C33.7655 17.6641 33.08 17.4206 33.08 16.881V14.7545C33.1062 14.9208 33.1262 15.0149 33.1262 15.0149C33.1262 15.0149 36.9457 15.1433 38.8105 12.9171C39.6244 11.9455 39.9315 10.686 40.0191 9.57491C40.1382 8.06366 38.7275 6.89401 37.261 7.27839C36.186 7.56022 35.0058 8.083 34.1951 9.05073C33.5606 9.80812 33.2346 10.7403 33.0799 11.6408V8.26171C34.5446 6.78515 35.6853 4.85472 35.2772 2.79772C33.4295 2.45601 31.5465 2.28948 29.5523 2.31995C28.8786 4.55167 29.9955 6.61323 31.6307 8.26171V11.2315C31.4527 10.4628 31.1369 9.69386 30.5984 9.05097C29.7876 8.08311 28.6075 7.56034 27.5324 7.27862C26.066 6.89425 24.6552 8.0639 24.7744 9.57515C24.862 10.6862 25.1691 11.9457 25.983 12.9173C27.7434 15.0187 31.2437 15.0221 31.6308 15.0159V16.7778C31.6308 17.3174 30.9585 17.5506 30.6145 17.135C30.6091 17.1286 30.6039 17.1221 30.5985 17.1157C28.7335 14.8895 24.9142 15.0179 24.9142 15.0179C24.9142 15.0179 24.8044 15.5346 24.7619 16.2975C23.1157 16.6325 21.9648 17.2657 21.2012 18.1732C20.8181 18.6285 20.0713 18.3418 20.0713 17.7469V17.6589C20.0713 17.4934 20.1353 17.3352 20.2491 17.215C21.1358 16.2778 22.3571 14.6517 22.3571 12.8016C22.3571 11.2561 21.5045 9.86624 20.7068 8.90413C20.0014 8.05347 18.692 8.05347 17.9866 8.90413C17.1889 9.86624 16.3363 11.256 16.3363 12.8016C16.3363 14.6517 17.5576 16.2778 18.4444 17.215C18.5582 17.3352 18.6221 17.4934 18.6221 17.6589C18.6221 18.2579 17.8848 18.5244 17.4878 18.0757C16.9113 17.4244 16.114 16.898 15.0316 16.5483C13.7827 16.1448 13.0594 14.8515 13.4011 13.5842C13.4252 13.4946 13.4498 13.4052 13.4748 13.316C14.1518 10.8994 11.1472 9.18679 9.39117 10.9798C4.29796 16.1807 1.15722 23.3014 1.1571 31.1566C1.15687 47.0662 14.1539 60.0342 30.0634 59.9999C35.513 59.9882 40.6066 58.4641 44.9491 55.8264V55.8284C46.6041 54.8241 48.1557 53.6516 49.5775 52.3357C50.9733 51.0441 49.7466 48.7468 47.8956 49.1836ZM33.0804 22.8192C33.1065 22.9855 33.1266 23.0796 33.1266 23.0796C33.1266 23.0796 36.7957 23.2015 38.6972 21.1091C38.8582 21.4421 39.0564 21.7612 39.3015 22.054C41.0619 24.1555 44.5624 24.1588 44.9492 24.1526V26.2536C44.9492 26.7008 44.3762 26.8832 44.1165 26.5191C43.2278 25.2728 41.8107 24.6081 40.0284 24.3036C39.9838 23.5733 39.8798 23.0823 39.8798 23.0823C39.8798 23.0823 36.0603 22.9539 34.1955 25.1801C34.1892 25.1877 34.1829 25.1952 34.1766 25.2028C33.806 25.6516 33.0804 25.3999 33.0804 24.818V22.8192ZM33.0804 30.8837C33.1065 31.05 33.1266 31.1441 33.1266 31.1441C33.1266 31.1441 36.7957 31.266 38.6972 29.1737C38.8582 29.5067 39.0564 29.8258 39.3015 30.1186C41.0619 32.2201 44.5624 32.2234 44.9492 32.2172V34.4728C44.9492 34.8823 44.4216 35.0357 44.1939 34.6955C43.3111 33.3769 41.8635 32.6817 40.0285 32.3682C39.9839 31.6379 39.88 31.1469 39.88 31.1469C39.88 31.1469 36.0605 31.0185 34.1957 33.2447C33.5612 34.0021 33.2352 34.9343 33.0805 35.8349V30.8837H33.0804ZM20.0718 23.8916C20.0979 24.0578 20.1178 24.1519 20.1178 24.1519C20.1178 24.1519 23.9373 24.2803 25.8021 22.0541C25.9956 21.8231 26.1591 21.5751 26.2991 21.3174C28.1311 23.0823 31.266 23.0863 31.6311 23.0804V24.8423C31.6311 25.3819 30.9588 25.6151 30.6149 25.1995C30.6095 25.1931 30.6042 25.1866 30.5988 25.1802C28.7339 22.954 24.9145 23.0824 24.9145 23.0824C24.9145 23.0824 24.8047 23.5991 24.7623 24.362C23.0284 24.7148 21.8442 25.3984 21.0831 26.3849C20.7553 26.8098 20.0718 26.5653 20.0718 26.0287V23.8916ZM20.0718 31.9561C20.0979 32.1223 20.1178 32.2162 20.1178 32.2162C20.1385 32.2074 24.6619 32.3939 26.2992 29.3818C28.1312 31.1467 31.2661 31.1507 31.6312 31.1448V32.9067C31.6312 33.4462 30.9589 33.6794 30.615 33.2639C30.6096 33.2575 30.6043 33.251 30.5989 33.2446C28.734 31.0184 24.9146 31.1468 24.9146 31.1468C24.9146 31.1468 24.8048 31.6635 24.7624 32.4264C22.9694 32.7912 21.7642 33.5096 21.0068 34.5512C20.7123 34.9561 20.0718 34.7457 20.0718 34.2451V31.9561ZM14.2016 31.1432C16.0114 32.2199 18.3132 32.2221 18.6227 32.2171V33.979C18.6227 34.5185 17.9504 34.7518 17.6065 34.3362C17.6011 34.3297 17.5958 34.3233 17.5904 34.3168C16.848 33.4307 15.7962 32.9183 14.7985 32.6217C14.5866 32.1356 14.387 31.6428 14.2016 31.1432ZM18.6226 24.1526V25.9145C18.6226 26.454 17.9503 26.6873 17.6064 26.2717C17.601 26.2652 17.5957 26.2588 17.5903 26.2523C16.2061 24.5999 13.7461 24.245 12.5694 24.1718C12.4659 23.1907 12.4113 22.1952 12.4087 21.1873C12.5627 21.4921 12.7489 21.7843 12.9749 22.0541C14.7354 24.1555 18.2358 24.1588 18.6226 24.1526ZM26.7274 44.4687C26.9702 43.6581 27.0411 42.8232 27.0391 42.1144C27.036 41.0515 26.0689 40.2572 25.0222 40.4422C24.3247 40.5655 23.518 40.7826 22.7658 41.1641C21.871 41.6177 20.7827 41.4551 20.1006 40.7196C20.091 40.7093 20.0814 40.6989 20.0718 40.6885V40.0207C20.0979 40.1869 20.1178 40.281 20.1178 40.281C20.1388 40.2721 24.662 40.4586 26.2992 37.4466C28.1312 39.2114 31.2661 39.2154 31.6312 39.2095V45.6723C31.6312 46.9694 30.2844 47.826 29.108 47.2794C28.598 47.0424 28.096 46.7911 27.6027 46.5258C26.8649 46.1287 26.4869 45.2713 26.7274 44.4687ZM36.7659 49.6065C34.6426 49.2741 33.0804 47.439 33.0804 45.2898V38.9483C33.1065 39.1146 33.1266 39.2087 33.1266 39.2087C33.1266 39.2087 36.7957 39.3306 38.6972 37.2382C38.8582 37.5712 39.0564 37.8903 39.3015 38.1831C41.0619 40.2846 44.5624 40.2879 44.9492 40.2817V42.0436C44.9492 42.5831 44.2769 42.8164 43.933 42.4008C43.9276 42.3943 43.9223 42.3879 43.9169 42.3814C42.052 40.1552 38.2327 40.2837 38.2327 40.2837C38.2327 40.2837 37.4367 44.0215 39.3016 46.2477C41.062 48.3492 44.5625 48.3525 44.9494 48.3463C44.9494 49.1358 44.345 49.7981 43.558 49.861C41.2747 50.0436 38.9968 49.9558 36.7659 49.6065Z" fill="#81B8FD"/>
<path d="M32.9689 5.25832C32.9689 8.16246 29.9585 10.5166 29.9585 10.5166C29.9585 10.5166 26.9481 8.16246 26.9481 5.25832C26.9481 2.35418 29.9586 0 29.9586 0C29.9586 0 32.9689 2.35418 32.9689 5.25832Z" fill="#FFD23C"/>
<path d="M31.7982 10.6446C29.9333 12.8708 30.7292 16.6086 30.7292 16.6086C30.7292 16.6086 34.5487 16.737 36.4135 14.5108C38.2783 12.2846 37.4825 8.54678 37.4825 8.54678C37.4825 8.54678 33.6631 8.41835 31.7982 10.6446Z" fill="#FFD23C"/>
<path d="M19.9604 14.395C19.9604 17.2992 16.9499 19.6534 16.9499 19.6534C16.9499 19.6534 13.9395 17.2992 13.9395 14.395C13.9395 11.4909 16.9499 9.13672 16.9499 9.13672C16.9499 9.13672 19.9604 11.4909 19.9604 14.395Z" fill="#FFD23C"/>
<path d="M15.1932 19.7813C17.0581 22.0075 16.2622 25.7453 16.2622 25.7453C16.2622 25.7453 12.4427 25.8737 10.5779 23.6475C8.71308 21.4213 9.5089 17.6835 9.5089 17.6835C9.5089 17.6835 13.3283 17.5551 15.1932 19.7813Z" fill="#FCB54C"/>
<path d="M15.1932 27.846C17.0581 30.0722 16.2622 33.81 16.2622 33.81C16.2622 33.81 12.4427 33.9384 10.5779 31.7122C8.71308 29.486 9.5089 25.7482 9.5089 25.7482C9.5089 25.7482 13.3283 25.6198 15.1932 27.846Z" fill="#FCB54C"/>
<path d="M15.1931 35.9104C17.058 38.1366 16.2621 41.8744 16.2621 41.8744C16.2621 41.8744 12.4426 42.0029 10.5778 39.7767C8.71288 37.5505 9.50882 33.8127 9.50882 33.8127C9.50882 33.8127 13.3282 33.6842 15.1931 35.9104Z" fill="#FCB54C"/>
<path d="M15.1931 43.9749C17.058 46.2011 16.2621 49.9389 16.2621 49.9389C16.2621 49.9389 12.4426 50.0673 10.5778 47.8411C8.71288 45.6149 9.50882 41.8771 9.50882 41.8771C9.50882 41.8771 13.3282 41.7487 15.1931 43.9749Z" fill="#FCB54C"/>
<path d="M18.7896 19.7813C16.9247 22.0075 17.7206 25.7453 17.7206 25.7453C17.7206 25.7453 21.5401 25.8737 23.4049 23.6475C25.2697 21.4213 24.4739 17.6835 24.4739 17.6835C24.4739 17.6835 20.6545 17.5551 18.7896 19.7813Z" fill="#FFD23C"/>
<path d="M18.7896 27.846C16.9247 30.0722 17.7206 33.81 17.7206 33.81C17.7206 33.81 21.5401 33.9384 23.4049 31.7122C25.2697 29.486 24.4739 25.7482 24.4739 25.7482C24.4739 25.7482 20.6545 25.6198 18.7896 27.846Z" fill="#FFD23C"/>
<path d="M18.7896 35.9104C16.9247 38.1366 17.7206 41.8744 17.7206 41.8744C17.7206 41.8744 21.5401 42.0029 23.4049 39.7767C25.2698 37.5505 24.4739 33.8127 24.4739 33.8127C24.4739 33.8127 20.6545 33.6842 18.7896 35.9104Z" fill="#FFD23C"/>
<path d="M18.7896 43.9749C16.9247 46.2011 17.7206 49.9389 17.7206 49.9389C17.7206 49.9389 21.5401 50.0673 23.4049 47.8411C25.2698 45.6149 24.4739 41.8771 24.4739 41.8771C24.4739 41.8771 20.6545 41.7487 18.7896 43.9749Z" fill="#FFD23C"/>
<path d="M16.2254 56.504C16.7004 56.7626 17.184 57.0071 17.6745 57.2393V18.2175H16.2254V56.504Z" fill="#FFE046"/>
<path d="M31.7982 18.709C29.9333 20.9352 30.7292 24.673 30.7292 24.673C30.7292 24.673 34.5487 24.8015 36.4135 22.5753C38.2783 20.3491 37.4825 16.6112 37.4825 16.6112C37.4825 16.6112 33.6631 16.4828 31.7982 18.709Z" fill="#FFD23C"/>
<path d="M31.7982 26.7737C29.9333 28.9999 30.7292 32.7377 30.7292 32.7377C30.7292 32.7377 34.5487 32.8662 36.4135 30.64C38.2784 28.4137 37.4825 24.6759 37.4825 24.6759C37.4825 24.6759 33.6631 24.5475 31.7982 26.7737Z" fill="#FFD23C"/>
<path d="M31.7982 34.8382C29.9333 37.0644 30.7292 40.8022 30.7292 40.8022C30.7292 40.8022 34.5487 40.9306 36.4135 38.7044C38.2784 36.4782 37.4825 32.7404 37.4825 32.7404C37.4825 32.7404 33.6631 32.612 31.7982 34.8382Z" fill="#FFD23C"/>
<path d="M29.2339 59.9899C29.4885 59.9965 29.7438 60.0001 29.9999 60.0001C30.2283 60.0001 30.456 59.9967 30.6831 59.9914V9.08081H29.2339V59.9899Z" fill="#FFE046"/>
<path d="M28.2018 10.6446C30.0667 12.8708 29.2708 16.6086 29.2708 16.6086C29.2708 16.6086 25.4513 16.737 23.5865 14.5108C21.7217 12.2846 22.5175 8.54678 22.5175 8.54678C22.5175 8.54678 26.3369 8.41835 28.2018 10.6446Z" fill="#FCB54C"/>
<path d="M28.2018 18.709C30.0667 20.9352 29.2708 24.673 29.2708 24.673C29.2708 24.673 25.4513 24.8015 23.5865 22.5753C21.7217 20.3491 22.5175 16.6112 22.5175 16.6112C22.5175 16.6112 26.3369 16.4828 28.2018 18.709Z" fill="#FCB54C"/>
<path d="M28.2017 26.7737C30.0666 28.9999 29.2706 32.7377 29.2706 32.7377C29.2706 32.7377 25.4512 32.8662 23.5863 30.64C21.7214 28.4137 22.5174 24.6759 22.5174 24.6759C22.5174 24.6759 26.3367 24.5475 28.2017 26.7737Z" fill="#FCB54C"/>
<path d="M28.2017 34.8382C30.0666 37.0644 29.2706 40.8022 29.2706 40.8022C29.2706 40.8022 25.4512 40.9306 23.5863 38.7044C21.7214 36.4782 22.5174 32.7404 22.5174 32.7404C22.5174 32.7404 26.3367 32.612 28.2017 34.8382Z" fill="#FCB54C"/>
<path d="M46.287 14.395C46.287 17.2992 43.2765 19.6534 43.2765 19.6534C43.2765 19.6534 40.2661 17.2992 40.2661 14.395C40.2661 11.4909 43.2765 9.13672 43.2765 9.13672C43.2765 9.13672 46.287 11.4909 46.287 14.395Z" fill="#FFD23C"/>
<path d="M41.5197 19.7813C43.3846 22.0075 42.5887 25.7453 42.5887 25.7453C42.5887 25.7453 38.7692 25.8737 36.9044 23.6475C35.0396 21.4213 35.8354 17.6835 35.8354 17.6835C35.8354 17.6835 39.6547 17.5551 41.5197 19.7813Z" fill="#FCB54C"/>
<path d="M41.5197 27.846C43.3846 30.0722 42.5887 33.81 42.5887 33.81C42.5887 33.81 38.7692 33.9384 36.9044 31.7122C35.0396 29.486 35.8354 25.7482 35.8354 25.7482C35.8354 25.7482 39.6547 25.6198 41.5197 27.846Z" fill="#FCB54C"/>
<path d="M41.5196 35.9104C43.3845 38.1366 42.5886 41.8744 42.5886 41.8744C42.5886 41.8744 38.7691 42.0029 36.9043 39.7767C35.0394 37.5505 35.8353 33.8127 35.8353 33.8127C35.8353 33.8127 39.6547 33.6842 41.5196 35.9104Z" fill="#FCB54C"/>
<path d="M41.5196 43.9749C43.3845 46.2011 42.5886 49.9389 42.5886 49.9389C42.5886 49.9389 38.7691 50.0673 36.9043 47.8411C35.0394 45.6149 35.8353 41.8771 35.8353 41.8771C35.8353 41.8771 39.6547 41.7487 41.5196 43.9749Z" fill="#FCB54C"/>
<path d="M45.1162 19.7813C43.2513 22.0075 44.0472 25.7453 44.0472 25.7453C44.0472 25.7453 47.8667 25.8737 49.7315 23.6475C51.5963 21.4213 50.8005 17.6835 50.8005 17.6835C50.8005 17.6835 46.981 17.5551 45.1162 19.7813Z" fill="#FFD23C"/>
<path d="M45.1162 27.846C43.2513 30.0722 44.0472 33.81 44.0472 33.81C44.0472 33.81 47.8667 33.9384 49.7315 31.7122C51.5963 29.486 50.8005 25.7482 50.8005 25.7482C50.8005 25.7482 46.981 25.6198 45.1162 27.846Z" fill="#FFD23C"/>
<path d="M45.1162 35.9104C43.2513 38.1366 44.0472 41.8744 44.0472 41.8744C44.0472 41.8744 47.8667 42.0029 49.7315 39.7767C51.5964 37.5505 50.8005 33.8127 50.8005 33.8127C50.8005 33.8127 46.981 33.6842 45.1162 35.9104Z" fill="#FFD23C"/>
<path d="M45.1162 43.9749C43.2513 46.2011 44.0472 49.9389 44.0472 49.9389C44.0472 49.9389 47.8667 50.0673 49.7315 47.8411C51.5964 45.6149 50.8005 41.8771 50.8005 41.8771C50.8005 41.8771 46.981 41.7487 45.1162 43.9749Z" fill="#FFD23C"/>
<path d="M42.5521 57.1321C43.0433 56.8943 43.526 56.6417 44.0012 56.3773V18.2175H42.5521V57.1321Z" fill="#FFE046"/>
</svg>
