<svg width="60" height="60" viewBox="0 0 60 60" fill="none" xmlns="http://www.w3.org/2000/svg">
<g clip-path="url(#clip0)">
<path d="M60 30C60 33.5669 59.3776 36.9884 58.2353 40.1618C54.0716 51.7291 43.5551 57.1617 30.5535 57.1617C13.9849 57.1617 2.68707 46.5718 2.68707 30.0032C2.68707 25.528 0.980035 21.2786 2.73687 17.464C7.48453 7.15568 17.9066 0 30 0C46.5685 0 60 13.4314 60 30Z" fill="#FFE046"/>
<path d="M54.1121 47.8482H54.1138C54.5321 47.284 54.9557 46.6489 55.0295 46.5405V46.5388C55.1733 46.3217 55.3147 46.1029 55.4529 45.8819V45.8822C55.5326 45.7547 55.6126 45.6273 55.6905 45.4985C56.7676 43.7168 57.7062 41.7245 58.4024 39.6817V39.6804C58.4021 39.0812 57.9162 38.5955 57.317 38.5955H56.8326C55.8367 38.5955 55.0294 37.7882 55.0294 36.7923C55.0294 35.7963 55.8367 34.989 56.8326 34.989H57.0848C57.8124 34.989 58.4023 34.3992 58.4023 33.6716V29.4035C58.4023 28.6759 57.8124 28.086 57.0848 28.086H56.3467C55.6191 28.086 55.0293 27.4962 55.0293 26.7686C55.0293 26.041 54.4394 25.4511 53.7118 25.4511H52.2035C52.1182 25.4511 52.0369 25.4143 51.9808 25.35L51.9763 25.3448C51.87 25.223 51.8808 25.0395 52.0001 24.9304C52.2633 24.6892 52.6278 24.4159 52.8809 24.2414C54.4872 23.1335 55.5407 21.2814 55.5407 19.1824C55.5407 15.7897 52.7903 13.0394 49.3977 13.0394C41.4293 13.0825 41.2494 12.9737 40.3442 13.1006C40.2279 13.1346 38.7358 13.2469 37.2811 14.456C36.5171 13.8521 35.6844 13.3136 34.786 12.8542C34.5908 12.7543 34.3598 12.752 34.1597 12.8418L34.1493 12.8465C33.8469 12.9823 33.4888 12.9005 33.2813 12.6419C32.2105 11.307 30.8028 10.2195 29.1277 9.5277C28.7243 9.36111 28.2637 9.40832 27.9013 9.65156L27.8845 9.66286C27.4661 9.94354 26.9213 9.9632 26.4901 9.70242C24.9925 8.79668 23.2556 8.41911 21.6777 8.96811C19.8686 9.59752 18.6518 11.3119 18.1251 13.2673C17.2271 13.2048 16.5201 13.2821 16.5201 13.2821C15.0813 15.2348 14.4237 17.5214 14.4852 19.7717C14.0791 19.8534 13.7672 19.931 13.4479 20.0216C12.6544 21.643 12.1273 23.518 11.9813 25.4513H11.6681C11.2854 23.5381 11.0834 21.5597 11.0834 19.534C11.0834 19.4757 11.0838 19.417 11.0847 19.3579C11.1564 14.6407 4.71084 13.1792 2.73761 17.4644C1.03493 21.1619 0.0651486 25.2575 0.00310235 29.5596C-0.236017 46.1432 13.3792 59.9807 29.9645 59.9999C39.8106 60.0112 48.6117 55.2675 54.1121 47.8482ZM48.0821 45.4986V47.4695C48.0821 47.6786 48.2516 47.8482 48.4607 47.8482C48.9045 47.8482 48.987 48.4833 48.5572 48.5935C42.7393 50.0856 36.4665 49.8241 30.6518 47.6685C29.4824 47.235 29.7979 45.4986 31.0451 45.4986H48.0821Z" fill="#FCB54C"/>
<path d="M49.7049 23.9243C51.5233 22.8576 52.745 20.8835 52.745 18.623C52.745 15.2303 49.9946 12.48 46.602 12.48H38.4089C38.0184 12.48 37.6368 12.518 37.2665 12.5877V23.9243H49.7049Z" fill="#A55A3C"/>
<path d="M40.7251 18.5858C41.2714 18.5858 41.7142 18.2908 41.7142 17.9269C41.7142 17.563 41.2714 17.2681 40.7251 17.2681C40.1789 17.2681 39.736 17.563 39.736 17.9269C39.736 18.2908 40.1789 18.5858 40.7251 18.5858Z" fill="#783C28"/>
<path d="M43.6043 23.2815C42.7486 23.2815 41.9339 23.1065 41.1938 22.7901C40.4568 22.4752 40.3321 21.5096 40.9141 20.9585C41.0662 20.8145 41.1598 20.6386 41.1598 20.4304C41.1598 19.8638 40.3622 19.4045 39.3785 19.4045C39.2466 19.4045 39.1181 19.4128 38.9946 19.4286C38.336 19.5124 37.7297 19.0569 37.593 18.4072C37.5911 18.3984 37.5894 18.3897 37.5875 18.3808C37.475 17.8343 37.722 17.2706 38.2095 16.9991C38.3345 16.9294 38.4182 16.8337 38.4182 16.711C38.4182 16.6073 38.3602 16.5242 38.2701 16.4598C37.8267 16.1426 37.6407 15.5702 37.8253 15.0573C38.0562 14.416 38.3905 13.8243 38.8085 13.3021C39.0738 12.9708 38.8333 12.4797 38.4089 12.4797C35.0162 12.4797 32.2659 15.2301 32.2659 18.6228C32.2659 22.0155 35.0163 24.7658 38.4089 24.7658H46.6019C47.3034 24.7658 47.9771 24.648 48.6047 24.4312C49.2324 24.2145 49.0687 23.2814 48.4047 23.2814H43.6043V23.2815Z" fill="#783C28"/>
<path d="M47.8977 16.5505C48.4239 16.5505 48.8504 16.3012 48.8504 15.9937C48.8504 15.6861 48.4239 15.4368 47.8977 15.4368C47.3715 15.4368 46.945 15.6861 46.945 15.9937C46.945 16.3012 47.3715 16.5505 47.8977 16.5505Z" fill="#783C28"/>
<path d="M43.5092 14.3949C43.884 14.3949 44.1878 14.2101 44.1878 13.9822C44.1878 13.7543 43.884 13.5696 43.5092 13.5696C43.1344 13.5696 42.8306 13.7543 42.8306 13.9822C42.8306 14.2101 43.1344 14.3949 43.5092 14.3949Z" fill="#783C28"/>
<path d="M46.7927 21.0928C47.2763 21.0928 47.6683 20.7962 47.6683 20.4303C47.6683 20.0644 47.2763 19.7678 46.7927 19.7678C46.3091 19.7678 45.9171 20.0644 45.9171 20.4303C45.9171 20.7962 46.3091 21.0928 46.7927 21.0928Z" fill="#783C28"/>
<path d="M27.1657 13.3042C28.2936 16.5461 26.5799 20.0885 23.338 21.2162C20.0962 22.3441 16.5538 20.6304 15.426 17.3886C14.2981 14.1467 15.6402 9.53625 18.882 8.40835C22.1238 7.28045 26.0379 10.0624 27.1657 13.3042Z" fill="#A0C83D"/>
<path d="M20.942 21.0348C21.7836 20.2454 21.7836 20.2454 21.3944 18.9605C21.0053 17.6755 21.4318 17.5996 22.5376 16.3475C23.3055 15.478 23.3041 15.7659 22.5433 13.3118C21.7825 10.8577 25.693 8.72778 25.693 8.72778C31.1684 10.5863 34.1004 16.5316 32.2418 22.007C30.8961 25.9715 27.4079 28.6025 23.5068 29.0472C23.507 29.0473 19.2897 22.5847 20.942 21.0348Z" fill="#94B938"/>
<path d="M24.6582 20.1044C23.5164 19.9378 23.5164 19.9378 23.1012 18.661C22.6859 17.3843 22.2925 17.5658 20.6695 17.1705C19.5424 16.8961 19.7082 17.1314 18.9295 14.683C18.1508 12.2345 13.7246 12.7225 13.7246 12.7225C10.2945 17.3775 11.2875 23.9317 15.9425 27.3616C19.3129 29.8451 23.6791 30.01 27.134 28.1447C27.134 28.1448 26.8997 20.4315 24.6582 20.1044Z" fill="#489160"/>
<path d="M22.71 28.9025C24.0536 27.9227 24.0536 27.9227 23.725 26.0161C23.3964 24.1095 24.0197 24.0763 25.8231 22.4817C27.0755 21.3744 27.0224 21.7859 26.3695 18.1412C25.7167 14.4965 31.687 12.1438 31.687 12.1438C39.1882 15.7727 42.3273 24.7954 38.6984 32.2966C36.0709 37.7278 30.6157 40.8723 24.9577 40.8166C24.9577 40.8165 20.0723 30.8261 22.71 28.9025Z" fill="#489160"/>
<path d="M28.0931 27.0296C26.4315 27.0953 26.4315 27.0953 25.5057 25.3965C24.58 23.6976 24.0707 24.0586 21.6669 23.9277C19.9976 23.8369 20.2947 24.1265 18.5443 20.8636C16.794 17.6007 10.6526 19.4619 10.6526 19.4619C7.02362 26.963 11.9074 34.4072 19.4086 38.0362C24.8398 40.6637 29.3241 41.3215 33.7257 37.766C33.7256 37.766 31.3552 26.9006 28.0931 27.0296Z" fill="#A0C83D"/>
<path d="M24.4021 36.12C19.2413 33.6234 16.1456 28.5737 15.8979 23.2229C15.7751 20.571 13.2282 18.7131 10.6792 19.4542C10.6615 19.4594 10.6524 19.4621 10.6524 19.4621C7.02349 26.9632 10.1627 35.9859 17.6638 39.6149C23.095 42.2424 29.324 41.3218 33.7255 37.7662C33.7255 37.7662 33.6956 37.6292 33.6383 37.3876C30.6087 37.9337 27.3853 37.5632 24.4021 36.12Z" fill="#489160"/>
<path d="M34.8769 29.0447C34.7302 30.0796 34.9184 31.1344 35.386 32.0694L37.4864 36.2697C39.9522 38.5067 43.6483 39.1059 46.7917 37.472C50.7049 35.4379 52.313 30.6044 50.3988 26.6312C49.1211 23.9793 46.6134 22.3328 43.8998 22.0322L37.7166 25.1243C36.2032 25.8812 35.1324 27.3199 34.8844 28.9939C34.8818 29.0108 34.8794 29.0278 34.8769 29.0447Z" fill="#FF640A"/>
<path d="M39.2766 35.2849C38.4249 33.5817 38.2213 31.724 38.572 29.9919C38.6902 29.408 39.2432 29.017 39.8347 29.0878C39.8459 29.0891 39.857 29.0905 39.8682 29.0918C40.577 29.1752 41.0371 29.8808 40.8301 30.5637C40.4209 31.9142 39.9885 33.83 40.7234 34.109C41.2475 34.308 41.88 33.4906 42.4138 32.5403C43.0849 31.3458 44.598 30.9344 45.7814 31.6248C46.7229 32.1741 47.6822 32.5587 48.0334 32.1219C48.3676 31.7062 47.8565 30.9124 47.1697 30.1461C46.2032 29.0679 46.2837 27.4175 47.3504 26.4383C48.1086 25.7423 48.6944 25.0021 48.4022 24.5558C47.9447 23.8568 45.9652 24.8428 44.738 25.5502C44.2326 25.8415 43.5863 25.5974 43.4016 25.0442C43.3985 25.0351 43.3954 25.026 43.3924 25.0168C43.231 24.5354 43.4862 24.0119 43.9666 23.8472C43.9819 23.8419 43.9972 23.8367 44.0125 23.8315C44.9638 23.5116 44.7938 22.1189 43.7949 22.0212C42.2834 21.8732 40.7125 22.1427 39.2578 22.8884C35.274 24.9305 33.6605 29.8557 35.6619 33.8603C36.1969 34.9306 36.9342 35.8329 37.8041 36.544C38.6286 37.2178 39.7765 36.2725 39.2954 35.3226C39.2892 35.3099 39.2828 35.2975 39.2766 35.2849Z" fill="#E04955"/>
<path d="M42.3153 32.4913L42.4133 32.687C43.46 31.8696 44.6023 28.8205 44.6023 28.8205C44.6023 28.8205 48.3125 31.8299 49.0844 30.8697C49.8563 29.9093 46.1195 26.9331 46.1195 26.9331C46.1195 26.9331 49.1576 24.9634 49.4983 23.7735L47.1675 24.9391C46.5324 25.2567 45.9856 24.778 45.8921 24.239C45.2556 24.6013 44.7931 24.907 44.7931 24.907C44.7931 24.907 44.2002 22.6875 43.4401 21.4346C43.1039 21.6027 42.8966 21.9506 42.9088 22.3262C42.9334 23.0816 42.9515 23.9944 42.9632 24.7141C42.9745 25.4074 42.476 26.0034 41.7917 26.1146C40.909 26.2583 39.7275 26.4875 38.9454 26.7845C38.6976 26.8787 38.5846 27.1652 38.7031 27.4023C40.0944 27.8616 42.3382 27.9611 42.3382 27.9611C42.3382 27.9611 42.2104 28.2931 42.0481 28.7849L42.0461 28.791C41.6437 30.0114 41.7404 31.3417 42.3153 32.4913Z" fill="#A0C83D"/>
<path d="M43.3727 25.2756C43.0905 23.9169 42.8002 21.8734 43.5282 21.5854C43.1692 20.9489 42.7679 20.5068 42.3712 20.6146C41.1823 20.9378 42.456 25.5422 42.456 25.5422C42.456 25.5422 37.6855 25.2883 37.6254 26.5189C37.6053 26.9318 38.1295 27.2298 38.8346 27.4437C38.9237 26.6519 41.0076 26.4931 42.4079 26.4764C43.0357 26.4689 43.5003 25.8901 43.3727 25.2756Z" fill="#94B938"/>
<path d="M47.2579 25.1029C47.8899 24.7504 48.6585 24.365 49.314 24.1621C49.524 23.83 49.6007 23.5292 49.453 23.3035C48.9647 22.5575 46.7432 23.7305 45.5524 24.436C45.5551 24.4439 45.558 24.4516 45.5607 24.4595C45.8039 25.1556 46.614 25.462 47.2579 25.1029Z" fill="#94B938"/>
<path d="M42.0728 28.7877C42.0646 28.7868 42.0562 28.7857 42.048 28.7847C41.6153 30.0947 40.9367 32.5389 41.7744 32.8569C42.0308 32.9543 42.3133 32.8078 42.5975 32.5218C42.654 31.84 42.864 31.0088 43.0719 30.3163C43.285 29.606 42.8092 28.8763 42.0728 28.7877Z" fill="#94B938"/>
<path d="M48.2055 21.786C48.2102 21.7828 48.2042 21.7851 48.1995 21.7867C48.1952 21.788 48.1902 21.7899 48.1839 21.7925L48.148 21.8072C47.003 22.2883 45.7336 23.4654 45.0555 24.9663C44.842 25.452 44.6827 25.9695 44.5826 26.5058L44.5821 26.5092C44.5523 26.6685 44.3991 26.7735 44.2398 26.7438C44.0973 26.7172 43.9984 26.5918 44.0002 26.4517C44.0075 25.8639 44.081 25.2693 44.2256 24.6842C44.3752 24.1009 44.5949 23.5275 44.8879 22.9878C45.8564 21.1949 47.3482 20.2657 47.3549 20.2599L47.3861 20.2406C47.397 20.234 47.4065 20.228 47.427 20.2169C47.8603 20.002 48.3858 20.1789 48.6008 20.6122C48.8157 21.0454 48.6387 21.571 48.2055 21.786Z" fill="#94B938"/>
<path d="M33.1569 44.9393C37.4858 44.9393 40.9952 41.43 40.9952 37.101C40.9952 32.772 37.4858 29.2627 33.1569 29.2627C28.8279 29.2627 25.3186 32.772 25.3186 37.101C25.3186 41.43 28.8279 44.9393 33.1569 44.9393Z" fill="#E04955"/>
<path d="M30.1579 34.4203C32.9691 33.8649 35.5402 36.1596 35.3695 39.0201C35.3349 39.5993 35.3648 40.1817 35.4595 40.7563C35.7812 42.7112 38.3189 43.3193 39.4881 41.7199C39.4954 41.7101 39.5026 41.7 39.5099 41.69C39.5099 41.6909 39.51 41.6916 39.51 41.6924C41.5122 38.9289 41.4535 35.2292 39.5399 32.5499C39.5395 32.5502 39.5391 32.5504 39.5386 32.5507C39.2102 32.0908 38.8282 31.6586 38.3899 31.2656C35.167 28.3754 30.2114 28.645 27.3213 31.8678C27.302 31.8893 27.2828 31.911 27.2637 31.9328C26.0919 33.2682 27.46 35.2667 29.1413 34.6927C29.4696 34.5806 29.8089 34.4893 30.1579 34.4203Z" fill="#CE4529"/>
<path d="M11.5526 24.8916H15.7125V47.2887H11.5526V24.8916Z" fill="#A55A3C"/>
<path d="M11.901 44.9392V24.8916H8.76514V47.2887H15.7124V44.9392H11.901Z" fill="#783C28"/>
<path d="M48.0968 24.8916H52.2341V47.2887H48.0968V24.8916Z" fill="#A55A3C"/>
<path d="M48.7606 44.9392V24.8916H45.2869V47.2887H52.2342V44.9392H48.7606Z" fill="#783C28"/>
<path d="M5.4996 28.384H55.6071V34.4296H5.4996V28.384Z" fill="#A55A3C"/>
<path d="M5.4996 38.8779H55.6071V44.9392H5.4996V38.8779Z" fill="#A55A3C"/>
<path d="M5.4996 38.0361H55.6071V39.1147H5.4996V38.0361Z" fill="#FFF5AA"/>
<path d="M5.4996 27.5266H55.6071V28.6052H5.4996V27.5266Z" fill="#FFF5AA"/>
<path d="M10.4109 31.4133C10.7203 31.4133 10.9711 31.1625 10.9711 30.8532C10.9711 30.5438 10.7203 30.293 10.4109 30.293C10.1015 30.293 9.85071 30.5438 9.85071 30.8532C9.85071 31.1625 10.1015 31.4133 10.4109 31.4133Z" fill="#FFF5AA"/>
<path d="M13.6769 31.4133C13.9863 31.4133 14.2371 31.1625 14.2371 30.8532C14.2371 30.5438 13.9863 30.293 13.6769 30.293C13.3675 30.293 13.1167 30.5438 13.1167 30.8532C13.1167 31.1625 13.3675 31.4133 13.6769 31.4133Z" fill="#FFF5AA"/>
<path d="M10.4109 42.0901C10.7203 42.0901 10.9711 41.8393 10.9711 41.5299C10.9711 41.2205 10.7203 40.9697 10.4109 40.9697C10.1015 40.9697 9.85071 41.2205 9.85071 41.5299C9.85071 41.8393 10.1015 42.0901 10.4109 42.0901Z" fill="#FFF5AA"/>
<path d="M13.6769 42.0901C13.9863 42.0901 14.2371 41.8393 14.2371 41.5299C14.2371 41.2205 13.9863 40.9697 13.6769 40.9697C13.3675 40.9697 13.1167 41.2205 13.1167 41.5299C13.1167 41.8393 13.3675 42.0901 13.6769 42.0901Z" fill="#FFF5AA"/>
<path d="M47.34 31.4133C47.6494 31.4133 47.9002 31.1625 47.9002 30.8532C47.9002 30.5438 47.6494 30.293 47.34 30.293C47.0307 30.293 46.7798 30.5438 46.7798 30.8532C46.7798 31.1625 47.0307 31.4133 47.34 31.4133Z" fill="#FFF5AA"/>
<path d="M50.6058 31.4133C50.9152 31.4133 51.166 31.1625 51.166 30.8532C51.166 30.5438 50.9152 30.293 50.6058 30.293C50.2965 30.293 50.0457 30.5438 50.0457 30.8532C50.0457 31.1625 50.2965 31.4133 50.6058 31.4133Z" fill="#FFF5AA"/>
<path d="M47.34 42.0901C47.6494 42.0901 47.9002 41.8393 47.9002 41.5299C47.9002 41.2205 47.6494 40.9697 47.34 40.9697C47.0307 40.9697 46.7798 41.2205 46.7798 41.5299C46.7798 41.8393 47.0307 42.0901 47.34 42.0901Z" fill="#FFF5AA"/>
<path d="M50.6058 42.0901C50.9152 42.0901 51.166 41.8393 51.166 41.5299C51.166 41.2205 50.9152 40.9697 50.6058 40.9697C50.2965 40.9697 50.0457 41.2205 50.0457 41.5299C50.0457 41.8393 50.2965 42.0901 50.6058 42.0901Z" fill="#FFF5AA"/>
<path d="M10.3719 57.1616H16.4789C20.5151 55.5947 23.3618 51.6441 23.2896 47.0377C23.1998 41.3032 18.5132 36.6214 12.7786 36.5371C8.95104 36.4808 5.57735 38.4398 3.64944 41.4212V50.4114C3.64944 52.612 4.70011 54.6944 6.50287 55.9564C6.52111 55.9692 6.53948 55.9819 6.55785 55.9946C7.67633 56.767 9.01262 57.1616 10.3719 57.1616Z" fill="#FF640A"/>
<path d="M16.375 54.5064C13.8986 54.5064 11.6196 53.6627 9.80882 52.2473C9.19848 51.7702 9.06544 50.8997 9.49164 50.2527C9.49977 50.2405 9.50777 50.2282 9.51578 50.2161C10.0251 49.4404 11.1133 49.3156 11.7874 49.9534C13.1201 51.215 15.0969 52.8321 15.8489 52.1397C16.385 51.6459 15.8021 50.4349 15.0074 49.2613C14.0083 47.7859 14.4099 45.7868 15.9014 44.8119C17.0877 44.0363 18.0931 43.1444 17.7892 42.4818C17.5001 41.8513 16.2796 41.984 14.9887 42.3372C13.1724 42.8341 11.2996 41.7807 10.7813 39.9704C10.4129 38.6836 9.89265 37.5717 9.20355 37.652C8.12451 37.7777 8.11991 40.6535 8.22882 42.4922C8.27368 43.2494 7.61389 43.8593 6.86298 43.7522C6.85073 43.7505 6.83837 43.7487 6.82589 43.7469C6.17199 43.6546 5.71153 43.0532 5.79936 42.3988C5.80219 42.3779 5.80501 42.3571 5.80796 42.3362C5.98915 41.0437 4.27058 40.4314 3.57582 41.5364C2.52457 43.2083 1.92436 45.1923 1.94555 47.318C2.00371 53.1394 6.79375 57.8805 12.6154 57.8819C14.1715 57.8823 15.6498 57.5496 16.9829 56.9513C18.2462 56.3842 17.8143 54.4993 16.4296 54.5063C16.4116 54.5064 16.3934 54.5064 16.375 54.5064Z" fill="#E04955"/>
<path d="M14.8932 49.3474H15.1779C14.836 47.6546 11.9538 44.5524 11.9538 44.5524C11.9538 44.5524 17.6122 41.9875 16.9441 40.5311C16.2761 39.0747 10.6409 41.69 10.6409 41.69C10.6409 41.69 10.1169 37.0106 8.93111 35.9221V39.3111C8.93111 40.2346 8.05634 40.5921 7.37501 40.3873C7.42622 41.3383 7.51276 42.0541 7.51276 42.0541C7.51276 42.0541 4.58634 41.4528 2.68704 41.608C2.68704 42.0967 2.97114 42.5402 3.41511 42.7444C4.30813 43.1552 5.38023 43.6652 6.22415 44.0701C7.03711 44.4601 7.44035 45.3866 7.1718 46.2474C6.82542 47.3575 6.40487 48.8651 6.2955 49.9475C6.26088 50.2905 6.52837 50.5886 6.8731 50.5886C8.21646 49.2376 9.63728 46.6856 9.63728 46.6856C9.63728 46.6856 9.94916 47.0272 10.4267 47.5021L10.4326 47.5079C11.6182 48.6862 13.2217 49.3474 14.8932 49.3474Z" fill="#A0C83D"/>
<path d="M7.11553 43.9205C5.37117 43.4584 2.82539 42.6074 2.91381 41.5933C1.96452 41.6405 1.21702 41.8503 1.11176 42.3743C0.796115 43.9451 6.89242 45.1417 6.89242 45.1417C6.89242 45.1417 3.82249 50.5426 5.21882 51.3282C5.68741 51.5918 6.33883 51.1553 6.9978 50.4596C6.12868 49.8955 7.15615 47.3792 7.95109 45.7407C8.30736 45.0065 7.90447 44.1295 7.11553 43.9205Z" fill="#94B938"/>
<path d="M9.17463 39.3011C9.13213 38.361 9.13095 37.2429 9.27623 36.3623C9.01192 35.9249 8.70675 35.6607 8.35837 35.7014C7.2068 35.8355 7.27898 39.1015 7.40695 40.8969C7.41767 40.8983 7.42838 40.8996 7.4391 40.901C8.39016 41.023 9.21796 40.2589 9.17463 39.3011Z" fill="#94B938"/>
<path d="M10.4444 47.4751C10.4384 47.4842 10.4324 47.4932 10.4264 47.5023C11.6985 48.7675 14.1466 50.9784 15.0035 50.1891C15.266 49.9474 15.2599 49.5337 15.0926 49.0368C14.3325 48.5746 13.4878 47.8468 12.8032 47.2022C12.1011 46.541 10.9756 46.6703 10.4444 47.4751Z" fill="#94B938"/>
<path d="M5.8679 36.2697C5.86696 36.2623 5.86602 36.2708 5.86519 36.2772C5.86425 36.2829 5.86343 36.2898 5.86284 36.2987L5.85907 36.3489C5.75264 37.9604 6.38346 40.1215 7.7347 41.7832C8.17562 42.314 8.68482 42.8002 9.2503 43.2285L9.25395 43.2313C9.42196 43.3585 9.45493 43.5979 9.32766 43.7659C9.21392 43.9161 9.01048 43.9583 8.84859 43.8747C8.16903 43.5243 7.52031 43.093 6.92375 42.5845C6.33237 42.0712 5.79326 41.4822 5.33609 40.8275C3.81402 38.6582 3.60092 36.3826 3.59809 36.3714L3.59386 36.324C3.59256 36.3075 3.59115 36.293 3.59009 36.2626C3.59209 35.6337 4.10353 35.1253 4.73247 35.1272C5.36153 35.1293 5.8699 35.6408 5.8679 36.2697Z" fill="#94B938"/>
</g>
<defs>
<clipPath id="clip0">
<rect width="60" height="60" fill="white"/>
</clipPath>
</defs>
</svg>
