<svg width="60" height="60" viewBox="0 0 60 60" fill="none" xmlns="http://www.w3.org/2000/svg">
<g clip-path="url(#clip0)">
<path d="M60 29.9999C60 41.3138 53.7372 51.1647 44.4893 56.2753C40.1941 58.6489 35.1796 58.7128 29.9248 58.7128C13.3562 58.7128 1.98334 46.7462 1.98334 30.1777C1.98334 21.0675 4.06076 12.7279 10.471 7.22593C15.719 2.72169 22.5416 0 30 0C46.5685 0 60 13.4314 60 29.9999Z" fill="#93DCFC"/>
<path d="M42.6578 50.0625C37.9388 50.0486 34.134 46.187 34.134 41.468V26.6449C34.134 26.6447 34.134 26.6444 34.134 26.6442C34.1339 26.3047 34.0789 25.9275 33.959 25.5676H33.9585C33.7393 24.9103 33.3262 24.3417 32.7855 23.9314C32.0432 23.3684 31.4457 22.6093 31.0602 21.7179C30.7946 21.1037 31.2383 20.4173 31.9075 20.4173C32.4911 20.4173 33.0007 19.977 33.0385 19.3947C33.08 18.7565 32.5745 18.2258 31.9451 18.2258V16.636C31.9451 14.8721 30.5153 13.4421 28.7513 13.4421H16.8248C15.0901 13.4421 13.8688 11.7277 14.4454 10.0915C14.4593 10.0523 14.4732 10.0131 14.4871 9.97383C15.3522 7.55148 12.4238 5.55218 10.4719 7.22723C4.1402 12.6612 0.100128 20.6894 0.00167887 29.6644C-0.180065 46.2459 13.4176 60 30 60C35.2548 60 40.1937 58.6486 44.4887 56.2747C47.4991 54.6108 46.3078 50.0487 42.8683 50.0624C42.828 50.0625 42.7878 50.0626 42.7474 50.0626C42.7177 50.0626 42.6877 50.0626 42.6578 50.0625Z" fill="#81B8FD"/>
<path d="M59.4004 28.5008C59.202 28.4068 58.969 28.4643 58.813 28.6186C58.2832 29.1432 57.5063 29.2709 56.8557 29.0026C56.6197 28.6457 56.3853 28.411 56.1148 28.1979C56.1157 28.1978 56.1166 28.1977 56.1174 28.1976C56.1118 28.1931 55.9303 28.06 55.8781 28.0255C55.6154 27.3887 55.7291 26.6101 56.2645 26.0696C56.4189 25.9139 56.4757 25.6809 56.3821 25.4826C56.2145 25.1278 55.7784 25.0745 55.5298 25.3227C55.2381 25.6144 55.0109 25.9641 54.8682 26.3554C54.6516 26.9495 54.0915 27.3589 53.4592 27.3474C52.5784 27.3314 51.6577 27.5016 50.7664 27.7786C49.0929 28.2988 47.321 28.359 45.5906 28.0817C45.3047 28.0359 45.0147 28.0111 44.7221 28.0106C37.6059 28.0106 34.5804 33.8684 40.3485 36.5625C40.1846 36.8461 39.9749 37.2359 39.7982 37.5989L39.7971 37.5979C39.6753 37.8482 39.5071 38.2269 39.4293 38.4154C39.1712 39.0569 38.952 39.6854 38.795 40.4146C38.6665 41.0122 38.6606 41.2598 38.6357 41.4406C38.3441 44.6222 40.1827 46.5423 43.4406 46.2454L43.4424 46.2471C43.4498 46.2464 43.4117 46.2504 43.5369 46.2372C43.5366 46.237 43.5362 46.2366 43.5359 46.2364C43.8588 46.2037 44.2932 46.1255 44.4683 46.0879C45.1369 45.9443 45.8493 45.709 46.4675 45.4536L46.4668 45.4529C46.7409 45.3396 47.0643 45.1931 47.2851 45.0859L47.2838 45.0846C47.623 44.9197 47.9643 44.7384 48.3067 44.541C49.1687 46.3635 50.5512 47.5452 52.11 47.5452C54.7233 47.5452 56.8417 44.2256 56.8417 40.1305C56.8417 39.8379 56.8175 39.5491 56.7725 39.2654C56.5009 37.5507 56.5812 35.7984 57.0986 34.1413C57.3995 33.1774 57.5487 32.2587 57.5339 31.4243C57.5227 30.7911 57.9313 30.2299 58.5264 30.0134C58.9186 29.8706 59.2696 29.6437 59.5599 29.3534C59.8087 29.1048 59.7554 28.6689 59.4004 28.5008Z" fill="#81B8FD"/>
<path d="M37.7305 7.231C37.2496 9.07769 38.0696 11.3592 38.998 13.0177C38.5015 13.8922 38.1656 14.866 38.1632 15.8794C38.1632 17.3207 38.466 18.651 38.9775 19.7228C40.5257 22.9669 43.4105 23.0896 45.1157 20.4916C45.4039 20.0526 45.9779 19.9048 46.4497 20.1353C46.4564 20.1386 46.4632 20.1419 46.4699 20.1451L46.469 20.1461C46.6779 20.2477 47.0042 20.3933 47.1772 20.4647C47.7394 20.6873 48.2308 20.8686 48.9091 21.0142C49.2331 21.0845 49.4843 21.1159 49.7979 21.1521C52.5355 21.4029 54.1077 20.0129 53.9605 16.9895L53.9621 16.988C53.9615 16.9815 53.9648 17.0146 53.9535 16.9059C53.9532 16.9063 53.953 16.9065 53.9528 16.9069C53.927 16.6612 53.8729 16.3259 53.8241 16.0991C53.7191 15.6108 53.5343 14.9959 53.2747 14.3672L53.274 14.3679C53.1753 14.1289 53.0465 13.8451 52.9559 13.659L52.9549 13.6601C52.9535 13.6571 52.9521 13.6542 52.9505 13.6512C52.72 13.1781 52.8628 12.6061 53.3003 12.3136C53.5139 12.1709 53.7115 12.0183 53.8917 11.8573C52.055 9.44223 49.8617 7.31324 47.3885 5.55101C47.3831 5.55242 47.3776 5.55395 47.3722 5.55536C46.3245 5.83579 45.2144 5.81123 44.2049 5.41485C43.0944 4.97888 42.0335 4.75978 41.0966 4.78045C40.5709 4.79208 40.0872 4.47794 39.9203 3.97946C39.7997 3.61927 39.5973 3.2976 39.3325 3.03104C39.1787 2.8762 38.931 2.84553 38.7513 2.96924C38.5094 3.13571 38.4871 3.46924 38.6844 3.66661C39.1531 4.13524 39.2528 4.81299 39.0243 5.36657C38.7152 5.57063 38.5113 5.77364 38.3253 6.00954C38.3252 6.00884 38.3251 6.00802 38.3251 6.00731C38.3151 6.02 38.2728 6.07862 38.1773 6.21279C37.6209 6.44211 36.9579 6.33732 36.4995 5.89735C36.3226 5.72759 36.044 5.69129 35.8589 5.852C35.6576 6.02646 35.6496 6.33144 35.8346 6.51648C36.3145 6.99627 36.9852 7.27599 37.7305 7.231Z" fill="#81B8FD"/>
<path d="M29.6587 26.0986C28.6835 25.3588 28.0035 24.3169 27.6754 23.1575H9.94336V28.2209H30.9556C30.8045 27.3581 30.3288 26.607 29.6587 26.0986Z" fill="#FFF5AA"/>
<path d="M10.1454 28.2209C10.1754 28.0163 10.195 27.8095 10.2036 27.6011L10.21 27.4462C10.3028 25.1726 12.173 23.3773 14.4483 23.3773H27.7414C27.5757 22.8693 27.4782 22.3359 27.456 21.7928L27.2835 17.5691H6.11762L5.94515 21.7929C5.87619 23.4813 5.08872 25.0773 3.7425 26.0986C3.07226 26.6069 2.5967 27.3581 2.44562 28.2209H10.1454Z" fill="#FFE046"/>
<path d="M31.0073 56.0162V28.812C31.0073 28.4354 30.9452 28.0734 30.8323 27.7349H11.7687V56.0162H31.0073Z" fill="#FFE046"/>
<path d="M25.6247 15.6094H10.1922V21.4888H28.8184V18.8032C28.8184 17.0394 27.3885 15.6094 25.6247 15.6094Z" fill="#FF640A"/>
<path d="M13.6466 15.6094H7.77661C6.01275 15.6094 4.58276 17.0392 4.58276 18.8032V21.4888H10.4527V18.8032C10.4527 17.0394 11.8827 15.6094 13.6466 15.6094Z" fill="#E04955"/>
<path d="M15.5859 55.4525C15.3541 55.4525 15.1278 55.4293 14.909 55.3852C13.469 55.0945 13.882 52.9394 15.3368 53.1447C15.9051 53.2248 16.4892 53.2557 17.0848 53.2327C22.0969 53.0385 26.1797 48.9838 26.4041 43.973C26.6534 38.4053 22.2133 33.813 16.7006 33.813C15.9867 33.813 15.2911 33.8904 14.6212 34.0369C13.3648 34.3118 12.1822 33.3292 12.1822 32.0431V27.7349H2.56915C2.45625 28.0736 2.3941 28.4354 2.3941 28.812V56.2246C2.3941 58.1043 3.91796 59.6281 5.79766 59.6281H27.6036C29.4834 59.6281 31.0073 58.1043 31.0073 56.2245V55.4524H15.5859V55.4525Z" fill="#FCB54C"/>
<path d="M16.7006 51.0029C22.0653 51.0029 26.4142 46.6539 26.4142 41.2893C26.4142 35.9246 22.0653 31.5757 16.7006 31.5757C11.3359 31.5757 6.987 35.9246 6.987 41.2893C6.987 46.6539 11.3359 51.0029 16.7006 51.0029Z" fill="#FFF5AA"/>
<path d="M16.3719 35.2285H12.839L11.0726 38.288L12.839 41.3475H16.3719L18.1382 38.288L16.3719 35.2285Z" fill="#FFE046"/>
<path d="M21.6192 38.2881H18.0865L16.32 41.3477L18.0865 44.4071H21.6192L23.3857 41.3477L21.6192 38.2881Z" fill="#FCB54C"/>
<path d="M16.3719 41.2312H12.839L11.0726 44.2908L12.839 47.3502H16.3719L18.1382 44.2908L16.3719 41.2312Z" fill="#FC9842"/>
<path d="M28.8184 20.3931H11.6276C11.7066 20.6815 11.7549 20.9826 11.7687 21.2918C11.7889 21.7426 11.7084 22.179 11.5509 22.5847H28.8186C29.4237 22.5847 29.9143 22.0941 29.9143 21.4889C29.9143 20.8838 29.4236 20.3931 28.8184 20.3931Z" fill="#FF640A"/>
<path d="M12.017 22.5846H4.58269C3.97754 22.5846 3.48694 22.094 3.48694 21.4888C3.48694 20.8837 3.97742 20.3931 4.58269 20.3931H12.017C12.6222 20.3931 13.1128 20.8837 13.1128 21.4888C13.1128 22.094 12.6223 22.5846 12.017 22.5846Z" fill="#E04955"/>
<path d="M54.4182 32.3535C53.6885 32.3535 52.9587 32.0757 52.403 31.5202C51.8647 30.9819 51.5683 30.2662 51.5683 29.5049C51.5683 28.7437 51.8647 28.028 52.403 27.4897C52.6077 27.2853 52.9393 27.2853 53.1437 27.4897C53.3484 27.6944 53.3484 28.026 53.1437 28.2306C52.8034 28.5709 52.6159 29.0235 52.6159 29.5048C52.6159 29.9862 52.8033 30.4388 53.1437 30.7791C53.8465 31.4818 54.9898 31.4816 55.6925 30.7791C55.8971 30.5747 56.2288 30.5747 56.4332 30.7791C56.6379 30.9837 56.6379 31.3154 56.4332 31.5201C55.8778 32.0757 55.148 32.3535 54.4182 32.3535Z" fill="#444145"/>
<path d="M53.292 30.6312C53.1966 30.5358 53.0963 30.4466 52.9912 30.3638C52.2997 29.8181 51.0273 29.925 49.5235 30.3859C43.3166 32.288 39.1317 38.0935 39.1317 44.5854V47.3318H43.9936C45.7998 46.4796 47.6784 45.158 49.4004 43.436C54.011 38.8254 55.7532 33.0926 53.292 30.6312Z" fill="#FFE046"/>
<path d="M40.1089 48.1377C37.6476 45.6763 39.39 39.9434 44.0005 35.3329C46.9191 32.4143 50.2872 30.6457 52.9907 30.3646C50.3873 28.3101 44.9191 30.091 40.4872 34.5229C35.8767 39.1334 34.1343 44.8663 36.5957 47.3276C37.4989 48.2308 38.8431 48.5673 40.4103 48.4043C40.3053 48.3215 40.2043 48.2332 40.1089 48.1377Z" fill="#FCB54C"/>
<path d="M35.6682 42.5815L41.3416 48.2549C42.2384 48.0621 43.1889 47.7244 44.1582 47.2528L36.6703 39.7649C36.1988 40.7342 35.861 41.6848 35.6682 42.5815Z" fill="#783C28"/>
<path d="M40.3161 48.4141C40.3148 48.4142 40.3168 48.414 40.3161 48.4141V48.4141Z" fill="#FCB54C"/>
<path d="M51.4612 29.6498C48.5861 28.9804 44.1773 30.8326 40.4871 34.5228C39.7243 35.2856 39.0407 36.0791 38.4409 36.8834C38.4392 36.8857 38.4374 36.8882 38.4357 36.8905C37.7249 37.8446 37.133 38.8137 36.6704 39.7648L35.6768 42.5833C35.537 43.2159 35.5107 43.599 35.5091 43.6076C35.3692 45.1343 35.7106 46.4425 36.5957 47.3276C37.4802 48.2121 38.7882 48.5519 40.314 48.4124L40.3156 48.4141H40.3162C40.3185 48.4138 40.3342 48.4122 40.4103 48.4042C40.4099 48.404 40.4096 48.4036 40.4092 48.4034C40.7122 48.3719 41.0234 48.3218 41.3414 48.2537L39.727 44.0068C39.3671 43.6468 39.2324 43.1191 39.3763 42.6307C39.3791 42.6211 39.382 42.6114 39.3849 42.6018C39.6855 41.5919 40.9553 41.2681 41.7003 42.0131L45.9357 46.2484C46.6711 45.775 47.4051 45.2297 48.1228 44.617L41.637 38.1312C42.3089 37.1773 43.0997 36.2336 44.0005 35.3327C46.3957 32.9375 49.0937 31.3169 51.4786 30.6572C51.9963 30.5142 51.9844 29.7716 51.4612 29.6498Z" fill="#FCB54C"/>
<path d="M35.6682 42.5815L41.3416 48.2549C42.2384 48.0621 43.1889 47.7244 44.1582 47.2528L36.6703 39.7649C36.1988 40.7342 35.861 41.6848 35.6682 42.5815Z" fill="#444145"/>
<path d="M38.0912 37.367L46.556 45.8318C47.2718 45.3306 47.9821 44.7621 48.6734 44.1304L39.7927 35.2498C39.1609 35.9409 38.5924 36.6512 38.0912 37.367Z" fill="#444145"/>
<path d="M41.5954 30.1775C40.2076 30.1775 37.5134 35.0693 37.7136 35.5909C38.057 36.4859 37.3316 37.5288 36.4805 37.7627C36.2167 37.8352 35.9633 37.8423 35.7264 37.7994C37.0825 38.9192 39.2062 39.6411 41.5954 39.6411C45.6905 39.6411 49.0101 34.9094 49.0101 34.9094C49.0101 34.9094 45.6905 30.1775 41.5954 30.1775Z" fill="white"/>
<path d="M38.05 36.5382C38.05 34.5423 39.8578 33.0987 41.9959 32.3597C43.1779 31.9512 42.8947 30.1892 41.6441 30.1777C41.6277 30.1776 41.6115 30.1775 41.5952 30.1775C37.5002 30.1775 34.1805 32.2959 34.1805 34.9092C34.1805 35.9631 34.7207 36.9363 35.6338 37.7226C36.5931 38.5485 38.0638 37.837 38.0501 36.5713C38.05 36.5604 38.05 36.5492 38.05 36.5382Z" fill="#FFF5AA"/>
<path d="M48.9834 34.8826L46.5991 43.5553C46.5991 44.5128 45.7912 45.3208 44.8338 45.3208C44.7754 45.3208 44.7177 45.3175 44.6606 45.3116C45.3979 47.904 47.0554 49.7121 48.9835 49.7121C51.5968 49.7121 53.7152 46.3925 53.7152 42.2974C53.7152 38.2024 48.9834 34.8826 48.9834 34.8826Z" fill="white"/>
<path d="M51.811 37.6077C51.8236 37.6316 51.8392 37.6537 51.8616 37.6713C51.8449 37.65 51.8278 37.6289 51.811 37.6077Z" fill="#FFF5AA"/>
<path d="M46.7619 44.8075C46.7619 42.7051 48.1322 40.6846 49.4658 39.2161C50.6347 37.9289 50.4097 35.9025 48.9954 34.891C48.9875 34.8854 48.9835 34.8826 48.9835 34.8826C48.9835 34.8826 44.2518 38.2022 44.2518 42.2973C44.2518 43.3105 44.3815 44.276 44.6163 45.1556C44.9477 46.3972 46.7679 46.1456 46.7622 44.8607C46.7619 44.843 46.7619 44.8253 46.7619 44.8075Z" fill="#FFF5AA"/>
<path d="M34.4535 9.4053C33.8213 9.4053 33.189 9.1647 32.7077 8.68338C32.5305 8.5061 32.5304 8.21886 32.7077 8.04158C32.8848 7.86441 33.1722 7.86441 33.3495 8.04158C33.9582 8.65025 34.9489 8.65025 35.5575 8.04158C35.8524 7.7467 36.0148 7.35454 36.0148 6.93748C36.0148 6.52043 35.8524 6.12839 35.5575 5.83351C35.3803 5.65623 35.3803 5.36899 35.5575 5.19171C35.7348 5.01455 36.0221 5.01455 36.1993 5.19171C36.6656 5.65799 36.9224 6.27806 36.9224 6.93748C36.9224 7.59691 36.6656 8.21698 36.1993 8.68338C35.718 9.16458 35.0857 9.4053 34.4535 9.4053Z" fill="#444145"/>
<path d="M50.6912 18.2674L49.8291 15.826C49.0967 14.3354 47.9903 12.7525 46.5224 11.2847C42.528 7.29031 37.5614 5.7809 35.429 7.91319C35.3463 7.9959 35.2692 8.08272 35.1974 8.17377C33.4174 10.4292 35.8912 14.4653 39.7307 18.3048C43.7251 22.2992 47.7209 24.2122 49.8532 22.0799C50.7564 21.1767 51.0044 19.8295 50.6912 18.2674Z" fill="#FFE046"/>
<path d="M50.5957 19.3342C48.4634 21.4665 43.4968 19.9571 39.5024 15.9627C36.9739 13.4342 35.4418 10.5164 35.1981 8.17432C33.4183 10.4297 34.9611 15.167 38.8006 19.0066C42.795 23.0009 47.7615 24.5103 49.8939 22.3781C50.6764 21.5955 50.9679 20.431 50.8267 19.0733C50.7549 19.1642 50.6783 19.2516 50.5957 19.3342Z" fill="#FCB54C"/>
<path d="M45.7821 23.1813L50.6972 18.2663C50.5303 17.4895 50.2376 16.6659 49.829 15.8262L43.3419 22.3133C44.1818 22.7217 45.0053 23.0144 45.7821 23.1813Z" fill="#783C28"/>
<path d="M48.9593 14.2863C48.5491 13.6491 48.0767 13.0133 47.5458 12.3915L41.9269 18.0104C41.1007 17.4283 40.283 16.7432 39.5026 15.9628C37.4275 13.8877 36.0235 11.5504 35.4521 9.48428C35.328 9.03574 34.6847 9.04608 34.5792 9.49932C33.9992 11.9902 35.604 15.8096 38.8009 19.0065C39.4617 19.6673 40.1492 20.2597 40.846 20.7792C40.8481 20.7807 40.8501 20.7822 40.8522 20.7838C41.6788 21.3995 42.5183 21.9123 43.3424 22.3131C43.5799 22.4287 44.6679 22.3108 44.6679 22.3108C45.4628 22.6158 45.3939 23.0967 45.7819 23.1842C46.2897 23.2987 46.5221 23.2893 46.6714 23.3193C47.9941 23.4405 49.1275 23.1447 49.8942 22.3779C50.6605 21.6115 50.9548 20.4783 50.834 19.1565L50.8355 19.155C50.8339 19.1374 50.8312 19.1192 50.8294 19.1014C50.8285 19.0919 50.828 19.0825 50.827 19.073C50.8267 19.0734 50.8265 19.0736 50.8263 19.0739C50.7439 18.2807 50.5148 17.422 50.1482 16.5342L47.0174 19.665C46.7055 19.9769 46.2484 20.0936 45.8252 19.9688C45.8169 19.9663 45.8085 19.9639 45.8002 19.9614C44.9253 19.7009 44.6448 18.601 45.2902 17.9554L48.9593 14.2863Z" fill="#FCB54C"/>
<path d="M45.7821 23.1813L50.6972 18.2663C50.5303 17.4895 50.2376 16.6659 49.829 15.8262L43.3419 22.3133C44.1818 22.7217 45.0053 23.0144 45.7821 23.1813Z" fill="#444145"/>
<path d="M41.2649 21.0822L48.5982 13.7489C48.164 13.1288 47.6715 12.5135 47.1243 11.9146L39.4307 19.6082C40.0293 20.1554 40.6448 20.648 41.2649 21.0822Z" fill="#444145"/>
<path d="M39.1356 11.6228C39.1356 11.6228 35.0363 14.4987 35.0363 18.0465L41.5733 23.2114C42.5814 22.0412 43.2349 20.1634 43.2349 18.0465C43.2349 14.4989 39.1356 11.6228 39.1356 11.6228Z" fill="white"/>
<path d="M40.5468 21.1179C38.8176 21.1179 37.5671 19.5517 36.9268 17.6993C36.573 16.6753 35.0464 16.9207 35.0365 18.004C35.0364 18.0181 35.0363 18.0322 35.0363 18.0463C35.0363 21.594 36.8716 24.47 39.1356 24.47C40.0487 24.47 40.8918 24.0021 41.573 23.2109C42.2884 22.38 41.672 21.1058 40.5756 21.1176C40.5659 21.1179 40.5563 21.1179 40.5468 21.1179Z" fill="#FFF5AA"/>
<path d="M45.5362 7.54663C42.1097 7.54663 39.3103 11.3699 39.1232 11.631C40.509 10.8899 43.7002 12.483 43.7095 12.4891C43.9518 12.649 47.3029 13.7364 48.0486 14.893C48.1435 15.0402 48.2236 15.1931 48.2911 15.3497C50.4602 14.6915 51.96 13.2807 51.96 11.646C51.9599 9.38193 49.0839 7.54663 45.5362 7.54663Z" fill="white"/>
<path d="M41.4733 9.19641C41.4941 9.18548 41.5133 9.17197 41.5285 9.15259C41.5099 9.16715 41.4918 9.18184 41.4733 9.19641Z" fill="#FFF5AA"/>
<path d="M47.7108 13.5705C45.8894 13.5705 44.139 12.3833 42.8667 11.228C41.7515 10.2153 39.9961 10.4102 39.1198 11.6356C39.115 11.6424 39.1125 11.6458 39.1125 11.6458C39.1125 11.6458 41.9884 15.7451 45.5361 15.7451C46.4138 15.7451 47.2504 15.6328 48.0124 15.4293C48.0576 15.4172 48.1006 15.4028 48.1414 15.3864C49.0681 15.0122 48.8233 13.5654 47.7569 13.5703C47.7416 13.5705 47.7262 13.5705 47.7108 13.5705Z" fill="#FFF5AA"/>
</g>
<defs>
<clipPath id="clip0">
<rect width="60" height="60" fill="white"/>
</clipPath>
</defs>
</svg>
