<svg width="60" height="60" viewBox="0 0 60 60" fill="none" xmlns="http://www.w3.org/2000/svg">
<g clip-path="url(#clip0)">
<path d="M59.0769 29.0769C59.0769 34.4587 57.6149 39.4989 55.0662 43.8223C50.0098 52.3992 40.859 55.5233 30.182 55.5233C14.1233 55.5233 2.75415 44.8922 2.75415 28.8334C2.75415 22.7265 2.80564 17.3029 6.02228 12.6241C11.264 4.9996 20.0481 0 29.9999 0C46.0587 0 59.0769 13.0182 59.0769 29.0769Z" fill="#FF640A"/>
<path d="M56.5696 22.856C55.9291 22.856 55.3643 22.4615 55.115 21.8715C54.9827 21.5582 54.8222 21.2608 54.6372 20.9817H54.6384C54.42 20.6511 54.1568 20.34 53.9064 20.0937H53.903C52.8684 19.0772 51.4444 18.4728 49.9226 18.5141C49.0916 18.5367 48.2867 18.1843 47.7505 17.5492C46.0879 15.5801 43.6545 14.3388 40.9723 14.2333C40.2354 14.2043 39.5454 13.8598 39.0821 13.2861C37.9938 11.9382 36.5857 11.0498 35.0724 10.601C35.0717 10.6061 35.071 10.6112 35.0703 10.6163C34.9402 10.5667 34.8035 10.5233 34.6585 10.4884C31.3167 9.68262 27.5633 10.975 25.6199 14.2033C25.1944 14.9102 24.446 15.3534 23.6255 15.4391C21.5764 15.6529 19.7612 16.7004 18.5405 18.2583C17.7139 19.3133 16.928 18.919 15.5824 20.2871C14.8298 21.0523 14.3859 21.9421 14.2042 22.8562H11.7787C11.5592 22.8562 11.3813 23.0342 11.3813 23.2536C11.3813 23.7563 10.6396 23.7954 10.588 23.2955C10.4858 22.3054 10.4334 21.3005 10.4334 20.2834C10.4334 18.3811 10.6163 16.5217 10.9652 14.7215C11.531 11.8023 7.70691 10.1743 6.02236 12.6246C2.80571 17.3029 0.923065 22.9701 0.923065 29.077C0.923065 45.2872 14.0808 58.1539 30 58.1539C39.6054 58.1539 48.5457 53.4486 53.9958 45.5005C53.9951 45.5009 53.9944 45.5013 53.9937 45.5016C54.3689 44.9545 54.7265 44.3943 55.0644 43.8212V36.28C55.0644 35.3976 55.7797 34.6823 56.6621 34.6823C57.5446 34.6823 58.2599 33.9669 58.2599 33.0845V24.4227C58.2599 23.5574 57.5584 22.8559 56.6931 22.8559H56.5696V22.856Z" fill="#E04955"/>
<path d="M21.205 43.6746V59.9999H43.3376C46.9902 59.9999 49.9513 57.0389 49.9513 53.3862V37.0547H27.825C24.1689 37.0547 21.205 40.0186 21.205 43.6746Z" fill="#FCB54C"/>
<path d="M44.7821 18.5151C43.9648 18.5413 43.185 18.2027 42.6598 17.576C40.9967 15.5914 38.5533 14.3393 35.859 14.2334C35.1251 14.2045 34.4352 13.8646 33.9743 13.2926C32.8852 11.9412 31.4751 11.0506 29.9593 10.6011C29.9578 10.6121 29.9563 10.6229 29.9548 10.6339C29.534 13.5861 26.747 15.4978 24.1206 16.3509C23.7452 16.4729 23.3618 16.5752 22.9741 16.6614V20.9818H49.5252C48.4999 19.4325 46.7173 18.4528 44.7821 18.5151Z" fill="#A55A3C"/>
<path d="M48.7934 20.0937H24.8041C23.854 20.0937 23.3349 18.9955 23.9301 18.2548C23.9379 18.2451 23.9458 18.2351 23.9536 18.2251C25.1754 16.6659 26.9925 15.6179 29.0436 15.4053C29.8628 15.3204 30.6082 14.8759 31.0329 14.1703C31.0401 14.1583 31.0474 14.1465 31.0545 14.1346C32.0203 12.5481 31.3511 10.9237 29.5455 10.4884C26.2037 9.68262 22.4503 10.975 20.5068 14.2033C20.0824 14.9083 19.3385 15.3537 18.5201 15.4381C16.4679 15.6501 14.6497 16.6983 13.4275 18.2582C12.6009 19.3132 11.8151 18.9189 10.4695 20.287C7.02927 23.7848 10.0382 29.8882 15.0642 28.9957C18.6461 31.4714 23.5858 30.3486 25.7621 26.5799C26.0526 26.6445 26.3485 26.6946 26.6495 26.7278C29.1526 33.7763 38.5668 35.2096 43.0317 29.1337C46.5952 30.4628 50.4288 27.8302 50.4288 23.9966C50.4288 22.4462 49.7939 21.0769 48.7934 20.0937Z" fill="#783C28"/>
<path d="M28.1122 37.7437H49.9512V34.3423H21.0294V22.8562H9.46378V37.1425V40.5439V53.3865C9.46378 57.0391 12.4249 60.0002 16.0774 60.0002H21.6788C23.3775 60.0002 24.3349 58.0657 23.3206 56.7031C22.6451 55.7957 22.247 54.703 22.247 53.3865C22.247 52.5532 23.2794 52.1621 23.8291 52.7884C25.3657 54.5386 27.649 55.6167 30.1822 55.5234C34.3365 55.3705 37.728 52.0139 37.9206 47.8611C38.1349 43.2402 34.4519 39.4266 29.8783 39.4266C26.3289 39.4266 23.3182 41.7245 22.2468 44.9128V43.609C22.2468 40.3697 24.873 37.7437 28.1122 37.7437Z" fill="#FC9842"/>
<path d="M29.8782 53.0951C34.3248 53.0951 37.9295 49.4905 37.9295 45.0439C37.9295 40.5973 34.3248 36.9927 29.8782 36.9927C25.4317 36.9927 21.827 40.5973 21.827 45.0439C21.827 49.4905 25.4317 53.0951 29.8782 53.0951Z" fill="#FFF5AA"/>
<path d="M29.8782 53.0951C34.3248 53.0951 37.9295 49.4905 37.9295 45.0439C37.9295 40.5973 34.3248 36.9927 29.8782 36.9927C25.4317 36.9927 21.827 40.5973 21.827 45.0439C21.827 49.4905 25.4317 53.0951 29.8782 53.0951Z" fill="#FFF5AA"/>
<path d="M33.5691 45.044C33.5691 48.4099 29.7076 51.1384 29.7076 51.1384C29.7076 51.1384 25.8462 48.4099 25.8462 45.044C25.8462 41.6782 29.7076 38.9497 29.7076 38.9497C29.7076 38.9497 33.5691 41.6782 33.5691 45.044Z" fill="#A0C83D"/>
<path d="M25.0364 22.856H53.1467V34.6823H25.0364V22.856Z" fill="#FFE046"/>
<path d="M6.26828 22.856H25.7621V34.6823H6.26828V22.856Z" fill="#FCB54C"/>
<path d="M32.253 44.9065C31.995 44.7209 31.6331 44.7814 31.4238 45.0205L30.833 45.6953C30.6537 45.9 30.3163 45.7733 30.3163 45.501V41.4543C30.3163 41.1363 30.0838 40.8523 29.7674 40.8222C29.4044 40.7875 29.0989 41.0721 29.0989 41.4281V43.3996C29.0989 43.6719 28.7614 43.7988 28.5821 43.5939L28.0019 42.9312C27.7676 42.6633 27.35 42.6507 27.0997 42.916C26.8816 43.1471 26.8938 43.5136 27.1031 43.7528L28.1946 44.9995C28.7775 45.6653 29.0989 46.5202 29.0989 47.4051V51.9043C29.0989 52.2222 29.3313 52.5062 29.6479 52.5363C30.011 52.5709 30.3163 52.2863 30.3163 51.9304V49.5065C30.3163 48.6216 30.6376 47.7667 31.2205 47.1009L32.3569 45.8029C32.5913 45.5349 32.5489 45.1196 32.253 44.9065Z" fill="#94B938"/>
</g>
<defs>
<clipPath id="clip0">
<rect width="60" height="60" fill="white"/>
</clipPath>
</defs>
</svg>
