<svg width="60" height="60" viewBox="0 0 60 60" fill="none" xmlns="http://www.w3.org/2000/svg">
<g clip-path="url(#clip0)">
<path d="M30 0C17.2787 0 6.40674 7.91796 2.04372 19.0944C0.724151 22.4745 4.71221 30.3832 18.2535 34.4516C39.656 40.882 59.9889 30.8266 59.9889 30.8266C59.9963 30.552 60.0001 30.2764 60.0001 30C60 13.4315 46.5684 0 30 0V0Z" fill="#FFE046"/>
<path d="M59.9088 32.3478C59.9477 31.8443 59.9743 31.3372 59.9882 30.8268H52.4439C50.1007 30.8268 48.884 29.2279 48.8713 29.2186C48.8663 29.2128 48.8612 29.2069 48.8562 29.2012C47.6899 27.8727 47.1902 26.0867 47.512 24.3484L47.6385 23.6651C47.7752 22.9262 48.4862 22.4497 49.2258 22.5831C52.2213 23.123 54.0586 19.4019 51.8271 17.3462C51.3008 16.8613 50.995 16.2196 50.9755 15.4395C50.9502 14.4313 50.4107 13.486 49.5524 12.9454C48.936 12.5569 48.4033 12.0382 48.0865 11.382C47.8372 10.8657 47.4465 10.4307 46.9642 10.1273C46.3597 9.74701 45.9404 9.17093 45.7798 8.40736C45.5054 7.10777 44.3919 6.12253 43.0685 6.01011C41.267 5.85704 39.7576 7.27399 39.7576 9.04335V9.05439C39.7586 9.41022 39.536 9.72657 39.2022 9.85015C37.9198 10.3249 37.0443 11.6382 37.2427 13.1247C37.4229 14.475 38.7362 15.6743 40.0965 15.7458C40.1502 15.7487 40.2036 15.7501 40.2565 15.7501C40.9986 15.7505 41.609 16.3301 41.609 17.0723V17.9332C41.609 19.0081 40.0801 19.2098 39.8012 18.1716C39.6213 17.5018 38.9326 17.1051 38.2622 17.2842C37.5923 17.4642 37.195 18.1532 37.3748 18.8232L39.8113 27.8964C39.0156 28.0865 38.3153 28.5223 37.796 29.12C36.8621 30.195 35.5189 30.8268 34.0949 30.8268H30.3327C29.0118 30.8268 27.7669 30.2751 26.869 29.3315C26.8381 29.2989 26.8078 29.2657 26.778 29.2317C25.64 27.9338 25.1936 26.1678 25.5077 24.4704L25.6591 23.6524C25.7959 22.9139 26.5064 22.4503 27.2457 22.5833C27.304 22.5937 27.3629 22.6027 27.4226 22.6098C28.9084 22.7896 30.3218 21.8445 30.7182 20.4012C31.036 19.2438 30.6499 18.0872 29.8453 17.346C29.3167 16.859 29.0053 16.1893 28.9944 15.4706C28.9943 15.4601 28.994 15.4498 28.9938 15.4393C28.9684 14.4303 28.4279 13.4843 27.5684 12.9438C26.9531 12.5568 26.4214 12.0391 26.106 11.3842C25.8567 10.8669 25.4656 10.4309 24.9825 10.127C24.3798 9.74795 23.9587 9.17234 23.7981 8.40712C23.5237 7.10753 22.4102 6.12229 21.0868 6.00987C19.2853 5.85681 17.7759 7.27375 17.7759 9.04312V9.05416C17.7769 9.40998 17.5543 9.72633 17.2205 9.84991C15.9381 10.3246 15.0626 11.638 15.261 13.1244C15.4412 14.4748 16.7545 15.6741 18.1148 15.7456C18.1685 15.7484 18.2218 15.7498 18.2748 15.7498C19.0169 15.7503 19.6273 16.3299 19.6273 17.0721V17.9329C19.6273 19.0079 18.0984 19.2096 17.8195 18.1714C17.6395 17.5016 16.9509 17.1049 16.2805 17.284C15.6106 17.464 15.2133 18.153 15.3931 18.823L17.7112 27.455C17.6905 27.4581 17.669 27.4625 17.6468 27.4678C14.6912 28.1711 11.7522 26.238 11.4845 23.2118C11.4066 22.332 11.3669 21.4412 11.3669 20.5412C11.3669 20.4753 11.3671 20.4094 11.3675 20.3436C11.401 15.1643 4.27957 13.7024 2.28982 18.4842C0.848561 21.948 0.0378865 25.74 0.0011178 29.7171C-0.00710524 30.6032 0.0257869 31.4802 0.0934508 32.3476H59.9088V32.3478ZM43.9953 21.6065C44.049 21.6206 44.103 21.6335 44.158 21.6447L44.1936 21.6517C44.9331 21.7928 45.4286 22.4905 45.2915 23.2308L44.7529 26.1413C44.5212 25.9994 44.2668 25.8919 43.9953 25.8263V21.6065ZM22.0137 21.6065C22.0674 21.6206 22.1214 21.6335 22.1764 21.6447C22.1883 21.647 22.2002 21.6494 22.212 21.6517C22.9515 21.7928 23.447 22.4905 23.3099 23.2308L22.7815 26.0858C22.5552 25.8752 22.2885 25.7031 22.0137 25.5848V21.6065Z" fill="#FCB54C"/>
<path d="M6.75657 48.9632C8.03795 50.5318 9.96484 51.4312 11.9903 51.4312H50.3947C50.5768 51.4312 50.7502 51.4574 50.915 51.5021C56.0579 46.4979 59.4139 39.6663 59.9286 32.054H49.8768C48.4434 32.054 47.0789 31.4156 46.1793 30.2997C45.5489 29.5177 44.5833 29.0174 43.5004 29.0174C43.4626 29.0174 43.4251 29.019 43.3875 29.0202C43.1091 27.8495 42.0592 26.9777 40.8032 26.9777C39.5476 26.9777 38.498 27.849 38.2192 29.0193C38.1942 29.0188 38.1694 29.0174 38.1443 29.0174C36.9553 29.0174 35.8922 29.5548 35.1841 30.3999C34.2851 31.4729 32.9278 32.054 31.5279 32.054H27.7656C26.2257 32.054 24.7877 31.3061 23.8842 30.059C23.2591 29.1963 22.2435 28.6351 21.0966 28.6351C21.0588 28.6351 21.0213 28.6368 20.9837 28.6379C20.7053 27.4672 19.6553 26.5955 18.3995 26.5955C17.1439 26.5955 16.0942 27.4667 15.8154 28.637C15.7904 28.6365 15.7656 28.6351 15.7404 28.6351C14.501 28.6351 13.3984 29.2191 12.6921 30.1267C11.7643 31.3189 10.3695 32.0539 8.85884 32.0539H5.20523V44.6467C5.20523 46.1823 5.71659 47.6803 6.6835 48.8733C6.70782 48.9033 6.73213 48.9332 6.75657 48.9632Z" fill="#A55A3C"/>
<path d="M29.9999 60C38.415 60 46.0201 56.5349 51.4674 50.954C53.2644 49.1128 51.0476 46.2015 48.7937 47.4419C48.7496 47.4661 48.7056 47.4902 48.6614 47.5143C47.7288 48.0206 46.8456 46.7574 47.6526 46.0683C47.6633 46.0591 47.674 46.0501 47.6847 46.0411C51.9822 42.3938 51.8425 36.3316 47.5214 33.3932C46.5658 32.7433 46.094 31.5822 46.3044 30.4459C45.7907 29.86 45.25 29.2832 44.1308 29.0759L43.6893 31.4617V29.0228C43.5304 29.0142 43.4575 29.0178 43.3875 29.0202C43.1091 27.8495 42.0592 26.9777 40.8032 26.9777C40.1523 26.9777 39.5579 27.2132 39.0965 27.6018L40.3115 32.1263C34.6633 33.5297 32.0464 39.86 36.1481 44.8613C36.1604 44.8762 36.1726 44.891 36.1849 44.9057C38.17 47.2846 36.2723 50.8619 33.1934 50.5147C30.8033 50.2453 28.4171 49.6446 26.11 48.6882C25.0358 48.2428 24.7995 46.8105 25.6849 46.0564C25.691 46.0513 25.697 46.0461 25.7031 46.0411C30.0159 42.3809 29.8599 36.2886 25.4938 33.3622C24.5784 32.7486 24.0976 31.6645 24.2978 30.5808L24.3019 30.5587C23.8004 30.0316 23.441 29.2364 22.1973 28.8165L21.7078 31.4617V28.6899C21.4489 28.6435 21.2198 28.6304 20.9838 28.638C20.5593 26.8527 18.492 26.0283 16.9592 27.022L18.33 32.1263C15.9361 32.7211 13.8702 34.3058 12.8409 36.505C11.4646 33.7981 8.71256 32.071 5.67873 32.0586C4.31476 32.053 2.50769 32.0444 0.0713196 32.0521C1.12587 47.6632 14.1212 60 29.9999 60Z" fill="#783C28"/>
<path d="M26.4273 16.698C26.4272 16.6876 26.427 16.6772 26.4267 16.6668C26.3934 15.3389 25.4778 14.1675 24.1969 13.8161C22.4533 13.3377 20.7114 14.4563 20.3894 16.1962C20.3488 16.4151 20.3336 16.6328 20.3401 16.8467C18.7981 16.782 17.4085 17.8986 17.1972 19.4929C16.9889 21.0646 18.0557 22.5565 19.6095 22.872C19.6213 22.8745 19.6332 22.8767 19.6451 22.879C20.3846 23.0201 20.88 23.7178 20.743 24.4581L16.9207 45.11L19.2674 45.5443L23.0897 24.8924C23.2267 24.1521 23.939 23.6781 24.6801 23.8109C24.7381 23.8213 24.7967 23.8301 24.8559 23.8373C26.3324 24.0156 27.7499 23.0715 28.1484 21.6385C28.4712 20.4777 28.0852 19.3167 27.2784 18.5734C26.7497 18.0864 26.4383 17.4166 26.4273 16.698Z" fill="#489160"/>
<path d="M21.2373 9.66508C21.2353 9.65486 21.2332 9.64464 21.231 9.63442C20.9565 8.33483 19.843 7.34959 18.5196 7.23717C16.7181 7.0841 15.2088 8.50105 15.2088 10.2704V10.2815C15.2095 10.6385 14.9847 10.9541 14.6501 11.0784C13.4052 11.5408 12.5447 12.7938 12.6796 14.2277C12.8183 15.7017 14.0376 16.8781 15.5152 16.9711C15.5749 16.9749 15.6341 16.9769 15.6931 16.9772C16.446 16.9815 17.0601 17.5773 17.0601 18.3302V39.3329H19.4467V18.3302C19.4467 17.5773 20.0608 16.9815 20.8137 16.9772C20.8257 16.9771 20.8378 16.977 20.8499 16.9768C22.4349 16.9493 23.7554 15.6767 23.8368 14.0934C23.8962 12.9407 23.3137 11.9194 22.4154 11.3543C21.8069 10.9717 21.3789 10.3698 21.2373 9.66508Z" fill="#A0C83D"/>
<path d="M18.6295 38.077C18.0752 38.077 17.5677 37.7072 17.4171 37.1464L12.826 20.0503C12.6462 19.3804 13.0434 18.6913 13.7134 18.5113C14.3838 18.3321 15.0725 18.7288 15.2524 19.3987L19.8435 36.4948C20.0233 37.1647 19.6262 37.8538 18.9561 38.0338C18.8468 38.0629 18.7374 38.077 18.6295 38.077Z" fill="#489160"/>
<path d="M18.2533 31.8591C16.6768 31.8591 15.2026 32.261 13.9447 32.9587V43.2814C16.0892 45.4403 17.4828 51.8176 17.8596 54.8592C17.917 55.323 18.5895 55.323 18.6469 54.8592C19.0731 51.4193 20.7992 48.2838 23.442 46.0409C25.3679 44.4064 26.603 41.9667 26.603 39.5312C26.603 35.2941 22.8647 31.8591 18.2533 31.8591Z" fill="#FFF5AA"/>
<path d="M17.4027 44.3712C16.7231 43.7945 16.1297 43.1175 15.646 42.3757C15.5502 42.2287 15.5425 42.0411 15.6261 41.8866C15.7096 41.7321 15.871 41.6358 16.0465 41.6358H16.9207C17.3369 41.6358 17.6744 41.2983 17.6744 40.8821C17.6744 40.4659 17.3369 40.1284 16.9207 40.1284H15.5156C14.9441 40.1284 14.4541 39.7179 14.3556 39.155C14.2807 38.7267 14.2417 38.2941 14.2417 37.8614C14.2417 37.8613 14.2417 37.8613 14.2417 37.8612C14.2417 37.2107 14.7689 36.6836 15.4193 36.6836H19.4466C19.8628 36.6836 20.2003 36.3461 20.2003 35.9299C20.2003 35.5137 19.8628 35.1762 19.4466 35.1762H15.7659C15.5438 35.1762 15.3389 35.0576 15.2281 34.8653C15.1174 34.6729 15.1177 34.4358 15.2294 34.2441C15.4028 33.9465 15.5967 33.6606 15.8097 33.3882C15.9808 33.1692 15.9854 32.863 15.821 32.639C15.6565 32.4149 15.3631 32.3278 15.1027 32.4253C12.0532 33.5676 9.90366 36.3183 9.90366 39.531C9.90366 41.9665 11.1386 44.4062 13.0647 46.0408C15.7075 48.2836 17.4336 51.419 17.8598 54.8589C17.9172 55.3228 18.5897 55.3228 18.6471 54.8589C18.7753 53.824 19.0212 52.8168 19.3745 51.8532C20.3491 49.1937 19.5624 46.2042 17.4027 44.3712Z" fill="#FFE046"/>
<path d="M22.9966 43.2812H19.4467C19.0305 43.2812 18.693 43.6187 18.693 44.035C18.693 44.4512 19.0305 44.7886 19.4467 44.7886H22.9966C23.4128 44.7886 23.7503 44.4512 23.7503 44.035C23.7503 43.6187 23.4128 43.2812 22.9966 43.2812Z" fill="#FFE046"/>
<path d="M48.4088 16.698C48.4087 16.6876 48.4085 16.6772 48.4082 16.6668C48.3749 15.3389 47.4593 14.1675 46.1784 13.8161C44.4349 13.3377 42.6929 14.4563 42.3709 16.1962C42.3303 16.4151 42.3151 16.6328 42.3217 16.8467C40.7796 16.782 39.39 17.8986 39.1787 19.4929C38.9704 21.0646 40.0372 22.5565 41.591 22.872C41.6028 22.8745 41.6147 22.8767 41.6266 22.879C42.3661 23.0201 42.8616 23.7178 42.7245 24.4581L38.9022 45.11L41.2489 45.5443L45.0712 24.8924C45.2082 24.1521 45.9205 23.6781 46.6617 23.8109C46.7196 23.8213 46.7782 23.8301 46.8374 23.8373C48.3139 24.0156 49.7314 23.0715 50.1299 21.6385C50.4527 20.4777 50.0667 19.3167 49.2599 18.5734C48.7312 18.0864 48.4197 17.4166 48.4088 16.698Z" fill="#489160"/>
<path d="M43.2188 9.66508C43.2168 9.65486 43.2147 9.64464 43.2125 9.63442C42.9381 8.33483 41.8246 7.34959 40.5011 7.23717C38.6997 7.0841 37.1903 8.50105 37.1903 10.2704V10.2815C37.191 10.6385 36.9663 10.9541 36.6316 11.0784C35.3867 11.5408 34.5263 12.7938 34.6611 14.2277C34.7999 15.7017 36.0191 16.8781 37.4968 16.9711C37.5565 16.9749 37.6157 16.9769 37.6746 16.9772C38.4275 16.9815 39.0417 17.5773 39.0417 18.3302V39.3329H41.4282V18.3301C41.4282 17.5772 42.0424 16.9814 42.7952 16.9771C42.8072 16.977 42.8193 16.9769 42.8314 16.9767C44.4165 16.9492 45.737 15.6766 45.8184 14.0933C45.8777 12.9406 45.2953 11.9193 44.397 11.3542C43.7885 10.9717 43.3604 10.3698 43.2188 9.66508Z" fill="#A0C83D"/>
<path d="M40.611 38.077C40.0567 38.077 39.5492 37.7072 39.3986 37.1464L34.8076 20.0503C34.6277 19.3804 35.0249 18.6913 35.6949 18.5113C36.3653 18.3321 37.054 18.7288 37.2339 19.3987L41.825 36.4948C42.0048 37.1647 41.6077 37.8538 40.9376 38.0338C40.8283 38.0629 40.7189 38.077 40.611 38.077Z" fill="#489160"/>
<path d="M40.2348 31.8591C38.6022 31.8591 37.0803 32.2913 35.7937 33.0355L36.0959 41.449C38.3157 43.625 39.4566 51.7552 39.8412 54.8591C39.8986 55.3229 40.571 55.3229 40.6285 54.8591C41.0547 51.4192 42.7808 48.2837 45.4236 46.0408C47.3495 44.4063 48.5846 41.9665 48.5846 39.5311C48.5846 35.2941 44.8463 31.8591 40.2348 31.8591Z" fill="#FFF5AA"/>
<path d="M39.3842 44.3712C38.7046 43.7945 38.1112 43.1175 37.6275 42.3757C37.5317 42.2287 37.524 42.0411 37.6076 41.8866C37.6911 41.7322 37.8525 41.6358 38.028 41.6358H38.9022C39.3184 41.6358 39.6559 41.2983 39.6559 40.8821C39.6559 40.4659 39.3184 40.1284 38.9022 40.1284H37.4971C36.9256 40.1284 36.4355 39.7179 36.3371 39.155C36.2622 38.7267 36.2232 38.2941 36.2232 37.8614C36.2232 37.8613 36.2232 37.8613 36.2232 37.8612C36.2232 37.2107 36.7504 36.6836 37.4008 36.6836H41.4281C41.8443 36.6836 42.1818 36.3461 42.1818 35.9299C42.1818 35.5137 41.8443 35.1762 41.4281 35.1762H37.7472C37.5252 35.1762 37.3202 35.0576 37.2095 34.8653C37.0988 34.6729 37.099 34.4358 37.2107 34.2441C37.3841 33.9465 37.5781 33.6606 37.7911 33.3882C37.9622 33.1692 37.9668 32.863 37.8023 32.639C37.6378 32.4149 37.3444 32.3278 37.0841 32.4253C34.0345 33.5676 31.885 36.3183 31.885 39.531C31.885 41.9665 33.12 44.4062 35.0461 46.0408C37.6889 48.2836 39.415 51.419 39.8412 54.8589C39.8986 55.3228 40.571 55.3228 40.6285 54.8589C40.7566 53.824 41.0026 52.8168 41.3559 51.8532C42.3306 49.1937 41.5439 46.2042 39.3842 44.3712Z" fill="#FFE046"/>
<path d="M44.9781 43.2812H41.4282C41.012 43.2812 40.6745 43.6187 40.6745 44.035C40.6745 44.4512 41.012 44.7886 41.4282 44.7886H44.9781C45.3943 44.7886 45.7318 44.4512 45.7318 44.035C45.7318 43.6187 45.3943 43.2812 44.9781 43.2812Z" fill="#FFE046"/>
</g>
<defs>
<clipPath id="clip0">
<rect width="60" height="60" fill="white"/>
</clipPath>
</defs>
</svg>
