<svg width="60" height="60" viewBox="0 0 60 60" fill="none" xmlns="http://www.w3.org/2000/svg">
<path d="M60 30C60 46.5688 46.5688 60 30 60C13.4312 60 0 46.5688 0 30C0 13.4312 13.4312 0 30 0C46.5688 0 60 13.4312 60 30Z" fill="#005FD2"/>
<path d="M59.7276 25.9556L51.4458 17.6737C51.4201 17.6444 51.395 17.6147 51.367 17.5867L46.2094 12.4291C45.5228 11.7425 44.4099 11.7425 43.7233 12.4291C43.0692 13.0833 43.0399 14.1242 43.6331 14.8145L39.9696 17.8751L29.7006 7.56079C29.7006 7.56079 26.5457 11.1364 24.8657 14.6799C21.3121 12.4213 14.079 11.9691 14.079 11.9691C14.079 11.9691 14.5738 19.8788 17.1117 23.2186H13.2642C11.1758 23.2186 9.48303 24.9114 9.48303 26.9997C9.48303 28.0192 9.88632 28.9438 10.5418 29.6236L12.8513 31.8694V34.6091C12.8513 39.4463 14.9112 43.8015 18.2007 46.8484L31.3216 59.9688C47.2769 59.2776 60 46.1255 60 29.9999C60 28.628 59.9062 27.2785 59.7276 25.9556Z" fill="#003D8D"/>
<path d="M50.1805 18.5872L45.1451 13.5518L33.3774 23.3827L40.3496 30.3544L50.1805 18.5872Z" fill="#FFED97"/>
<path d="M40.3496 30.3547L36.8633 26.8684L47.6628 16.0688L50.1805 18.587L49.2357 19.8005L40.3496 30.3547Z" fill="#FFDF47"/>
<path d="M48.8813 20.0726L43.7237 14.9149C43.0371 14.2283 43.0371 13.1155 43.7237 12.4293C44.4099 11.7426 45.5232 11.7426 46.2094 12.4293L51.367 17.5869C52.0536 18.2731 52.0536 19.3864 51.367 20.0726C50.6808 20.7592 49.5675 20.7592 48.8813 20.0726Z" fill="white"/>
<path d="M30.2343 51.2892H29.5312C20.3192 51.2892 12.8517 43.8212 12.8517 34.6096V30.0393H46.9143V34.6096C46.9139 43.8212 39.4464 51.2892 30.2343 51.2892Z" fill="#FFF5CB"/>
<path d="M46.9135 30.0386V34.6089C46.9135 43.8214 39.4464 51.2898 30.2344 51.2898H29.8828V30.0386H46.9135Z" fill="#FFED97"/>
<path d="M29.7006 7.56079C29.7006 7.56079 23.8403 14.2025 23.8403 18.3539C23.8403 22.5054 25.7446 24.2147 29.7006 25.826C33.6566 24.2147 35.5614 22.5054 35.5614 18.3539C35.5614 14.2025 29.7006 7.56079 29.7006 7.56079Z" fill="#00FFEA"/>
<path d="M35.5614 18.3539C35.5614 22.1905 33.9336 23.9419 30.5626 25.4589C30.2866 25.5825 30 25.7052 29.7006 25.8265V7.56079C29.7006 7.56079 35.5614 14.2025 35.5614 18.3539Z" fill="#00DFC1"/>
<path d="M32.8665 19.3144L30.3058 21.0928L30.1391 18.251L30.1716 18.2849L32.5978 15.102L30.0576 16.8662L29.7006 10.7839L29.3435 16.8662L26.8034 15.102L29.23 18.2849L29.2621 18.251L29.0954 21.0928L26.5352 19.3144L29.0162 22.4395L28.6139 29.2936H30.7873L30.3849 22.4395L32.8665 19.3144Z" fill="#00CEB4"/>
<path d="M30.5626 25.4589L30.7874 29.2932H29.7006V10.7839L30.0577 16.8658L32.5974 15.1016L30.1717 18.2849L30.1387 18.251L30.3058 21.0932L32.8656 19.3139L30.3845 22.44L30.5626 25.4589Z" fill="#008878"/>
<path d="M14.079 11.9692C14.079 11.9692 14.6315 20.81 17.5667 23.7452C20.5019 26.6804 23.0576 26.5426 26.9943 24.885C28.6519 20.9483 28.7901 18.3926 25.8549 15.4574C22.9193 12.5218 14.079 11.9692 14.079 11.9692Z" fill="#00FFEA"/>
<path d="M25.855 15.4574C28.5677 18.1701 28.6551 20.5597 27.3445 24.0158C27.2365 24.2982 27.1207 24.5875 26.9948 24.8851L14.079 11.9697C14.079 11.9697 22.9193 12.5218 25.855 15.4574Z" fill="#00DFC1"/>
<path d="M24.6281 18.0418L24.0751 21.1097L21.9479 19.2182L21.9951 19.2196L21.4599 15.2531L20.9111 18.2968L16.3582 14.2483L20.4062 18.8017L17.3625 19.3501L21.329 19.8852L21.3281 19.838L23.2196 21.9657L20.1512 22.5187L24.1159 22.9737L28.6779 28.1048L30.2147 26.5681L25.0836 22.006L24.6281 18.0418Z" fill="#00CEB4"/>
<path d="M27.3445 24.0156L30.2142 26.5681L29.4461 27.3362L16.3577 14.2483L20.9111 18.2968L21.4595 15.2531L21.9951 19.2191L21.9475 19.2187L24.0756 21.1102L24.6277 18.0418L25.0836 22.0065L27.3445 24.0156Z" fill="#008878"/>
<path d="M46.5015 30.7815H13.2642C11.1758 30.7815 9.48303 29.0887 9.48303 27.0004C9.48303 24.912 11.1758 23.2192 13.2642 23.2192H46.5015C48.5898 23.2192 50.2826 24.912 50.2826 27.0004C50.2826 29.0887 48.5898 30.7815 46.5015 30.7815Z" fill="white"/>
<path d="M50.2826 26.9998C50.2826 28.044 49.8596 28.9897 49.1753 29.6741C48.5825 30.2674 47.7924 30.6647 46.9135 30.7595C46.778 30.7746 46.6406 30.7819 46.501 30.7819H29.8828V23.2183H46.501C48.5893 23.2183 50.2826 24.9115 50.2826 26.9998Z" fill="#FFF5CB"/>
<path d="M51.367 20.0724C52.0536 19.3863 52.0536 18.273 51.367 17.5868L48.7545 14.9739L46.2703 17.4614L48.8813 20.0724C49.5675 20.7591 50.6808 20.7591 51.367 20.0724Z" fill="#FFF5CB"/>
</svg>
