<svg width="60" height="60" viewBox="0 0 60 60" fill="none" xmlns="http://www.w3.org/2000/svg">
<g clip-path="url(#clip0)">
<path d="M30 1.58325C17.7558 1.58325 7.27134 9.11716 2.92944 19.8022L12.9079 45.1188L42.3313 57.277C52.2998 52.6279 59.2083 42.5166 59.2083 30.7917C59.2084 14.6603 46.1313 1.58325 30 1.58325Z" fill="#62C389"/>
<path d="M55.4829 34.5448C54.9519 34.0076 54.282 33.6839 53.5795 33.5731C51.7467 33.284 50.1383 32.1693 49.169 30.5873C47.9382 28.5784 45.942 26.4513 42.9357 26.1934C41.8888 26.1036 40.9134 25.6495 40.1322 24.9467C39.1644 24.0759 38.0702 23.4248 36.913 22.9907C34.932 22.2477 33.6227 20.3502 33.6227 18.2343V12.0399C33.6227 9.99363 34.9471 8.16213 36.9083 7.578C37.8009 7.31218 38.7302 6.92194 39.6056 6.35193C40.573 5.72201 41.3654 4.94269 42.0037 4.15632C41.2579 3.81975 40.4947 3.51533 39.7173 3.24104L36.3251 5.44984C35.968 5.68233 35.5385 5.29656 35.7239 4.91303C35.7267 4.90703 35.7296 4.90114 35.7325 4.89514C36.1468 4.03201 36.3715 3.13803 36.4836 2.30669C35.2789 2.03358 34.0458 1.83569 32.7897 1.71655C32.4791 2.12916 32.1919 2.58286 31.953 3.08059C30.9895 5.08761 31.0473 7.26274 31.1768 8.42347V14.4742C30.8914 13.9403 30.5407 13.4086 30.1073 12.915C28.8131 11.4412 27.088 10.6456 25.9308 10.2477C25.3258 10.0397 24.7232 10.5679 24.8513 11.1946C24.8553 11.2145 24.8595 11.2345 24.8638 11.2548C25.1386 12.5642 23.704 13.5569 22.5828 12.8269C21.9982 12.4463 21.2953 13.113 21.6487 13.7144C22.3788 14.9571 23.5279 16.4804 25.1904 17.5628C27.2931 18.9319 29.7066 19.2642 31.1769 19.326V22.5565C29.2058 22.9697 27.4516 23.945 26.1022 25.2799C25.3604 26.0136 24.3944 26.5372 23.3163 26.7246C19.6872 27.3557 16.8467 30.2897 16.3584 33.9747C16.2495 33.9932 16.141 34.0131 16.0328 34.0342C15.0635 34.2248 14.0851 33.7284 13.709 32.815C12.2987 29.3898 11.5203 25.6378 11.5203 21.7038C11.5203 21.6399 11.5206 21.576 11.5209 21.5122C11.5526 16.5937 4.78187 15.2459 2.92977 19.8025C1.56232 23.167 0.803961 26.844 0.791718 30.6967C0.776768 35.3839 1.85497 39.8108 3.78807 43.7359L17.4542 57.1971C21.171 58.9575 25.3258 59.9578 29.7222 59.9988C34.2311 60.0407 38.5063 59.0607 42.3311 57.2764C45.5765 55.7623 44.4495 50.8951 40.8684 50.9118C40.8219 50.912 40.7754 50.9121 40.7288 50.9121C40.2703 50.9121 39.8141 50.9015 39.3607 50.8806C38.1403 50.8242 38.1901 48.9994 39.4118 48.9995C44.5845 49.0002 44.1117 49.0006 44.2618 48.993C46.8998 48.8605 48.0086 46.9093 48.7316 46.3241L49.0427 46.0067L55.493 39.4253C56.8232 38.0677 56.8172 35.8949 55.4829 34.5448Z" fill="#199A8E"/>
<path d="M27.9356 14.3158C30.0694 16.7456 30.2241 20.0986 30.2241 20.0986C30.2241 20.0986 26.9192 19.5121 24.7853 17.0824C23.4919 15.6096 22.9256 13.7975 22.6803 12.5986C22.5518 11.9715 23.1559 11.441 23.7612 11.6493C24.9184 12.0475 26.6422 12.843 27.9356 14.3158Z" fill="#FFF5AA"/>
<path d="M31.3079 28.4144H30.3295L28.862 20.0987V7.60571H31.3936L31.3079 11.8226V28.4144Z" fill="#A0C83D"/>
<path d="M45.8868 40.8903C47.2121 39.4454 48.0396 37.5393 48.088 35.4558C48.1904 31.046 44.875 27.4026 40.6314 26.9562C39.5988 26.8475 38.6162 26.431 37.8468 25.7335C33.8307 22.0921 27.6158 22.2437 23.7761 26.0531V40.8903H45.8868Z" fill="#A55A3C"/>
<path d="M46.9709 37.9124C45.5819 38.6149 44.0129 39.0133 42.35 39.0133C41.4956 39.0133 40.6661 38.9077 39.873 38.7099C39.0768 38.5114 38.2416 38.5977 37.5009 38.951C36.3798 39.4859 35.1231 39.7826 33.7963 39.7753C29.0522 39.7492 25.1818 35.7164 25.3434 30.975C25.3839 29.7875 25.6682 28.6607 26.1483 27.6438C26.8341 26.1912 25.0163 24.8488 23.8625 25.9664C23.8373 25.9908 23.8122 26.0154 23.7872 26.0401C23.025 26.7937 22.0571 27.3012 21.0012 27.4849C17.0144 28.1781 13.9987 31.6415 13.9682 35.798C13.9343 40.4168 17.8061 44.3415 22.4249 44.3674C24.2131 44.3774 25.8739 43.8351 27.2476 42.9019C28.4044 43.3543 29.6623 43.6054 30.9794 43.6054C32.6424 43.6054 34.2114 43.2071 35.6003 42.5044C36.9348 43.2687 38.4989 43.6775 40.1652 43.5948C43.54 43.4272 46.395 41.2253 47.5456 38.2117C47.3501 38.1189 47.1581 38.0195 46.9709 37.9124Z" fill="#783C28"/>
<path d="M45.5137 37.1087L40.1485 41.5362H31.1208C32.2662 40.5968 33.0241 39.2026 33.1186 37.6294H28.2836C26.6472 37.6294 25.4355 36.292 25.3647 34.7105C25.3623 34.6581 25.362 34.6061 25.3629 34.5542H16.1708C11.1896 34.5542 6.66662 37.4614 4.59814 41.9929L3.80682 43.7265C6.71371 49.6016 11.5378 54.3584 17.4628 57.1785L20.9947 49.7596H21.477C21.7518 48.4077 23.0802 47.3528 24.4595 47.3528H46.1534L55.4874 37.8729C52.9083 34.9791 48.5033 34.6417 45.5137 37.1087Z" fill="#FFBE82"/>
<path d="M16.0214 42.8223H24.0305L23.9438 42.7776H27.6473C29.7603 42.7776 31.593 41.5812 32.5081 39.8296H19.0141C17.3613 39.8296 16.0214 41.1695 16.0214 42.8223Z" fill="#FF965A"/>
<path d="M32.6846 38.278H28.42C26.3635 38.278 24.6963 36.6108 24.6963 34.5542H32.6846C32.93 34.5542 33.1291 34.7533 33.1291 34.9987V37.8334C33.1291 38.0789 32.93 38.278 32.6846 38.278Z" fill="#FFCEA1"/>
<path d="M46.4165 47.0842L46.7276 46.7668H23.9721C22.3193 46.7668 20.9794 48.1067 20.9794 49.7595H41.6958C43.0381 49.7595 44.324 49.2193 45.2635 48.2607L46.4165 47.0842Z" fill="#FF965A"/>
<path d="M33.4177 5.65541C32.0182 8.57065 28.9939 10.0266 28.9939 10.0266C28.9939 10.0266 28.2387 6.7561 29.6383 3.84097C30.4867 2.07386 31.932 0.842974 32.939 0.147479C33.4657 -0.216396 34.1903 0.131587 34.2359 0.770105C34.3227 1.99064 34.266 3.8883 33.4177 5.65541Z" fill="#FFF5AA"/>
<path d="M27.9258 18.5732L18.3052 12.3091C18.3052 12.3091 19.5842 16.1799 22.8754 18.323C23.5754 18.7788 24.31 19.1197 25.0326 19.3739C27.343 20.1866 28.8619 22.4044 28.8619 24.8535V28.4144H30.224L30.2231 22.8097C30.2227 21.0999 29.3584 19.5062 27.9258 18.5732Z" fill="#94B938"/>
<path d="M31.3043 13.5885V13.4945C31.3043 11.0808 32.8539 8.96462 35.131 8.16412C35.8545 7.90984 36.5899 7.56868 37.2908 7.11228C40.582 4.96929 41.861 1.09839 41.861 1.09839L32.8661 6.90168C30.6284 8.34541 29.9376 11.3029 31.3043 13.5885Z" fill="#94B938"/>
</g>
<defs>
<clipPath id="clip0">
<rect width="60" height="60" fill="white"/>
</clipPath>
</defs>
</svg>
