<svg
  width="40"
  height="40"
  viewBox="0 0 40 40"
  fill="none"
  xmlns="http://www.w3.org/2000/svg"
>
  <path
    d="M20.0001 25.3334C22.9456 25.3334 25.3334 22.9456 25.3334 20.0001C25.3334 17.0546 22.9456 14.6667 20.0001 14.6667C17.0546 14.6667 14.6667 17.0546 14.6667 20.0001C14.6667 22.9456 17.0546 25.3334 20.0001 25.3334Z"
    fill="#BDBDBD"
  />
  <path
    d="M15 3.33331L11.95 6.66665H6.66665C4.83331 6.66665 3.33331 8.16665 3.33331 9.99998V30C3.33331 31.8333 4.83331 33.3333 6.66665 33.3333H33.3333C35.1666 33.3333 36.6666 31.8333 36.6666 30V9.99998C36.6666 8.16665 35.1666 6.66665 33.3333 6.66665H28.05L25 3.33331H15ZM20 28.3333C15.4 28.3333 11.6666 24.6 11.6666 20C11.6666 15.4 15.4 11.6666 20 11.6666C24.6 11.6666 28.3333 15.4 28.3333 20C28.3333 24.6 24.6 28.3333 20 28.3333Z"
    fill="#BDBDBD"
  />
</svg>
