<svg
  width="12"
  height="12"
  viewBox="0 0 12 12"
  fill="none"
  xmlns="http://www.w3.org/2000/svg"
>
  <path
    d="M6 5.25C6.41421 5.25 6.75 4.91421 6.75 4.5C6.75 4.08579 6.41421 3.75 6 3.75C5.58579 3.75 5.25 4.08579 5.25 4.5C5.25 4.91421 5.58579 5.25 6 5.25Z"
    fill="#949596"
  />
  <path
    d="M6 0.75C3.93234 0.75 2.25 2.35898 2.25 4.33594C2.25 5.27742 2.67914 6.52945 3.52547 8.05734C4.20516 9.28406 4.99148 10.3934 5.40047 10.9453C5.46958 11.0396 5.55994 11.1163 5.66422 11.1692C5.76851 11.2221 5.88378 11.2496 6.0007 11.2496C6.11762 11.2496 6.2329 11.2221 6.33718 11.1692C6.44147 11.1163 6.53183 11.0396 6.60094 10.9453C7.00922 10.3934 7.79625 9.28406 8.47594 8.05734C9.32086 6.52992 9.75 5.27789 9.75 4.33594C9.75 2.35898 8.06766 0.75 6 0.75ZM6 6C5.70333 6 5.41332 5.91203 5.16664 5.7472C4.91997 5.58238 4.72771 5.34811 4.61418 5.07403C4.50065 4.79994 4.47094 4.49834 4.52882 4.20736C4.5867 3.91639 4.72956 3.64912 4.93934 3.43934C5.14912 3.22956 5.41639 3.0867 5.70736 3.02882C5.99834 2.97094 6.29994 3.00065 6.57402 3.11418C6.84811 3.22771 7.08238 3.41997 7.2472 3.66664C7.41203 3.91332 7.5 4.20333 7.5 4.5C7.49957 4.89769 7.34139 5.27897 7.06018 5.56018C6.77897 5.84139 6.39769 5.99957 6 6Z"
    fill="#949596"
  />
</svg>
