<svg width="24" height="24" viewBox="0 0 24 24" fill="none" xmlns="http://www.w3.org/2000/svg">
<path d="M10.9694 2.54571C11.3978 2.19486 11.9399 2.00244 12.5 2.00244C13.0601 2.00244 13.6022 2.19486 14.0306 2.54571L21.1556 8.38529C21.6907 8.82439 22 9.4697 22 10.1499V20.2071C22 20.6832 21.8054 21.1399 21.459 21.4766C21.1125 21.8133 20.6427 22.0024 20.1528 22.0024H16.4583C15.9684 22.0024 15.4986 21.8133 15.1521 21.4766C14.8057 21.1399 14.6111 20.6832 14.6111 20.2071V14.5645C14.6111 14.4964 14.5833 14.4312 14.5338 14.3831C14.4843 14.335 14.4172 14.308 14.3472 14.308H10.6528C10.5828 14.308 10.5157 14.335 10.4662 14.3831C10.4167 14.4312 10.3889 14.4964 10.3889 14.5645V20.2071C10.3889 20.6832 10.1943 21.1399 9.84785 21.4766C9.50143 21.8133 9.03158 22.0024 8.54167 22.0024H4.84722C4.60464 22.0024 4.36444 21.956 4.14032 21.8658C3.91621 21.7755 3.71257 21.6433 3.54104 21.4766C3.36951 21.3099 3.23344 21.112 3.14061 20.8941C3.04778 20.6763 3 20.4428 3 20.2071V10.1499C3 9.4697 3.30928 8.82439 3.84444 8.38529L10.9694 2.54571ZM13.0098 3.72245C12.8671 3.60568 12.6866 3.54165 12.5 3.54165C12.3134 3.54165 12.1329 3.60568 11.9902 3.72245L4.86517 9.56101C4.77699 9.63315 4.70609 9.72313 4.65741 9.82466C4.60873 9.9262 4.58345 10.0368 4.58333 10.1489V20.206C4.58333 20.3476 4.70156 20.4625 4.84722 20.4625H8.54167C8.61165 20.4625 8.67878 20.4355 8.72826 20.3874C8.77775 20.3393 8.80556 20.2741 8.80556 20.206V14.5634C8.80556 13.5714 9.63311 12.7681 10.6528 12.7681H14.3472C15.3669 12.7681 16.1944 13.5714 16.1944 14.5634V20.206C16.1944 20.3476 16.3127 20.4625 16.4583 20.4625H20.1528C20.2228 20.4625 20.2899 20.4355 20.3394 20.3874C20.3889 20.3393 20.4167 20.2741 20.4167 20.206V10.1499C20.4165 10.0379 20.3913 9.92723 20.3426 9.82569C20.2939 9.72415 20.223 9.63417 20.1348 9.56203L13.0098 3.72245Z" fill="#6A8967"/>
</svg>
