<svg width="24" height="24" viewBox="0 0 24 24" fill="none" xmlns="http://www.w3.org/2000/svg">
<path d="M20.7013 16.4944C20.145 15.5366 19.4816 13.7192 19.4816 10.5V9.83475C19.4816 5.68294 16.151 2.28056 12.057 2.25019L11.9998 2.25C10.0133 2.25258 8.10907 3.0442 6.70616 4.45072C5.30325 5.85723 4.51652 7.76344 4.51903 9.75V10.5C4.51903 13.719 3.85538 15.5363 3.29878 16.494C3.16584 16.7218 3.09531 16.9805 3.09428 17.2443C3.09325 17.508 3.16178 17.7673 3.29294 17.9961C3.42411 18.2249 3.61328 18.415 3.84138 18.5474C4.06947 18.6798 4.32844 18.7496 4.59216 18.75H8.25C8.25 19.7446 8.64509 20.6984 9.34835 21.4016C10.0516 22.1049 11.0054 22.5 12 22.5C12.9946 22.5 13.9484 22.1049 14.6517 21.4016C15.3549 20.6984 15.75 19.7446 15.75 18.75H19.4078C19.6715 18.7497 19.9305 18.6798 20.1585 18.5475C20.3866 18.4151 20.5758 18.225 20.7069 17.9963C20.8381 17.7675 20.9067 17.5083 20.9057 17.2446C20.9047 16.9809 20.8342 16.7221 20.7013 16.4944ZM12 21C11.4035 20.9993 10.8316 20.7621 10.4098 20.3403C9.98794 19.9184 9.75067 19.3465 9.75 18.75H14.25C14.2493 19.3465 14.0121 19.9184 13.5903 20.3403C13.1684 20.7621 12.5965 20.9993 12 21ZM4.59553 17.2478C5.24494 16.1306 6.01903 14.0531 6.01903 10.5V9.75C6.01655 8.1612 6.6453 6.63649 7.76698 5.51127C8.88866 4.38606 10.4114 3.75251 12.0002 3.75L12.0458 3.75019C15.3188 3.77447 17.9817 6.504 17.9817 9.83475V10.5C17.9817 14.0531 18.7554 16.1306 19.4078 17.25L4.59553 17.2478Z" fill="#0AA351"/>
</svg>
