<svg width="24" height="24" viewBox="0 0 24 24" fill="none" xmlns="http://www.w3.org/2000/svg">
<path d="M9.02848 7.67153C9.02848 7.95569 8.91559 8.22821 8.71466 8.42914C8.51373 8.63007 8.24121 8.74296 7.95705 8.74296C7.67289 8.74296 7.40037 8.63007 7.19943 8.42914C6.9985 8.22821 6.88562 7.95569 6.88562 7.67153C6.88562 7.38737 6.9985 7.11484 7.19943 6.91391C7.40037 6.71298 7.67289 6.6001 7.95705 6.6001C8.24121 6.6001 8.51373 6.71298 8.71466 6.91391C8.91559 7.11484 9.02848 7.38737 9.02848 7.67153Z" fill="#0AA351"/>
<path d="M7.95705 13.0287C8.24121 13.0287 8.51373 12.9158 8.71466 12.7149C8.91559 12.514 9.02848 12.2415 9.02848 11.9573C9.02848 11.6731 8.91559 11.4006 8.71466 11.1997C8.51373 10.9987 8.24121 10.8859 7.95705 10.8859C7.67289 10.8859 7.40037 10.9987 7.19943 11.1997C6.9985 11.4006 6.88562 11.6731 6.88562 11.9573C6.88562 12.2415 6.9985 12.514 7.19943 12.7149C7.40037 12.9158 7.67289 13.0287 7.95705 13.0287Z" fill="#0AA351"/>
<path d="M9.02848 16.2428C9.02848 16.527 8.91559 16.7995 8.71466 17.0004C8.51373 17.2014 8.24121 17.3142 7.95705 17.3142C7.67289 17.3142 7.40037 17.2014 7.19943 17.0004C6.9985 16.7995 6.88562 16.527 6.88562 16.2428C6.88562 15.9587 6.9985 15.6861 7.19943 15.4852C7.40037 15.2843 7.67289 15.1714 7.95705 15.1714C8.24121 15.1714 8.51373 15.2843 8.71466 15.4852C8.91559 15.6861 9.02848 15.9587 9.02848 16.2428Z" fill="#0AA351"/>
<path d="M11.8857 7.31445C11.6962 7.31445 11.5146 7.38971 11.3806 7.52366C11.2466 7.65762 11.1714 7.8393 11.1714 8.02874C11.1714 8.21818 11.2466 8.39986 11.3806 8.53382C11.5146 8.66777 11.6962 8.74303 11.8857 8.74303H17.6C17.7894 8.74303 17.9711 8.66777 18.105 8.53382C18.239 8.39986 18.3142 8.21818 18.3142 8.02874C18.3142 7.8393 18.239 7.65762 18.105 7.52366C17.9711 7.38971 17.7894 7.31445 17.6 7.31445H11.8857Z" fill="#0AA351"/>
<path d="M11.1714 12.3143C11.1714 12.1248 11.2466 11.9431 11.3806 11.8092C11.5146 11.6752 11.6962 11.6 11.8857 11.6H17.6C17.7894 11.6 17.9711 11.6752 18.105 11.8092C18.239 11.9431 18.3142 12.1248 18.3142 12.3143C18.3142 12.5037 18.239 12.6854 18.105 12.8193C17.9711 12.9533 17.7894 13.0285 17.6 13.0285H11.8857C11.6962 13.0285 11.5146 12.9533 11.3806 12.8193C11.2466 12.6854 11.1714 12.5037 11.1714 12.3143Z" fill="#0AA351"/>
<path d="M11.8857 15.8859C11.6962 15.8859 11.5146 15.9611 11.3806 16.0951C11.2466 16.229 11.1714 16.4107 11.1714 16.6001C11.1714 16.7896 11.2466 16.9713 11.3806 17.1052C11.5146 17.2392 11.6962 17.3144 11.8857 17.3144H17.6C17.7894 17.3144 17.9711 17.2392 18.105 17.1052C18.239 16.9713 18.3142 16.7896 18.3142 16.6001C18.3142 16.4107 18.239 16.229 18.105 16.0951C17.9711 15.9611 17.7894 15.8859 17.6 15.8859H11.8857Z" fill="#0AA351"/>
<path d="M2.59998 4.45724C2.59998 3.69948 2.901 2.97275 3.43681 2.43694C3.97263 1.90112 4.69936 1.6001 5.45712 1.6001H19.7428C20.5006 1.6001 21.2273 1.90112 21.7631 2.43694C22.299 2.97275 22.6 3.69948 22.6 4.45724V18.743C22.6 19.5007 22.299 20.2274 21.7631 20.7633C21.2273 21.2991 20.5006 21.6001 19.7428 21.6001H5.45712C4.69936 21.6001 3.97263 21.2991 3.43681 20.7633C2.901 20.2274 2.59998 19.5007 2.59998 18.743V4.45724ZM5.45712 3.02867C5.07824 3.02867 4.71488 3.17918 4.44697 3.44709C4.17906 3.715 4.02855 4.07836 4.02855 4.45724V18.743C4.02855 19.1218 4.17906 19.4852 4.44697 19.7531C4.71488 20.021 5.07824 20.1715 5.45712 20.1715H19.7428C20.1217 20.1715 20.4851 20.021 20.753 19.7531C21.0209 19.4852 21.1714 19.1218 21.1714 18.743V4.45724C21.1714 4.07836 21.0209 3.715 20.753 3.44709C20.4851 3.17918 20.1217 3.02867 19.7428 3.02867H5.45712Z" fill="#0AA351"/>
</svg>
