<svg width="24" height="24" viewBox="0 0 21 21" fill="none" xmlns="http://www.w3.org/2000/svg">
<path d="M7.02848 6.67153C7.02848 6.95569 6.91559 7.22821 6.71466 7.42914C6.51373 7.63007 6.24121 7.74296 5.95705 7.74296C5.67289 7.74296 5.40037 7.63007 5.19943 7.42914C4.9985 7.22821 4.88562 6.95569 4.88562 6.67153C4.88562 6.38737 4.9985 6.11484 5.19943 5.91391C5.40037 5.71298 5.67289 5.6001 5.95705 5.6001C6.24121 5.6001 6.51373 5.71298 6.71466 5.91391C6.91559 6.11484 7.02848 6.38737 7.02848 6.67153Z" fill="#6A8967"/>
<path d="M5.95705 12.0287C6.24121 12.0287 6.51373 11.9158 6.71466 11.7149C6.91559 11.514 7.02848 11.2415 7.02848 10.9573C7.02848 10.6731 6.91559 10.4006 6.71466 10.1997C6.51373 9.99875 6.24121 9.88586 5.95705 9.88586C5.67289 9.88586 5.40037 9.99875 5.19943 10.1997C4.9985 10.4006 4.88562 10.6731 4.88562 10.9573C4.88562 11.2415 4.9985 11.514 5.19943 11.7149C5.40037 11.9158 5.67289 12.0287 5.95705 12.0287Z" fill="#6A8967"/>
<path d="M7.02848 15.2428C7.02848 15.527 6.91559 15.7995 6.71466 16.0004C6.51373 16.2014 6.24121 16.3142 5.95705 16.3142C5.67289 16.3142 5.40037 16.2014 5.19943 16.0004C4.9985 15.7995 4.88562 15.527 4.88562 15.2428C4.88562 14.9587 4.9985 14.6861 5.19943 14.4852C5.40037 14.2843 5.67289 14.1714 5.95705 14.1714C6.24121 14.1714 6.51373 14.2843 6.71466 14.4852C6.91559 14.6861 7.02848 14.9587 7.02848 15.2428V15.2428Z" fill="#6A8967"/>
<path d="M9.88567 6.31445C9.69623 6.31445 9.51455 6.38971 9.3806 6.52366C9.24664 6.65762 9.17139 6.8393 9.17139 7.02874C9.17139 7.21818 9.24664 7.39986 9.3806 7.53382C9.51455 7.66777 9.69623 7.74303 9.88567 7.74303H15.6C15.7894 7.74303 15.9711 7.66777 16.105 7.53382C16.239 7.39986 16.3142 7.21818 16.3142 7.02874C16.3142 6.8393 16.239 6.65762 16.105 6.52366C15.9711 6.38971 15.7894 6.31445 15.6 6.31445H9.88567Z" fill="#6A8967"/>
<path d="M9.17139 11.3143C9.17139 11.1248 9.24664 10.9431 9.3806 10.8092C9.51455 10.6752 9.69623 10.6 9.88567 10.6H15.6C15.7894 10.6 15.9711 10.6752 16.105 10.8092C16.239 10.9431 16.3142 11.1248 16.3142 11.3143C16.3142 11.5037 16.239 11.6854 16.105 11.8193C15.9711 11.9533 15.7894 12.0285 15.6 12.0285H9.88567C9.69623 12.0285 9.51455 11.9533 9.3806 11.8193C9.24664 11.6854 9.17139 11.5037 9.17139 11.3143Z" fill="#6A8967"/>
<path d="M9.88567 14.8859C9.69623 14.8859 9.51455 14.9611 9.3806 15.0951C9.24664 15.229 9.17139 15.4107 9.17139 15.6001C9.17139 15.7896 9.24664 15.9713 9.3806 16.1052C9.51455 16.2392 9.69623 16.3144 9.88567 16.3144H15.6C15.7894 16.3144 15.9711 16.2392 16.105 16.1052C16.239 15.9713 16.3142 15.7896 16.3142 15.6001C16.3142 15.4107 16.239 15.229 16.105 15.0951C15.9711 14.9611 15.7894 14.8859 15.6 14.8859H9.88567Z" fill="#6A8967"/>
<path d="M0.599976 3.45724C0.599976 2.69948 0.900995 1.97275 1.43681 1.43694C1.97263 0.901117 2.69936 0.600098 3.45712 0.600098H17.7428C18.5006 0.600098 19.2273 0.901117 19.7631 1.43694C20.299 1.97275 20.6 2.69948 20.6 3.45724V17.743C20.6 18.5007 20.299 19.2274 19.7631 19.7633C19.2273 20.2991 18.5006 20.6001 17.7428 20.6001H3.45712C2.69936 20.6001 1.97263 20.2991 1.43681 19.7633C0.900995 19.2274 0.599976 18.5007 0.599976 17.743V3.45724ZM3.45712 2.02867C3.07824 2.02867 2.71488 2.17918 2.44697 2.44709C2.17906 2.715 2.02855 3.07836 2.02855 3.45724V17.743C2.02855 18.1218 2.17906 18.4852 2.44697 18.7531C2.71488 19.021 3.07824 19.1715 3.45712 19.1715H17.7428C18.1217 19.1715 18.4851 19.021 18.753 18.7531C19.0209 18.4852 19.1714 18.1218 19.1714 17.743V3.45724C19.1714 3.07836 19.0209 2.715 18.753 2.44709C18.4851 2.17918 18.1217 2.02867 17.7428 2.02867H3.45712Z" fill="#6A8967"/>
</svg>
