<svg
  width="16"
  height="16"
  viewBox="0 0 16 16"
  fill="none"
  xmlns="http://www.w3.org/2000/svg"
>
  <path
    d="M11 2C9.84004 2 8.72671 2.54 8.00004 3.39333C7.27337 2.54 6.16004 2 5.00004 2C2.94671 2 1.33337 3.61333 1.33337 5.66667C1.33337 8.18667 3.60004 10.24 7.03337 13.36L8.00004 14.2333L8.96671 13.3533C12.4 10.24 14.6667 8.18667 14.6667 5.66667C14.6667 3.61333 13.0534 2 11 2ZM8.06671 12.3667L8.00004 12.4333L7.93337 12.3667C4.76004 9.49333 2.66671 7.59333 2.66671 5.66667C2.66671 4.33333 3.66671 3.33333 5.00004 3.33333C6.02671 3.33333 7.02671 3.99333 7.38004 4.90667H8.62671C8.97337 3.99333 9.97337 3.33333 11 3.33333C12.3334 3.33333 13.3334 4.33333 13.3334 5.66667C13.3334 7.59333 11.24 9.49333 8.06671 12.3667Z"
    fill="#BDBDBD"
  />
</svg>
