<svg
  width="18"
  height="18"
  viewBox="0 0 18 18"
  fill="none"
  xmlns="http://www.w3.org/2000/svg"
>
  <path
    d="M15.1875 9.42742V8.99992V8.5668L16.2675 7.6218C16.4666 7.44633 16.5972 7.20613 16.6364 6.94365C16.6755 6.68117 16.6205 6.41332 16.4813 6.18742L15.1538 3.93742C15.0551 3.76657 14.9133 3.62466 14.7425 3.52593C14.5717 3.4272 14.3779 3.37513 14.1806 3.37492C14.0584 3.37399 13.9368 3.39299 13.8206 3.43117L12.4538 3.89242C12.2178 3.7356 11.9716 3.59467 11.7169 3.47055L11.43 2.05305C11.3786 1.79408 11.2377 1.56145 11.032 1.39588C10.8264 1.23032 10.569 1.14236 10.305 1.14742H7.67252C7.40854 1.14236 7.15119 1.23032 6.94551 1.39588C6.73984 1.56145 6.59896 1.79408 6.54752 2.05305L6.26064 3.47055C6.00411 3.59464 5.75607 3.73557 5.51815 3.89242L4.17939 3.40867C4.062 3.37809 3.94043 3.36669 3.8194 3.37492C3.62211 3.37513 3.42835 3.4272 3.25755 3.52593C3.08675 3.62466 2.94491 3.76657 2.84627 3.93742L1.51877 6.18742C1.38748 6.41298 1.33869 6.67717 1.38076 6.93474C1.42283 7.19231 1.55315 7.42724 1.74939 7.5993L2.81252 8.57242V9.43305L1.74939 10.378C1.54761 10.5513 1.41373 10.7904 1.37151 11.053C1.32929 11.3156 1.38146 11.5847 1.51877 11.8124L2.84627 14.0624C2.94491 14.2333 3.08675 14.3752 3.25755 14.4739C3.42835 14.5726 3.62211 14.6247 3.8194 14.6249C3.94165 14.6259 4.06325 14.6069 4.17939 14.5687L5.54627 14.1074C5.78226 14.2642 6.02843 14.4052 6.28314 14.5293L6.57002 15.9468C6.62146 16.2058 6.76234 16.4384 6.96801 16.604C7.17369 16.7695 7.43104 16.8575 7.69502 16.8524H10.35C10.614 16.8575 10.8714 16.7695 11.077 16.604C11.2827 16.4384 11.4236 16.2058 11.475 15.9468L11.7619 14.5293C12.0184 14.4052 12.2665 14.2643 12.5044 14.1074L13.8656 14.5687C13.9818 14.6069 14.1034 14.6259 14.2256 14.6249C14.4229 14.6247 14.6167 14.5726 14.7875 14.4739C14.9583 14.3752 15.1001 14.2333 15.1988 14.0624L16.4813 11.8124C16.6126 11.5869 16.6614 11.3227 16.6193 11.0651C16.5772 10.8075 16.4469 10.5726 16.2506 10.4005L15.1875 9.42742ZM14.1806 13.4999L12.2513 12.8474C11.7996 13.23 11.2834 13.529 10.7269 13.7305L10.3275 15.7499H7.67252L7.27315 13.753C6.72101 13.5458 6.20761 13.2473 5.7544 12.8699L3.8194 13.4999L2.49189 11.2499L4.0219 9.89992C3.91789 9.31766 3.91789 8.72157 4.0219 8.1393L2.49189 6.74992L3.8194 4.49992L5.74877 5.15242C6.20042 4.76986 6.71661 4.47082 7.27315 4.2693L7.67252 2.24992H10.3275L10.7269 4.2468C11.279 4.45404 11.7924 4.75257 12.2456 5.12992L14.1806 4.49992L15.5081 6.74992L13.9781 8.09992C14.0822 8.68219 14.0822 9.27828 13.9781 9.86055L15.5081 11.2499L14.1806 13.4999Z"
    fill="white"
  />
  <path
    d="M9 12.375C8.33249 12.375 7.67997 12.1771 7.12495 11.8062C6.56994 11.4354 6.13735 10.9083 5.88191 10.2916C5.62646 9.67486 5.55963 8.99626 5.68985 8.34157C5.82008 7.68689 6.14151 7.08552 6.61352 6.61352C7.08552 6.14151 7.68689 5.82008 8.34157 5.68985C8.99626 5.55963 9.67486 5.62646 10.2916 5.88191C10.9083 6.13735 11.4354 6.56994 11.8062 7.12495C12.1771 7.67997 12.375 8.33249 12.375 9C12.3795 9.44447 12.2953 9.88537 12.1273 10.2969C11.9593 10.7084 11.7108 11.0822 11.3965 11.3965C11.0822 11.7108 10.7084 11.9593 10.2969 12.1273C9.88537 12.2953 9.44447 12.3795 9 12.375ZM9 6.75C8.70263 6.74307 8.40695 6.79654 8.13084 6.90716C7.85472 7.01778 7.60391 7.18326 7.39359 7.39359C7.18326 7.60391 7.01778 7.85472 6.90716 8.13084C6.79654 8.40695 6.74307 8.70263 6.75 9C6.74307 9.29737 6.79654 9.59305 6.90716 9.86917C7.01778 10.1453 7.18326 10.3961 7.39359 10.6064C7.60391 10.8167 7.85472 10.9822 8.13084 11.0928C8.40695 11.2035 8.70263 11.2569 9 11.25C9.29737 11.2569 9.59305 11.2035 9.86917 11.0928C10.1453 10.9822 10.3961 10.8167 10.6064 10.6064C10.8167 10.3961 10.9822 10.1453 11.0928 9.86917C11.2035 9.59305 11.2569 9.29737 11.25 9C11.2569 8.70263 11.2035 8.40695 11.0928 8.13084C10.9822 7.85472 10.8167 7.60391 10.6064 7.39359C10.3961 7.18326 10.1453 7.01778 9.86917 6.90716C9.59305 6.79654 9.29737 6.74307 9 6.75Z"
    fill="white"
  />
</svg>
