<svg
  width="16"
  height="16"
  viewBox="0 0 16 16"
  fill="none"
  xmlns="http://www.w3.org/2000/svg"
>
  <path
    d="M12.76 8.62676C12.7867 8.42676 12.8 8.2201 12.8 8.0001C12.8 7.78676 12.7867 7.57343 12.7533 7.37343L14.1067 6.3201C14.2267 6.22676 14.26 6.04676 14.1867 5.91343L12.9067 3.7001C12.8267 3.55343 12.66 3.50676 12.5133 3.55343L10.92 4.19343C10.5867 3.9401 10.2333 3.72676 9.83999 3.56676L9.59999 1.87343C9.57333 1.71343 9.43999 1.6001 9.27999 1.6001H6.71999C6.55999 1.6001 6.43332 1.71343 6.40666 1.87343L6.16666 3.56676C5.77333 3.72676 5.41333 3.94676 5.08666 4.19343L3.49332 3.55343C3.34666 3.5001 3.17999 3.55343 3.09999 3.7001L1.82666 5.91343C1.74666 6.05343 1.77333 6.22676 1.90666 6.3201L3.25999 7.37343C3.22666 7.57343 3.19999 7.79343 3.19999 8.0001C3.19999 8.20676 3.21333 8.42676 3.24666 8.62676L1.89333 9.6801C1.77333 9.77343 1.73999 9.95343 1.81333 10.0868L3.09333 12.3001C3.17333 12.4468 3.33999 12.4934 3.48666 12.4468L5.07999 11.8068C5.41333 12.0601 5.76666 12.2734 6.15999 12.4334L6.39999 14.1268C6.43333 14.2868 6.55999 14.4001 6.71999 14.4001H9.27999C9.43999 14.4001 9.57333 14.2868 9.59333 14.1268L9.83333 12.4334C10.2267 12.2734 10.5867 12.0601 10.9133 11.8068L12.5067 12.4468C12.6533 12.5001 12.82 12.4468 12.9 12.3001L14.18 10.0868C14.26 9.9401 14.2267 9.77343 14.1 9.6801L12.76 8.62676ZM7.99999 10.4001C6.67999 10.4001 5.59999 9.3201 5.59999 8.0001C5.59999 6.6801 6.67999 5.6001 7.99999 5.6001C9.31999 5.6001 10.4 6.6801 10.4 8.0001C10.4 9.3201 9.31999 10.4001 7.99999 10.4001Z"
    fill="white"
  />
</svg>
